%TF.GenerationSoftware,KiCad,Pcbnew,10.0.4*%
%TF.CreationDate,2026-10-01T20:15:12+02:00*%
%TF.ProjectId,EyeNode,4579654e-6f64-4652-9e6b-696361645f70,rev?*%
%TF.SameCoordinates,Original*%
%TF.FileFunction,Soldermask,Bot*%
%TF.FilePolarity,Negative*%
%FSLAX46Y46*%
G04 Gerber Fmt 4.6, Leading zero omitted, Abs format (unit mm)*
G04 Created by KiCad (PCBNEW 10.0.4) date 2026-10-01 20:15:12*
%MOMM*%
%LPD*%
G01*
G04 APERTURE LIST*
G04 Aperture macros list*
%AMRoundRect*
0 Rectangle with rounded corners*
0 $1 Rounding radius*
0 $2 $3 $4 $5 $6 $7 $8 $9 X,Y pos of 4 corners*
0 Add a 4 corners polygon primitive as box body*
4,1,4,$2,$3,$4,$5,$6,$7,$8,$9,$2,$3,0*
0 Add four circle primitives for the rounded corners*
1,1,$1+$1,$2,$3*
1,1,$1+$1,$4,$5*
1,1,$1+$1,$6,$7*
1,1,$1+$1,$8,$9*
0 Add four rect primitives between the rounded corners*
20,1,$1+$1,$2,$3,$4,$5,0*
20,1,$1+$1,$4,$5,$6,$7,0*
20,1,$1+$1,$6,$7,$8,$9,0*
20,1,$1+$1,$8,$9,$2,$3,0*%
G04 Aperture macros list end*
%ADD10C,3.200000*%
%ADD11R,1.700000X1.700000*%
%ADD12C,1.700000*%
%ADD13R,1.500000X2.300000*%
%ADD14O,1.500000X2.300000*%
%ADD15RoundRect,0.250000X-1.050000X1.050000X-1.050000X-1.050000X1.050000X-1.050000X1.050000X1.050000X0*%
%ADD16C,2.600000*%
%ADD17R,1.600000X1.600000*%
%ADD18O,1.600000X1.600000*%
%ADD19RoundRect,0.250000X-0.550000X-0.550000X0.550000X-0.550000X0.550000X0.550000X-0.550000X0.550000X0*%
%ADD20C,1.600000*%
%ADD21RoundRect,0.250000X-0.750000X-0.750000X0.750000X-0.750000X0.750000X0.750000X-0.750000X0.750000X0*%
%ADD22C,2.000000*%
%ADD23RoundRect,0.250000X-1.050000X-1.050000X1.050000X-1.050000X1.050000X1.050000X-1.050000X1.050000X0*%
%ADD24C,2.780000*%
G04 APERTURE END LIST*
D10*
%TO.C,H4*%
X106500000Y-86500000D03*
%TD*%
D11*
%TO.C,J5*%
X104000000Y-24000000D03*
D12*
X101460000Y-24000000D03*
X98920000Y-24000000D03*
%TD*%
D13*
%TO.C,U1*%
X33000000Y-9500000D03*
D14*
X35540000Y-9500000D03*
X38080000Y-9500000D03*
%TD*%
D15*
%TO.C,J2*%
X5500000Y-55000000D03*
D16*
X5500000Y-60080000D03*
%TD*%
D10*
%TO.C,H3*%
X3500000Y-86500000D03*
%TD*%
D11*
%TO.C,J6*%
X104000000Y-35000000D03*
D12*
X101460000Y-35000000D03*
X98920000Y-35000000D03*
%TD*%
D17*
%TO.C,A1*%
X35000000Y-40000000D03*
D18*
X37540000Y-40000000D03*
X40080000Y-40000000D03*
X42620000Y-40000000D03*
X45160000Y-40000000D03*
X47700000Y-40000000D03*
X50240000Y-40000000D03*
X52780000Y-40000000D03*
X55320000Y-40000000D03*
X57860000Y-40000000D03*
X60400000Y-40000000D03*
X62940000Y-40000000D03*
X65480000Y-40000000D03*
X68020000Y-40000000D03*
X70560000Y-40000000D03*
X70560000Y-24760000D03*
X68020000Y-24760000D03*
X65480000Y-24760000D03*
X62940000Y-24760000D03*
X60400000Y-24760000D03*
X57860000Y-24760000D03*
X55320000Y-24760000D03*
X52780000Y-24760000D03*
X50240000Y-24760000D03*
X47700000Y-24760000D03*
X45160000Y-24760000D03*
X42620000Y-24760000D03*
X40080000Y-24760000D03*
X37540000Y-24760000D03*
X35000000Y-24760000D03*
%TD*%
D11*
%TO.C,J7*%
X104000000Y-42000000D03*
D12*
X101460000Y-42000000D03*
X98920000Y-42000000D03*
%TD*%
D19*
%TO.C,SW1*%
X10000000Y-70000000D03*
D20*
X10000000Y-72540000D03*
X10000000Y-75080000D03*
X10000000Y-77620000D03*
X17620000Y-77620000D03*
X17620000Y-75080000D03*
X17620000Y-72540000D03*
X17620000Y-70000000D03*
%TD*%
D21*
%TO.C,C1*%
X45000000Y-60000000D03*
D22*
X50000000Y-60000000D03*
%TD*%
D10*
%TO.C,H1*%
X3500000Y-3500000D03*
%TD*%
D23*
%TO.C,J10*%
X75000000Y-84000000D03*
D16*
X80080000Y-84000000D03*
X85160000Y-84000000D03*
%TD*%
D15*
%TO.C,J1*%
X5500000Y-12000000D03*
D16*
X5500000Y-17080000D03*
%TD*%
D11*
%TO.C,JP1*%
X55000000Y-71500000D03*
D12*
X55000000Y-74040000D03*
%TD*%
D10*
%TO.C,H2*%
X106500000Y-3500000D03*
%TD*%
D11*
%TO.C,J8*%
X104000000Y-49000000D03*
D12*
X101460000Y-49000000D03*
X98920000Y-49000000D03*
%TD*%
D11*
%TO.C,J3*%
X104000000Y-10000000D03*
D12*
X101460000Y-10000000D03*
X98920000Y-10000000D03*
%TD*%
D11*
%TO.C,J4*%
X104000000Y-17000000D03*
D12*
X101460000Y-17000000D03*
X98920000Y-17000000D03*
%TD*%
D23*
%TO.C,J9*%
X58000000Y-84000000D03*
D16*
X63080000Y-84000000D03*
X68160000Y-84000000D03*
%TD*%
D21*
%TO.C,C2*%
X60000000Y-60000000D03*
D22*
X65000000Y-60000000D03*
%TD*%
D24*
%TO.C,F2*%
X16000000Y-55000000D03*
X16000000Y-58400000D03*
X25920000Y-55000000D03*
X25920000Y-58400000D03*
%TD*%
D11*
%TO.C,J11*%
X24000000Y-86000000D03*
D12*
X26540000Y-86000000D03*
X29080000Y-86000000D03*
X31620000Y-86000000D03*
X34160000Y-86000000D03*
%TD*%
M02*
