%TF.GenerationSoftware,KiCad,Pcbnew,10.0.4*%
%TF.CreationDate,2026-10-01T21:16:53+02:00*%
%TF.ProjectId,EyeNode,4579654e-6f64-4652-9e6b-696361645f70,rev?*%
%TF.SameCoordinates,Original*%
%TF.FileFunction,Copper,L1,Top*%
%TF.FilePolarity,Positive*%
%FSLAX46Y46*%
G04 Gerber Fmt 4.6, Leading zero omitted, Abs format (unit mm)*
G04 Created by KiCad (PCBNEW 10.0.4) date 2026-10-01 21:16:53*
%MOMM*%
%LPD*%
G01*
G04 APERTURE LIST*
G04 Aperture macros list*
%AMRoundRect*
0 Rectangle with rounded corners*
0 $1 Rounding radius*
0 $2 $3 $4 $5 $6 $7 $8 $9 X,Y pos of 4 corners*
0 Add a 4 corners polygon primitive as box body*
4,1,4,$2,$3,$4,$5,$6,$7,$8,$9,$2,$3,0*
0 Add four circle primitives for the rounded corners*
1,1,$1+$1,$2,$3*
1,1,$1+$1,$4,$5*
1,1,$1+$1,$6,$7*
1,1,$1+$1,$8,$9*
0 Add four rect primitives between the rounded corners*
20,1,$1+$1,$2,$3,$4,$5,0*
20,1,$1+$1,$4,$5,$6,$7,0*
20,1,$1+$1,$6,$7,$8,$9,0*
20,1,$1+$1,$8,$9,$2,$3,0*%
G04 Aperture macros list end*
%TA.AperFunction,SMDPad,CuDef*%
%ADD10RoundRect,0.250000X-0.312500X-0.625000X0.312500X-0.625000X0.312500X0.625000X-0.312500X0.625000X0*%
%TD*%
%TA.AperFunction,ComponentPad*%
%ADD11R,1.700000X1.700000*%
%TD*%
%TA.AperFunction,ComponentPad*%
%ADD12C,1.700000*%
%TD*%
%TA.AperFunction,SMDPad,CuDef*%
%ADD13RoundRect,0.250000X1.000000X0.650000X-1.000000X0.650000X-1.000000X-0.650000X1.000000X-0.650000X0*%
%TD*%
%TA.AperFunction,ComponentPad*%
%ADD14RoundRect,0.250000X-0.750000X-0.750000X0.750000X-0.750000X0.750000X0.750000X-0.750000X0.750000X0*%
%TD*%
%TA.AperFunction,ComponentPad*%
%ADD15C,2.000000*%
%TD*%
%TA.AperFunction,SMDPad,CuDef*%
%ADD16RoundRect,0.250000X-0.312500X-1.450000X0.312500X-1.450000X0.312500X1.450000X-0.312500X1.450000X0*%
%TD*%
%TA.AperFunction,SMDPad,CuDef*%
%ADD17RoundRect,0.250000X0.650000X-0.325000X0.650000X0.325000X-0.650000X0.325000X-0.650000X-0.325000X0*%
%TD*%
%TA.AperFunction,SMDPad,CuDef*%
%ADD18RoundRect,0.250000X1.000000X-1.400000X1.000000X1.400000X-1.000000X1.400000X-1.000000X-1.400000X0*%
%TD*%
%TA.AperFunction,ComponentPad*%
%ADD19RoundRect,0.250000X-0.550000X-0.550000X0.550000X-0.550000X0.550000X0.550000X-0.550000X0.550000X0*%
%TD*%
%TA.AperFunction,ComponentPad*%
%ADD20C,1.600000*%
%TD*%
%TA.AperFunction,ComponentPad*%
%ADD21C,2.780000*%
%TD*%
%TA.AperFunction,ComponentPad*%
%ADD22RoundRect,0.250000X-1.050000X1.050000X-1.050000X-1.050000X1.050000X-1.050000X1.050000X1.050000X0*%
%TD*%
%TA.AperFunction,ComponentPad*%
%ADD23C,2.600000*%
%TD*%
%TA.AperFunction,SMDPad,CuDef*%
%ADD24RoundRect,0.250000X-0.325000X-0.650000X0.325000X-0.650000X0.325000X0.650000X-0.325000X0.650000X0*%
%TD*%
%TA.AperFunction,SMDPad,CuDef*%
%ADD25RoundRect,0.250000X0.375000X0.625000X-0.375000X0.625000X-0.375000X-0.625000X0.375000X-0.625000X0*%
%TD*%
%TA.AperFunction,SMDPad,CuDef*%
%ADD26RoundRect,0.250000X0.625000X-0.312500X0.625000X0.312500X-0.625000X0.312500X-0.625000X-0.312500X0*%
%TD*%
%TA.AperFunction,ComponentPad*%
%ADD27R,1.500000X2.300000*%
%TD*%
%TA.AperFunction,ComponentPad*%
%ADD28O,1.500000X2.300000*%
%TD*%
%TA.AperFunction,ComponentPad*%
%ADD29R,1.600000X1.600000*%
%TD*%
%TA.AperFunction,ComponentPad*%
%ADD30O,1.600000X1.600000*%
%TD*%
%TA.AperFunction,ViaPad*%
%ADD31C,0.600000*%
%TD*%
%TA.AperFunction,Conductor*%
%ADD32C,0.200000*%
%TD*%
G04 APERTURE END LIST*
D10*
%TO.P,R13,1*%
%TO.N,/LED_STAT_D*%
X79537500Y-45000000D03*
%TO.P,R13,2*%
%TO.N,/LED_STAT*%
X82462500Y-45000000D03*
%TD*%
D11*
%TO.P,J7,1*%
%TO.N,/GND*%
X104000000Y-42000000D03*
D12*
%TO.P,J7,2*%
%TO.N,/VSERVO*%
X101460000Y-42000000D03*
%TO.P,J7,3*%
%TO.N,/SIG_B_UD*%
X98920000Y-42000000D03*
%TD*%
D13*
%TO.P,D1,1*%
%TO.N,/VLOGIC*%
X27000000Y-6000000D03*
%TO.P,D1,2*%
%TO.N,/VIN_F*%
X23000000Y-6000000D03*
%TD*%
D14*
%TO.P,C2,1*%
%TO.N,/VSERVO*%
X60000000Y-60000000D03*
D15*
%TO.P,C2,2*%
%TO.N,/GND*%
X65000000Y-60000000D03*
%TD*%
D11*
%TO.P,J5,1*%
%TO.N,/GND*%
X104000000Y-24000000D03*
D12*
%TO.P,J5,2*%
%TO.N,/VSERVO*%
X101460000Y-24000000D03*
%TO.P,J5,3*%
%TO.N,/SIG_A_LID*%
X98920000Y-24000000D03*
%TD*%
D10*
%TO.P,R3,1*%
%TO.N,/PWM_A_LID*%
X89537500Y-24000000D03*
%TO.P,R3,2*%
%TO.N,/SIG_A_LID*%
X92462500Y-24000000D03*
%TD*%
D16*
%TO.P,F1,1*%
%TO.N,/VIN_RAW*%
X14862500Y-6000000D03*
%TO.P,F1,2*%
%TO.N,/VIN_F*%
X19137500Y-6000000D03*
%TD*%
D11*
%TO.P,J11,1*%
%TO.N,/+5V*%
X24000000Y-86000000D03*
D12*
%TO.P,J11,2*%
%TO.N,/AUX_SDA*%
X26540000Y-86000000D03*
%TO.P,J11,3*%
%TO.N,/AUX_SCL*%
X29080000Y-86000000D03*
%TO.P,J11,4*%
%TO.N,/AUX_A6*%
X31620000Y-86000000D03*
%TO.P,J11,5*%
%TO.N,/GND*%
X34160000Y-86000000D03*
%TD*%
D17*
%TO.P,C3,1*%
%TO.N,/VSENSE*%
X83000000Y-62475000D03*
%TO.P,C3,2*%
%TO.N,/GND*%
X83000000Y-59525000D03*
%TD*%
D11*
%TO.P,J8,1*%
%TO.N,/GND*%
X104000000Y-49000000D03*
D12*
%TO.P,J8,2*%
%TO.N,/VSERVO*%
X101460000Y-49000000D03*
%TO.P,J8,3*%
%TO.N,/SIG_B_LID*%
X98920000Y-49000000D03*
%TD*%
D10*
%TO.P,R2,1*%
%TO.N,/PWM_A_UD*%
X89537500Y-17000000D03*
%TO.P,R2,2*%
%TO.N,/SIG_A_UD*%
X92462500Y-17000000D03*
%TD*%
%TO.P,R10,1*%
%TO.N,/VSERVO*%
X70537500Y-57000000D03*
%TO.P,R10,2*%
%TO.N,/LED_PWR*%
X73462500Y-57000000D03*
%TD*%
D18*
%TO.P,D2,1*%
%TO.N,/VSERVO*%
X31600000Y-64000000D03*
%TO.P,D2,2*%
%TO.N,/GND*%
X38400000Y-64000000D03*
%TD*%
D19*
%TO.P,SW1,1*%
%TO.N,/ADDR0*%
X10000000Y-70000000D03*
D20*
%TO.P,SW1,2*%
%TO.N,/ADDR1*%
X10000000Y-72540000D03*
%TO.P,SW1,3*%
%TO.N,/ADDR2*%
X10000000Y-75080000D03*
%TO.P,SW1,4*%
%TO.N,/ADDR3*%
X10000000Y-77620000D03*
%TO.P,SW1,5*%
%TO.N,/GND*%
X17620000Y-77620000D03*
%TO.P,SW1,6*%
X17620000Y-75080000D03*
%TO.P,SW1,7*%
X17620000Y-72540000D03*
%TO.P,SW1,8*%
X17620000Y-70000000D03*
%TD*%
D21*
%TO.P,F2,1*%
%TO.N,/VSERVO_IN*%
X16000000Y-55000000D03*
X16000000Y-58400000D03*
%TO.P,F2,2*%
%TO.N,/VSERVO*%
X25920000Y-55000000D03*
X25920000Y-58400000D03*
%TD*%
D11*
%TO.P,J3,1*%
%TO.N,/GND*%
X104000000Y-10000000D03*
D12*
%TO.P,J3,2*%
%TO.N,/VSERVO*%
X101460000Y-10000000D03*
%TO.P,J3,3*%
%TO.N,/SIG_A_LR*%
X98920000Y-10000000D03*
%TD*%
D22*
%TO.P,J1,1*%
%TO.N,/VIN_RAW*%
X5500000Y-12000000D03*
D23*
%TO.P,J1,2*%
%TO.N,/GND*%
X5500000Y-17080000D03*
%TD*%
D24*
%TO.P,C5,1*%
%TO.N,/+5V*%
X41525000Y-15000000D03*
%TO.P,C5,2*%
%TO.N,/GND*%
X44475000Y-15000000D03*
%TD*%
D25*
%TO.P,D4,1*%
%TO.N,/GND*%
X87400000Y-45000000D03*
%TO.P,D4,2*%
%TO.N,/LED_STAT*%
X84600000Y-45000000D03*
%TD*%
D26*
%TO.P,R12,1*%
%TO.N,/VSENSE*%
X79000000Y-62462500D03*
%TO.P,R12,2*%
%TO.N,/GND*%
X79000000Y-59537500D03*
%TD*%
D14*
%TO.P,C1,1*%
%TO.N,/VSERVO*%
X45000000Y-60000000D03*
D15*
%TO.P,C1,2*%
%TO.N,/GND*%
X50000000Y-60000000D03*
%TD*%
D26*
%TO.P,R11,1*%
%TO.N,/VSERVO*%
X79000000Y-56462500D03*
%TO.P,R11,2*%
%TO.N,/VSENSE*%
X79000000Y-53537500D03*
%TD*%
D10*
%TO.P,R4,1*%
%TO.N,/PWM_B_LR*%
X89537500Y-35000000D03*
%TO.P,R4,2*%
%TO.N,/SIG_B_LR*%
X92462500Y-35000000D03*
%TD*%
D27*
%TO.P,U1,1*%
%TO.N,/VLOGIC*%
X33000000Y-9500000D03*
D28*
%TO.P,U1,2*%
%TO.N,/GND*%
X35540000Y-9500000D03*
%TO.P,U1,3*%
%TO.N,/+5V*%
X38080000Y-9500000D03*
%TD*%
D10*
%TO.P,R5,1*%
%TO.N,/PWM_B_UD*%
X89537500Y-42000000D03*
%TO.P,R5,2*%
%TO.N,/SIG_B_UD*%
X92462500Y-42000000D03*
%TD*%
D25*
%TO.P,D3,1*%
%TO.N,/GND*%
X73400000Y-61000000D03*
%TO.P,D3,2*%
%TO.N,/LED_PWR*%
X70600000Y-61000000D03*
%TD*%
D24*
%TO.P,C4,1*%
%TO.N,/VLOGIC*%
X29525000Y-15000000D03*
%TO.P,C4,2*%
%TO.N,/GND*%
X32475000Y-15000000D03*
%TD*%
D22*
%TO.P,J2,1*%
%TO.N,/VSERVO_IN*%
X5500000Y-55000000D03*
D23*
%TO.P,J2,2*%
%TO.N,/GND*%
X5500000Y-60080000D03*
%TD*%
D10*
%TO.P,R1,1*%
%TO.N,/PWM_A_LR*%
X89537500Y-10000000D03*
%TO.P,R1,2*%
%TO.N,/SIG_A_LR*%
X92462500Y-10000000D03*
%TD*%
%TO.P,R6,1*%
%TO.N,/PWM_B_LID*%
X89537500Y-49000000D03*
%TO.P,R6,2*%
%TO.N,/SIG_B_LID*%
X92462500Y-49000000D03*
%TD*%
D11*
%TO.P,J6,1*%
%TO.N,/GND*%
X104000000Y-35000000D03*
D12*
%TO.P,J6,2*%
%TO.N,/VSERVO*%
X101460000Y-35000000D03*
%TO.P,J6,3*%
%TO.N,/SIG_B_LR*%
X98920000Y-35000000D03*
%TD*%
D11*
%TO.P,J4,1*%
%TO.N,/GND*%
X104000000Y-17000000D03*
D12*
%TO.P,J4,2*%
%TO.N,/VSERVO*%
X101460000Y-17000000D03*
%TO.P,J4,3*%
%TO.N,/SIG_A_UD*%
X98920000Y-17000000D03*
%TD*%
D29*
%TO.P,A1,1*%
%TO.N,unconnected-(A1-D1{slash}TX-Pad1)*%
X35000000Y-40000000D03*
D30*
%TO.P,A1,2*%
%TO.N,unconnected-(A1-D0{slash}RX-Pad2)*%
X37540000Y-40000000D03*
%TO.P,A1,3*%
%TO.N,unconnected-(A1-~{RESET}-Pad3)*%
X40080000Y-40000000D03*
%TO.P,A1,4*%
%TO.N,/GND*%
X42620000Y-40000000D03*
%TO.P,A1,5*%
%TO.N,unconnected-(A1-D2-Pad5)*%
X45160000Y-40000000D03*
%TO.P,A1,6*%
%TO.N,/PWM_A_LR*%
X47700000Y-40000000D03*
%TO.P,A1,7*%
%TO.N,unconnected-(A1-D4-Pad7)*%
X50240000Y-40000000D03*
%TO.P,A1,8*%
%TO.N,/PWM_A_UD*%
X52780000Y-40000000D03*
%TO.P,A1,9*%
%TO.N,/PWM_A_LID*%
X55320000Y-40000000D03*
%TO.P,A1,10*%
%TO.N,unconnected-(A1-D7-Pad10)*%
X57860000Y-40000000D03*
%TO.P,A1,11*%
%TO.N,unconnected-(A1-D8-Pad11)*%
X60400000Y-40000000D03*
%TO.P,A1,12*%
%TO.N,/PWM_B_LR*%
X62940000Y-40000000D03*
%TO.P,A1,13*%
%TO.N,/PWM_B_UD*%
X65480000Y-40000000D03*
%TO.P,A1,14*%
%TO.N,/PWM_B_LID*%
X68020000Y-40000000D03*
%TO.P,A1,15*%
%TO.N,/LED_STAT_D*%
X70560000Y-40000000D03*
%TO.P,A1,16*%
%TO.N,unconnected-(A1-D13-Pad16)*%
X70560000Y-24760000D03*
%TO.P,A1,17*%
%TO.N,unconnected-(A1-3V3-Pad17)*%
X68020000Y-24760000D03*
%TO.P,A1,18*%
%TO.N,unconnected-(A1-AREF-Pad18)*%
X65480000Y-24760000D03*
%TO.P,A1,19*%
%TO.N,/ADDR0*%
X62940000Y-24760000D03*
%TO.P,A1,20*%
%TO.N,/ADDR1*%
X60400000Y-24760000D03*
%TO.P,A1,21*%
%TO.N,/ADDR2*%
X57860000Y-24760000D03*
%TO.P,A1,22*%
%TO.N,/ADDR3*%
X55320000Y-24760000D03*
%TO.P,A1,23*%
%TO.N,/AUX_SDA*%
X52780000Y-24760000D03*
%TO.P,A1,24*%
%TO.N,/AUX_SCL*%
X50240000Y-24760000D03*
%TO.P,A1,25*%
%TO.N,/AUX_A6*%
X47700000Y-24760000D03*
%TO.P,A1,26*%
%TO.N,/VSENSE*%
X45160000Y-24760000D03*
%TO.P,A1,27*%
%TO.N,/+5V*%
X42620000Y-24760000D03*
%TO.P,A1,28*%
%TO.N,unconnected-(A1-~{RESET}-Pad28)*%
X40080000Y-24760000D03*
%TO.P,A1,29*%
%TO.N,/GND*%
X37540000Y-24760000D03*
%TO.P,A1,30*%
%TO.N,unconnected-(A1-VIN-Pad30)*%
X35000000Y-24760000D03*
%TD*%
D31*
%TO.N,/GND*%
X38400000Y-56638400D03*
%TO.N,/VSERVO*%
X81806000Y-53728700D03*
%TO.N,/PWM_A_LID*%
X88959000Y-33438800D03*
%TO.N,/PWM_A_UD*%
X87623800Y-33360800D03*
%TO.N,/ADDR0*%
X19259600Y-24631700D03*
%TO.N,/ADDR1*%
X60096300Y-62457800D03*
%TO.N,/ADDR2*%
X10324400Y-36270500D03*
%TO.N,/ADDR3*%
X55000400Y-68277200D03*
%TO.N,/PWM_B_LR*%
X88591500Y-38368700D03*
%TO.N,/PWM_B_UD*%
X87762800Y-39180200D03*
%TO.N,/PWM_A_LR*%
X87762800Y-30451100D03*
%TD*%
%TO.N,/LED_STAT_D*%
D32*
X79537500Y-45000000D02*
X76661700Y-45000000D01*
X70560000Y-40000000D02*
X71661700Y-40000000D01*
X76661700Y-45000000D02*
X71661700Y-40000000D01*
%TO.N,/LED_STAT*%
X84600000Y-45000000D02*
X82462500Y-45000000D01*
%TO.N,/GND*%
X42620000Y-41101700D02*
X38400000Y-45321700D01*
X38549000Y-8048000D02*
X44475000Y-13974000D01*
X37540000Y-20065000D02*
X32475000Y-15000000D01*
X35540000Y-11935000D02*
X35540000Y-9500000D01*
X104000000Y-10000000D02*
X104000000Y-17000000D01*
X44031600Y-15443400D02*
X44031600Y-25318400D01*
X77537500Y-62810100D02*
X78111300Y-63383900D01*
X38400000Y-56638400D02*
X38400000Y-64000000D01*
X38400000Y-45321700D02*
X38400000Y-56638400D01*
X44475000Y-13974000D02*
X44475000Y-15000000D01*
X104000000Y-49000000D02*
X102848300Y-49000000D01*
X104000000Y-49000000D02*
X104000000Y-42000000D01*
X34160000Y-68240000D02*
X38400000Y-64000000D01*
X83000000Y-59525000D02*
X90417900Y-52107100D01*
X17620000Y-77620000D02*
X17620000Y-75080000D01*
X90417900Y-50219500D02*
X90417900Y-48017900D01*
X17620000Y-70000000D02*
X17620000Y-72540000D01*
X9502900Y-76191200D02*
X16508800Y-76191200D01*
X90417900Y-48017900D02*
X87400000Y-45000000D01*
X42620000Y-40000000D02*
X42620000Y-41101700D01*
X77537500Y-61000000D02*
X79000000Y-59537500D01*
X90417900Y-52107100D02*
X90417900Y-50219500D01*
X37517800Y-8048000D02*
X38549000Y-8048000D01*
X84272200Y-63019500D02*
X84272200Y-60797200D01*
X17620000Y-75080000D02*
X17620000Y-72540000D01*
X36591700Y-9500000D02*
X36591700Y-8974100D01*
X102848300Y-49287900D02*
X102848300Y-49000000D01*
X72203300Y-62196700D02*
X67196700Y-62196700D01*
X67196700Y-62196700D02*
X65000000Y-60000000D01*
X75510100Y-61000000D02*
X77537500Y-61000000D01*
X32475000Y-15000000D02*
X35540000Y-11935000D01*
X35540000Y-9500000D02*
X36591700Y-9500000D01*
X36591700Y-8974100D02*
X37517800Y-8048000D01*
X16508800Y-76191200D02*
X17620000Y-75080000D01*
X44475000Y-15000000D02*
X44031600Y-15443400D01*
X42620000Y-26730000D02*
X42620000Y-40000000D01*
X34160000Y-86000000D02*
X34160000Y-68240000D01*
X73400000Y-61000000D02*
X72203300Y-62196700D01*
X84272200Y-60797200D02*
X83000000Y-59525000D01*
X37540000Y-24760000D02*
X37540000Y-20065000D01*
X5500000Y-60080000D02*
X5500000Y-72188300D01*
X77537500Y-61000000D02*
X77537500Y-62810100D01*
X83907800Y-63383900D02*
X84272200Y-63019500D01*
X44031600Y-25318400D02*
X42620000Y-26730000D01*
X90417900Y-50219500D02*
X101916700Y-50219500D01*
X101916700Y-50219500D02*
X102848300Y-49287900D01*
X5500000Y-72188300D02*
X9502900Y-76191200D01*
X104000000Y-35000000D02*
X104000000Y-42000000D01*
X73400000Y-61000000D02*
X75468800Y-61000000D01*
X75468800Y-61000000D02*
X75510100Y-61000000D01*
X78111300Y-63383900D02*
X83907800Y-63383900D01*
X104000000Y-24000000D02*
X104000000Y-17000000D01*
%TO.N,/VSERVO*%
X81733800Y-53728700D02*
X81806000Y-53728700D01*
X71764900Y-55772600D02*
X78310100Y-55772600D01*
X25920000Y-55000000D02*
X25920000Y-58400000D01*
X63000000Y-57000000D02*
X70537500Y-57000000D01*
X78310100Y-55772600D02*
X79000000Y-56462500D01*
X31600000Y-64000000D02*
X31520000Y-64000000D01*
X31520000Y-64000000D02*
X25920000Y-58400000D01*
X79000000Y-56462500D02*
X81733800Y-53728700D01*
X70537500Y-57000000D02*
X71764900Y-55772600D01*
X101460000Y-42000000D02*
X101460000Y-35000000D01*
X101460000Y-42000000D02*
X101460000Y-49000000D01*
X101460000Y-24000000D02*
X101460000Y-17000000D01*
X101460000Y-17000000D02*
X101460000Y-10000000D01*
X60000000Y-60000000D02*
X63000000Y-57000000D01*
%TO.N,/SIG_B_UD*%
X92462500Y-42000000D02*
X98920000Y-42000000D01*
%TO.N,/VLOGIC*%
X27000000Y-6000000D02*
X29525000Y-8525000D01*
X29525000Y-9500000D02*
X29525000Y-15000000D01*
X33000000Y-9500000D02*
X29525000Y-9500000D01*
X29525000Y-8525000D02*
X29525000Y-9500000D01*
%TO.N,/VIN_F*%
X23000000Y-6000000D02*
X19137500Y-6000000D01*
%TO.N,/SIG_A_LID*%
X92462500Y-24000000D02*
X98920000Y-24000000D01*
%TO.N,/PWM_A_LID*%
X88959000Y-33438800D02*
X89537500Y-32860300D01*
X89537500Y-32860300D02*
X89537500Y-24000000D01*
%TO.N,/VIN_RAW*%
X8862500Y-12000000D02*
X14862500Y-6000000D01*
X5500000Y-12000000D02*
X8862500Y-12000000D01*
%TO.N,/+5V*%
X24000000Y-41043000D02*
X38810000Y-26233000D01*
X38080000Y-11555000D02*
X38080000Y-9500000D01*
X41525000Y-15000000D02*
X38080000Y-11555000D01*
X42620000Y-24760000D02*
X42620000Y-23658300D01*
X41525000Y-15000000D02*
X41525000Y-22563300D01*
X40669600Y-22563300D02*
X41525000Y-22563300D01*
X24000000Y-86000000D02*
X24000000Y-41043000D01*
X38810000Y-26233000D02*
X38810000Y-24422900D01*
X38810000Y-24422900D02*
X40669600Y-22563300D01*
X41525000Y-22563300D02*
X42620000Y-23658300D01*
%TO.N,/AUX_SDA*%
X26540000Y-86000000D02*
X28517300Y-87977300D01*
X52780000Y-24760000D02*
X52780000Y-25861700D01*
X35080100Y-87977300D02*
X51510000Y-71547400D01*
X51510000Y-71547400D02*
X51510000Y-27131700D01*
X51510000Y-27131700D02*
X52780000Y-25861700D01*
X28517300Y-87977300D02*
X35080100Y-87977300D01*
%TO.N,/AUX_SCL*%
X50240000Y-24760000D02*
X50240000Y-25861700D01*
X46478800Y-29622900D02*
X46478800Y-75957900D01*
X46478800Y-75957900D02*
X34871800Y-87564900D01*
X50240000Y-25861700D02*
X46478800Y-29622900D01*
X30644900Y-87564900D02*
X29080000Y-86000000D01*
X34871800Y-87564900D02*
X30644900Y-87564900D01*
%TO.N,/AUX_A6*%
X47700000Y-24760000D02*
X47700000Y-25861700D01*
X42820000Y-79046600D02*
X34703400Y-87163200D01*
X43890000Y-58792800D02*
X42820000Y-59862800D01*
X47700000Y-25861700D02*
X43890000Y-29671700D01*
X43890000Y-29671700D02*
X43890000Y-58792800D01*
X42820000Y-59862800D02*
X42820000Y-79046600D01*
X34703400Y-87163200D02*
X32783200Y-87163200D01*
X32783200Y-87163200D02*
X31620000Y-86000000D01*
%TO.N,/VSENSE*%
X82987500Y-62462500D02*
X83000000Y-62475000D01*
X61583600Y-24378500D02*
X61583600Y-30906900D01*
X66750000Y-36073300D02*
X66750000Y-41287500D01*
X81754200Y-62462500D02*
X81754200Y-55105000D01*
X66750000Y-41287500D02*
X79000000Y-53537500D01*
X81754200Y-62462500D02*
X82987500Y-62462500D01*
X45160000Y-24760000D02*
X46261700Y-24760000D01*
X79432800Y-53104700D02*
X79000000Y-53537500D01*
X82411500Y-53482100D02*
X82034100Y-53104700D01*
X80499500Y-62462500D02*
X81754200Y-62462500D01*
X46261700Y-24760000D02*
X46261700Y-24622300D01*
X46261700Y-24622300D02*
X47254600Y-23629400D01*
X47254600Y-23629400D02*
X60834500Y-23629400D01*
X79000000Y-62462500D02*
X80499500Y-62462500D01*
X82034100Y-53104700D02*
X79432800Y-53104700D01*
X61583600Y-30906900D02*
X66750000Y-36073300D01*
X82411500Y-54447700D02*
X82411500Y-53482100D01*
X81754200Y-55105000D02*
X82411500Y-54447700D01*
X60834500Y-23629400D02*
X61583600Y-24378500D01*
%TO.N,/SIG_B_LID*%
X92462500Y-49000000D02*
X98920000Y-49000000D01*
%TO.N,/PWM_A_UD*%
X88609900Y-17927600D02*
X89537500Y-17000000D01*
X88609900Y-32374700D02*
X88609900Y-17927600D01*
X87623800Y-33360800D02*
X88609900Y-32374700D01*
%TO.N,/SIG_A_UD*%
X98920000Y-17000000D02*
X92462500Y-17000000D01*
%TO.N,/LED_PWR*%
X73462500Y-58137500D02*
X70600000Y-61000000D01*
X73462500Y-57000000D02*
X73462500Y-58137500D01*
%TO.N,/ADDR0*%
X19259600Y-24631700D02*
X19259600Y-60740400D01*
X19259600Y-60740400D02*
X10000000Y-70000000D01*
%TO.N,/ADDR1*%
X60400000Y-24760000D02*
X60400000Y-25861700D01*
X59298300Y-26963400D02*
X59298300Y-52540500D01*
X60400000Y-25861700D02*
X59298300Y-26963400D01*
X58657100Y-61018600D02*
X60096300Y-62457800D01*
X58657100Y-53181700D02*
X58657100Y-61018600D01*
X59298300Y-52540500D02*
X58657100Y-53181700D01*
%TO.N,/ADDR2*%
X10000000Y-75080000D02*
X8873200Y-73953200D01*
X8873200Y-37721700D02*
X10324400Y-36270500D01*
X8873200Y-73953200D02*
X8873200Y-37721700D01*
%TO.N,/ADDR3*%
X55320000Y-24760000D02*
X55320000Y-25861700D01*
X55320000Y-25861700D02*
X54192100Y-26989600D01*
X54192100Y-67468900D02*
X55000400Y-68277200D01*
X54192100Y-26989600D02*
X54192100Y-67468900D01*
%TO.N,/VSERVO_IN*%
X16000000Y-58400000D02*
X16000000Y-55000000D01*
%TO.N,/SIG_A_LR*%
X98920000Y-10000000D02*
X92462500Y-10000000D01*
%TO.N,/PWM_B_LR*%
X89537500Y-37422700D02*
X89537500Y-35000000D01*
X88591500Y-38368700D02*
X89537500Y-37422700D01*
%TO.N,/SIG_B_LR*%
X98920000Y-35000000D02*
X92462500Y-35000000D01*
%TO.N,/PWM_B_UD*%
X87762800Y-39180200D02*
X89537500Y-40954900D01*
X89537500Y-40954900D02*
X89537500Y-42000000D01*
%TO.N,/PWM_A_LR*%
X89537500Y-10000000D02*
X87762800Y-11774700D01*
X87762800Y-11774700D02*
X87762800Y-30451100D01*
%TO.N,/PWM_B_LID*%
X68020000Y-40000000D02*
X69121700Y-40000000D01*
X69121700Y-40228300D02*
X69121700Y-40000000D01*
X89537500Y-49000000D02*
X77893400Y-49000000D01*
X77893400Y-49000000D02*
X69121700Y-40228300D01*
%TD*%
%TA.AperFunction,Conductor*%
%TO.N,/GND*%
G36*
X43944712Y-25026238D02*
G01*
X43996188Y-25073482D01*
X44007931Y-25099196D01*
X44047454Y-25220836D01*
X44113267Y-25350000D01*
X44133240Y-25389199D01*
X44244310Y-25542073D01*
X44377927Y-25675690D01*
X44530801Y-25786760D01*
X44591793Y-25817837D01*
X44699163Y-25872545D01*
X44699165Y-25872545D01*
X44699168Y-25872547D01*
X44795497Y-25903846D01*
X44878881Y-25930940D01*
X45065514Y-25960500D01*
X45065519Y-25960500D01*
X45254486Y-25960500D01*
X45441118Y-25930940D01*
X45475637Y-25919724D01*
X45620832Y-25872547D01*
X45789199Y-25786760D01*
X45942073Y-25675690D01*
X46075690Y-25542073D01*
X46186760Y-25389199D01*
X46217838Y-25328205D01*
X46265813Y-25277409D01*
X46297612Y-25264363D01*
X46312724Y-25260500D01*
X46327592Y-25260500D01*
X46454886Y-25226392D01*
X46461827Y-25222384D01*
X46477531Y-25218370D01*
X46503960Y-25219304D01*
X46530254Y-25216476D01*
X46538331Y-25220518D01*
X46547357Y-25220838D01*
X46569084Y-25235911D01*
X46592735Y-25247749D01*
X46599964Y-25257334D01*
X46604765Y-25260665D01*
X46607559Y-25267405D01*
X46618727Y-25282212D01*
X46653267Y-25350000D01*
X46673240Y-25389199D01*
X46784310Y-25542073D01*
X46917927Y-25675690D01*
X46917933Y-25675694D01*
X46951215Y-25699876D01*
X46993881Y-25755206D01*
X46999859Y-25824819D01*
X46967253Y-25886614D01*
X46966010Y-25887874D01*
X43582686Y-29271200D01*
X43489502Y-29364383D01*
X43489500Y-29364386D01*
X43423608Y-29478512D01*
X43389500Y-29605808D01*
X43389500Y-38730705D01*
X43369815Y-38797744D01*
X43317011Y-38843499D01*
X43247853Y-38853443D01*
X43209206Y-38841190D01*
X43119034Y-38795245D01*
X42924421Y-38732011D01*
X42924411Y-38732009D01*
X42920000Y-38731309D01*
X42920000Y-39595855D01*
X42812993Y-39534075D01*
X42685826Y-39500000D01*
X42554174Y-39500000D01*
X42427007Y-39534075D01*
X42320000Y-39595855D01*
X42320000Y-38731310D01*
X42319999Y-38731309D01*
X42315588Y-38732009D01*
X42315578Y-38732011D01*
X42120968Y-38795245D01*
X41938650Y-38888140D01*
X41773105Y-39008417D01*
X41773104Y-39008417D01*
X41628417Y-39153104D01*
X41628417Y-39153105D01*
X41508140Y-39318650D01*
X41415243Y-39500971D01*
X41413457Y-39506469D01*
X41374017Y-39564142D01*
X41309657Y-39591337D01*
X41240811Y-39579420D01*
X41189338Y-39532173D01*
X41185043Y-39524440D01*
X41106759Y-39370800D01*
X40995690Y-39217927D01*
X40862073Y-39084310D01*
X40709199Y-38973240D01*
X40686456Y-38961652D01*
X40540836Y-38887454D01*
X40361118Y-38829059D01*
X40174486Y-38799500D01*
X40174481Y-38799500D01*
X39985519Y-38799500D01*
X39985514Y-38799500D01*
X39798881Y-38829059D01*
X39619163Y-38887454D01*
X39450800Y-38973240D01*
X39365287Y-39035370D01*
X39297927Y-39084310D01*
X39297925Y-39084312D01*
X39297924Y-39084312D01*
X39164312Y-39217924D01*
X39164312Y-39217925D01*
X39164310Y-39217927D01*
X39118571Y-39280881D01*
X39053240Y-39370800D01*
X38967454Y-39539163D01*
X38927931Y-39660803D01*
X38888493Y-39718478D01*
X38824134Y-39745676D01*
X38755288Y-39733761D01*
X38703812Y-39686516D01*
X38692069Y-39660803D01*
X38664249Y-39575182D01*
X38652547Y-39539168D01*
X38652545Y-39539165D01*
X38652545Y-39539163D01*
X38566759Y-39370800D01*
X38455690Y-39217927D01*
X38322073Y-39084310D01*
X38169199Y-38973240D01*
X38146456Y-38961652D01*
X38000836Y-38887454D01*
X37821118Y-38829059D01*
X37634486Y-38799500D01*
X37634481Y-38799500D01*
X37445519Y-38799500D01*
X37445514Y-38799500D01*
X37258881Y-38829059D01*
X37079163Y-38887454D01*
X36910800Y-38973240D01*
X36825287Y-39035370D01*
X36757927Y-39084310D01*
X36757925Y-39084312D01*
X36757924Y-39084312D01*
X36624312Y-39217924D01*
X36624312Y-39217925D01*
X36624310Y-39217927D01*
X36578571Y-39280881D01*
X36513240Y-39370800D01*
X36434984Y-39524386D01*
X36387009Y-39575182D01*
X36319188Y-39591977D01*
X36253053Y-39569439D01*
X36209602Y-39514724D01*
X36200499Y-39468091D01*
X36200499Y-39168482D01*
X36198064Y-39153105D01*
X36185646Y-39074696D01*
X36128050Y-38961658D01*
X36128046Y-38961654D01*
X36128045Y-38961652D01*
X36038347Y-38871954D01*
X36038344Y-38871952D01*
X36038342Y-38871950D01*
X35954164Y-38829059D01*
X35925301Y-38814352D01*
X35831524Y-38799500D01*
X34168482Y-38799500D01*
X34087519Y-38812323D01*
X34074696Y-38814354D01*
X33961658Y-38871950D01*
X33961657Y-38871951D01*
X33961652Y-38871954D01*
X33871954Y-38961652D01*
X33871951Y-38961657D01*
X33871950Y-38961658D01*
X33857775Y-38989478D01*
X33814352Y-39074698D01*
X33799500Y-39168475D01*
X33799500Y-40831517D01*
X33810292Y-40899657D01*
X33814354Y-40925304D01*
X33871950Y-41038342D01*
X33871952Y-41038344D01*
X33871954Y-41038347D01*
X33961652Y-41128045D01*
X33961654Y-41128046D01*
X33961658Y-41128050D01*
X34068496Y-41182487D01*
X34074698Y-41185647D01*
X34168475Y-41200499D01*
X34168481Y-41200500D01*
X35831518Y-41200499D01*
X35925304Y-41185646D01*
X36038342Y-41128050D01*
X36128050Y-41038342D01*
X36185646Y-40925304D01*
X36185646Y-40925302D01*
X36185647Y-40925301D01*
X36200499Y-40831524D01*
X36200500Y-40831519D01*
X36200499Y-40531906D01*
X36220183Y-40464870D01*
X36272987Y-40419115D01*
X36342146Y-40409171D01*
X36405701Y-40438196D01*
X36434984Y-40475614D01*
X36463668Y-40531909D01*
X36513240Y-40629199D01*
X36624310Y-40782073D01*
X36757927Y-40915690D01*
X36910801Y-41026760D01*
X36990347Y-41067290D01*
X37079163Y-41112545D01*
X37079165Y-41112545D01*
X37079168Y-41112547D01*
X37161089Y-41139165D01*
X37258881Y-41170940D01*
X37445514Y-41200500D01*
X37445519Y-41200500D01*
X37634486Y-41200500D01*
X37821118Y-41170940D01*
X37862106Y-41157622D01*
X38000832Y-41112547D01*
X38169199Y-41026760D01*
X38322073Y-40915690D01*
X38455690Y-40782073D01*
X38566760Y-40629199D01*
X38652547Y-40460832D01*
X38692069Y-40339195D01*
X38731507Y-40281521D01*
X38795866Y-40254323D01*
X38864712Y-40266238D01*
X38916188Y-40313482D01*
X38927931Y-40339196D01*
X38967454Y-40460836D01*
X39003668Y-40531909D01*
X39053240Y-40629199D01*
X39164310Y-40782073D01*
X39297927Y-40915690D01*
X39450801Y-41026760D01*
X39530347Y-41067290D01*
X39619163Y-41112545D01*
X39619165Y-41112545D01*
X39619168Y-41112547D01*
X39701089Y-41139165D01*
X39798881Y-41170940D01*
X39985514Y-41200500D01*
X39985519Y-41200500D01*
X40174486Y-41200500D01*
X40361118Y-41170940D01*
X40402106Y-41157622D01*
X40540832Y-41112547D01*
X40709199Y-41026760D01*
X40862073Y-40915690D01*
X40995690Y-40782073D01*
X41106760Y-40629199D01*
X41185043Y-40475558D01*
X41233017Y-40424763D01*
X41300838Y-40407968D01*
X41366973Y-40430505D01*
X41410425Y-40485220D01*
X41413458Y-40493534D01*
X41415242Y-40499027D01*
X41508140Y-40681349D01*
X41628417Y-40846894D01*
X41628417Y-40846895D01*
X41773104Y-40991582D01*
X41938650Y-41111859D01*
X42120968Y-41204754D01*
X42315584Y-41267990D01*
X42320000Y-41268689D01*
X42320000Y-40404144D01*
X42427007Y-40465925D01*
X42554174Y-40500000D01*
X42685826Y-40500000D01*
X42812993Y-40465925D01*
X42920000Y-40404144D01*
X42920000Y-41268689D01*
X42924415Y-41267990D01*
X43119031Y-41204755D01*
X43209205Y-41158809D01*
X43277874Y-41145913D01*
X43342615Y-41172189D01*
X43382872Y-41229296D01*
X43389500Y-41269294D01*
X43389500Y-58534124D01*
X43369815Y-58601163D01*
X43353181Y-58621805D01*
X42419502Y-59555483D01*
X42419500Y-59555486D01*
X42353608Y-59669612D01*
X42319500Y-59796908D01*
X42319500Y-78787923D01*
X42299815Y-78854962D01*
X42283181Y-78875604D01*
X35619388Y-85539396D01*
X35558065Y-85572881D01*
X35488373Y-85567897D01*
X35432440Y-85526025D01*
X35413775Y-85490031D01*
X35411094Y-85481780D01*
X35314626Y-85292453D01*
X35314618Y-85292440D01*
X35305025Y-85279237D01*
X35305025Y-85279236D01*
X34657905Y-85926356D01*
X34625925Y-85807007D01*
X34560099Y-85692993D01*
X34467007Y-85599901D01*
X34352993Y-85534075D01*
X34233642Y-85502094D01*
X34880761Y-84854973D01*
X34867550Y-84845375D01*
X34678217Y-84748904D01*
X34476129Y-84683242D01*
X34266246Y-84650000D01*
X34053754Y-84650000D01*
X33843872Y-84683242D01*
X33843869Y-84683242D01*
X33641782Y-84748904D01*
X33452448Y-84845375D01*
X33439237Y-84854972D01*
X33439237Y-84854973D01*
X34086358Y-85502094D01*
X33967007Y-85534075D01*
X33852993Y-85599901D01*
X33759901Y-85692993D01*
X33694075Y-85807007D01*
X33662094Y-85926358D01*
X33014973Y-85279237D01*
X33014972Y-85279237D01*
X33005371Y-85292453D01*
X32944648Y-85411629D01*
X32896674Y-85462425D01*
X32828853Y-85479220D01*
X32762718Y-85456682D01*
X32723679Y-85411628D01*
X32689525Y-85344596D01*
X32642038Y-85279237D01*
X32573828Y-85185354D01*
X32434646Y-85046172D01*
X32275405Y-84930476D01*
X32100029Y-84841117D01*
X31912826Y-84780290D01*
X31718422Y-84749500D01*
X31718417Y-84749500D01*
X31521583Y-84749500D01*
X31521578Y-84749500D01*
X31327173Y-84780290D01*
X31139970Y-84841117D01*
X30964594Y-84930476D01*
X30926619Y-84958067D01*
X30805354Y-85046172D01*
X30805352Y-85046174D01*
X30805351Y-85046174D01*
X30666174Y-85185351D01*
X30666174Y-85185352D01*
X30666172Y-85185354D01*
X30616485Y-85253741D01*
X30550476Y-85344594D01*
X30460485Y-85521213D01*
X30412511Y-85572009D01*
X30344690Y-85588804D01*
X30278555Y-85566267D01*
X30239515Y-85521213D01*
X30183679Y-85411628D01*
X30149524Y-85344595D01*
X30033828Y-85185354D01*
X29894646Y-85046172D01*
X29735405Y-84930476D01*
X29560029Y-84841117D01*
X29372826Y-84780290D01*
X29178422Y-84749500D01*
X29178417Y-84749500D01*
X28981583Y-84749500D01*
X28981578Y-84749500D01*
X28787173Y-84780290D01*
X28599970Y-84841117D01*
X28424594Y-84930476D01*
X28386619Y-84958067D01*
X28265354Y-85046172D01*
X28265352Y-85046174D01*
X28265351Y-85046174D01*
X28126174Y-85185351D01*
X28126174Y-85185352D01*
X28126172Y-85185354D01*
X28076485Y-85253741D01*
X28010476Y-85344594D01*
X27920485Y-85521213D01*
X27872511Y-85572009D01*
X27804690Y-85588804D01*
X27738555Y-85566267D01*
X27699515Y-85521213D01*
X27643679Y-85411628D01*
X27609524Y-85344595D01*
X27493828Y-85185354D01*
X27354646Y-85046172D01*
X27195405Y-84930476D01*
X27020029Y-84841117D01*
X26832826Y-84780290D01*
X26638422Y-84749500D01*
X26638417Y-84749500D01*
X26441583Y-84749500D01*
X26441578Y-84749500D01*
X26247173Y-84780290D01*
X26059970Y-84841117D01*
X25884594Y-84930476D01*
X25846619Y-84958067D01*
X25725354Y-85046172D01*
X25725352Y-85046174D01*
X25725351Y-85046174D01*
X25586173Y-85185352D01*
X25474817Y-85338620D01*
X25419486Y-85381285D01*
X25349873Y-85387264D01*
X25288078Y-85354658D01*
X25253721Y-85293819D01*
X25250499Y-85265734D01*
X25250499Y-85118482D01*
X25239047Y-85046174D01*
X25235646Y-85024696D01*
X25178050Y-84911658D01*
X25178046Y-84911654D01*
X25178045Y-84911652D01*
X25088347Y-84821954D01*
X25088344Y-84821952D01*
X25088342Y-84821950D01*
X25006580Y-84780290D01*
X24975301Y-84764352D01*
X24881524Y-84749500D01*
X24881519Y-84749500D01*
X24624500Y-84749500D01*
X24557461Y-84729815D01*
X24511706Y-84677011D01*
X24500500Y-84625500D01*
X24500500Y-59812013D01*
X24520185Y-59744974D01*
X24572989Y-59699219D01*
X24642147Y-59689275D01*
X24705703Y-59718300D01*
X24712181Y-59724332D01*
X24736902Y-59749053D01*
X24736909Y-59749059D01*
X24923117Y-59891941D01*
X25126379Y-60009294D01*
X25126389Y-60009299D01*
X25185528Y-60033795D01*
X25343228Y-60099117D01*
X25569941Y-60159864D01*
X25802644Y-60190500D01*
X25802651Y-60190500D01*
X26037349Y-60190500D01*
X26037356Y-60190500D01*
X26270059Y-60159864D01*
X26496772Y-60099117D01*
X26713345Y-60009408D01*
X26782810Y-60001940D01*
X26845289Y-60033214D01*
X26848475Y-60036289D01*
X29913181Y-63100995D01*
X29946666Y-63162318D01*
X29949500Y-63188676D01*
X29949500Y-65465701D01*
X29952401Y-65502567D01*
X29952402Y-65502573D01*
X29998254Y-65660393D01*
X29998255Y-65660396D01*
X30081917Y-65801862D01*
X30081923Y-65801870D01*
X30198129Y-65918076D01*
X30198133Y-65918079D01*
X30198135Y-65918081D01*
X30339602Y-66001744D01*
X30381224Y-66013836D01*
X30497426Y-66047597D01*
X30497429Y-66047597D01*
X30497431Y-66047598D01*
X30534306Y-66050500D01*
X30534314Y-66050500D01*
X32665686Y-66050500D01*
X32665694Y-66050500D01*
X32702569Y-66047598D01*
X32702571Y-66047597D01*
X32702573Y-66047597D01*
X32744191Y-66035505D01*
X32860398Y-66001744D01*
X33001865Y-65918081D01*
X33118081Y-65801865D01*
X33201744Y-65660398D01*
X33247598Y-65502569D01*
X33250500Y-65465694D01*
X33250500Y-65449986D01*
X36650001Y-65449986D01*
X36660494Y-65552697D01*
X36715641Y-65719119D01*
X36715643Y-65719124D01*
X36807684Y-65868345D01*
X36931654Y-65992315D01*
X37080875Y-66084356D01*
X37080880Y-66084358D01*
X37247302Y-66139505D01*
X37247309Y-66139506D01*
X37350019Y-66149999D01*
X38099999Y-66149999D01*
X38700000Y-66149999D01*
X39449972Y-66149999D01*
X39449986Y-66149998D01*
X39552697Y-66139505D01*
X39719119Y-66084358D01*
X39719124Y-66084356D01*
X39868345Y-65992315D01*
X39992315Y-65868345D01*
X40084356Y-65719124D01*
X40084358Y-65719119D01*
X40139505Y-65552697D01*
X40139506Y-65552690D01*
X40149999Y-65449986D01*
X40150000Y-65449973D01*
X40150000Y-64300000D01*
X38700000Y-64300000D01*
X38700000Y-66149999D01*
X38099999Y-66149999D01*
X38100000Y-66149998D01*
X38100000Y-64300000D01*
X36650001Y-64300000D01*
X36650001Y-65449986D01*
X33250500Y-65449986D01*
X33250500Y-62550013D01*
X36650000Y-62550013D01*
X36650000Y-63700000D01*
X38100000Y-63700000D01*
X38700000Y-63700000D01*
X40149999Y-63700000D01*
X40149999Y-62550028D01*
X40149998Y-62550013D01*
X40139505Y-62447302D01*
X40084358Y-62280880D01*
X40084356Y-62280875D01*
X39992315Y-62131654D01*
X39868345Y-62007684D01*
X39719124Y-61915643D01*
X39719119Y-61915641D01*
X39552697Y-61860494D01*
X39552690Y-61860493D01*
X39449986Y-61850000D01*
X38700000Y-61850000D01*
X38700000Y-63700000D01*
X38100000Y-63700000D01*
X38100000Y-61850000D01*
X37350028Y-61850000D01*
X37350012Y-61850001D01*
X37247302Y-61860494D01*
X37080880Y-61915641D01*
X37080875Y-61915643D01*
X36931654Y-62007684D01*
X36807684Y-62131654D01*
X36715643Y-62280875D01*
X36715641Y-62280880D01*
X36660494Y-62447302D01*
X36660493Y-62447309D01*
X36650000Y-62550013D01*
X33250500Y-62550013D01*
X33250500Y-62534306D01*
X33247598Y-62497431D01*
X33245473Y-62490118D01*
X33201745Y-62339606D01*
X33201744Y-62339603D01*
X33201744Y-62339602D01*
X33118081Y-62198135D01*
X33118079Y-62198133D01*
X33118076Y-62198129D01*
X33001870Y-62081923D01*
X33001862Y-62081917D01*
X32882383Y-62011258D01*
X32860398Y-61998256D01*
X32860397Y-61998255D01*
X32860396Y-61998255D01*
X32860393Y-61998254D01*
X32702573Y-61952402D01*
X32702567Y-61952401D01*
X32665701Y-61949500D01*
X32665694Y-61949500D01*
X30534306Y-61949500D01*
X30534298Y-61949500D01*
X30497432Y-61952401D01*
X30497426Y-61952402D01*
X30339603Y-61998255D01*
X30337690Y-61999083D01*
X30336063Y-61999283D01*
X30332111Y-62000432D01*
X30331925Y-61999793D01*
X30268346Y-62007636D01*
X30205385Y-61977341D01*
X30200772Y-61972958D01*
X27556289Y-59328475D01*
X27522804Y-59267152D01*
X27527788Y-59197460D01*
X27529376Y-59193423D01*
X27619117Y-58976772D01*
X27679864Y-58750059D01*
X27710500Y-58517356D01*
X27710500Y-58282644D01*
X27679864Y-58049941D01*
X27619117Y-57823228D01*
X27564216Y-57690686D01*
X27529299Y-57606389D01*
X27529294Y-57606379D01*
X27411941Y-57403117D01*
X27269059Y-57216909D01*
X27269053Y-57216902D01*
X27103097Y-57050946D01*
X27103090Y-57050940D01*
X26916882Y-56908058D01*
X26742513Y-56807387D01*
X26694298Y-56756821D01*
X26681074Y-56688214D01*
X26707042Y-56623349D01*
X26742513Y-56592613D01*
X26785004Y-56568081D01*
X26916883Y-56491941D01*
X27103092Y-56349058D01*
X27269058Y-56183092D01*
X27411941Y-55996883D01*
X27529296Y-55793617D01*
X27619117Y-55576772D01*
X27679864Y-55350059D01*
X27710500Y-55117356D01*
X27710500Y-54882644D01*
X27679864Y-54649941D01*
X27619117Y-54423228D01*
X27548138Y-54251870D01*
X27529299Y-54206389D01*
X27529294Y-54206379D01*
X27411941Y-54003117D01*
X27269059Y-53816909D01*
X27269053Y-53816902D01*
X27103097Y-53650946D01*
X27103090Y-53650940D01*
X26916882Y-53508058D01*
X26713620Y-53390705D01*
X26713610Y-53390700D01*
X26496779Y-53300886D01*
X26496780Y-53300886D01*
X26496772Y-53300883D01*
X26452091Y-53288911D01*
X26448851Y-53288042D01*
X26270059Y-53240136D01*
X26270053Y-53240135D01*
X26270048Y-53240134D01*
X26037365Y-53209501D01*
X26037362Y-53209500D01*
X26037356Y-53209500D01*
X25802644Y-53209500D01*
X25802638Y-53209500D01*
X25802634Y-53209501D01*
X25569951Y-53240134D01*
X25569944Y-53240135D01*
X25569941Y-53240136D01*
X25494370Y-53260385D01*
X25343234Y-53300881D01*
X25343220Y-53300886D01*
X25126389Y-53390700D01*
X25126379Y-53390705D01*
X24923117Y-53508058D01*
X24736909Y-53650940D01*
X24736902Y-53650946D01*
X24712181Y-53675668D01*
X24650858Y-53709153D01*
X24581166Y-53704169D01*
X24525233Y-53662297D01*
X24500816Y-53596833D01*
X24500500Y-53587987D01*
X24500500Y-41301676D01*
X24520185Y-41234637D01*
X24536819Y-41213995D01*
X26674886Y-39075928D01*
X32934129Y-32816685D01*
X39210500Y-26540314D01*
X39276392Y-26426186D01*
X39310500Y-26298892D01*
X39310500Y-26167107D01*
X39310500Y-25917622D01*
X39330185Y-25850583D01*
X39382989Y-25804828D01*
X39452147Y-25794884D01*
X39490790Y-25807135D01*
X39619168Y-25872547D01*
X39741924Y-25912433D01*
X39798881Y-25930940D01*
X39985514Y-25960500D01*
X39985519Y-25960500D01*
X40174486Y-25960500D01*
X40361118Y-25930940D01*
X40395637Y-25919724D01*
X40540832Y-25872547D01*
X40709199Y-25786760D01*
X40862073Y-25675690D01*
X40995690Y-25542073D01*
X41106760Y-25389199D01*
X41192547Y-25220832D01*
X41232069Y-25099195D01*
X41271507Y-25041521D01*
X41335866Y-25014323D01*
X41404712Y-25026238D01*
X41456188Y-25073482D01*
X41467931Y-25099196D01*
X41507454Y-25220836D01*
X41573267Y-25350000D01*
X41593240Y-25389199D01*
X41704310Y-25542073D01*
X41837927Y-25675690D01*
X41990801Y-25786760D01*
X42051793Y-25817837D01*
X42159163Y-25872545D01*
X42159165Y-25872545D01*
X42159168Y-25872547D01*
X42255497Y-25903846D01*
X42338881Y-25930940D01*
X42525514Y-25960500D01*
X42525519Y-25960500D01*
X42714486Y-25960500D01*
X42901118Y-25930940D01*
X42935637Y-25919724D01*
X43080832Y-25872547D01*
X43249199Y-25786760D01*
X43402073Y-25675690D01*
X43535690Y-25542073D01*
X43646760Y-25389199D01*
X43732547Y-25220832D01*
X43772069Y-25099195D01*
X43811507Y-25041521D01*
X43875866Y-25014323D01*
X43944712Y-25026238D01*
G37*
%TD.AperFunction*%
%TA.AperFunction,Conductor*%
G36*
X49024712Y-40266238D02*
G01*
X49076188Y-40313482D01*
X49087931Y-40339196D01*
X49127454Y-40460836D01*
X49163668Y-40531909D01*
X49213240Y-40629199D01*
X49324310Y-40782073D01*
X49457927Y-40915690D01*
X49610801Y-41026760D01*
X49690347Y-41067290D01*
X49779163Y-41112545D01*
X49779165Y-41112545D01*
X49779168Y-41112547D01*
X49861089Y-41139165D01*
X49958881Y-41170940D01*
X50145514Y-41200500D01*
X50145519Y-41200500D01*
X50334486Y-41200500D01*
X50521118Y-41170940D01*
X50522257Y-41170570D01*
X50700832Y-41112547D01*
X50829207Y-41047136D01*
X50897874Y-41034241D01*
X50962614Y-41060517D01*
X51002872Y-41117623D01*
X51009500Y-41157622D01*
X51009500Y-58635979D01*
X50989815Y-58703018D01*
X50937011Y-58748773D01*
X50867853Y-58758717D01*
X50812615Y-58736297D01*
X50786174Y-58717087D01*
X50575802Y-58609897D01*
X50351247Y-58536934D01*
X50351248Y-58536934D01*
X50118052Y-58500000D01*
X49881948Y-58500000D01*
X49648752Y-58536934D01*
X49424197Y-58609897D01*
X49213824Y-58717087D01*
X49171849Y-58747584D01*
X49171848Y-58747585D01*
X49926357Y-59502094D01*
X49807007Y-59534075D01*
X49692993Y-59599901D01*
X49599901Y-59692993D01*
X49534075Y-59807007D01*
X49502094Y-59926357D01*
X48747585Y-59171848D01*
X48747584Y-59171849D01*
X48717087Y-59213824D01*
X48609897Y-59424197D01*
X48536934Y-59648752D01*
X48500000Y-59881947D01*
X48500000Y-60118052D01*
X48536934Y-60351247D01*
X48609897Y-60575802D01*
X48717081Y-60786163D01*
X48717089Y-60786176D01*
X48747584Y-60828149D01*
X48747586Y-60828150D01*
X49502094Y-60073641D01*
X49534075Y-60192993D01*
X49599901Y-60307007D01*
X49692993Y-60400099D01*
X49807007Y-60465925D01*
X49926356Y-60497905D01*
X49171849Y-61252413D01*
X49213828Y-61282914D01*
X49424197Y-61390102D01*
X49648752Y-61463065D01*
X49648751Y-61463065D01*
X49881948Y-61500000D01*
X50118052Y-61500000D01*
X50351247Y-61463065D01*
X50575802Y-61390102D01*
X50786168Y-61282915D01*
X50812612Y-61263703D01*
X50878418Y-61240222D01*
X50946473Y-61256046D01*
X50995168Y-61306151D01*
X51009500Y-61364020D01*
X51009500Y-71288724D01*
X50989815Y-71355763D01*
X50973181Y-71376405D01*
X47190981Y-75158605D01*
X47129658Y-75192090D01*
X47059966Y-75187106D01*
X47004033Y-75145234D01*
X46979616Y-75079770D01*
X46979300Y-75070924D01*
X46979300Y-41182487D01*
X46998985Y-41115448D01*
X47051789Y-41069693D01*
X47120947Y-41059749D01*
X47159596Y-41072003D01*
X47239161Y-41112544D01*
X47239164Y-41112544D01*
X47239168Y-41112547D01*
X47363291Y-41152877D01*
X47418881Y-41170940D01*
X47605514Y-41200500D01*
X47605519Y-41200500D01*
X47794486Y-41200500D01*
X47981118Y-41170940D01*
X48022106Y-41157622D01*
X48160832Y-41112547D01*
X48329199Y-41026760D01*
X48482073Y-40915690D01*
X48615690Y-40782073D01*
X48726760Y-40629199D01*
X48812547Y-40460832D01*
X48852069Y-40339195D01*
X48891507Y-40281521D01*
X48955866Y-40254323D01*
X49024712Y-40266238D01*
G37*
%TD.AperFunction*%
%TA.AperFunction,Conductor*%
G36*
X107003736Y-500726D02*
G01*
X107293797Y-518271D01*
X107308660Y-520076D01*
X107590798Y-571780D01*
X107605335Y-575363D01*
X107879172Y-660695D01*
X107893163Y-666000D01*
X108154743Y-783727D01*
X108167989Y-790680D01*
X108413465Y-939075D01*
X108425776Y-947573D01*
X108651573Y-1124473D01*
X108662781Y-1134403D01*
X108865596Y-1337218D01*
X108875525Y-1348425D01*
X108995481Y-1501538D01*
X109052422Y-1574217D01*
X109060926Y-1586537D01*
X109118128Y-1681161D01*
X109209316Y-1832004D01*
X109216275Y-1845263D01*
X109333997Y-2106831D01*
X109339306Y-2120832D01*
X109424635Y-2394663D01*
X109428219Y-2409201D01*
X109479923Y-2691339D01*
X109481728Y-2706204D01*
X109499274Y-2996263D01*
X109499500Y-3003750D01*
X109499500Y-86996249D01*
X109499274Y-87003736D01*
X109481728Y-87293794D01*
X109479923Y-87308659D01*
X109428219Y-87590797D01*
X109424635Y-87605335D01*
X109339304Y-87879174D01*
X109333994Y-87893176D01*
X109216277Y-88154730D01*
X109209319Y-88167987D01*
X109060928Y-88413458D01*
X109052422Y-88425782D01*
X108875525Y-88651573D01*
X108865595Y-88662781D01*
X108662781Y-88865595D01*
X108651573Y-88875525D01*
X108425782Y-89052422D01*
X108413458Y-89060928D01*
X108167987Y-89209319D01*
X108154730Y-89216277D01*
X107893176Y-89333994D01*
X107879174Y-89339304D01*
X107605335Y-89424635D01*
X107590797Y-89428219D01*
X107308659Y-89479923D01*
X107293794Y-89481728D01*
X107003736Y-89499274D01*
X106996249Y-89499500D01*
X3003751Y-89499500D01*
X2996264Y-89499274D01*
X2706204Y-89481728D01*
X2691339Y-89479923D01*
X2409201Y-89428219D01*
X2394663Y-89424635D01*
X2120832Y-89339306D01*
X2106831Y-89333997D01*
X1845263Y-89216275D01*
X1832004Y-89209316D01*
X1586537Y-89060926D01*
X1574217Y-89052422D01*
X1348426Y-88875526D01*
X1337218Y-88865596D01*
X1134403Y-88662781D01*
X1124473Y-88651573D01*
X947573Y-88425776D01*
X939075Y-88413465D01*
X790679Y-88167987D01*
X783727Y-88154743D01*
X666000Y-87893163D01*
X660693Y-87879167D01*
X611949Y-87722743D01*
X575363Y-87605335D01*
X571780Y-87590798D01*
X520076Y-87308660D01*
X518271Y-87293795D01*
X500726Y-87003736D01*
X500500Y-86996249D01*
X500500Y-86378711D01*
X1649500Y-86378711D01*
X1649500Y-86621288D01*
X1681161Y-86861785D01*
X1743947Y-87096104D01*
X1831991Y-87308660D01*
X1836776Y-87320212D01*
X1958064Y-87530289D01*
X1958066Y-87530292D01*
X1958067Y-87530293D01*
X2105733Y-87722736D01*
X2105739Y-87722743D01*
X2277256Y-87894260D01*
X2277262Y-87894265D01*
X2469711Y-88041936D01*
X2679788Y-88163224D01*
X2903900Y-88256054D01*
X3138211Y-88318838D01*
X3318586Y-88342584D01*
X3378711Y-88350500D01*
X3378712Y-88350500D01*
X3621289Y-88350500D01*
X3669388Y-88344167D01*
X3861789Y-88318838D01*
X4096100Y-88256054D01*
X4320212Y-88163224D01*
X4530289Y-88041936D01*
X4722738Y-87894265D01*
X4894265Y-87722738D01*
X5041936Y-87530289D01*
X5163224Y-87320212D01*
X5256054Y-87096100D01*
X5318838Y-86861789D01*
X5350500Y-86621288D01*
X5350500Y-86378712D01*
X5318838Y-86138211D01*
X5256054Y-85903900D01*
X5163224Y-85679788D01*
X5041936Y-85469711D01*
X4978672Y-85387264D01*
X4894266Y-85277263D01*
X4894260Y-85277256D01*
X4735479Y-85118475D01*
X22749500Y-85118475D01*
X22749500Y-86881517D01*
X22757830Y-86934108D01*
X22764354Y-86975304D01*
X22821950Y-87088342D01*
X22821952Y-87088344D01*
X22821954Y-87088347D01*
X22911652Y-87178045D01*
X22911654Y-87178046D01*
X22911658Y-87178050D01*
X23024694Y-87235645D01*
X23024698Y-87235647D01*
X23118475Y-87250499D01*
X23118481Y-87250500D01*
X24881518Y-87250499D01*
X24975304Y-87235646D01*
X25088342Y-87178050D01*
X25178050Y-87088342D01*
X25235646Y-86975304D01*
X25235646Y-86975302D01*
X25235647Y-86975301D01*
X25250499Y-86881524D01*
X25250500Y-86881519D01*
X25250499Y-86734263D01*
X25270183Y-86667227D01*
X25322987Y-86621472D01*
X25392145Y-86611528D01*
X25455701Y-86640553D01*
X25474817Y-86661380D01*
X25586172Y-86814646D01*
X25725354Y-86953828D01*
X25884595Y-87069524D01*
X25936754Y-87096100D01*
X26059970Y-87158882D01*
X26059972Y-87158882D01*
X26059975Y-87158884D01*
X26118962Y-87178050D01*
X26247173Y-87219709D01*
X26441578Y-87250500D01*
X26441583Y-87250500D01*
X26638422Y-87250500D01*
X26783793Y-87227474D01*
X26832826Y-87219709D01*
X26925905Y-87189464D01*
X26995741Y-87187469D01*
X27051901Y-87219715D01*
X28116800Y-88284614D01*
X28209986Y-88377800D01*
X28282867Y-88419878D01*
X28324114Y-88443692D01*
X28451407Y-88477800D01*
X28451408Y-88477800D01*
X28451409Y-88477800D01*
X35145990Y-88477800D01*
X35145992Y-88477800D01*
X35273286Y-88443692D01*
X35387414Y-88377800D01*
X37386503Y-86378711D01*
X104649500Y-86378711D01*
X104649500Y-86621288D01*
X104681161Y-86861785D01*
X104743947Y-87096104D01*
X104831991Y-87308660D01*
X104836776Y-87320212D01*
X104958064Y-87530289D01*
X104958066Y-87530292D01*
X104958067Y-87530293D01*
X105105733Y-87722736D01*
X105105739Y-87722743D01*
X105277256Y-87894260D01*
X105277262Y-87894265D01*
X105469711Y-88041936D01*
X105679788Y-88163224D01*
X105903900Y-88256054D01*
X106138211Y-88318838D01*
X106318586Y-88342584D01*
X106378711Y-88350500D01*
X106378712Y-88350500D01*
X106621289Y-88350500D01*
X106669388Y-88344167D01*
X106861789Y-88318838D01*
X107096100Y-88256054D01*
X107320212Y-88163224D01*
X107530289Y-88041936D01*
X107722738Y-87894265D01*
X107894265Y-87722738D01*
X108041936Y-87530289D01*
X108163224Y-87320212D01*
X108256054Y-87096100D01*
X108318838Y-86861789D01*
X108350500Y-86621288D01*
X108350500Y-86378712D01*
X108318838Y-86138211D01*
X108256054Y-85903900D01*
X108163224Y-85679788D01*
X108041936Y-85469711D01*
X107978672Y-85387264D01*
X107894266Y-85277263D01*
X107894260Y-85277256D01*
X107722743Y-85105739D01*
X107722736Y-85105733D01*
X107530293Y-84958067D01*
X107530292Y-84958066D01*
X107530289Y-84958064D01*
X107320212Y-84836776D01*
X107320205Y-84836773D01*
X107096104Y-84743947D01*
X106904248Y-84692539D01*
X106861789Y-84681162D01*
X106861788Y-84681161D01*
X106861785Y-84681161D01*
X106621289Y-84649500D01*
X106621288Y-84649500D01*
X106378712Y-84649500D01*
X106378711Y-84649500D01*
X106138214Y-84681161D01*
X105903895Y-84743947D01*
X105679794Y-84836773D01*
X105679785Y-84836777D01*
X105469706Y-84958067D01*
X105277263Y-85105733D01*
X105277256Y-85105739D01*
X105105739Y-85277256D01*
X105105733Y-85277263D01*
X104958067Y-85469706D01*
X104836777Y-85679785D01*
X104836773Y-85679794D01*
X104743947Y-85903895D01*
X104681161Y-86138214D01*
X104649500Y-86378711D01*
X37386503Y-86378711D01*
X51910499Y-71854715D01*
X51924419Y-71830606D01*
X51924421Y-71830603D01*
X51976389Y-71740592D01*
X51976389Y-71740590D01*
X51976392Y-71740586D01*
X52010500Y-71613292D01*
X52010500Y-41157622D01*
X52030185Y-41090583D01*
X52082989Y-41044828D01*
X52152147Y-41034884D01*
X52190790Y-41047135D01*
X52319168Y-41112547D01*
X52441924Y-41152433D01*
X52498881Y-41170940D01*
X52685514Y-41200500D01*
X52685519Y-41200500D01*
X52874486Y-41200500D01*
X53061118Y-41170940D01*
X53102106Y-41157622D01*
X53240832Y-41112547D01*
X53409199Y-41026760D01*
X53494715Y-40964628D01*
X53560520Y-40941149D01*
X53628574Y-40956974D01*
X53677269Y-41007080D01*
X53691600Y-41064947D01*
X53691600Y-67534791D01*
X53725708Y-67662087D01*
X53758654Y-67719150D01*
X53791600Y-67776214D01*
X53791602Y-67776216D01*
X54263581Y-68248195D01*
X54297066Y-68309518D01*
X54299900Y-68335876D01*
X54299900Y-68346193D01*
X54299900Y-68346195D01*
X54299899Y-68346195D01*
X54326818Y-68481522D01*
X54326821Y-68481532D01*
X54379621Y-68609004D01*
X54379628Y-68609017D01*
X54456285Y-68723741D01*
X54456288Y-68723745D01*
X54553854Y-68821311D01*
X54553858Y-68821314D01*
X54668582Y-68897971D01*
X54668595Y-68897978D01*
X54796067Y-68950778D01*
X54796072Y-68950780D01*
X54796076Y-68950780D01*
X54796077Y-68950781D01*
X54931404Y-68977700D01*
X54931407Y-68977700D01*
X55069395Y-68977700D01*
X55160441Y-68959589D01*
X55204728Y-68950780D01*
X55332211Y-68897975D01*
X55446942Y-68821314D01*
X55544514Y-68723742D01*
X55621175Y-68609011D01*
X55673980Y-68481528D01*
X55700900Y-68346193D01*
X55700900Y-68208207D01*
X55700900Y-68208204D01*
X55673981Y-68072877D01*
X55673980Y-68072876D01*
X55673980Y-68072872D01*
X55673978Y-68072867D01*
X55621178Y-67945395D01*
X55621171Y-67945382D01*
X55544514Y-67830658D01*
X55544511Y-67830654D01*
X55446945Y-67733088D01*
X55446941Y-67733085D01*
X55332217Y-67656428D01*
X55332204Y-67656421D01*
X55204732Y-67603621D01*
X55204722Y-67603618D01*
X55069395Y-67576700D01*
X55069393Y-67576700D01*
X55059076Y-67576700D01*
X54992037Y-67557015D01*
X54971395Y-67540381D01*
X54728919Y-67297905D01*
X54695434Y-67236582D01*
X54692600Y-67210224D01*
X54692600Y-41229096D01*
X54712285Y-41162057D01*
X54765089Y-41116302D01*
X54834247Y-41106358D01*
X54854919Y-41111165D01*
X54859160Y-41112543D01*
X54859168Y-41112547D01*
X54997894Y-41157622D01*
X55038881Y-41170940D01*
X55225514Y-41200500D01*
X55225519Y-41200500D01*
X55414486Y-41200500D01*
X55601118Y-41170940D01*
X55642106Y-41157622D01*
X55780832Y-41112547D01*
X55949199Y-41026760D01*
X56102073Y-40915690D01*
X56235690Y-40782073D01*
X56346760Y-40629199D01*
X56432547Y-40460832D01*
X56472069Y-40339195D01*
X56511507Y-40281521D01*
X56575866Y-40254323D01*
X56644712Y-40266238D01*
X56696188Y-40313482D01*
X56707931Y-40339196D01*
X56747454Y-40460836D01*
X56783668Y-40531909D01*
X56833240Y-40629199D01*
X56944310Y-40782073D01*
X57077927Y-40915690D01*
X57230801Y-41026760D01*
X57310347Y-41067290D01*
X57399163Y-41112545D01*
X57399165Y-41112545D01*
X57399168Y-41112547D01*
X57481089Y-41139165D01*
X57578881Y-41170940D01*
X57765514Y-41200500D01*
X57765519Y-41200500D01*
X57954486Y-41200500D01*
X58141118Y-41170940D01*
X58182106Y-41157622D01*
X58320832Y-41112547D01*
X58489199Y-41026760D01*
X58600916Y-40945592D01*
X58666720Y-40922113D01*
X58734774Y-40937938D01*
X58783469Y-40988043D01*
X58797800Y-41045911D01*
X58797800Y-52281824D01*
X58778115Y-52348863D01*
X58761481Y-52369505D01*
X58256602Y-52874383D01*
X58256600Y-52874386D01*
X58190708Y-52988512D01*
X58165766Y-53081598D01*
X58156600Y-53115808D01*
X58156600Y-60952708D01*
X58156600Y-61084492D01*
X58167110Y-61123715D01*
X58190708Y-61211787D01*
X58220682Y-61263703D01*
X58256600Y-61325914D01*
X58256602Y-61325916D01*
X59359481Y-62428795D01*
X59392966Y-62490118D01*
X59395800Y-62516476D01*
X59395800Y-62526793D01*
X59395800Y-62526795D01*
X59395799Y-62526795D01*
X59422718Y-62662122D01*
X59422721Y-62662132D01*
X59475521Y-62789604D01*
X59475528Y-62789617D01*
X59552185Y-62904341D01*
X59552188Y-62904345D01*
X59649754Y-63001911D01*
X59649758Y-63001914D01*
X59764482Y-63078571D01*
X59764495Y-63078578D01*
X59891967Y-63131378D01*
X59891972Y-63131380D01*
X59891976Y-63131380D01*
X59891977Y-63131381D01*
X60027304Y-63158300D01*
X60027307Y-63158300D01*
X60165295Y-63158300D01*
X60270796Y-63137314D01*
X60300628Y-63131380D01*
X60428111Y-63078575D01*
X60542842Y-63001914D01*
X60640414Y-62904342D01*
X60717075Y-62789611D01*
X60769880Y-62662128D01*
X60778689Y-62617841D01*
X60796800Y-62526795D01*
X60796800Y-62388804D01*
X60769881Y-62253477D01*
X60769880Y-62253476D01*
X60769880Y-62253472D01*
X60717075Y-62125989D01*
X60717074Y-62125987D01*
X60717071Y-62125982D01*
X60640414Y-62011258D01*
X60640411Y-62011254D01*
X60542845Y-61913688D01*
X60542841Y-61913685D01*
X60428117Y-61837028D01*
X60428104Y-61837021D01*
X60300632Y-61784221D01*
X60300622Y-61784218D01*
X60165295Y-61757300D01*
X60165293Y-61757300D01*
X60154976Y-61757300D01*
X60125535Y-61748655D01*
X60095549Y-61742132D01*
X60090533Y-61738377D01*
X60087937Y-61737615D01*
X60067295Y-61720981D01*
X59958495Y-61612181D01*
X59925010Y-61550858D01*
X59929994Y-61481166D01*
X59971866Y-61425233D01*
X60037330Y-61400816D01*
X60046176Y-61400500D01*
X60815686Y-61400500D01*
X60815694Y-61400500D01*
X60852569Y-61397598D01*
X60852571Y-61397597D01*
X60852573Y-61397597D01*
X60928630Y-61375500D01*
X61010398Y-61351744D01*
X61151865Y-61268081D01*
X61268081Y-61151865D01*
X61351744Y-61010398D01*
X61385505Y-60894191D01*
X61397597Y-60852573D01*
X61397598Y-60852567D01*
X61400500Y-60815694D01*
X61400500Y-59881947D01*
X63500000Y-59881947D01*
X63500000Y-60118052D01*
X63536934Y-60351247D01*
X63609897Y-60575802D01*
X63717081Y-60786163D01*
X63717089Y-60786176D01*
X63747584Y-60828149D01*
X63747586Y-60828150D01*
X64502094Y-60073641D01*
X64534075Y-60192993D01*
X64599901Y-60307007D01*
X64692993Y-60400099D01*
X64807007Y-60465925D01*
X64926358Y-60497905D01*
X64171849Y-61252413D01*
X64213828Y-61282914D01*
X64424197Y-61390102D01*
X64648752Y-61463065D01*
X64648751Y-61463065D01*
X64881948Y-61500000D01*
X65118052Y-61500000D01*
X65351247Y-61463065D01*
X65575802Y-61390102D01*
X65786171Y-61282914D01*
X65828149Y-61252413D01*
X65073641Y-60497905D01*
X65192993Y-60465925D01*
X65307007Y-60400099D01*
X65400099Y-60307007D01*
X65465925Y-60192993D01*
X65497905Y-60073641D01*
X66252413Y-60828149D01*
X66282914Y-60786171D01*
X66390102Y-60575802D01*
X66463065Y-60351247D01*
X66500000Y-60118052D01*
X66500000Y-59881947D01*
X66463065Y-59648752D01*
X66390102Y-59424197D01*
X66282914Y-59213828D01*
X66252413Y-59171849D01*
X65497905Y-59926357D01*
X65465925Y-59807007D01*
X65400099Y-59692993D01*
X65307007Y-59599901D01*
X65192993Y-59534075D01*
X65073642Y-59502094D01*
X65828150Y-58747586D01*
X65828149Y-58747584D01*
X65786176Y-58717089D01*
X65786163Y-58717081D01*
X65575802Y-58609897D01*
X65351247Y-58536934D01*
X65351248Y-58536934D01*
X65118052Y-58500000D01*
X64881948Y-58500000D01*
X64648752Y-58536934D01*
X64424197Y-58609897D01*
X64213824Y-58717087D01*
X64171849Y-58747584D01*
X64171848Y-58747585D01*
X64926358Y-59502094D01*
X64807007Y-59534075D01*
X64692993Y-59599901D01*
X64599901Y-59692993D01*
X64534075Y-59807007D01*
X64502094Y-59926357D01*
X63747585Y-59171848D01*
X63747584Y-59171849D01*
X63717087Y-59213824D01*
X63609897Y-59424197D01*
X63536934Y-59648752D01*
X63500000Y-59881947D01*
X61400500Y-59881947D01*
X61400500Y-59358676D01*
X61420185Y-59291637D01*
X61436819Y-59270995D01*
X63170995Y-57536819D01*
X63232318Y-57503334D01*
X63258676Y-57500500D01*
X69450500Y-57500500D01*
X69517539Y-57520185D01*
X69563294Y-57572989D01*
X69574500Y-57624500D01*
X69574500Y-57690701D01*
X69577401Y-57727567D01*
X69577402Y-57727573D01*
X69623254Y-57885393D01*
X69623255Y-57885396D01*
X69706917Y-58026862D01*
X69706923Y-58026870D01*
X69823129Y-58143076D01*
X69823133Y-58143079D01*
X69823135Y-58143081D01*
X69964602Y-58226744D01*
X70006224Y-58238836D01*
X70122426Y-58272597D01*
X70122429Y-58272597D01*
X70122431Y-58272598D01*
X70159306Y-58275500D01*
X70159314Y-58275500D01*
X70915686Y-58275500D01*
X70915694Y-58275500D01*
X70952569Y-58272598D01*
X70952571Y-58272597D01*
X70952573Y-58272597D01*
X71025105Y-58251524D01*
X71110398Y-58226744D01*
X71251865Y-58143081D01*
X71368081Y-58026865D01*
X71451744Y-57885398D01*
X71497598Y-57727569D01*
X71500500Y-57690694D01*
X71500500Y-56796176D01*
X71520185Y-56729137D01*
X71536819Y-56708495D01*
X71935895Y-56309419D01*
X71997218Y-56275934D01*
X72023576Y-56273100D01*
X72375500Y-56273100D01*
X72442539Y-56292785D01*
X72488294Y-56345589D01*
X72499500Y-56397100D01*
X72499500Y-57690701D01*
X72502401Y-57727567D01*
X72502402Y-57727573D01*
X72548254Y-57885393D01*
X72548255Y-57885396D01*
X72631917Y-58026862D01*
X72631923Y-58026870D01*
X72660938Y-58055885D01*
X72694423Y-58117208D01*
X72689439Y-58186900D01*
X72660938Y-58231247D01*
X71197004Y-59695181D01*
X71135681Y-59728666D01*
X71084095Y-59726900D01*
X71083796Y-59728540D01*
X71077569Y-59727402D01*
X71077568Y-59727401D01*
X71077563Y-59727401D01*
X71040701Y-59724500D01*
X71040694Y-59724500D01*
X70159306Y-59724500D01*
X70159298Y-59724500D01*
X70122432Y-59727401D01*
X70122426Y-59727402D01*
X69964606Y-59773254D01*
X69964603Y-59773255D01*
X69823137Y-59856917D01*
X69823129Y-59856923D01*
X69706923Y-59973129D01*
X69706917Y-59973137D01*
X69623255Y-60114603D01*
X69623254Y-60114606D01*
X69577402Y-60272426D01*
X69577401Y-60272432D01*
X69574500Y-60309298D01*
X69574500Y-61690701D01*
X69577401Y-61727567D01*
X69577402Y-61727573D01*
X69623254Y-61885393D01*
X69623255Y-61885396D01*
X69623256Y-61885398D01*
X69639987Y-61913688D01*
X69706917Y-62026862D01*
X69706923Y-62026870D01*
X69823129Y-62143076D01*
X69823133Y-62143079D01*
X69823135Y-62143081D01*
X69964602Y-62226744D01*
X70006224Y-62238836D01*
X70122426Y-62272597D01*
X70122429Y-62272597D01*
X70122431Y-62272598D01*
X70159306Y-62275500D01*
X70159314Y-62275500D01*
X71040686Y-62275500D01*
X71040694Y-62275500D01*
X71077569Y-62272598D01*
X71077571Y-62272597D01*
X71077573Y-62272597D01*
X71143400Y-62253472D01*
X71235398Y-62226744D01*
X71376865Y-62143081D01*
X71493081Y-62026865D01*
X71576744Y-61885398D01*
X71622598Y-61727569D01*
X71625500Y-61690694D01*
X71625500Y-61674986D01*
X72275001Y-61674986D01*
X72285494Y-61777697D01*
X72340641Y-61944119D01*
X72340643Y-61944124D01*
X72432684Y-62093345D01*
X72556654Y-62217315D01*
X72705875Y-62309356D01*
X72705880Y-62309358D01*
X72872302Y-62364505D01*
X72872309Y-62364506D01*
X72975019Y-62374999D01*
X73099999Y-62374999D01*
X73700000Y-62374999D01*
X73824972Y-62374999D01*
X73824986Y-62374998D01*
X73927697Y-62364505D01*
X74094119Y-62309358D01*
X74094124Y-62309356D01*
X74243345Y-62217315D01*
X74367315Y-62093345D01*
X74459356Y-61944124D01*
X74459358Y-61944119D01*
X74514505Y-61777697D01*
X74514506Y-61777690D01*
X74524999Y-61674986D01*
X74525000Y-61674973D01*
X74525000Y-61300000D01*
X73700000Y-61300000D01*
X73700000Y-62374999D01*
X73099999Y-62374999D01*
X73100000Y-62374998D01*
X73100000Y-61300000D01*
X72275001Y-61300000D01*
X72275001Y-61674986D01*
X71625500Y-61674986D01*
X71625500Y-60733674D01*
X71645185Y-60666635D01*
X71661814Y-60645998D01*
X72063320Y-60244492D01*
X72124642Y-60211008D01*
X72194334Y-60215992D01*
X72250267Y-60257864D01*
X72274684Y-60323328D01*
X72275000Y-60332174D01*
X72275000Y-60700000D01*
X73100000Y-60700000D01*
X73700000Y-60700000D01*
X74524999Y-60700000D01*
X74524999Y-60325028D01*
X74524998Y-60325013D01*
X74514505Y-60222302D01*
X74459358Y-60055880D01*
X74459356Y-60055875D01*
X74367315Y-59906654D01*
X74360647Y-59899986D01*
X77625001Y-59899986D01*
X77635494Y-60002697D01*
X77690641Y-60169119D01*
X77690643Y-60169124D01*
X77782684Y-60318345D01*
X77906654Y-60442315D01*
X78055875Y-60534356D01*
X78055880Y-60534358D01*
X78222302Y-60589505D01*
X78222309Y-60589506D01*
X78325019Y-60599999D01*
X78699999Y-60599999D01*
X79300000Y-60599999D01*
X79674972Y-60599999D01*
X79674986Y-60599998D01*
X79777697Y-60589505D01*
X79944119Y-60534358D01*
X79944124Y-60534356D01*
X80093345Y-60442315D01*
X80217315Y-60318345D01*
X80309356Y-60169124D01*
X80309358Y-60169119D01*
X80364505Y-60002697D01*
X80364506Y-60002690D01*
X80374999Y-59899986D01*
X80375000Y-59899973D01*
X80375000Y-59837500D01*
X79300000Y-59837500D01*
X79300000Y-60599999D01*
X78699999Y-60599999D01*
X78700000Y-60599998D01*
X78700000Y-59837500D01*
X77625001Y-59837500D01*
X77625001Y-59899986D01*
X74360647Y-59899986D01*
X74243345Y-59782684D01*
X74094124Y-59690643D01*
X74094119Y-59690641D01*
X73927697Y-59635494D01*
X73927690Y-59635493D01*
X73824986Y-59625000D01*
X73700000Y-59625000D01*
X73700000Y-60700000D01*
X73100000Y-60700000D01*
X73100000Y-59625000D01*
X72982173Y-59625000D01*
X72915134Y-59605315D01*
X72869379Y-59552511D01*
X72859435Y-59483353D01*
X72888460Y-59419797D01*
X72894472Y-59413339D01*
X73132798Y-59175013D01*
X77625000Y-59175013D01*
X77625000Y-59237500D01*
X78700000Y-59237500D01*
X79300000Y-59237500D01*
X80374999Y-59237500D01*
X80374999Y-59175028D01*
X80374998Y-59175013D01*
X80364505Y-59072302D01*
X80309358Y-58905880D01*
X80309356Y-58905875D01*
X80217315Y-58756654D01*
X80093345Y-58632684D01*
X79944124Y-58540643D01*
X79944119Y-58540641D01*
X79777697Y-58485494D01*
X79777690Y-58485493D01*
X79674986Y-58475000D01*
X79300000Y-58475000D01*
X79300000Y-59237500D01*
X78700000Y-59237500D01*
X78700000Y-58475000D01*
X78325028Y-58475000D01*
X78325012Y-58475001D01*
X78222302Y-58485494D01*
X78055880Y-58540641D01*
X78055875Y-58540643D01*
X77906654Y-58632684D01*
X77782684Y-58756654D01*
X77690643Y-58905875D01*
X77690641Y-58905880D01*
X77635494Y-59072302D01*
X77635493Y-59072309D01*
X77625000Y-59175013D01*
X73132798Y-59175013D01*
X73759604Y-58548207D01*
X73759609Y-58548204D01*
X73769812Y-58538000D01*
X73769814Y-58538000D01*
X73863000Y-58444814D01*
X73928892Y-58330686D01*
X73932019Y-58319012D01*
X73968383Y-58259354D01*
X74017200Y-58232030D01*
X74035398Y-58226744D01*
X74176865Y-58143081D01*
X74293081Y-58026865D01*
X74376744Y-57885398D01*
X74422598Y-57727569D01*
X74425500Y-57690694D01*
X74425500Y-56397100D01*
X74445185Y-56330061D01*
X74497989Y-56284306D01*
X74549500Y-56273100D01*
X77600500Y-56273100D01*
X77667539Y-56292785D01*
X77713294Y-56345589D01*
X77724500Y-56397100D01*
X77724500Y-56840701D01*
X77727401Y-56877567D01*
X77727402Y-56877573D01*
X77773254Y-57035393D01*
X77773255Y-57035396D01*
X77773256Y-57035398D01*
X77782449Y-57050942D01*
X77856917Y-57176862D01*
X77856923Y-57176870D01*
X77973129Y-57293076D01*
X77973133Y-57293079D01*
X77973135Y-57293081D01*
X78114602Y-57376744D01*
X78156224Y-57388836D01*
X78272426Y-57422597D01*
X78272429Y-57422597D01*
X78272431Y-57422598D01*
X78309306Y-57425500D01*
X78309314Y-57425500D01*
X79690686Y-57425500D01*
X79690694Y-57425500D01*
X79727569Y-57422598D01*
X79727571Y-57422597D01*
X79727573Y-57422597D01*
X79794622Y-57403117D01*
X79885398Y-57376744D01*
X80026865Y-57293081D01*
X80143081Y-57176865D01*
X80226744Y-57035398D01*
X80272598Y-56877569D01*
X80275500Y-56840694D01*
X80275500Y-56084306D01*
X80272598Y-56047431D01*
X80259352Y-56001838D01*
X80259550Y-55931974D01*
X80290745Y-55879567D01*
X81042019Y-55128294D01*
X81103342Y-55094809D01*
X81173034Y-55099793D01*
X81228967Y-55141665D01*
X81253384Y-55207129D01*
X81253700Y-55215975D01*
X81253700Y-61838000D01*
X81234015Y-61905039D01*
X81181211Y-61950794D01*
X81129700Y-61962000D01*
X80339526Y-61962000D01*
X80272487Y-61942315D01*
X80231980Y-61895568D01*
X80230715Y-61896317D01*
X80224256Y-61885396D01*
X80143081Y-61748135D01*
X80143079Y-61748133D01*
X80143076Y-61748129D01*
X80026870Y-61631923D01*
X80026862Y-61631917D01*
X79938829Y-61579855D01*
X79885398Y-61548256D01*
X79885397Y-61548255D01*
X79885396Y-61548255D01*
X79885393Y-61548254D01*
X79727573Y-61502402D01*
X79727567Y-61502401D01*
X79690701Y-61499500D01*
X79690694Y-61499500D01*
X78309306Y-61499500D01*
X78309298Y-61499500D01*
X78272432Y-61502401D01*
X78272426Y-61502402D01*
X78114606Y-61548254D01*
X78114603Y-61548255D01*
X77973137Y-61631917D01*
X77973129Y-61631923D01*
X77856923Y-61748129D01*
X77856917Y-61748137D01*
X77773255Y-61889603D01*
X77773254Y-61889606D01*
X77727402Y-62047426D01*
X77727401Y-62047432D01*
X77724500Y-62084298D01*
X77724500Y-62840701D01*
X77727401Y-62877567D01*
X77727402Y-62877573D01*
X77773254Y-63035393D01*
X77773255Y-63035396D01*
X77773256Y-63035398D01*
X77810681Y-63098681D01*
X77856917Y-63176862D01*
X77856923Y-63176870D01*
X77973129Y-63293076D01*
X77973133Y-63293079D01*
X77973135Y-63293081D01*
X78114602Y-63376744D01*
X78156224Y-63388836D01*
X78272426Y-63422597D01*
X78272429Y-63422597D01*
X78272431Y-63422598D01*
X78309306Y-63425500D01*
X78309314Y-63425500D01*
X79690686Y-63425500D01*
X79690694Y-63425500D01*
X79727569Y-63422598D01*
X79727571Y-63422597D01*
X79727573Y-63422597D01*
X79769191Y-63410505D01*
X79885398Y-63376744D01*
X80026865Y-63293081D01*
X80143081Y-63176865D01*
X80226744Y-63035398D01*
X80226745Y-63035396D01*
X80230715Y-63028683D01*
X80232427Y-63029696D01*
X80270417Y-62984044D01*
X80337050Y-62963025D01*
X80339526Y-62963000D01*
X80433608Y-62963000D01*
X81626857Y-62963000D01*
X81693896Y-62982685D01*
X81739651Y-63035489D01*
X81745933Y-63052404D01*
X81748254Y-63060394D01*
X81748255Y-63060396D01*
X81748256Y-63060398D01*
X81759006Y-63078575D01*
X81831917Y-63201862D01*
X81831923Y-63201870D01*
X81948129Y-63318076D01*
X81948133Y-63318079D01*
X81948135Y-63318081D01*
X82089602Y-63401744D01*
X82131224Y-63413836D01*
X82247426Y-63447597D01*
X82247429Y-63447597D01*
X82247431Y-63447598D01*
X82284306Y-63450500D01*
X82284314Y-63450500D01*
X83715686Y-63450500D01*
X83715694Y-63450500D01*
X83752569Y-63447598D01*
X83752571Y-63447597D01*
X83752573Y-63447597D01*
X83828630Y-63425500D01*
X83910398Y-63401744D01*
X84051865Y-63318081D01*
X84168081Y-63201865D01*
X84251744Y-63060398D01*
X84297598Y-62902569D01*
X84300500Y-62865694D01*
X84300500Y-62084306D01*
X84297598Y-62047431D01*
X84291624Y-62026870D01*
X84251745Y-61889606D01*
X84251744Y-61889603D01*
X84251744Y-61889602D01*
X84168081Y-61748135D01*
X84168079Y-61748133D01*
X84168076Y-61748129D01*
X84051870Y-61631923D01*
X84051862Y-61631917D01*
X83963829Y-61579855D01*
X83910398Y-61548256D01*
X83910397Y-61548255D01*
X83910396Y-61548255D01*
X83910393Y-61548254D01*
X83752573Y-61502402D01*
X83752567Y-61502401D01*
X83715701Y-61499500D01*
X83715694Y-61499500D01*
X82378700Y-61499500D01*
X82311661Y-61479815D01*
X82265906Y-61427011D01*
X82254700Y-61375500D01*
X82254700Y-60723999D01*
X82274385Y-60656960D01*
X82327189Y-60611205D01*
X82378700Y-60599999D01*
X82699999Y-60599999D01*
X83300000Y-60599999D01*
X83699972Y-60599999D01*
X83699986Y-60599998D01*
X83802697Y-60589505D01*
X83969119Y-60534358D01*
X83969124Y-60534356D01*
X84118345Y-60442315D01*
X84242315Y-60318345D01*
X84334356Y-60169124D01*
X84334358Y-60169119D01*
X84389505Y-60002697D01*
X84389506Y-60002690D01*
X84399999Y-59899986D01*
X84400000Y-59899973D01*
X84400000Y-59825000D01*
X83300000Y-59825000D01*
X83300000Y-60599999D01*
X82699999Y-60599999D01*
X82700000Y-60599998D01*
X82700000Y-59225000D01*
X83300000Y-59225000D01*
X84399999Y-59225000D01*
X84399999Y-59150028D01*
X84399998Y-59150013D01*
X84389505Y-59047302D01*
X84334358Y-58880880D01*
X84334356Y-58880875D01*
X84242315Y-58731654D01*
X84118345Y-58607684D01*
X83969124Y-58515643D01*
X83969119Y-58515641D01*
X83802697Y-58460494D01*
X83802690Y-58460493D01*
X83699986Y-58450000D01*
X83300000Y-58450000D01*
X83300000Y-59225000D01*
X82700000Y-59225000D01*
X82700000Y-58450000D01*
X82378700Y-58450000D01*
X82311661Y-58430315D01*
X82265906Y-58377511D01*
X82254700Y-58326000D01*
X82254700Y-55363676D01*
X82274385Y-55296637D01*
X82291019Y-55275995D01*
X82527906Y-55039108D01*
X82812000Y-54755014D01*
X82877892Y-54640886D01*
X82912000Y-54513592D01*
X82912000Y-54381807D01*
X82912000Y-53416208D01*
X82905166Y-53390704D01*
X82877892Y-53288914D01*
X82862531Y-53262308D01*
X82812000Y-53174786D01*
X82718814Y-53081600D01*
X82718812Y-53081598D01*
X82341414Y-52704200D01*
X82284350Y-52671254D01*
X82227287Y-52638308D01*
X82163639Y-52621254D01*
X82099992Y-52604200D01*
X82099991Y-52604200D01*
X79837454Y-52604200D01*
X79802859Y-52599276D01*
X79771251Y-52590093D01*
X79727570Y-52577402D01*
X79727567Y-52577401D01*
X79690701Y-52574500D01*
X79690694Y-52574500D01*
X78796176Y-52574500D01*
X78729137Y-52554815D01*
X78708495Y-52538181D01*
X67515091Y-41344777D01*
X67481606Y-41283454D01*
X67486590Y-41213762D01*
X67528462Y-41157829D01*
X67593926Y-41133412D01*
X67641088Y-41139164D01*
X67697894Y-41157622D01*
X67738881Y-41170940D01*
X67925514Y-41200500D01*
X67925519Y-41200500D01*
X68114486Y-41200500D01*
X68301118Y-41170940D01*
X68342106Y-41157622D01*
X68480832Y-41112547D01*
X68649199Y-41026760D01*
X68802073Y-40915690D01*
X68863996Y-40853766D01*
X68925315Y-40820284D01*
X68995007Y-40825268D01*
X69039355Y-40853769D01*
X77586086Y-49400500D01*
X77700214Y-49466392D01*
X77827507Y-49500500D01*
X77827508Y-49500500D01*
X88450500Y-49500500D01*
X88517539Y-49520185D01*
X88563294Y-49572989D01*
X88574500Y-49624500D01*
X88574500Y-49690701D01*
X88577401Y-49727567D01*
X88577402Y-49727573D01*
X88623254Y-49885393D01*
X88623255Y-49885396D01*
X88623256Y-49885398D01*
X88630617Y-49897844D01*
X88706917Y-50026862D01*
X88706923Y-50026870D01*
X88823129Y-50143076D01*
X88823133Y-50143079D01*
X88823135Y-50143081D01*
X88964602Y-50226744D01*
X89006224Y-50238836D01*
X89122426Y-50272597D01*
X89122429Y-50272597D01*
X89122431Y-50272598D01*
X89159306Y-50275500D01*
X89159314Y-50275500D01*
X89915686Y-50275500D01*
X89915694Y-50275500D01*
X89952569Y-50272598D01*
X89952571Y-50272597D01*
X89952573Y-50272597D01*
X90028630Y-50250500D01*
X90110398Y-50226744D01*
X90251865Y-50143081D01*
X90368081Y-50026865D01*
X90451744Y-49885398D01*
X90497598Y-49727569D01*
X90500500Y-49690694D01*
X90500500Y-48309306D01*
X90497598Y-48272431D01*
X90491523Y-48251522D01*
X90451745Y-48114606D01*
X90451744Y-48114603D01*
X90451744Y-48114602D01*
X90368081Y-47973135D01*
X90368079Y-47973133D01*
X90368076Y-47973129D01*
X90251870Y-47856923D01*
X90251862Y-47856917D01*
X90173681Y-47810681D01*
X90110398Y-47773256D01*
X90110397Y-47773255D01*
X90110396Y-47773255D01*
X90110393Y-47773254D01*
X89952573Y-47727402D01*
X89952567Y-47727401D01*
X89915701Y-47724500D01*
X89915694Y-47724500D01*
X89159306Y-47724500D01*
X89159298Y-47724500D01*
X89122432Y-47727401D01*
X89122426Y-47727402D01*
X88964606Y-47773254D01*
X88964603Y-47773255D01*
X88823137Y-47856917D01*
X88823129Y-47856923D01*
X88706923Y-47973129D01*
X88706917Y-47973137D01*
X88623255Y-48114603D01*
X88623254Y-48114606D01*
X88577402Y-48272426D01*
X88577401Y-48272432D01*
X88574500Y-48309298D01*
X88574500Y-48375500D01*
X88554815Y-48442539D01*
X88502011Y-48488294D01*
X88450500Y-48499500D01*
X78152076Y-48499500D01*
X78085037Y-48479815D01*
X78064395Y-48463181D01*
X70932148Y-41330934D01*
X70898663Y-41269611D01*
X70903647Y-41199919D01*
X70945519Y-41143986D01*
X70981504Y-41125325D01*
X71020832Y-41112547D01*
X71189199Y-41026760D01*
X71342073Y-40915690D01*
X71475690Y-40782073D01*
X71499875Y-40748784D01*
X71555201Y-40706119D01*
X71624814Y-40700138D01*
X71686610Y-40732742D01*
X71687874Y-40733988D01*
X76261200Y-45307314D01*
X76354386Y-45400500D01*
X76468514Y-45466392D01*
X76595808Y-45500500D01*
X78450500Y-45500500D01*
X78517539Y-45520185D01*
X78563294Y-45572989D01*
X78574500Y-45624500D01*
X78574500Y-45690701D01*
X78577401Y-45727567D01*
X78577402Y-45727573D01*
X78623254Y-45885393D01*
X78623255Y-45885396D01*
X78706917Y-46026862D01*
X78706923Y-46026870D01*
X78823129Y-46143076D01*
X78823133Y-46143079D01*
X78823135Y-46143081D01*
X78964602Y-46226744D01*
X79006224Y-46238836D01*
X79122426Y-46272597D01*
X79122429Y-46272597D01*
X79122431Y-46272598D01*
X79159306Y-46275500D01*
X79159314Y-46275500D01*
X79915686Y-46275500D01*
X79915694Y-46275500D01*
X79952569Y-46272598D01*
X79952571Y-46272597D01*
X79952573Y-46272597D01*
X79994191Y-46260505D01*
X80110398Y-46226744D01*
X80251865Y-46143081D01*
X80368081Y-46026865D01*
X80451744Y-45885398D01*
X80497598Y-45727569D01*
X80500500Y-45690694D01*
X80500500Y-44309306D01*
X80500499Y-44309298D01*
X81499500Y-44309298D01*
X81499500Y-45690701D01*
X81502401Y-45727567D01*
X81502402Y-45727573D01*
X81548254Y-45885393D01*
X81548255Y-45885396D01*
X81631917Y-46026862D01*
X81631923Y-46026870D01*
X81748129Y-46143076D01*
X81748133Y-46143079D01*
X81748135Y-46143081D01*
X81889602Y-46226744D01*
X81931224Y-46238836D01*
X82047426Y-46272597D01*
X82047429Y-46272597D01*
X82047431Y-46272598D01*
X82084306Y-46275500D01*
X82084314Y-46275500D01*
X82840686Y-46275500D01*
X82840694Y-46275500D01*
X82877569Y-46272598D01*
X82877571Y-46272597D01*
X82877573Y-46272597D01*
X82919191Y-46260505D01*
X83035398Y-46226744D01*
X83176865Y-46143081D01*
X83293081Y-46026865D01*
X83376744Y-45885398D01*
X83380923Y-45871012D01*
X83418529Y-45812127D01*
X83482002Y-45782920D01*
X83551188Y-45792666D01*
X83604123Y-45838269D01*
X83619076Y-45871011D01*
X83623256Y-45885398D01*
X83683799Y-45987772D01*
X83706917Y-46026862D01*
X83706923Y-46026870D01*
X83823129Y-46143076D01*
X83823133Y-46143079D01*
X83823135Y-46143081D01*
X83964602Y-46226744D01*
X84006224Y-46238836D01*
X84122426Y-46272597D01*
X84122429Y-46272597D01*
X84122431Y-46272598D01*
X84159306Y-46275500D01*
X84159314Y-46275500D01*
X85040686Y-46275500D01*
X85040694Y-46275500D01*
X85077569Y-46272598D01*
X85077571Y-46272597D01*
X85077573Y-46272597D01*
X85119191Y-46260505D01*
X85235398Y-46226744D01*
X85376865Y-46143081D01*
X85493081Y-46026865D01*
X85576744Y-45885398D01*
X85622598Y-45727569D01*
X85625500Y-45690694D01*
X85625500Y-45674986D01*
X86275001Y-45674986D01*
X86285494Y-45777697D01*
X86340641Y-45944119D01*
X86340643Y-45944124D01*
X86432684Y-46093345D01*
X86556654Y-46217315D01*
X86705875Y-46309356D01*
X86705880Y-46309358D01*
X86872302Y-46364505D01*
X86872309Y-46364506D01*
X86975019Y-46374999D01*
X87099999Y-46374999D01*
X87700000Y-46374999D01*
X87824972Y-46374999D01*
X87824986Y-46374998D01*
X87927697Y-46364505D01*
X88094119Y-46309358D01*
X88094124Y-46309356D01*
X88243345Y-46217315D01*
X88367315Y-46093345D01*
X88459356Y-45944124D01*
X88459358Y-45944119D01*
X88514505Y-45777697D01*
X88514506Y-45777690D01*
X88524999Y-45674986D01*
X88525000Y-45674973D01*
X88525000Y-45300000D01*
X87700000Y-45300000D01*
X87700000Y-46374999D01*
X87099999Y-46374999D01*
X87100000Y-46374998D01*
X87100000Y-45300000D01*
X86275001Y-45300000D01*
X86275001Y-45674986D01*
X85625500Y-45674986D01*
X85625500Y-44325013D01*
X86275000Y-44325013D01*
X86275000Y-44700000D01*
X87100000Y-44700000D01*
X87700000Y-44700000D01*
X88524999Y-44700000D01*
X88524999Y-44325028D01*
X88524998Y-44325013D01*
X88514505Y-44222302D01*
X88459358Y-44055880D01*
X88459356Y-44055875D01*
X88367315Y-43906654D01*
X88243345Y-43782684D01*
X88094124Y-43690643D01*
X88094119Y-43690641D01*
X87927697Y-43635494D01*
X87927690Y-43635493D01*
X87824986Y-43625000D01*
X87700000Y-43625000D01*
X87700000Y-44700000D01*
X87100000Y-44700000D01*
X87100000Y-43625000D01*
X86975027Y-43625000D01*
X86975012Y-43625001D01*
X86872302Y-43635494D01*
X86705880Y-43690641D01*
X86705875Y-43690643D01*
X86556654Y-43782684D01*
X86432684Y-43906654D01*
X86340643Y-44055875D01*
X86340641Y-44055880D01*
X86285494Y-44222302D01*
X86285493Y-44222309D01*
X86275000Y-44325013D01*
X85625500Y-44325013D01*
X85625500Y-44309306D01*
X85622598Y-44272431D01*
X85598031Y-44187873D01*
X85588836Y-44156224D01*
X85576744Y-44114602D01*
X85493081Y-43973135D01*
X85493079Y-43973133D01*
X85493076Y-43973129D01*
X85376870Y-43856923D01*
X85376862Y-43856917D01*
X85235396Y-43773255D01*
X85235393Y-43773254D01*
X85077573Y-43727402D01*
X85077567Y-43727401D01*
X85040701Y-43724500D01*
X85040694Y-43724500D01*
X84159306Y-43724500D01*
X84159298Y-43724500D01*
X84122432Y-43727401D01*
X84122426Y-43727402D01*
X83964606Y-43773254D01*
X83964603Y-43773255D01*
X83823137Y-43856917D01*
X83823129Y-43856923D01*
X83706923Y-43973129D01*
X83706917Y-43973137D01*
X83623255Y-44114603D01*
X83623254Y-44114604D01*
X83619076Y-44128988D01*
X83581469Y-44187873D01*
X83517997Y-44217079D01*
X83448810Y-44207333D01*
X83395876Y-44161728D01*
X83380924Y-44128988D01*
X83376745Y-44114604D01*
X83376744Y-44114603D01*
X83376744Y-44114602D01*
X83293081Y-43973135D01*
X83293079Y-43973133D01*
X83293076Y-43973129D01*
X83176870Y-43856923D01*
X83176862Y-43856917D01*
X83035396Y-43773255D01*
X83035393Y-43773254D01*
X82877573Y-43727402D01*
X82877567Y-43727401D01*
X82840701Y-43724500D01*
X82840694Y-43724500D01*
X82084306Y-43724500D01*
X82084298Y-43724500D01*
X82047432Y-43727401D01*
X82047426Y-43727402D01*
X81889606Y-43773254D01*
X81889603Y-43773255D01*
X81748137Y-43856917D01*
X81748129Y-43856923D01*
X81631923Y-43973129D01*
X81631917Y-43973137D01*
X81548255Y-44114603D01*
X81548254Y-44114606D01*
X81502402Y-44272426D01*
X81502401Y-44272432D01*
X81499500Y-44309298D01*
X80500499Y-44309298D01*
X80497598Y-44272431D01*
X80473031Y-44187873D01*
X80463836Y-44156224D01*
X80451744Y-44114602D01*
X80368081Y-43973135D01*
X80368079Y-43973133D01*
X80368076Y-43973129D01*
X80251870Y-43856923D01*
X80251862Y-43856917D01*
X80110396Y-43773255D01*
X80110393Y-43773254D01*
X79952573Y-43727402D01*
X79952567Y-43727401D01*
X79915701Y-43724500D01*
X79915694Y-43724500D01*
X79159306Y-43724500D01*
X79159298Y-43724500D01*
X79122432Y-43727401D01*
X79122426Y-43727402D01*
X78964606Y-43773254D01*
X78964603Y-43773255D01*
X78823137Y-43856917D01*
X78823129Y-43856923D01*
X78706923Y-43973129D01*
X78706917Y-43973137D01*
X78623255Y-44114603D01*
X78623254Y-44114606D01*
X78577402Y-44272426D01*
X78577401Y-44272432D01*
X78574500Y-44309298D01*
X78574500Y-44375500D01*
X78554815Y-44442539D01*
X78502011Y-44488294D01*
X78450500Y-44499500D01*
X76920376Y-44499500D01*
X76853337Y-44479815D01*
X76832695Y-44463181D01*
X71969016Y-39599502D01*
X71969014Y-39599500D01*
X71907772Y-39564142D01*
X71854887Y-39533608D01*
X71784409Y-39514724D01*
X71727592Y-39499500D01*
X71727591Y-39499500D01*
X71719532Y-39498439D01*
X71719724Y-39496975D01*
X71661284Y-39479815D01*
X71617838Y-39431795D01*
X71586759Y-39370800D01*
X71475690Y-39217927D01*
X71342073Y-39084310D01*
X71189199Y-38973240D01*
X71166456Y-38961652D01*
X71020836Y-38887454D01*
X70841118Y-38829059D01*
X70654486Y-38799500D01*
X70654481Y-38799500D01*
X70465519Y-38799500D01*
X70465514Y-38799500D01*
X70278881Y-38829059D01*
X70099163Y-38887454D01*
X69930800Y-38973240D01*
X69845287Y-39035370D01*
X69777927Y-39084310D01*
X69777925Y-39084312D01*
X69777924Y-39084312D01*
X69644312Y-39217924D01*
X69644312Y-39217925D01*
X69644310Y-39217927D01*
X69598571Y-39280881D01*
X69533238Y-39370803D01*
X69478726Y-39477788D01*
X69430752Y-39528583D01*
X69362931Y-39545378D01*
X69337532Y-39541629D01*
X69321823Y-39537613D01*
X69314886Y-39533608D01*
X69187592Y-39499500D01*
X69172725Y-39499500D01*
X69157613Y-39495637D01*
X69140442Y-39485440D01*
X69121284Y-39479815D01*
X69110038Y-39467386D01*
X69097537Y-39459962D01*
X69090386Y-39445665D01*
X69077838Y-39431795D01*
X69046759Y-39370800D01*
X68935690Y-39217927D01*
X68802073Y-39084310D01*
X68649199Y-38973240D01*
X68626456Y-38961652D01*
X68480836Y-38887454D01*
X68301118Y-38829059D01*
X68114486Y-38799500D01*
X68114481Y-38799500D01*
X67925519Y-38799500D01*
X67925514Y-38799500D01*
X67738881Y-38829059D01*
X67559163Y-38887454D01*
X67430795Y-38952862D01*
X67362126Y-38965758D01*
X67297385Y-38939482D01*
X67257128Y-38882375D01*
X67250500Y-38842377D01*
X67250500Y-36007410D01*
X67250500Y-36007408D01*
X67216392Y-35880114D01*
X67150500Y-35765986D01*
X67057314Y-35672800D01*
X64814309Y-33429795D01*
X86923299Y-33429795D01*
X86950218Y-33565122D01*
X86950221Y-33565132D01*
X87003021Y-33692604D01*
X87003028Y-33692617D01*
X87079685Y-33807341D01*
X87079688Y-33807345D01*
X87177254Y-33904911D01*
X87177258Y-33904914D01*
X87291982Y-33981571D01*
X87291995Y-33981578D01*
X87419467Y-34034378D01*
X87419472Y-34034380D01*
X87419476Y-34034380D01*
X87419477Y-34034381D01*
X87554804Y-34061300D01*
X87554807Y-34061300D01*
X87692795Y-34061300D01*
X87786703Y-34042620D01*
X87828128Y-34034380D01*
X87926724Y-33993540D01*
X87955604Y-33981578D01*
X87955604Y-33981577D01*
X87955611Y-33981575D01*
X88070342Y-33904914D01*
X88167914Y-33807342D01*
X88167917Y-33807337D01*
X88169246Y-33805719D01*
X88170162Y-33805094D01*
X88172222Y-33803035D01*
X88172612Y-33803425D01*
X88226988Y-33766379D01*
X88296833Y-33764502D01*
X88356604Y-33800685D01*
X88368208Y-33815484D01*
X88414885Y-33885341D01*
X88414888Y-33885345D01*
X88512454Y-33982911D01*
X88512458Y-33982914D01*
X88561754Y-34015853D01*
X88606559Y-34069465D01*
X88615266Y-34138790D01*
X88611940Y-34153549D01*
X88577401Y-34272432D01*
X88574500Y-34309298D01*
X88574500Y-35690701D01*
X88577401Y-35727567D01*
X88577402Y-35727573D01*
X88623254Y-35885393D01*
X88623255Y-35885396D01*
X88623256Y-35885398D01*
X88630617Y-35897844D01*
X88706917Y-36026862D01*
X88706923Y-36026870D01*
X88823129Y-36143076D01*
X88823133Y-36143079D01*
X88823135Y-36143081D01*
X88952706Y-36219709D01*
X88971317Y-36230715D01*
X88970301Y-36232431D01*
X89015944Y-36270398D01*
X89036975Y-36337027D01*
X89037000Y-36339525D01*
X89037000Y-37164024D01*
X89017315Y-37231063D01*
X89000681Y-37251705D01*
X88620505Y-37631881D01*
X88559182Y-37665366D01*
X88532824Y-37668200D01*
X88522505Y-37668200D01*
X88387177Y-37695118D01*
X88387167Y-37695121D01*
X88259695Y-37747921D01*
X88259682Y-37747928D01*
X88144958Y-37824585D01*
X88144954Y-37824588D01*
X88047388Y-37922154D01*
X88047385Y-37922158D01*
X87970728Y-38036882D01*
X87970721Y-38036895D01*
X87917921Y-38164367D01*
X87917918Y-38164377D01*
X87891000Y-38299704D01*
X87891000Y-38355700D01*
X87871315Y-38422739D01*
X87818511Y-38468494D01*
X87767000Y-38479700D01*
X87693805Y-38479700D01*
X87558477Y-38506618D01*
X87558467Y-38506621D01*
X87430995Y-38559421D01*
X87430982Y-38559428D01*
X87316258Y-38636085D01*
X87316254Y-38636088D01*
X87218688Y-38733654D01*
X87218685Y-38733658D01*
X87142028Y-38848382D01*
X87142021Y-38848395D01*
X87089221Y-38975867D01*
X87089218Y-38975877D01*
X87062300Y-39111204D01*
X87062300Y-39111207D01*
X87062300Y-39249193D01*
X87062300Y-39249195D01*
X87062299Y-39249195D01*
X87089218Y-39384522D01*
X87089221Y-39384532D01*
X87142021Y-39512004D01*
X87142028Y-39512017D01*
X87218685Y-39626741D01*
X87218688Y-39626745D01*
X87316254Y-39724311D01*
X87316258Y-39724314D01*
X87430982Y-39800971D01*
X87430995Y-39800978D01*
X87558467Y-39853778D01*
X87558472Y-39853780D01*
X87558476Y-39853780D01*
X87558477Y-39853781D01*
X87693804Y-39880700D01*
X87693807Y-39880700D01*
X87704124Y-39880700D01*
X87771163Y-39900385D01*
X87791805Y-39917019D01*
X88691305Y-40816519D01*
X88724790Y-40877842D01*
X88719806Y-40947534D01*
X88710357Y-40967320D01*
X88623254Y-41114605D01*
X88623254Y-41114606D01*
X88577402Y-41272426D01*
X88577401Y-41272432D01*
X88574500Y-41309298D01*
X88574500Y-42690701D01*
X88577401Y-42727567D01*
X88577402Y-42727573D01*
X88623254Y-42885393D01*
X88623255Y-42885396D01*
X88623256Y-42885398D01*
X88630617Y-42897844D01*
X88706917Y-43026862D01*
X88706923Y-43026870D01*
X88823129Y-43143076D01*
X88823133Y-43143079D01*
X88823135Y-43143081D01*
X88964602Y-43226744D01*
X89006224Y-43238836D01*
X89122426Y-43272597D01*
X89122429Y-43272597D01*
X89122431Y-43272598D01*
X89159306Y-43275500D01*
X89159314Y-43275500D01*
X89915686Y-43275500D01*
X89915694Y-43275500D01*
X89952569Y-43272598D01*
X89952571Y-43272597D01*
X89952573Y-43272597D01*
X90028630Y-43250500D01*
X90110398Y-43226744D01*
X90251865Y-43143081D01*
X90368081Y-43026865D01*
X90451744Y-42885398D01*
X90497598Y-42727569D01*
X90500500Y-42690694D01*
X90500500Y-41309306D01*
X90497598Y-41272431D01*
X90491523Y-41251522D01*
X90455650Y-41128048D01*
X90451744Y-41114602D01*
X90368081Y-40973135D01*
X90368079Y-40973133D01*
X90368076Y-40973129D01*
X90251870Y-40856923D01*
X90251862Y-40856917D01*
X90173681Y-40810681D01*
X90110398Y-40773256D01*
X90110397Y-40773255D01*
X90110396Y-40773255D01*
X90038299Y-40752308D01*
X89979414Y-40714701D01*
X89965509Y-40695233D01*
X89957493Y-40681349D01*
X89938000Y-40647586D01*
X89844814Y-40554400D01*
X88571295Y-39280881D01*
X88537810Y-39219558D01*
X88542794Y-39149866D01*
X88584666Y-39093933D01*
X88650130Y-39069516D01*
X88658976Y-39069200D01*
X88660495Y-39069200D01*
X88767846Y-39047846D01*
X88795828Y-39042280D01*
X88923311Y-38989475D01*
X89038042Y-38912814D01*
X89135614Y-38815242D01*
X89212275Y-38700511D01*
X89265080Y-38573028D01*
X89278289Y-38506621D01*
X89292000Y-38437695D01*
X89292000Y-38427376D01*
X89311685Y-38360337D01*
X89328319Y-38339695D01*
X89631132Y-38036882D01*
X89938000Y-37730014D01*
X90003892Y-37615886D01*
X90038000Y-37488592D01*
X90038000Y-37356808D01*
X90038000Y-36339525D01*
X90057685Y-36272486D01*
X90104431Y-36231980D01*
X90103683Y-36230715D01*
X90114297Y-36224438D01*
X90251865Y-36143081D01*
X90368081Y-36026865D01*
X90451744Y-35885398D01*
X90497598Y-35727569D01*
X90500500Y-35690694D01*
X90500500Y-34309306D01*
X90500499Y-34309298D01*
X91499500Y-34309298D01*
X91499500Y-35690701D01*
X91502401Y-35727567D01*
X91502402Y-35727573D01*
X91548254Y-35885393D01*
X91548255Y-35885396D01*
X91548256Y-35885398D01*
X91555617Y-35897844D01*
X91631917Y-36026862D01*
X91631923Y-36026870D01*
X91748129Y-36143076D01*
X91748133Y-36143079D01*
X91748135Y-36143081D01*
X91889602Y-36226744D01*
X91909177Y-36232431D01*
X92047426Y-36272597D01*
X92047429Y-36272597D01*
X92047431Y-36272598D01*
X92084306Y-36275500D01*
X92084314Y-36275500D01*
X92840686Y-36275500D01*
X92840694Y-36275500D01*
X92877569Y-36272598D01*
X92877571Y-36272597D01*
X92877573Y-36272597D01*
X92953630Y-36250500D01*
X93035398Y-36226744D01*
X93176865Y-36143081D01*
X93293081Y-36026865D01*
X93376744Y-35885398D01*
X93422598Y-35727569D01*
X93425500Y-35690694D01*
X93425500Y-35624500D01*
X93445185Y-35557461D01*
X93497989Y-35511706D01*
X93549500Y-35500500D01*
X97695560Y-35500500D01*
X97762599Y-35520185D01*
X97806045Y-35568205D01*
X97850476Y-35655405D01*
X97966172Y-35814646D01*
X98105354Y-35953828D01*
X98264595Y-36069524D01*
X98347455Y-36111743D01*
X98439970Y-36158882D01*
X98439972Y-36158882D01*
X98439975Y-36158884D01*
X98540317Y-36191487D01*
X98627173Y-36219709D01*
X98821578Y-36250500D01*
X98821583Y-36250500D01*
X99018422Y-36250500D01*
X99212826Y-36219709D01*
X99251355Y-36207190D01*
X99400025Y-36158884D01*
X99402940Y-36157399D01*
X99431050Y-36143076D01*
X99575405Y-36069524D01*
X99734646Y-35953828D01*
X99873828Y-35814646D01*
X99989524Y-35655405D01*
X100078884Y-35480025D01*
X100079515Y-35478787D01*
X100127489Y-35427990D01*
X100195310Y-35411195D01*
X100261445Y-35433732D01*
X100300485Y-35478787D01*
X100390474Y-35655403D01*
X100403114Y-35672800D01*
X100506172Y-35814646D01*
X100645354Y-35953828D01*
X100719100Y-36007408D01*
X100804590Y-36069521D01*
X100804592Y-36069522D01*
X100804595Y-36069524D01*
X100891795Y-36113954D01*
X100942590Y-36161927D01*
X100959500Y-36224438D01*
X100959500Y-40775560D01*
X100939815Y-40842599D01*
X100891795Y-40886045D01*
X100804594Y-40930476D01*
X100745880Y-40973135D01*
X100645354Y-41046172D01*
X100645352Y-41046174D01*
X100645351Y-41046174D01*
X100506174Y-41185351D01*
X100506174Y-41185352D01*
X100506172Y-41185354D01*
X100474246Y-41229296D01*
X100390476Y-41344594D01*
X100300485Y-41521213D01*
X100252511Y-41572009D01*
X100184690Y-41588804D01*
X100118555Y-41566267D01*
X100079515Y-41521213D01*
X100031517Y-41427011D01*
X99989524Y-41344595D01*
X99873828Y-41185354D01*
X99734646Y-41046172D01*
X99575405Y-40930476D01*
X99565254Y-40925304D01*
X99400029Y-40841117D01*
X99212826Y-40780290D01*
X99018422Y-40749500D01*
X99018417Y-40749500D01*
X98821583Y-40749500D01*
X98821578Y-40749500D01*
X98627173Y-40780290D01*
X98439970Y-40841117D01*
X98264594Y-40930476D01*
X98205880Y-40973135D01*
X98105354Y-41046172D01*
X98105352Y-41046174D01*
X98105351Y-41046174D01*
X97966174Y-41185351D01*
X97966174Y-41185352D01*
X97966172Y-41185354D01*
X97934246Y-41229296D01*
X97850476Y-41344594D01*
X97806045Y-41431795D01*
X97758070Y-41482591D01*
X97695560Y-41499500D01*
X93549500Y-41499500D01*
X93482461Y-41479815D01*
X93436706Y-41427011D01*
X93425500Y-41375500D01*
X93425500Y-41309313D01*
X93425499Y-41309298D01*
X93424899Y-41301676D01*
X93422598Y-41272431D01*
X93416523Y-41251522D01*
X93380650Y-41128048D01*
X93376744Y-41114602D01*
X93293081Y-40973135D01*
X93293079Y-40973133D01*
X93293076Y-40973129D01*
X93176870Y-40856923D01*
X93176862Y-40856917D01*
X93098681Y-40810681D01*
X93035398Y-40773256D01*
X93035397Y-40773255D01*
X93035396Y-40773255D01*
X93035393Y-40773254D01*
X92877573Y-40727402D01*
X92877567Y-40727401D01*
X92840701Y-40724500D01*
X92840694Y-40724500D01*
X92084306Y-40724500D01*
X92084298Y-40724500D01*
X92047432Y-40727401D01*
X92047426Y-40727402D01*
X91889606Y-40773254D01*
X91889603Y-40773255D01*
X91748137Y-40856917D01*
X91748129Y-40856923D01*
X91631923Y-40973129D01*
X91631917Y-40973137D01*
X91548255Y-41114603D01*
X91548254Y-41114606D01*
X91502402Y-41272426D01*
X91502401Y-41272432D01*
X91499500Y-41309298D01*
X91499500Y-42690701D01*
X91502401Y-42727567D01*
X91502402Y-42727573D01*
X91548254Y-42885393D01*
X91548255Y-42885396D01*
X91548256Y-42885398D01*
X91555617Y-42897844D01*
X91631917Y-43026862D01*
X91631923Y-43026870D01*
X91748129Y-43143076D01*
X91748133Y-43143079D01*
X91748135Y-43143081D01*
X91889602Y-43226744D01*
X91931224Y-43238836D01*
X92047426Y-43272597D01*
X92047429Y-43272597D01*
X92047431Y-43272598D01*
X92084306Y-43275500D01*
X92084314Y-43275500D01*
X92840686Y-43275500D01*
X92840694Y-43275500D01*
X92877569Y-43272598D01*
X92877571Y-43272597D01*
X92877573Y-43272597D01*
X92953630Y-43250500D01*
X93035398Y-43226744D01*
X93176865Y-43143081D01*
X93293081Y-43026865D01*
X93376744Y-42885398D01*
X93422598Y-42727569D01*
X93425500Y-42690694D01*
X93425500Y-42624500D01*
X93445185Y-42557461D01*
X93497989Y-42511706D01*
X93549500Y-42500500D01*
X97695560Y-42500500D01*
X97762599Y-42520185D01*
X97806045Y-42568205D01*
X97850476Y-42655405D01*
X97966172Y-42814646D01*
X98105354Y-42953828D01*
X98264595Y-43069524D01*
X98347455Y-43111743D01*
X98439970Y-43158882D01*
X98439972Y-43158882D01*
X98439975Y-43158884D01*
X98540317Y-43191487D01*
X98627173Y-43219709D01*
X98821578Y-43250500D01*
X98821583Y-43250500D01*
X99018422Y-43250500D01*
X99212826Y-43219709D01*
X99251355Y-43207190D01*
X99400025Y-43158884D01*
X99402940Y-43157399D01*
X99431050Y-43143076D01*
X99575405Y-43069524D01*
X99734646Y-42953828D01*
X99873828Y-42814646D01*
X99989524Y-42655405D01*
X100078884Y-42480025D01*
X100079515Y-42478787D01*
X100127489Y-42427990D01*
X100195310Y-42411195D01*
X100261445Y-42433732D01*
X100300485Y-42478787D01*
X100390474Y-42655403D01*
X100416109Y-42690686D01*
X100506172Y-42814646D01*
X100645354Y-42953828D01*
X100735251Y-43019142D01*
X100804590Y-43069521D01*
X100804592Y-43069522D01*
X100804595Y-43069524D01*
X100891795Y-43113954D01*
X100942590Y-43161927D01*
X100959500Y-43224438D01*
X100959500Y-47775560D01*
X100939815Y-47842599D01*
X100891795Y-47886045D01*
X100804594Y-47930476D01*
X100745880Y-47973135D01*
X100645354Y-48046172D01*
X100645352Y-48046174D01*
X100645351Y-48046174D01*
X100506174Y-48185351D01*
X100506174Y-48185352D01*
X100506172Y-48185354D01*
X100498566Y-48195823D01*
X100390476Y-48344594D01*
X100300485Y-48521213D01*
X100252511Y-48572009D01*
X100184690Y-48588804D01*
X100118555Y-48566267D01*
X100079515Y-48521213D01*
X100031517Y-48427011D01*
X99989524Y-48344595D01*
X99873828Y-48185354D01*
X99734646Y-48046172D01*
X99575405Y-47930476D01*
X99400029Y-47841117D01*
X99212826Y-47780290D01*
X99018422Y-47749500D01*
X99018417Y-47749500D01*
X98821583Y-47749500D01*
X98821578Y-47749500D01*
X98627173Y-47780290D01*
X98439970Y-47841117D01*
X98264594Y-47930476D01*
X98205880Y-47973135D01*
X98105354Y-48046172D01*
X98105352Y-48046174D01*
X98105351Y-48046174D01*
X97966174Y-48185351D01*
X97966174Y-48185352D01*
X97966172Y-48185354D01*
X97958566Y-48195823D01*
X97850476Y-48344594D01*
X97806045Y-48431795D01*
X97758070Y-48482591D01*
X97695560Y-48499500D01*
X93549500Y-48499500D01*
X93482461Y-48479815D01*
X93436706Y-48427011D01*
X93425500Y-48375500D01*
X93425500Y-48309313D01*
X93425499Y-48309298D01*
X93422598Y-48272432D01*
X93422597Y-48272426D01*
X93376745Y-48114606D01*
X93376744Y-48114603D01*
X93376744Y-48114602D01*
X93293081Y-47973135D01*
X93293079Y-47973133D01*
X93293076Y-47973129D01*
X93176870Y-47856923D01*
X93176862Y-47856917D01*
X93098681Y-47810681D01*
X93035398Y-47773256D01*
X93035397Y-47773255D01*
X93035396Y-47773255D01*
X93035393Y-47773254D01*
X92877573Y-47727402D01*
X92877567Y-47727401D01*
X92840701Y-47724500D01*
X92840694Y-47724500D01*
X92084306Y-47724500D01*
X92084298Y-47724500D01*
X92047432Y-47727401D01*
X92047426Y-47727402D01*
X91889606Y-47773254D01*
X91889603Y-47773255D01*
X91748137Y-47856917D01*
X91748129Y-47856923D01*
X91631923Y-47973129D01*
X91631917Y-47973137D01*
X91548255Y-48114603D01*
X91548254Y-48114606D01*
X91502402Y-48272426D01*
X91502401Y-48272432D01*
X91499500Y-48309298D01*
X91499500Y-49690701D01*
X91502401Y-49727567D01*
X91502402Y-49727573D01*
X91548254Y-49885393D01*
X91548255Y-49885396D01*
X91548256Y-49885398D01*
X91555617Y-49897844D01*
X91631917Y-50026862D01*
X91631923Y-50026870D01*
X91748129Y-50143076D01*
X91748133Y-50143079D01*
X91748135Y-50143081D01*
X91889602Y-50226744D01*
X91931224Y-50238836D01*
X92047426Y-50272597D01*
X92047429Y-50272597D01*
X92047431Y-50272598D01*
X92084306Y-50275500D01*
X92084314Y-50275500D01*
X92840686Y-50275500D01*
X92840694Y-50275500D01*
X92877569Y-50272598D01*
X92877571Y-50272597D01*
X92877573Y-50272597D01*
X92953630Y-50250500D01*
X93035398Y-50226744D01*
X93176865Y-50143081D01*
X93293081Y-50026865D01*
X93376744Y-49885398D01*
X93422598Y-49727569D01*
X93425500Y-49690694D01*
X93425500Y-49624500D01*
X93445185Y-49557461D01*
X93497989Y-49511706D01*
X93549500Y-49500500D01*
X97695560Y-49500500D01*
X97762599Y-49520185D01*
X97806045Y-49568205D01*
X97850476Y-49655405D01*
X97966172Y-49814646D01*
X98105354Y-49953828D01*
X98264595Y-50069524D01*
X98347455Y-50111743D01*
X98439970Y-50158882D01*
X98439972Y-50158882D01*
X98439975Y-50158884D01*
X98540317Y-50191487D01*
X98627173Y-50219709D01*
X98821578Y-50250500D01*
X98821583Y-50250500D01*
X99018422Y-50250500D01*
X99212826Y-50219709D01*
X99251355Y-50207190D01*
X99400025Y-50158884D01*
X99575405Y-50069524D01*
X99734646Y-49953828D01*
X99873828Y-49814646D01*
X99989524Y-49655405D01*
X100078884Y-49480025D01*
X100079515Y-49478787D01*
X100127489Y-49427990D01*
X100195310Y-49411195D01*
X100261445Y-49433732D01*
X100300485Y-49478787D01*
X100390474Y-49655403D01*
X100416109Y-49690686D01*
X100506172Y-49814646D01*
X100645354Y-49953828D01*
X100804595Y-50069524D01*
X100887455Y-50111743D01*
X100979970Y-50158882D01*
X100979972Y-50158882D01*
X100979975Y-50158884D01*
X101080317Y-50191487D01*
X101167173Y-50219709D01*
X101361578Y-50250500D01*
X101361583Y-50250500D01*
X101558422Y-50250500D01*
X101752826Y-50219709D01*
X101791355Y-50207190D01*
X101940025Y-50158884D01*
X102115405Y-50069524D01*
X102274646Y-49953828D01*
X102413828Y-49814646D01*
X102425682Y-49798329D01*
X102481011Y-49755664D01*
X102550624Y-49749685D01*
X102612419Y-49782290D01*
X102646777Y-49843128D01*
X102650000Y-49871215D01*
X102650000Y-49897844D01*
X102656401Y-49957372D01*
X102656403Y-49957379D01*
X102706645Y-50092086D01*
X102706649Y-50092093D01*
X102792809Y-50207187D01*
X102792812Y-50207190D01*
X102907906Y-50293350D01*
X102907913Y-50293354D01*
X103042620Y-50343596D01*
X103042627Y-50343598D01*
X103102155Y-50349999D01*
X103102172Y-50350000D01*
X103700000Y-50350000D01*
X103700000Y-49404144D01*
X103807007Y-49465925D01*
X103934174Y-49500000D01*
X104065826Y-49500000D01*
X104192993Y-49465925D01*
X104300000Y-49404144D01*
X104300000Y-50350000D01*
X104897828Y-50350000D01*
X104897844Y-50349999D01*
X104957372Y-50343598D01*
X104957379Y-50343596D01*
X105092086Y-50293354D01*
X105092093Y-50293350D01*
X105207187Y-50207190D01*
X105207190Y-50207187D01*
X105293350Y-50092093D01*
X105293354Y-50092086D01*
X105343596Y-49957379D01*
X105343598Y-49957372D01*
X105349999Y-49897844D01*
X105350000Y-49897827D01*
X105350000Y-49300000D01*
X104404144Y-49300000D01*
X104465925Y-49192993D01*
X104500000Y-49065826D01*
X104500000Y-48934174D01*
X104465925Y-48807007D01*
X104404144Y-48700000D01*
X105350000Y-48700000D01*
X105350000Y-48102172D01*
X105349999Y-48102155D01*
X105343598Y-48042627D01*
X105343596Y-48042620D01*
X105293354Y-47907913D01*
X105293350Y-47907906D01*
X105207190Y-47792812D01*
X105207187Y-47792809D01*
X105092093Y-47706649D01*
X105092086Y-47706645D01*
X104957379Y-47656403D01*
X104957372Y-47656401D01*
X104897844Y-47650000D01*
X104300000Y-47650000D01*
X104300000Y-48595855D01*
X104192993Y-48534075D01*
X104065826Y-48500000D01*
X103934174Y-48500000D01*
X103807007Y-48534075D01*
X103700000Y-48595855D01*
X103700000Y-47650000D01*
X103102155Y-47650000D01*
X103042627Y-47656401D01*
X103042620Y-47656403D01*
X102907913Y-47706645D01*
X102907906Y-47706649D01*
X102792812Y-47792809D01*
X102792809Y-47792812D01*
X102706649Y-47907906D01*
X102706645Y-47907913D01*
X102656403Y-48042620D01*
X102656401Y-48042627D01*
X102650000Y-48102155D01*
X102650000Y-48128784D01*
X102630315Y-48195823D01*
X102577511Y-48241578D01*
X102508353Y-48251522D01*
X102444797Y-48222497D01*
X102425683Y-48201671D01*
X102413828Y-48185354D01*
X102274648Y-48046174D01*
X102274646Y-48046172D01*
X102115405Y-47930476D01*
X102071109Y-47907906D01*
X102028205Y-47886045D01*
X101977409Y-47838070D01*
X101960500Y-47775560D01*
X101960500Y-43224438D01*
X101980185Y-43157399D01*
X102028204Y-43113954D01*
X102115405Y-43069524D01*
X102274646Y-42953828D01*
X102413828Y-42814646D01*
X102425682Y-42798329D01*
X102481011Y-42755664D01*
X102550624Y-42749685D01*
X102612419Y-42782290D01*
X102646777Y-42843128D01*
X102650000Y-42871215D01*
X102650000Y-42897844D01*
X102656401Y-42957372D01*
X102656403Y-42957379D01*
X102706645Y-43092086D01*
X102706649Y-43092093D01*
X102792809Y-43207187D01*
X102792812Y-43207190D01*
X102907906Y-43293350D01*
X102907913Y-43293354D01*
X103042620Y-43343596D01*
X103042627Y-43343598D01*
X103102155Y-43349999D01*
X103102172Y-43350000D01*
X103700000Y-43350000D01*
X103700000Y-42404144D01*
X103807007Y-42465925D01*
X103934174Y-42500000D01*
X104065826Y-42500000D01*
X104192993Y-42465925D01*
X104300000Y-42404144D01*
X104300000Y-43350000D01*
X104897828Y-43350000D01*
X104897844Y-43349999D01*
X104957372Y-43343598D01*
X104957379Y-43343596D01*
X105092086Y-43293354D01*
X105092093Y-43293350D01*
X105207187Y-43207190D01*
X105207190Y-43207187D01*
X105293350Y-43092093D01*
X105293354Y-43092086D01*
X105343596Y-42957379D01*
X105343598Y-42957372D01*
X105349999Y-42897844D01*
X105350000Y-42897827D01*
X105350000Y-42300000D01*
X104404144Y-42300000D01*
X104465925Y-42192993D01*
X104500000Y-42065826D01*
X104500000Y-41934174D01*
X104465925Y-41807007D01*
X104404144Y-41700000D01*
X105350000Y-41700000D01*
X105350000Y-41102172D01*
X105349999Y-41102155D01*
X105343598Y-41042627D01*
X105343596Y-41042620D01*
X105293354Y-40907913D01*
X105293350Y-40907906D01*
X105207190Y-40792812D01*
X105207187Y-40792809D01*
X105092093Y-40706649D01*
X105092086Y-40706645D01*
X104957379Y-40656403D01*
X104957372Y-40656401D01*
X104897844Y-40650000D01*
X104300000Y-40650000D01*
X104300000Y-41595855D01*
X104192993Y-41534075D01*
X104065826Y-41500000D01*
X103934174Y-41500000D01*
X103807007Y-41534075D01*
X103700000Y-41595855D01*
X103700000Y-40650000D01*
X103102155Y-40650000D01*
X103042627Y-40656401D01*
X103042620Y-40656403D01*
X102907913Y-40706645D01*
X102907906Y-40706649D01*
X102792812Y-40792809D01*
X102792809Y-40792812D01*
X102706649Y-40907906D01*
X102706645Y-40907913D01*
X102656403Y-41042620D01*
X102656401Y-41042627D01*
X102650000Y-41102155D01*
X102650000Y-41128784D01*
X102630315Y-41195823D01*
X102577511Y-41241578D01*
X102508353Y-41251522D01*
X102444797Y-41222497D01*
X102425683Y-41201671D01*
X102424831Y-41200499D01*
X102413828Y-41185354D01*
X102274646Y-41046172D01*
X102115405Y-40930476D01*
X102105254Y-40925304D01*
X102028205Y-40886045D01*
X101977409Y-40838070D01*
X101960500Y-40775560D01*
X101960500Y-36224438D01*
X101980185Y-36157399D01*
X102028204Y-36113954D01*
X102115405Y-36069524D01*
X102274646Y-35953828D01*
X102413828Y-35814646D01*
X102425682Y-35798329D01*
X102481011Y-35755664D01*
X102550624Y-35749685D01*
X102612419Y-35782290D01*
X102646777Y-35843128D01*
X102650000Y-35871215D01*
X102650000Y-35897844D01*
X102656401Y-35957372D01*
X102656403Y-35957379D01*
X102706645Y-36092086D01*
X102706649Y-36092093D01*
X102792809Y-36207187D01*
X102792812Y-36207190D01*
X102907906Y-36293350D01*
X102907913Y-36293354D01*
X103042620Y-36343596D01*
X103042627Y-36343598D01*
X103102155Y-36349999D01*
X103102172Y-36350000D01*
X103700000Y-36350000D01*
X103700000Y-35404144D01*
X103807007Y-35465925D01*
X103934174Y-35500000D01*
X104065826Y-35500000D01*
X104192993Y-35465925D01*
X104300000Y-35404144D01*
X104300000Y-36350000D01*
X104897828Y-36350000D01*
X104897844Y-36349999D01*
X104957372Y-36343598D01*
X104957379Y-36343596D01*
X105092086Y-36293354D01*
X105092093Y-36293350D01*
X105207187Y-36207190D01*
X105207190Y-36207187D01*
X105293350Y-36092093D01*
X105293354Y-36092086D01*
X105343596Y-35957379D01*
X105343598Y-35957372D01*
X105349999Y-35897844D01*
X105350000Y-35897827D01*
X105350000Y-35300000D01*
X104404144Y-35300000D01*
X104465925Y-35192993D01*
X104500000Y-35065826D01*
X104500000Y-34934174D01*
X104465925Y-34807007D01*
X104404144Y-34700000D01*
X105350000Y-34700000D01*
X105350000Y-34102172D01*
X105349999Y-34102155D01*
X105343598Y-34042627D01*
X105343596Y-34042620D01*
X105293354Y-33907913D01*
X105293350Y-33907906D01*
X105207190Y-33792812D01*
X105207187Y-33792809D01*
X105092093Y-33706649D01*
X105092086Y-33706645D01*
X104957379Y-33656403D01*
X104957372Y-33656401D01*
X104897844Y-33650000D01*
X104300000Y-33650000D01*
X104300000Y-34595855D01*
X104192993Y-34534075D01*
X104065826Y-34500000D01*
X103934174Y-34500000D01*
X103807007Y-34534075D01*
X103700000Y-34595855D01*
X103700000Y-33650000D01*
X103102155Y-33650000D01*
X103042627Y-33656401D01*
X103042620Y-33656403D01*
X102907913Y-33706645D01*
X102907906Y-33706649D01*
X102792812Y-33792809D01*
X102792809Y-33792812D01*
X102706649Y-33907906D01*
X102706645Y-33907913D01*
X102656403Y-34042620D01*
X102656401Y-34042627D01*
X102650000Y-34102155D01*
X102650000Y-34128784D01*
X102630315Y-34195823D01*
X102577511Y-34241578D01*
X102508353Y-34251522D01*
X102444797Y-34222497D01*
X102425683Y-34201671D01*
X102413828Y-34185354D01*
X102274648Y-34046174D01*
X102274646Y-34046172D01*
X102115405Y-33930476D01*
X101940029Y-33841117D01*
X101752826Y-33780290D01*
X101558422Y-33749500D01*
X101558417Y-33749500D01*
X101361583Y-33749500D01*
X101361578Y-33749500D01*
X101167173Y-33780290D01*
X100979970Y-33841117D01*
X100804594Y-33930476D01*
X100713741Y-33996485D01*
X100645354Y-34046172D01*
X100645352Y-34046174D01*
X100645351Y-34046174D01*
X100506174Y-34185351D01*
X100506174Y-34185352D01*
X100506172Y-34185354D01*
X100498566Y-34195823D01*
X100390476Y-34344594D01*
X100300485Y-34521213D01*
X100252511Y-34572009D01*
X100184690Y-34588804D01*
X100118555Y-34566267D01*
X100079515Y-34521213D01*
X100031517Y-34427011D01*
X99989524Y-34344595D01*
X99873828Y-34185354D01*
X99734646Y-34046172D01*
X99575405Y-33930476D01*
X99400029Y-33841117D01*
X99212826Y-33780290D01*
X99018422Y-33749500D01*
X99018417Y-33749500D01*
X98821583Y-33749500D01*
X98821578Y-33749500D01*
X98627173Y-33780290D01*
X98439970Y-33841117D01*
X98264594Y-33930476D01*
X98173741Y-33996485D01*
X98105354Y-34046172D01*
X98105352Y-34046174D01*
X98105351Y-34046174D01*
X97966174Y-34185351D01*
X97966174Y-34185352D01*
X97966172Y-34185354D01*
X97958566Y-34195823D01*
X97850476Y-34344594D01*
X97806045Y-34431795D01*
X97758070Y-34482591D01*
X97695560Y-34499500D01*
X93549500Y-34499500D01*
X93482461Y-34479815D01*
X93436706Y-34427011D01*
X93425500Y-34375500D01*
X93425500Y-34309313D01*
X93425499Y-34309298D01*
X93422598Y-34272432D01*
X93422597Y-34272426D01*
X93376745Y-34114606D01*
X93376744Y-34114603D01*
X93376744Y-34114602D01*
X93293081Y-33973135D01*
X93293079Y-33973133D01*
X93293076Y-33973129D01*
X93176870Y-33856923D01*
X93176862Y-33856917D01*
X93093040Y-33807345D01*
X93035398Y-33773256D01*
X93035397Y-33773255D01*
X93035396Y-33773255D01*
X93035393Y-33773254D01*
X92877573Y-33727402D01*
X92877567Y-33727401D01*
X92840701Y-33724500D01*
X92840694Y-33724500D01*
X92084306Y-33724500D01*
X92084298Y-33724500D01*
X92047432Y-33727401D01*
X92047426Y-33727402D01*
X91889606Y-33773254D01*
X91889603Y-33773255D01*
X91748137Y-33856917D01*
X91748129Y-33856923D01*
X91631923Y-33973129D01*
X91631917Y-33973137D01*
X91548255Y-34114603D01*
X91548254Y-34114606D01*
X91502402Y-34272426D01*
X91502401Y-34272432D01*
X91499500Y-34309298D01*
X90500499Y-34309298D01*
X90497598Y-34272431D01*
X90491523Y-34251522D01*
X90451745Y-34114606D01*
X90451744Y-34114603D01*
X90451744Y-34114602D01*
X90368081Y-33973135D01*
X90368079Y-33973133D01*
X90368076Y-33973129D01*
X90251870Y-33856923D01*
X90251862Y-33856917D01*
X90168040Y-33807345D01*
X90110398Y-33773256D01*
X90110397Y-33773255D01*
X90110396Y-33773255D01*
X90110393Y-33773254D01*
X89952573Y-33727402D01*
X89952567Y-33727401D01*
X89915701Y-33724500D01*
X89915694Y-33724500D01*
X89767489Y-33724500D01*
X89749721Y-33719282D01*
X89731203Y-33719072D01*
X89716891Y-33709642D01*
X89700450Y-33704815D01*
X89688324Y-33690820D01*
X89672858Y-33680631D01*
X89665915Y-33664960D01*
X89654695Y-33652011D01*
X89652059Y-33633682D01*
X89644558Y-33616749D01*
X89645491Y-33588006D01*
X89644751Y-33582853D01*
X89644960Y-33581458D01*
X89645363Y-33578860D01*
X89659500Y-33507793D01*
X89659500Y-33487899D01*
X89660971Y-33478434D01*
X89671932Y-33455137D01*
X89679185Y-33430437D01*
X89689683Y-33417409D01*
X89690717Y-33415212D01*
X89692205Y-33414279D01*
X89695819Y-33409795D01*
X89813810Y-33291804D01*
X89938000Y-33167614D01*
X89949142Y-33148315D01*
X90003892Y-33053486D01*
X90038000Y-32926192D01*
X90038000Y-25339525D01*
X90057685Y-25272486D01*
X90104431Y-25231980D01*
X90103683Y-25230715D01*
X90110993Y-25226392D01*
X90251865Y-25143081D01*
X90368081Y-25026865D01*
X90451744Y-24885398D01*
X90497598Y-24727569D01*
X90500500Y-24690694D01*
X90500500Y-23309306D01*
X90497598Y-23272431D01*
X90493347Y-23257800D01*
X90451745Y-23114606D01*
X90451744Y-23114603D01*
X90451744Y-23114602D01*
X90368081Y-22973135D01*
X90368079Y-22973133D01*
X90368076Y-22973129D01*
X90251870Y-22856923D01*
X90251862Y-22856917D01*
X90173681Y-22810681D01*
X90110398Y-22773256D01*
X90110397Y-22773255D01*
X90110396Y-22773255D01*
X90110393Y-22773254D01*
X89952573Y-22727402D01*
X89952567Y-22727401D01*
X89915701Y-22724500D01*
X89915694Y-22724500D01*
X89234400Y-22724500D01*
X89167361Y-22704815D01*
X89121606Y-22652011D01*
X89110400Y-22600500D01*
X89110400Y-18399500D01*
X89130085Y-18332461D01*
X89182889Y-18286706D01*
X89234400Y-18275500D01*
X89915686Y-18275500D01*
X89915694Y-18275500D01*
X89952569Y-18272598D01*
X89952571Y-18272597D01*
X89952573Y-18272597D01*
X90028630Y-18250500D01*
X90110398Y-18226744D01*
X90251865Y-18143081D01*
X90368081Y-18026865D01*
X90451744Y-17885398D01*
X90497598Y-17727569D01*
X90500500Y-17690694D01*
X90500500Y-16309306D01*
X90497598Y-16272431D01*
X90493032Y-16256716D01*
X90451745Y-16114606D01*
X90451744Y-16114603D01*
X90451744Y-16114602D01*
X90368081Y-15973135D01*
X90368079Y-15973133D01*
X90368076Y-15973129D01*
X90251870Y-15856923D01*
X90251862Y-15856917D01*
X90160168Y-15802690D01*
X90110398Y-15773256D01*
X90110397Y-15773255D01*
X90110396Y-15773255D01*
X90110393Y-15773254D01*
X89952573Y-15727402D01*
X89952567Y-15727401D01*
X89915701Y-15724500D01*
X89915694Y-15724500D01*
X89159306Y-15724500D01*
X89159298Y-15724500D01*
X89122432Y-15727401D01*
X89122426Y-15727402D01*
X88964606Y-15773254D01*
X88964603Y-15773255D01*
X88823137Y-15856917D01*
X88823129Y-15856923D01*
X88706923Y-15973129D01*
X88706917Y-15973137D01*
X88623255Y-16114603D01*
X88623254Y-16114606D01*
X88577402Y-16272426D01*
X88577401Y-16272432D01*
X88574500Y-16309298D01*
X88574500Y-17203824D01*
X88565855Y-17233264D01*
X88559332Y-17263251D01*
X88555577Y-17268266D01*
X88554815Y-17270863D01*
X88538181Y-17291505D01*
X88474981Y-17354705D01*
X88413658Y-17388190D01*
X88343966Y-17383206D01*
X88288033Y-17341334D01*
X88263616Y-17275870D01*
X88263300Y-17267024D01*
X88263300Y-12033375D01*
X88282985Y-11966336D01*
X88299615Y-11945698D01*
X88954567Y-11290745D01*
X89015888Y-11257262D01*
X89076838Y-11259351D01*
X89122431Y-11272598D01*
X89159306Y-11275500D01*
X89159314Y-11275500D01*
X89915686Y-11275500D01*
X89915694Y-11275500D01*
X89952569Y-11272598D01*
X89952571Y-11272597D01*
X89952573Y-11272597D01*
X90028630Y-11250500D01*
X90110398Y-11226744D01*
X90251865Y-11143081D01*
X90368081Y-11026865D01*
X90451744Y-10885398D01*
X90497598Y-10727569D01*
X90500500Y-10690694D01*
X90500500Y-9309306D01*
X90500499Y-9309298D01*
X91499500Y-9309298D01*
X91499500Y-10690701D01*
X91502401Y-10727567D01*
X91502402Y-10727573D01*
X91548254Y-10885393D01*
X91548255Y-10885396D01*
X91548256Y-10885398D01*
X91555617Y-10897844D01*
X91631917Y-11026862D01*
X91631923Y-11026870D01*
X91748129Y-11143076D01*
X91748133Y-11143079D01*
X91748135Y-11143081D01*
X91889602Y-11226744D01*
X91931224Y-11238836D01*
X92047426Y-11272597D01*
X92047429Y-11272597D01*
X92047431Y-11272598D01*
X92084306Y-11275500D01*
X92084314Y-11275500D01*
X92840686Y-11275500D01*
X92840694Y-11275500D01*
X92877569Y-11272598D01*
X92877571Y-11272597D01*
X92877573Y-11272597D01*
X92953630Y-11250500D01*
X93035398Y-11226744D01*
X93176865Y-11143081D01*
X93293081Y-11026865D01*
X93376744Y-10885398D01*
X93422598Y-10727569D01*
X93425500Y-10690694D01*
X93425500Y-10624500D01*
X93445185Y-10557461D01*
X93497989Y-10511706D01*
X93549500Y-10500500D01*
X97695560Y-10500500D01*
X97762599Y-10520185D01*
X97806045Y-10568205D01*
X97850476Y-10655405D01*
X97966172Y-10814646D01*
X98105354Y-10953828D01*
X98264595Y-11069524D01*
X98347455Y-11111743D01*
X98439970Y-11158882D01*
X98439972Y-11158882D01*
X98439975Y-11158884D01*
X98540317Y-11191487D01*
X98627173Y-11219709D01*
X98821578Y-11250500D01*
X98821583Y-11250500D01*
X99018422Y-11250500D01*
X99212826Y-11219709D01*
X99251355Y-11207190D01*
X99400025Y-11158884D01*
X99402940Y-11157399D01*
X99431050Y-11143076D01*
X99575405Y-11069524D01*
X99734646Y-10953828D01*
X99873828Y-10814646D01*
X99989524Y-10655405D01*
X100040610Y-10555143D01*
X100079515Y-10478787D01*
X100127489Y-10427990D01*
X100195310Y-10411195D01*
X100261445Y-10433732D01*
X100300485Y-10478787D01*
X100390474Y-10655403D01*
X100416109Y-10690686D01*
X100506172Y-10814646D01*
X100645354Y-10953828D01*
X100678686Y-10978045D01*
X100804590Y-11069521D01*
X100804592Y-11069522D01*
X100804595Y-11069524D01*
X100891795Y-11113954D01*
X100942590Y-11161927D01*
X100959500Y-11224438D01*
X100959500Y-15775560D01*
X100939815Y-15842599D01*
X100891795Y-15886045D01*
X100804594Y-15930476D01*
X100745880Y-15973135D01*
X100645354Y-16046172D01*
X100645352Y-16046174D01*
X100645351Y-16046174D01*
X100506174Y-16185351D01*
X100506174Y-16185352D01*
X100506172Y-16185354D01*
X100498566Y-16195823D01*
X100390476Y-16344594D01*
X100300485Y-16521213D01*
X100252511Y-16572009D01*
X100184690Y-16588804D01*
X100118555Y-16566267D01*
X100079515Y-16521213D01*
X100031517Y-16427011D01*
X99989524Y-16344595D01*
X99873828Y-16185354D01*
X99734646Y-16046172D01*
X99575405Y-15930476D01*
X99400029Y-15841117D01*
X99212826Y-15780290D01*
X99018422Y-15749500D01*
X99018417Y-15749500D01*
X98821583Y-15749500D01*
X98821578Y-15749500D01*
X98627173Y-15780290D01*
X98439970Y-15841117D01*
X98264594Y-15930476D01*
X98205880Y-15973135D01*
X98105354Y-16046172D01*
X98105352Y-16046174D01*
X98105351Y-16046174D01*
X97966174Y-16185351D01*
X97966174Y-16185352D01*
X97966172Y-16185354D01*
X97958566Y-16195823D01*
X97850476Y-16344594D01*
X97806045Y-16431795D01*
X97758070Y-16482591D01*
X97695560Y-16499500D01*
X93549500Y-16499500D01*
X93482461Y-16479815D01*
X93436706Y-16427011D01*
X93425500Y-16375500D01*
X93425500Y-16309313D01*
X93425499Y-16309298D01*
X93424578Y-16297598D01*
X93422598Y-16272431D01*
X93418032Y-16256716D01*
X93376745Y-16114606D01*
X93376744Y-16114603D01*
X93376744Y-16114602D01*
X93293081Y-15973135D01*
X93293079Y-15973133D01*
X93293076Y-15973129D01*
X93176870Y-15856923D01*
X93176862Y-15856917D01*
X93085168Y-15802690D01*
X93035398Y-15773256D01*
X93035397Y-15773255D01*
X93035396Y-15773255D01*
X93035393Y-15773254D01*
X92877573Y-15727402D01*
X92877567Y-15727401D01*
X92840701Y-15724500D01*
X92840694Y-15724500D01*
X92084306Y-15724500D01*
X92084298Y-15724500D01*
X92047432Y-15727401D01*
X92047426Y-15727402D01*
X91889606Y-15773254D01*
X91889603Y-15773255D01*
X91748137Y-15856917D01*
X91748129Y-15856923D01*
X91631923Y-15973129D01*
X91631917Y-15973137D01*
X91548255Y-16114603D01*
X91548254Y-16114606D01*
X91502402Y-16272426D01*
X91502401Y-16272432D01*
X91499500Y-16309298D01*
X91499500Y-17690701D01*
X91502401Y-17727567D01*
X91502402Y-17727573D01*
X91548254Y-17885393D01*
X91548255Y-17885396D01*
X91548256Y-17885398D01*
X91555617Y-17897844D01*
X91631917Y-18026862D01*
X91631923Y-18026870D01*
X91748129Y-18143076D01*
X91748133Y-18143079D01*
X91748135Y-18143081D01*
X91889602Y-18226744D01*
X91931224Y-18238836D01*
X92047426Y-18272597D01*
X92047429Y-18272597D01*
X92047431Y-18272598D01*
X92084306Y-18275500D01*
X92084314Y-18275500D01*
X92840686Y-18275500D01*
X92840694Y-18275500D01*
X92877569Y-18272598D01*
X92877571Y-18272597D01*
X92877573Y-18272597D01*
X92953630Y-18250500D01*
X93035398Y-18226744D01*
X93176865Y-18143081D01*
X93293081Y-18026865D01*
X93376744Y-17885398D01*
X93422598Y-17727569D01*
X93425500Y-17690694D01*
X93425500Y-17624500D01*
X93445185Y-17557461D01*
X93497989Y-17511706D01*
X93549500Y-17500500D01*
X97695560Y-17500500D01*
X97762599Y-17520185D01*
X97806045Y-17568205D01*
X97834729Y-17624500D01*
X97850476Y-17655405D01*
X97966172Y-17814646D01*
X98105354Y-17953828D01*
X98264595Y-18069524D01*
X98347455Y-18111743D01*
X98439970Y-18158882D01*
X98439972Y-18158882D01*
X98439975Y-18158884D01*
X98540317Y-18191487D01*
X98627173Y-18219709D01*
X98821578Y-18250500D01*
X98821583Y-18250500D01*
X99018422Y-18250500D01*
X99212826Y-18219709D01*
X99251355Y-18207190D01*
X99400025Y-18158884D01*
X99402940Y-18157399D01*
X99469050Y-18123714D01*
X99575405Y-18069524D01*
X99734646Y-17953828D01*
X99873828Y-17814646D01*
X99989524Y-17655405D01*
X100078884Y-17480025D01*
X100079515Y-17478787D01*
X100127489Y-17427990D01*
X100195310Y-17411195D01*
X100261445Y-17433732D01*
X100300485Y-17478787D01*
X100390474Y-17655403D01*
X100390924Y-17656022D01*
X100506172Y-17814646D01*
X100645354Y-17953828D01*
X100735251Y-18019142D01*
X100804590Y-18069521D01*
X100804592Y-18069522D01*
X100804595Y-18069524D01*
X100891795Y-18113954D01*
X100942590Y-18161927D01*
X100959500Y-18224438D01*
X100959500Y-22775560D01*
X100939815Y-22842599D01*
X100891795Y-22886045D01*
X100804594Y-22930476D01*
X100745880Y-22973135D01*
X100645354Y-23046172D01*
X100645352Y-23046174D01*
X100645351Y-23046174D01*
X100506174Y-23185351D01*
X100506174Y-23185352D01*
X100506172Y-23185354D01*
X100465323Y-23241578D01*
X100390476Y-23344594D01*
X100300485Y-23521213D01*
X100252511Y-23572009D01*
X100184690Y-23588804D01*
X100118555Y-23566267D01*
X100079515Y-23521213D01*
X100031517Y-23427011D01*
X99989524Y-23344595D01*
X99873828Y-23185354D01*
X99734646Y-23046172D01*
X99575405Y-22930476D01*
X99400029Y-22841117D01*
X99212826Y-22780290D01*
X99018422Y-22749500D01*
X99018417Y-22749500D01*
X98821583Y-22749500D01*
X98821578Y-22749500D01*
X98627173Y-22780290D01*
X98439970Y-22841117D01*
X98264594Y-22930476D01*
X98205880Y-22973135D01*
X98105354Y-23046172D01*
X98105352Y-23046174D01*
X98105351Y-23046174D01*
X97966174Y-23185351D01*
X97966174Y-23185352D01*
X97966172Y-23185354D01*
X97925323Y-23241578D01*
X97850476Y-23344594D01*
X97806045Y-23431795D01*
X97758070Y-23482591D01*
X97695560Y-23499500D01*
X93549500Y-23499500D01*
X93482461Y-23479815D01*
X93436706Y-23427011D01*
X93425500Y-23375500D01*
X93425500Y-23309313D01*
X93425499Y-23309298D01*
X93422598Y-23272432D01*
X93422597Y-23272426D01*
X93376745Y-23114606D01*
X93376744Y-23114603D01*
X93376744Y-23114602D01*
X93293081Y-22973135D01*
X93293079Y-22973133D01*
X93293076Y-22973129D01*
X93176870Y-22856923D01*
X93176862Y-22856917D01*
X93098681Y-22810681D01*
X93035398Y-22773256D01*
X93035397Y-22773255D01*
X93035396Y-22773255D01*
X93035393Y-22773254D01*
X92877573Y-22727402D01*
X92877567Y-22727401D01*
X92840701Y-22724500D01*
X92840694Y-22724500D01*
X92084306Y-22724500D01*
X92084298Y-22724500D01*
X92047432Y-22727401D01*
X92047426Y-22727402D01*
X91889606Y-22773254D01*
X91889603Y-22773255D01*
X91748137Y-22856917D01*
X91748129Y-22856923D01*
X91631923Y-22973129D01*
X91631917Y-22973137D01*
X91548255Y-23114603D01*
X91548254Y-23114606D01*
X91502402Y-23272426D01*
X91502401Y-23272432D01*
X91499500Y-23309298D01*
X91499500Y-24690701D01*
X91502401Y-24727567D01*
X91502402Y-24727573D01*
X91548254Y-24885393D01*
X91548255Y-24885396D01*
X91548256Y-24885398D01*
X91555617Y-24897844D01*
X91631917Y-25026862D01*
X91631923Y-25026870D01*
X91748129Y-25143076D01*
X91748133Y-25143079D01*
X91748135Y-25143081D01*
X91889602Y-25226744D01*
X91919943Y-25235559D01*
X92047426Y-25272597D01*
X92047429Y-25272597D01*
X92047431Y-25272598D01*
X92084306Y-25275500D01*
X92084314Y-25275500D01*
X92840686Y-25275500D01*
X92840694Y-25275500D01*
X92877569Y-25272598D01*
X92877571Y-25272597D01*
X92877573Y-25272597D01*
X92924280Y-25259027D01*
X93035398Y-25226744D01*
X93176865Y-25143081D01*
X93293081Y-25026865D01*
X93376744Y-24885398D01*
X93422598Y-24727569D01*
X93425500Y-24690694D01*
X93425500Y-24624500D01*
X93445185Y-24557461D01*
X93497989Y-24511706D01*
X93549500Y-24500500D01*
X97695560Y-24500500D01*
X97762599Y-24520185D01*
X97806045Y-24568205D01*
X97850476Y-24655405D01*
X97966172Y-24814646D01*
X98105354Y-24953828D01*
X98264595Y-25069524D01*
X98322830Y-25099196D01*
X98439970Y-25158882D01*
X98439972Y-25158882D01*
X98439975Y-25158884D01*
X98519622Y-25184763D01*
X98627173Y-25219709D01*
X98821578Y-25250500D01*
X98821583Y-25250500D01*
X99018422Y-25250500D01*
X99212826Y-25219709D01*
X99251355Y-25207190D01*
X99400025Y-25158884D01*
X99575405Y-25069524D01*
X99734646Y-24953828D01*
X99873828Y-24814646D01*
X99989524Y-24655405D01*
X100078884Y-24480025D01*
X100079515Y-24478787D01*
X100127489Y-24427990D01*
X100195310Y-24411195D01*
X100261445Y-24433732D01*
X100300485Y-24478787D01*
X100390474Y-24655403D01*
X100397820Y-24665513D01*
X100506172Y-24814646D01*
X100645354Y-24953828D01*
X100804595Y-25069524D01*
X100862830Y-25099196D01*
X100979970Y-25158882D01*
X100979972Y-25158882D01*
X100979975Y-25158884D01*
X101059622Y-25184763D01*
X101167173Y-25219709D01*
X101361578Y-25250500D01*
X101361583Y-25250500D01*
X101558422Y-25250500D01*
X101752826Y-25219709D01*
X101791355Y-25207190D01*
X101940025Y-25158884D01*
X102115405Y-25069524D01*
X102274646Y-24953828D01*
X102413828Y-24814646D01*
X102425682Y-24798329D01*
X102481011Y-24755664D01*
X102550624Y-24749685D01*
X102612419Y-24782290D01*
X102646777Y-24843128D01*
X102650000Y-24871215D01*
X102650000Y-24897844D01*
X102656401Y-24957372D01*
X102656403Y-24957379D01*
X102706645Y-25092086D01*
X102706649Y-25092093D01*
X102792809Y-25207187D01*
X102792812Y-25207190D01*
X102907906Y-25293350D01*
X102907913Y-25293354D01*
X103042620Y-25343596D01*
X103042627Y-25343598D01*
X103102155Y-25349999D01*
X103102172Y-25350000D01*
X103700000Y-25350000D01*
X103700000Y-24404144D01*
X103807007Y-24465925D01*
X103934174Y-24500000D01*
X104065826Y-24500000D01*
X104192993Y-24465925D01*
X104300000Y-24404144D01*
X104300000Y-25350000D01*
X104897828Y-25350000D01*
X104897844Y-25349999D01*
X104957372Y-25343598D01*
X104957379Y-25343596D01*
X105092086Y-25293354D01*
X105092093Y-25293350D01*
X105207187Y-25207190D01*
X105207190Y-25207187D01*
X105293350Y-25092093D01*
X105293354Y-25092086D01*
X105343596Y-24957379D01*
X105343598Y-24957372D01*
X105349999Y-24897844D01*
X105350000Y-24897827D01*
X105350000Y-24300000D01*
X104404144Y-24300000D01*
X104465925Y-24192993D01*
X104500000Y-24065826D01*
X104500000Y-23934174D01*
X104465925Y-23807007D01*
X104404144Y-23700000D01*
X105350000Y-23700000D01*
X105350000Y-23102172D01*
X105349999Y-23102155D01*
X105343598Y-23042627D01*
X105343596Y-23042620D01*
X105293354Y-22907913D01*
X105293350Y-22907906D01*
X105207190Y-22792812D01*
X105207187Y-22792809D01*
X105092093Y-22706649D01*
X105092086Y-22706645D01*
X104957379Y-22656403D01*
X104957372Y-22656401D01*
X104897844Y-22650000D01*
X104300000Y-22650000D01*
X104300000Y-23595855D01*
X104192993Y-23534075D01*
X104065826Y-23500000D01*
X103934174Y-23500000D01*
X103807007Y-23534075D01*
X103700000Y-23595855D01*
X103700000Y-22650000D01*
X103102155Y-22650000D01*
X103042627Y-22656401D01*
X103042620Y-22656403D01*
X102907913Y-22706645D01*
X102907906Y-22706649D01*
X102792812Y-22792809D01*
X102792809Y-22792812D01*
X102706649Y-22907906D01*
X102706645Y-22907913D01*
X102656403Y-23042620D01*
X102656401Y-23042627D01*
X102650000Y-23102155D01*
X102650000Y-23128784D01*
X102630315Y-23195823D01*
X102577511Y-23241578D01*
X102508353Y-23251522D01*
X102444797Y-23222497D01*
X102425683Y-23201671D01*
X102413828Y-23185354D01*
X102274648Y-23046174D01*
X102274646Y-23046172D01*
X102115405Y-22930476D01*
X102071109Y-22907906D01*
X102028205Y-22886045D01*
X101977409Y-22838070D01*
X101960500Y-22775560D01*
X101960500Y-18224438D01*
X101980185Y-18157399D01*
X102028204Y-18113954D01*
X102115405Y-18069524D01*
X102274646Y-17953828D01*
X102413828Y-17814646D01*
X102425682Y-17798329D01*
X102481011Y-17755664D01*
X102550624Y-17749685D01*
X102612419Y-17782290D01*
X102646777Y-17843128D01*
X102650000Y-17871215D01*
X102650000Y-17897844D01*
X102656401Y-17957372D01*
X102656403Y-17957379D01*
X102706645Y-18092086D01*
X102706649Y-18092093D01*
X102792809Y-18207187D01*
X102792812Y-18207190D01*
X102907906Y-18293350D01*
X102907913Y-18293354D01*
X103042620Y-18343596D01*
X103042627Y-18343598D01*
X103102155Y-18349999D01*
X103102172Y-18350000D01*
X103700000Y-18350000D01*
X103700000Y-17404144D01*
X103807007Y-17465925D01*
X103934174Y-17500000D01*
X104065826Y-17500000D01*
X104192993Y-17465925D01*
X104300000Y-17404144D01*
X104300000Y-18350000D01*
X104897828Y-18350000D01*
X104897844Y-18349999D01*
X104957372Y-18343598D01*
X104957379Y-18343596D01*
X105092086Y-18293354D01*
X105092093Y-18293350D01*
X105207187Y-18207190D01*
X105207190Y-18207187D01*
X105293350Y-18092093D01*
X105293354Y-18092086D01*
X105343596Y-17957379D01*
X105343598Y-17957372D01*
X105349999Y-17897844D01*
X105350000Y-17897827D01*
X105350000Y-17300000D01*
X104404144Y-17300000D01*
X104465925Y-17192993D01*
X104500000Y-17065826D01*
X104500000Y-16934174D01*
X104465925Y-16807007D01*
X104404144Y-16700000D01*
X105350000Y-16700000D01*
X105350000Y-16102172D01*
X105349999Y-16102155D01*
X105343598Y-16042627D01*
X105343596Y-16042620D01*
X105293354Y-15907913D01*
X105293350Y-15907906D01*
X105207190Y-15792812D01*
X105207187Y-15792809D01*
X105092093Y-15706649D01*
X105092086Y-15706645D01*
X104957379Y-15656403D01*
X104957372Y-15656401D01*
X104897844Y-15650000D01*
X104300000Y-15650000D01*
X104300000Y-16595855D01*
X104192993Y-16534075D01*
X104065826Y-16500000D01*
X103934174Y-16500000D01*
X103807007Y-16534075D01*
X103700000Y-16595855D01*
X103700000Y-15650000D01*
X103102155Y-15650000D01*
X103042627Y-15656401D01*
X103042620Y-15656403D01*
X102907913Y-15706645D01*
X102907906Y-15706649D01*
X102792812Y-15792809D01*
X102792809Y-15792812D01*
X102706649Y-15907906D01*
X102706645Y-15907913D01*
X102656403Y-16042620D01*
X102656401Y-16042627D01*
X102650000Y-16102155D01*
X102650000Y-16128784D01*
X102630315Y-16195823D01*
X102577511Y-16241578D01*
X102508353Y-16251522D01*
X102444797Y-16222497D01*
X102425683Y-16201671D01*
X102413828Y-16185354D01*
X102274648Y-16046174D01*
X102274646Y-16046172D01*
X102115405Y-15930476D01*
X102071109Y-15907906D01*
X102028205Y-15886045D01*
X101977409Y-15838070D01*
X101960500Y-15775560D01*
X101960500Y-11224438D01*
X101980185Y-11157399D01*
X102028204Y-11113954D01*
X102115405Y-11069524D01*
X102274646Y-10953828D01*
X102413828Y-10814646D01*
X102425682Y-10798329D01*
X102481011Y-10755664D01*
X102550624Y-10749685D01*
X102612419Y-10782290D01*
X102646777Y-10843128D01*
X102650000Y-10871215D01*
X102650000Y-10897844D01*
X102656401Y-10957372D01*
X102656403Y-10957379D01*
X102706645Y-11092086D01*
X102706649Y-11092093D01*
X102792809Y-11207187D01*
X102792812Y-11207190D01*
X102907906Y-11293350D01*
X102907913Y-11293354D01*
X103042620Y-11343596D01*
X103042627Y-11343598D01*
X103102155Y-11349999D01*
X103102172Y-11350000D01*
X103700000Y-11350000D01*
X103700000Y-10404144D01*
X103807007Y-10465925D01*
X103934174Y-10500000D01*
X104065826Y-10500000D01*
X104192993Y-10465925D01*
X104300000Y-10404144D01*
X104300000Y-11350000D01*
X104897828Y-11350000D01*
X104897844Y-11349999D01*
X104957372Y-11343598D01*
X104957379Y-11343596D01*
X105092086Y-11293354D01*
X105092093Y-11293350D01*
X105207187Y-11207190D01*
X105207190Y-11207187D01*
X105293350Y-11092093D01*
X105293354Y-11092086D01*
X105343596Y-10957379D01*
X105343598Y-10957372D01*
X105349999Y-10897844D01*
X105350000Y-10897827D01*
X105350000Y-10300000D01*
X104404144Y-10300000D01*
X104465925Y-10192993D01*
X104500000Y-10065826D01*
X104500000Y-9934174D01*
X104465925Y-9807007D01*
X104404144Y-9700000D01*
X105350000Y-9700000D01*
X105350000Y-9102172D01*
X105349999Y-9102155D01*
X105343598Y-9042627D01*
X105343596Y-9042620D01*
X105293354Y-8907913D01*
X105293350Y-8907906D01*
X105207190Y-8792812D01*
X105207187Y-8792809D01*
X105092093Y-8706649D01*
X105092086Y-8706645D01*
X104957379Y-8656403D01*
X104957372Y-8656401D01*
X104897844Y-8650000D01*
X104300000Y-8650000D01*
X104300000Y-9595855D01*
X104192993Y-9534075D01*
X104065826Y-9500000D01*
X103934174Y-9500000D01*
X103807007Y-9534075D01*
X103700000Y-9595855D01*
X103700000Y-8650000D01*
X103102155Y-8650000D01*
X103042627Y-8656401D01*
X103042620Y-8656403D01*
X102907913Y-8706645D01*
X102907906Y-8706649D01*
X102792812Y-8792809D01*
X102792809Y-8792812D01*
X102706649Y-8907906D01*
X102706645Y-8907913D01*
X102656403Y-9042620D01*
X102656401Y-9042627D01*
X102650000Y-9102155D01*
X102650000Y-9128784D01*
X102630315Y-9195823D01*
X102577511Y-9241578D01*
X102508353Y-9251522D01*
X102444797Y-9222497D01*
X102425683Y-9201671D01*
X102413828Y-9185354D01*
X102274648Y-9046174D01*
X102274646Y-9046172D01*
X102115405Y-8930476D01*
X102108605Y-8927011D01*
X101940029Y-8841117D01*
X101752826Y-8780290D01*
X101558422Y-8749500D01*
X101558417Y-8749500D01*
X101361583Y-8749500D01*
X101361578Y-8749500D01*
X101167173Y-8780290D01*
X100979970Y-8841117D01*
X100804594Y-8930476D01*
X100745880Y-8973135D01*
X100645354Y-9046172D01*
X100645352Y-9046174D01*
X100645351Y-9046174D01*
X100506174Y-9185351D01*
X100506174Y-9185352D01*
X100506172Y-9185354D01*
X100500622Y-9192993D01*
X100390476Y-9344594D01*
X100300485Y-9521213D01*
X100252511Y-9572009D01*
X100184690Y-9588804D01*
X100118555Y-9566267D01*
X100079515Y-9521213D01*
X100031517Y-9427011D01*
X99989524Y-9344595D01*
X99873828Y-9185354D01*
X99734646Y-9046172D01*
X99575405Y-8930476D01*
X99568605Y-8927011D01*
X99400029Y-8841117D01*
X99212826Y-8780290D01*
X99018422Y-8749500D01*
X99018417Y-8749500D01*
X98821583Y-8749500D01*
X98821578Y-8749500D01*
X98627173Y-8780290D01*
X98439970Y-8841117D01*
X98264594Y-8930476D01*
X98205880Y-8973135D01*
X98105354Y-9046172D01*
X98105352Y-9046174D01*
X98105351Y-9046174D01*
X97966174Y-9185351D01*
X97966174Y-9185352D01*
X97966172Y-9185354D01*
X97960622Y-9192993D01*
X97850476Y-9344594D01*
X97806045Y-9431795D01*
X97758070Y-9482591D01*
X97695560Y-9499500D01*
X93549500Y-9499500D01*
X93482461Y-9479815D01*
X93436706Y-9427011D01*
X93425500Y-9375500D01*
X93425500Y-9309313D01*
X93425499Y-9309298D01*
X93422598Y-9272432D01*
X93422597Y-9272426D01*
X93376745Y-9114606D01*
X93376744Y-9114603D01*
X93376744Y-9114602D01*
X93293081Y-8973135D01*
X93293079Y-8973133D01*
X93293076Y-8973129D01*
X93176870Y-8856923D01*
X93176862Y-8856917D01*
X93098681Y-8810681D01*
X93035398Y-8773256D01*
X93035397Y-8773255D01*
X93035396Y-8773255D01*
X93035393Y-8773254D01*
X92877573Y-8727402D01*
X92877567Y-8727401D01*
X92840701Y-8724500D01*
X92840694Y-8724500D01*
X92084306Y-8724500D01*
X92084298Y-8724500D01*
X92047432Y-8727401D01*
X92047426Y-8727402D01*
X91889606Y-8773254D01*
X91889603Y-8773255D01*
X91748137Y-8856917D01*
X91748129Y-8856923D01*
X91631923Y-8973129D01*
X91631917Y-8973137D01*
X91548255Y-9114603D01*
X91548254Y-9114606D01*
X91502402Y-9272426D01*
X91502401Y-9272432D01*
X91499500Y-9309298D01*
X90500499Y-9309298D01*
X90497598Y-9272431D01*
X90491523Y-9251522D01*
X90451745Y-9114606D01*
X90451744Y-9114603D01*
X90451744Y-9114602D01*
X90368081Y-8973135D01*
X90368079Y-8973133D01*
X90368076Y-8973129D01*
X90251870Y-8856923D01*
X90251862Y-8856917D01*
X90173681Y-8810681D01*
X90110398Y-8773256D01*
X90110397Y-8773255D01*
X90110396Y-8773255D01*
X90110393Y-8773254D01*
X89952573Y-8727402D01*
X89952567Y-8727401D01*
X89915701Y-8724500D01*
X89915694Y-8724500D01*
X89159306Y-8724500D01*
X89159298Y-8724500D01*
X89122432Y-8727401D01*
X89122426Y-8727402D01*
X88964606Y-8773254D01*
X88964603Y-8773255D01*
X88823137Y-8856917D01*
X88823129Y-8856923D01*
X88706923Y-8973129D01*
X88706917Y-8973137D01*
X88623255Y-9114603D01*
X88623254Y-9114606D01*
X88577402Y-9272426D01*
X88577401Y-9272432D01*
X88574500Y-9309298D01*
X88574500Y-10203824D01*
X88554815Y-10270863D01*
X88538181Y-10291505D01*
X87362302Y-11467383D01*
X87362300Y-11467386D01*
X87296408Y-11581512D01*
X87262300Y-11708808D01*
X87262300Y-29909581D01*
X87242615Y-29976620D01*
X87225981Y-29997262D01*
X87218688Y-30004554D01*
X87218685Y-30004558D01*
X87142028Y-30119282D01*
X87142021Y-30119295D01*
X87089221Y-30246767D01*
X87089218Y-30246777D01*
X87062300Y-30382104D01*
X87062300Y-30382107D01*
X87062300Y-30520093D01*
X87062300Y-30520095D01*
X87062299Y-30520095D01*
X87089218Y-30655422D01*
X87089221Y-30655432D01*
X87142021Y-30782904D01*
X87142028Y-30782917D01*
X87218685Y-30897641D01*
X87218688Y-30897645D01*
X87316254Y-30995211D01*
X87316258Y-30995214D01*
X87430982Y-31071871D01*
X87430995Y-31071878D01*
X87558467Y-31124678D01*
X87558472Y-31124680D01*
X87558476Y-31124680D01*
X87558477Y-31124681D01*
X87693804Y-31151600D01*
X87693807Y-31151600D01*
X87831794Y-31151600D01*
X87865284Y-31144938D01*
X87961209Y-31125857D01*
X88030799Y-31132084D01*
X88085977Y-31174946D01*
X88109222Y-31240836D01*
X88109400Y-31247474D01*
X88109400Y-32116024D01*
X88089715Y-32183063D01*
X88073081Y-32203705D01*
X87652805Y-32623981D01*
X87591482Y-32657466D01*
X87565124Y-32660300D01*
X87554805Y-32660300D01*
X87419477Y-32687218D01*
X87419467Y-32687221D01*
X87291995Y-32740021D01*
X87291982Y-32740028D01*
X87177258Y-32816685D01*
X87177254Y-32816688D01*
X87079688Y-32914254D01*
X87079685Y-32914258D01*
X87003028Y-33028982D01*
X87003021Y-33028995D01*
X86950221Y-33156467D01*
X86950218Y-33156477D01*
X86923300Y-33291804D01*
X86923300Y-33291807D01*
X86923300Y-33429793D01*
X86923300Y-33429795D01*
X86923299Y-33429795D01*
X64814309Y-33429795D01*
X62120419Y-30735905D01*
X62086934Y-30674582D01*
X62084100Y-30648224D01*
X62084100Y-25865415D01*
X62103785Y-25798376D01*
X62156589Y-25752621D01*
X62225747Y-25742677D01*
X62280983Y-25765096D01*
X62310801Y-25786760D01*
X62420313Y-25842559D01*
X62479163Y-25872545D01*
X62479165Y-25872545D01*
X62479168Y-25872547D01*
X62575497Y-25903846D01*
X62658881Y-25930940D01*
X62845514Y-25960500D01*
X62845519Y-25960500D01*
X63034486Y-25960500D01*
X63221118Y-25930940D01*
X63255637Y-25919724D01*
X63400832Y-25872547D01*
X63569199Y-25786760D01*
X63722073Y-25675690D01*
X63855690Y-25542073D01*
X63966760Y-25389199D01*
X64052547Y-25220832D01*
X64092069Y-25099195D01*
X64131507Y-25041521D01*
X64195866Y-25014323D01*
X64264712Y-25026238D01*
X64316188Y-25073482D01*
X64327931Y-25099196D01*
X64367454Y-25220836D01*
X64433267Y-25350000D01*
X64453240Y-25389199D01*
X64564310Y-25542073D01*
X64697927Y-25675690D01*
X64850801Y-25786760D01*
X64911793Y-25817837D01*
X65019163Y-25872545D01*
X65019165Y-25872545D01*
X65019168Y-25872547D01*
X65115497Y-25903846D01*
X65198881Y-25930940D01*
X65385514Y-25960500D01*
X65385519Y-25960500D01*
X65574486Y-25960500D01*
X65761118Y-25930940D01*
X65795637Y-25919724D01*
X65940832Y-25872547D01*
X66109199Y-25786760D01*
X66262073Y-25675690D01*
X66395690Y-25542073D01*
X66506760Y-25389199D01*
X66592547Y-25220832D01*
X66632069Y-25099195D01*
X66671507Y-25041521D01*
X66735866Y-25014323D01*
X66804712Y-25026238D01*
X66856188Y-25073482D01*
X66867931Y-25099196D01*
X66907454Y-25220836D01*
X66973267Y-25350000D01*
X66993240Y-25389199D01*
X67104310Y-25542073D01*
X67237927Y-25675690D01*
X67390801Y-25786760D01*
X67451793Y-25817837D01*
X67559163Y-25872545D01*
X67559165Y-25872545D01*
X67559168Y-25872547D01*
X67655497Y-25903846D01*
X67738881Y-25930940D01*
X67925514Y-25960500D01*
X67925519Y-25960500D01*
X68114486Y-25960500D01*
X68301118Y-25930940D01*
X68335637Y-25919724D01*
X68480832Y-25872547D01*
X68649199Y-25786760D01*
X68802073Y-25675690D01*
X68935690Y-25542073D01*
X69046760Y-25389199D01*
X69132547Y-25220832D01*
X69172069Y-25099195D01*
X69211507Y-25041521D01*
X69275866Y-25014323D01*
X69344712Y-25026238D01*
X69396188Y-25073482D01*
X69407931Y-25099196D01*
X69447454Y-25220836D01*
X69513267Y-25350000D01*
X69533240Y-25389199D01*
X69644310Y-25542073D01*
X69777927Y-25675690D01*
X69930801Y-25786760D01*
X69991793Y-25817837D01*
X70099163Y-25872545D01*
X70099165Y-25872545D01*
X70099168Y-25872547D01*
X70195497Y-25903846D01*
X70278881Y-25930940D01*
X70465514Y-25960500D01*
X70465519Y-25960500D01*
X70654486Y-25960500D01*
X70841118Y-25930940D01*
X70875637Y-25919724D01*
X71020832Y-25872547D01*
X71189199Y-25786760D01*
X71342073Y-25675690D01*
X71475690Y-25542073D01*
X71586760Y-25389199D01*
X71672547Y-25220832D01*
X71730940Y-25041118D01*
X71744204Y-24957372D01*
X71760500Y-24854486D01*
X71760500Y-24665513D01*
X71730940Y-24478881D01*
X71685626Y-24339420D01*
X71672547Y-24299168D01*
X71672545Y-24299165D01*
X71672545Y-24299163D01*
X71586759Y-24130800D01*
X71586105Y-24129900D01*
X71475690Y-23977927D01*
X71342073Y-23844310D01*
X71189199Y-23733240D01*
X71189195Y-23733238D01*
X71020836Y-23647454D01*
X70841118Y-23589059D01*
X70654486Y-23559500D01*
X70654481Y-23559500D01*
X70465519Y-23559500D01*
X70465514Y-23559500D01*
X70278881Y-23589059D01*
X70099163Y-23647454D01*
X69930800Y-23733240D01*
X69889647Y-23763140D01*
X69777927Y-23844310D01*
X69777925Y-23844312D01*
X69777924Y-23844312D01*
X69644312Y-23977924D01*
X69644312Y-23977925D01*
X69644310Y-23977927D01*
X69611998Y-24022400D01*
X69533240Y-24130800D01*
X69447454Y-24299163D01*
X69407931Y-24420803D01*
X69368493Y-24478478D01*
X69304134Y-24505676D01*
X69235288Y-24493761D01*
X69183812Y-24446516D01*
X69172069Y-24420803D01*
X69145626Y-24339420D01*
X69132547Y-24299168D01*
X69132545Y-24299165D01*
X69132545Y-24299163D01*
X69046759Y-24130800D01*
X69046105Y-24129900D01*
X68935690Y-23977927D01*
X68802073Y-23844310D01*
X68649199Y-23733240D01*
X68649195Y-23733238D01*
X68480836Y-23647454D01*
X68301118Y-23589059D01*
X68114486Y-23559500D01*
X68114481Y-23559500D01*
X67925519Y-23559500D01*
X67925514Y-23559500D01*
X67738881Y-23589059D01*
X67559163Y-23647454D01*
X67390800Y-23733240D01*
X67349647Y-23763140D01*
X67237927Y-23844310D01*
X67237925Y-23844312D01*
X67237924Y-23844312D01*
X67104312Y-23977924D01*
X67104312Y-23977925D01*
X67104310Y-23977927D01*
X67071998Y-24022400D01*
X66993240Y-24130800D01*
X66907454Y-24299163D01*
X66867931Y-24420803D01*
X66828493Y-24478478D01*
X66764134Y-24505676D01*
X66695288Y-24493761D01*
X66643812Y-24446516D01*
X66632069Y-24420803D01*
X66605626Y-24339420D01*
X66592547Y-24299168D01*
X66592545Y-24299165D01*
X66592545Y-24299163D01*
X66506759Y-24130800D01*
X66506105Y-24129900D01*
X66395690Y-23977927D01*
X66262073Y-23844310D01*
X66109199Y-23733240D01*
X66109195Y-23733238D01*
X65940836Y-23647454D01*
X65761118Y-23589059D01*
X65574486Y-23559500D01*
X65574481Y-23559500D01*
X65385519Y-23559500D01*
X65385514Y-23559500D01*
X65198881Y-23589059D01*
X65019163Y-23647454D01*
X64850800Y-23733240D01*
X64809647Y-23763140D01*
X64697927Y-23844310D01*
X64697925Y-23844312D01*
X64697924Y-23844312D01*
X64564312Y-23977924D01*
X64564312Y-23977925D01*
X64564310Y-23977927D01*
X64531998Y-24022400D01*
X64453240Y-24130800D01*
X64367454Y-24299163D01*
X64327931Y-24420803D01*
X64288493Y-24478478D01*
X64224134Y-24505676D01*
X64155288Y-24493761D01*
X64103812Y-24446516D01*
X64092069Y-24420803D01*
X64065626Y-24339420D01*
X64052547Y-24299168D01*
X64052545Y-24299165D01*
X64052545Y-24299163D01*
X63966759Y-24130800D01*
X63966105Y-24129900D01*
X63855690Y-23977927D01*
X63722073Y-23844310D01*
X63569199Y-23733240D01*
X63569195Y-23733238D01*
X63400836Y-23647454D01*
X63221118Y-23589059D01*
X63034486Y-23559500D01*
X63034481Y-23559500D01*
X62845519Y-23559500D01*
X62845514Y-23559500D01*
X62658881Y-23589059D01*
X62479163Y-23647454D01*
X62310800Y-23733240D01*
X62157928Y-23844309D01*
X62045256Y-23956981D01*
X61983933Y-23990465D01*
X61914241Y-23985481D01*
X61869894Y-23956980D01*
X61141816Y-23228902D01*
X61141814Y-23228900D01*
X61084523Y-23195823D01*
X61027687Y-23163008D01*
X60964039Y-23145954D01*
X60900392Y-23128900D01*
X47320493Y-23128900D01*
X47188708Y-23128900D01*
X47061412Y-23163008D01*
X46947286Y-23228900D01*
X46947283Y-23228902D01*
X46224655Y-23951530D01*
X46163332Y-23985015D01*
X46093640Y-23980031D01*
X46049293Y-23951530D01*
X45942075Y-23844312D01*
X45942073Y-23844310D01*
X45789199Y-23733240D01*
X45789195Y-23733238D01*
X45620836Y-23647454D01*
X45441118Y-23589059D01*
X45254486Y-23559500D01*
X45254481Y-23559500D01*
X45065519Y-23559500D01*
X45065514Y-23559500D01*
X44878881Y-23589059D01*
X44699163Y-23647454D01*
X44530800Y-23733240D01*
X44489647Y-23763140D01*
X44377927Y-23844310D01*
X44377925Y-23844312D01*
X44377924Y-23844312D01*
X44244312Y-23977924D01*
X44244312Y-23977925D01*
X44244310Y-23977927D01*
X44211998Y-24022400D01*
X44133240Y-24130800D01*
X44047454Y-24299163D01*
X44007931Y-24420803D01*
X43968493Y-24478478D01*
X43904134Y-24505676D01*
X43835288Y-24493761D01*
X43783812Y-24446516D01*
X43772069Y-24420803D01*
X43745626Y-24339420D01*
X43732547Y-24299168D01*
X43732545Y-24299165D01*
X43732545Y-24299163D01*
X43646759Y-24130800D01*
X43646105Y-24129900D01*
X43535690Y-23977927D01*
X43402073Y-23844310D01*
X43249199Y-23733240D01*
X43249198Y-23733239D01*
X43249196Y-23733238D01*
X43188204Y-23702160D01*
X43137408Y-23654185D01*
X43122832Y-23600300D01*
X43121561Y-23600468D01*
X43120500Y-23592415D01*
X43120500Y-23592408D01*
X43086392Y-23465114D01*
X43020500Y-23350986D01*
X42927314Y-23257800D01*
X42061819Y-22392305D01*
X42028334Y-22330982D01*
X42025500Y-22304624D01*
X42025500Y-16369510D01*
X42045185Y-16302471D01*
X42097989Y-16256716D01*
X42104450Y-16254317D01*
X42110394Y-16251745D01*
X42110398Y-16251744D01*
X42251865Y-16168081D01*
X42368081Y-16051865D01*
X42451744Y-15910398D01*
X42489544Y-15780290D01*
X42497597Y-15752573D01*
X42497598Y-15752567D01*
X42500500Y-15715694D01*
X42500500Y-15699986D01*
X43400001Y-15699986D01*
X43410494Y-15802697D01*
X43465641Y-15969119D01*
X43465643Y-15969124D01*
X43557684Y-16118345D01*
X43681654Y-16242315D01*
X43830875Y-16334356D01*
X43830880Y-16334358D01*
X43997302Y-16389505D01*
X43997309Y-16389506D01*
X44100019Y-16399999D01*
X44775000Y-16399999D01*
X44849972Y-16399999D01*
X44849986Y-16399998D01*
X44952697Y-16389505D01*
X45119119Y-16334358D01*
X45119124Y-16334356D01*
X45268345Y-16242315D01*
X45392315Y-16118345D01*
X45484356Y-15969124D01*
X45484358Y-15969119D01*
X45539505Y-15802697D01*
X45539506Y-15802690D01*
X45549999Y-15699986D01*
X45550000Y-15699973D01*
X45550000Y-15300000D01*
X44775000Y-15300000D01*
X44775000Y-16399999D01*
X44100019Y-16399999D01*
X44174999Y-16399998D01*
X44175000Y-16399998D01*
X44175000Y-15300000D01*
X43400001Y-15300000D01*
X43400001Y-15699986D01*
X42500500Y-15699986D01*
X42500500Y-14300013D01*
X43400000Y-14300013D01*
X43400000Y-14700000D01*
X44175000Y-14700000D01*
X44775000Y-14700000D01*
X45549999Y-14700000D01*
X45549999Y-14300028D01*
X45549998Y-14300013D01*
X45539505Y-14197302D01*
X45484358Y-14030880D01*
X45484356Y-14030875D01*
X45392315Y-13881654D01*
X45268345Y-13757684D01*
X45119124Y-13665643D01*
X45119119Y-13665641D01*
X44952697Y-13610494D01*
X44952690Y-13610493D01*
X44849986Y-13600000D01*
X44775000Y-13600000D01*
X44775000Y-14700000D01*
X44175000Y-14700000D01*
X44175000Y-13600000D01*
X44174999Y-13599999D01*
X44100028Y-13600000D01*
X44100011Y-13600001D01*
X43997302Y-13610494D01*
X43830880Y-13665641D01*
X43830875Y-13665643D01*
X43681654Y-13757684D01*
X43557684Y-13881654D01*
X43465643Y-14030875D01*
X43465641Y-14030880D01*
X43410494Y-14197302D01*
X43410493Y-14197309D01*
X43400000Y-14300013D01*
X42500500Y-14300013D01*
X42500500Y-14284306D01*
X42497598Y-14247431D01*
X42451744Y-14089602D01*
X42368081Y-13948135D01*
X42368079Y-13948133D01*
X42368076Y-13948129D01*
X42251870Y-13831923D01*
X42251862Y-13831917D01*
X42110396Y-13748255D01*
X42110393Y-13748254D01*
X41952573Y-13702402D01*
X41952567Y-13702401D01*
X41915701Y-13699500D01*
X41915694Y-13699500D01*
X41134306Y-13699500D01*
X41134298Y-13699500D01*
X41097436Y-13702401D01*
X41097427Y-13702403D01*
X41042153Y-13718461D01*
X40972284Y-13718260D01*
X40919879Y-13687065D01*
X38616819Y-11384005D01*
X38583334Y-11322682D01*
X38580500Y-11296324D01*
X38580500Y-11012206D01*
X38600185Y-10945167D01*
X38648205Y-10901721D01*
X38682994Y-10883996D01*
X38700586Y-10871215D01*
X38829498Y-10777556D01*
X38829498Y-10777554D01*
X38829501Y-10777553D01*
X38957553Y-10649501D01*
X39063996Y-10502994D01*
X39146211Y-10341639D01*
X39202171Y-10169409D01*
X39227149Y-10011706D01*
X39230500Y-9990551D01*
X39230500Y-9009448D01*
X39209284Y-8875500D01*
X39202171Y-8830591D01*
X39167701Y-8724500D01*
X39146212Y-8658363D01*
X39146211Y-8658360D01*
X39094661Y-8557190D01*
X39063996Y-8497006D01*
X39026107Y-8444856D01*
X38957558Y-8350505D01*
X38957554Y-8350500D01*
X38829499Y-8222445D01*
X38829494Y-8222441D01*
X38682997Y-8116006D01*
X38682996Y-8116005D01*
X38682994Y-8116004D01*
X38631300Y-8089664D01*
X38521639Y-8033788D01*
X38521636Y-8033787D01*
X38349410Y-7977829D01*
X38170551Y-7949500D01*
X38170546Y-7949500D01*
X37989454Y-7949500D01*
X37989449Y-7949500D01*
X37810589Y-7977829D01*
X37638363Y-8033787D01*
X37638360Y-8033788D01*
X37477002Y-8116006D01*
X37330505Y-8222441D01*
X37330500Y-8222445D01*
X37202445Y-8350500D01*
X37202441Y-8350505D01*
X37096006Y-8497002D01*
X37013788Y-8658360D01*
X37013787Y-8658363D01*
X36980240Y-8761612D01*
X36940802Y-8819288D01*
X36876444Y-8846486D01*
X36807597Y-8834571D01*
X36756122Y-8787327D01*
X36744378Y-8761612D01*
X36698418Y-8620164D01*
X36609095Y-8444856D01*
X36493444Y-8285678D01*
X36354321Y-8146555D01*
X36195143Y-8030904D01*
X36019837Y-7941582D01*
X35840000Y-7883148D01*
X35840000Y-9095855D01*
X35732993Y-9034075D01*
X35605826Y-9000000D01*
X35474174Y-9000000D01*
X35347007Y-9034075D01*
X35240000Y-9095855D01*
X35240000Y-7883148D01*
X35060162Y-7941582D01*
X34884856Y-8030904D01*
X34725678Y-8146555D01*
X34586555Y-8285678D01*
X34470904Y-8444856D01*
X34384984Y-8613485D01*
X34337010Y-8664281D01*
X34269189Y-8681076D01*
X34203054Y-8658539D01*
X34159602Y-8603824D01*
X34150499Y-8557190D01*
X34150499Y-8318482D01*
X34150498Y-8318475D01*
X34135646Y-8224696D01*
X34078050Y-8111658D01*
X34078046Y-8111654D01*
X34078045Y-8111652D01*
X33988347Y-8021954D01*
X33988344Y-8021952D01*
X33988342Y-8021950D01*
X33882619Y-7968081D01*
X33875301Y-7964352D01*
X33781524Y-7949500D01*
X32218482Y-7949500D01*
X32137519Y-7962323D01*
X32124696Y-7964354D01*
X32011658Y-8021950D01*
X32011657Y-8021951D01*
X32011652Y-8021954D01*
X31921954Y-8111652D01*
X31921951Y-8111657D01*
X31921950Y-8111658D01*
X31915408Y-8124498D01*
X31864352Y-8224698D01*
X31849500Y-8318475D01*
X31849500Y-8875500D01*
X31829815Y-8942539D01*
X31777011Y-8988294D01*
X31725500Y-8999500D01*
X30149500Y-8999500D01*
X30082461Y-8979815D01*
X30036706Y-8927011D01*
X30025500Y-8875500D01*
X30025500Y-8459110D01*
X30025500Y-8459108D01*
X29991392Y-8331814D01*
X29925500Y-8217686D01*
X29832314Y-8124500D01*
X29832313Y-8124499D01*
X29827983Y-8120169D01*
X29827972Y-8120159D01*
X28657305Y-6949491D01*
X28623820Y-6888168D01*
X28625909Y-6827218D01*
X28647598Y-6752569D01*
X28650500Y-6715694D01*
X28650500Y-5284306D01*
X28647598Y-5247431D01*
X28601744Y-5089602D01*
X28518081Y-4948135D01*
X28518079Y-4948133D01*
X28518076Y-4948129D01*
X28401870Y-4831923D01*
X28401862Y-4831917D01*
X28260396Y-4748255D01*
X28260393Y-4748254D01*
X28102573Y-4702402D01*
X28102567Y-4702401D01*
X28065701Y-4699500D01*
X28065694Y-4699500D01*
X25934306Y-4699500D01*
X25934298Y-4699500D01*
X25897432Y-4702401D01*
X25897426Y-4702402D01*
X25739606Y-4748254D01*
X25739603Y-4748255D01*
X25598137Y-4831917D01*
X25598129Y-4831923D01*
X25481923Y-4948129D01*
X25481917Y-4948137D01*
X25398255Y-5089603D01*
X25398254Y-5089606D01*
X25352402Y-5247426D01*
X25352401Y-5247432D01*
X25349500Y-5284298D01*
X25349500Y-6715701D01*
X25352401Y-6752567D01*
X25352402Y-6752573D01*
X25398254Y-6910393D01*
X25398255Y-6910396D01*
X25398256Y-6910398D01*
X25435681Y-6973681D01*
X25481917Y-7051862D01*
X25481923Y-7051870D01*
X25598129Y-7168076D01*
X25598133Y-7168079D01*
X25598135Y-7168081D01*
X25739602Y-7251744D01*
X25781224Y-7263836D01*
X25897426Y-7297597D01*
X25897429Y-7297597D01*
X25897431Y-7297598D01*
X25934306Y-7300500D01*
X27541324Y-7300500D01*
X27608363Y-7320185D01*
X27629005Y-7336819D01*
X28988181Y-8695994D01*
X29021666Y-8757317D01*
X29024500Y-8783675D01*
X29024500Y-13630488D01*
X29004815Y-13697527D01*
X28952011Y-13743282D01*
X28945542Y-13745685D01*
X28939603Y-13748255D01*
X28798137Y-13831917D01*
X28798129Y-13831923D01*
X28681923Y-13948129D01*
X28681917Y-13948137D01*
X28598255Y-14089603D01*
X28598254Y-14089606D01*
X28552402Y-14247426D01*
X28552401Y-14247432D01*
X28549500Y-14284298D01*
X28549500Y-15715701D01*
X28552401Y-15752567D01*
X28552402Y-15752573D01*
X28598254Y-15910393D01*
X28598255Y-15910396D01*
X28681917Y-16051862D01*
X28681923Y-16051870D01*
X28798129Y-16168076D01*
X28798133Y-16168079D01*
X28798135Y-16168081D01*
X28939602Y-16251744D01*
X28950269Y-16254843D01*
X29097426Y-16297597D01*
X29097429Y-16297597D01*
X29097431Y-16297598D01*
X29134306Y-16300500D01*
X29134314Y-16300500D01*
X29915686Y-16300500D01*
X29915694Y-16300500D01*
X29952569Y-16297598D01*
X29952571Y-16297597D01*
X29952573Y-16297597D01*
X29994191Y-16285505D01*
X30110398Y-16251744D01*
X30251865Y-16168081D01*
X30368081Y-16051865D01*
X30451744Y-15910398D01*
X30489544Y-15780290D01*
X30497597Y-15752573D01*
X30497598Y-15752567D01*
X30500500Y-15715694D01*
X30500500Y-15699986D01*
X31400001Y-15699986D01*
X31410494Y-15802697D01*
X31465641Y-15969119D01*
X31465643Y-15969124D01*
X31557684Y-16118345D01*
X31681654Y-16242315D01*
X31830875Y-16334356D01*
X31830880Y-16334358D01*
X31997302Y-16389505D01*
X31997309Y-16389506D01*
X32100019Y-16399999D01*
X32775000Y-16399999D01*
X32849972Y-16399999D01*
X32849986Y-16399998D01*
X32952697Y-16389505D01*
X33119119Y-16334358D01*
X33119124Y-16334356D01*
X33268345Y-16242315D01*
X33392315Y-16118345D01*
X33484356Y-15969124D01*
X33484358Y-15969119D01*
X33539505Y-15802697D01*
X33539506Y-15802690D01*
X33549999Y-15699986D01*
X33550000Y-15699973D01*
X33550000Y-15300000D01*
X32775000Y-15300000D01*
X32775000Y-16399999D01*
X32100019Y-16399999D01*
X32174999Y-16399998D01*
X32175000Y-16399998D01*
X32175000Y-15300000D01*
X31400001Y-15300000D01*
X31400001Y-15699986D01*
X30500500Y-15699986D01*
X30500500Y-14300013D01*
X31400000Y-14300013D01*
X31400000Y-14700000D01*
X32175000Y-14700000D01*
X32775000Y-14700000D01*
X33549999Y-14700000D01*
X33549999Y-14300028D01*
X33549998Y-14300013D01*
X33539505Y-14197302D01*
X33484358Y-14030880D01*
X33484356Y-14030875D01*
X33392315Y-13881654D01*
X33268345Y-13757684D01*
X33119124Y-13665643D01*
X33119119Y-13665641D01*
X32952697Y-13610494D01*
X32952690Y-13610493D01*
X32849986Y-13600000D01*
X32775000Y-13600000D01*
X32775000Y-14700000D01*
X32175000Y-14700000D01*
X32175000Y-13600000D01*
X32174999Y-13599999D01*
X32100028Y-13600000D01*
X32100011Y-13600001D01*
X31997302Y-13610494D01*
X31830880Y-13665641D01*
X31830875Y-13665643D01*
X31681654Y-13757684D01*
X31557684Y-13881654D01*
X31465643Y-14030875D01*
X31465641Y-14030880D01*
X31410494Y-14197302D01*
X31410493Y-14197309D01*
X31400000Y-14300013D01*
X30500500Y-14300013D01*
X30500500Y-14284306D01*
X30497598Y-14247431D01*
X30451744Y-14089602D01*
X30368081Y-13948135D01*
X30368079Y-13948133D01*
X30368076Y-13948129D01*
X30251870Y-13831923D01*
X30251862Y-13831917D01*
X30110396Y-13748255D01*
X30103235Y-13745156D01*
X30104265Y-13742775D01*
X30056000Y-13711936D01*
X30026809Y-13648456D01*
X30025500Y-13630488D01*
X30025500Y-10124500D01*
X30045185Y-10057461D01*
X30097989Y-10011706D01*
X30149500Y-10000500D01*
X31725501Y-10000500D01*
X31792540Y-10020185D01*
X31838295Y-10072989D01*
X31849501Y-10124500D01*
X31849501Y-10681518D01*
X31864354Y-10775304D01*
X31921950Y-10888342D01*
X31921952Y-10888344D01*
X31921954Y-10888347D01*
X32011652Y-10978045D01*
X32011654Y-10978046D01*
X32011658Y-10978050D01*
X32124694Y-11035645D01*
X32124698Y-11035647D01*
X32218475Y-11050499D01*
X32218481Y-11050500D01*
X33781518Y-11050499D01*
X33875304Y-11035646D01*
X33988342Y-10978050D01*
X34078050Y-10888342D01*
X34135646Y-10775304D01*
X34135646Y-10775302D01*
X34135647Y-10775301D01*
X34149219Y-10689606D01*
X34150500Y-10681519D01*
X34150499Y-10442807D01*
X34170183Y-10375771D01*
X34222987Y-10330016D01*
X34292146Y-10320072D01*
X34355701Y-10349097D01*
X34384984Y-10386515D01*
X34470904Y-10555143D01*
X34586555Y-10714321D01*
X34725678Y-10853444D01*
X34884858Y-10969097D01*
X35060167Y-11058420D01*
X35239999Y-11116850D01*
X35240000Y-11116850D01*
X35240000Y-9904144D01*
X35347007Y-9965925D01*
X35474174Y-10000000D01*
X35605826Y-10000000D01*
X35732993Y-9965925D01*
X35840000Y-9904144D01*
X35840000Y-11116850D01*
X36019832Y-11058420D01*
X36195141Y-10969097D01*
X36354321Y-10853444D01*
X36493444Y-10714321D01*
X36609095Y-10555143D01*
X36698418Y-10379835D01*
X36744378Y-10238387D01*
X36783815Y-10180712D01*
X36848174Y-10153513D01*
X36917020Y-10165428D01*
X36968496Y-10212672D01*
X36980240Y-10238387D01*
X37013787Y-10341636D01*
X37013788Y-10341639D01*
X37057787Y-10427990D01*
X37094733Y-10500500D01*
X37096006Y-10502997D01*
X37202441Y-10649494D01*
X37202445Y-10649499D01*
X37330502Y-10777556D01*
X37477001Y-10883993D01*
X37477003Y-10883994D01*
X37477006Y-10883996D01*
X37511794Y-10901721D01*
X37562590Y-10949694D01*
X37579500Y-11012206D01*
X37579500Y-11620891D01*
X37613608Y-11748187D01*
X37646554Y-11805250D01*
X37679500Y-11862314D01*
X37679502Y-11862316D01*
X40513181Y-14695995D01*
X40546666Y-14757318D01*
X40549500Y-14783676D01*
X40549500Y-15715701D01*
X40552401Y-15752567D01*
X40552402Y-15752573D01*
X40598254Y-15910393D01*
X40598255Y-15910396D01*
X40681917Y-16051862D01*
X40681923Y-16051870D01*
X40798129Y-16168076D01*
X40798133Y-16168079D01*
X40798135Y-16168081D01*
X40798137Y-16168082D01*
X40939600Y-16251743D01*
X40946764Y-16254843D01*
X40945729Y-16257233D01*
X40993957Y-16288013D01*
X41023182Y-16351477D01*
X41024500Y-16369510D01*
X41024500Y-21938800D01*
X41004815Y-22005839D01*
X40952011Y-22051594D01*
X40900500Y-22062800D01*
X40603708Y-22062800D01*
X40476412Y-22096908D01*
X40362286Y-22162800D01*
X40362283Y-22162802D01*
X38659462Y-23865622D01*
X38598139Y-23899107D01*
X38528447Y-23894123D01*
X38484100Y-23865622D01*
X38386895Y-23768417D01*
X38221349Y-23648140D01*
X38039031Y-23555245D01*
X37844421Y-23492011D01*
X37844411Y-23492009D01*
X37840000Y-23491309D01*
X37840000Y-24355855D01*
X37732993Y-24294075D01*
X37605826Y-24260000D01*
X37474174Y-24260000D01*
X37347007Y-24294075D01*
X37240000Y-24355855D01*
X37240000Y-23491310D01*
X37239999Y-23491309D01*
X37235588Y-23492009D01*
X37235578Y-23492011D01*
X37040968Y-23555245D01*
X36858650Y-23648140D01*
X36693105Y-23768417D01*
X36693104Y-23768417D01*
X36548417Y-23913104D01*
X36548417Y-23913105D01*
X36428140Y-24078650D01*
X36335243Y-24260971D01*
X36333457Y-24266469D01*
X36294017Y-24324142D01*
X36229657Y-24351337D01*
X36160811Y-24339420D01*
X36109338Y-24292173D01*
X36105043Y-24284440D01*
X36026759Y-24130800D01*
X36026105Y-24129900D01*
X35915690Y-23977927D01*
X35782073Y-23844310D01*
X35629199Y-23733240D01*
X35629195Y-23733238D01*
X35460836Y-23647454D01*
X35281118Y-23589059D01*
X35094486Y-23559500D01*
X35094481Y-23559500D01*
X34905519Y-23559500D01*
X34905514Y-23559500D01*
X34718881Y-23589059D01*
X34539163Y-23647454D01*
X34370800Y-23733240D01*
X34329647Y-23763140D01*
X34217927Y-23844310D01*
X34217925Y-23844312D01*
X34217924Y-23844312D01*
X34084312Y-23977924D01*
X34084312Y-23977925D01*
X34084310Y-23977927D01*
X34051998Y-24022400D01*
X33973240Y-24130800D01*
X33887454Y-24299163D01*
X33829059Y-24478881D01*
X33799500Y-24665513D01*
X33799500Y-24854486D01*
X33829059Y-25041118D01*
X33887454Y-25220836D01*
X33953267Y-25350000D01*
X33973240Y-25389199D01*
X34084310Y-25542073D01*
X34217927Y-25675690D01*
X34370801Y-25786760D01*
X34431793Y-25817837D01*
X34539163Y-25872545D01*
X34539165Y-25872545D01*
X34539168Y-25872547D01*
X34635497Y-25903846D01*
X34718881Y-25930940D01*
X34905514Y-25960500D01*
X34905519Y-25960500D01*
X35094486Y-25960500D01*
X35281118Y-25930940D01*
X35315637Y-25919724D01*
X35460832Y-25872547D01*
X35629199Y-25786760D01*
X35782073Y-25675690D01*
X35915690Y-25542073D01*
X36026760Y-25389199D01*
X36105043Y-25235558D01*
X36153017Y-25184763D01*
X36220838Y-25167968D01*
X36286973Y-25190505D01*
X36330425Y-25245220D01*
X36333458Y-25253534D01*
X36335242Y-25259027D01*
X36428140Y-25441349D01*
X36548417Y-25606894D01*
X36548417Y-25606895D01*
X36693104Y-25751582D01*
X36858650Y-25871859D01*
X37040968Y-25964754D01*
X37235584Y-26027990D01*
X37240000Y-26028689D01*
X37240000Y-25164144D01*
X37347007Y-25225925D01*
X37474174Y-25260000D01*
X37605826Y-25260000D01*
X37732993Y-25225925D01*
X37840000Y-25164144D01*
X37840000Y-26028689D01*
X37844415Y-26027990D01*
X38038716Y-25964857D01*
X38108557Y-25962862D01*
X38168390Y-25998942D01*
X38199219Y-26061642D01*
X38191255Y-26131057D01*
X38164716Y-26170469D01*
X23692686Y-40642500D01*
X23599502Y-40735683D01*
X23599500Y-40735686D01*
X23533608Y-40849812D01*
X23499500Y-40977108D01*
X23499500Y-84625500D01*
X23479815Y-84692539D01*
X23427011Y-84738294D01*
X23375500Y-84749500D01*
X23118482Y-84749500D01*
X23037519Y-84762323D01*
X23024696Y-84764354D01*
X22911658Y-84821950D01*
X22911657Y-84821951D01*
X22911652Y-84821954D01*
X22821954Y-84911652D01*
X22821951Y-84911657D01*
X22764352Y-85024698D01*
X22749500Y-85118475D01*
X4735479Y-85118475D01*
X4722743Y-85105739D01*
X4722736Y-85105733D01*
X4530293Y-84958067D01*
X4530292Y-84958066D01*
X4530289Y-84958064D01*
X4320212Y-84836776D01*
X4320205Y-84836773D01*
X4096104Y-84743947D01*
X3904248Y-84692539D01*
X3861789Y-84681162D01*
X3861788Y-84681161D01*
X3861785Y-84681161D01*
X3621289Y-84649500D01*
X3621288Y-84649500D01*
X3378712Y-84649500D01*
X3378711Y-84649500D01*
X3138214Y-84681161D01*
X2903895Y-84743947D01*
X2679794Y-84836773D01*
X2679785Y-84836777D01*
X2469706Y-84958067D01*
X2277263Y-85105733D01*
X2277256Y-85105739D01*
X2105739Y-85277256D01*
X2105733Y-85277263D01*
X1958067Y-85469706D01*
X1836777Y-85679785D01*
X1836773Y-85679794D01*
X1743947Y-85903895D01*
X1681161Y-86138214D01*
X1649500Y-86378711D01*
X500500Y-86378711D01*
X500500Y-59962014D01*
X3700000Y-59962014D01*
X3700000Y-60197985D01*
X3730799Y-60431914D01*
X3791870Y-60659837D01*
X3882160Y-60877819D01*
X3882168Y-60877835D01*
X4000138Y-61082163D01*
X4000148Y-61082178D01*
X4032020Y-61123715D01*
X4878247Y-60277488D01*
X4923978Y-60387890D01*
X4995112Y-60494351D01*
X5085649Y-60584888D01*
X5192110Y-60656022D01*
X5302511Y-60701752D01*
X4456284Y-61547979D01*
X4497822Y-61579851D01*
X4497836Y-61579861D01*
X4702164Y-61697831D01*
X4702180Y-61697839D01*
X4920163Y-61788129D01*
X4920161Y-61788129D01*
X5148085Y-61849200D01*
X5382014Y-61879999D01*
X5382029Y-61880000D01*
X5617971Y-61880000D01*
X5617985Y-61879999D01*
X5851914Y-61849200D01*
X6079837Y-61788129D01*
X6297819Y-61697839D01*
X6297828Y-61697834D01*
X6502171Y-61579855D01*
X6502172Y-61579854D01*
X6543714Y-61547978D01*
X5697488Y-60701752D01*
X5807890Y-60656022D01*
X5914351Y-60584888D01*
X6004888Y-60494351D01*
X6076022Y-60387890D01*
X6121752Y-60277488D01*
X6967978Y-61123714D01*
X6999854Y-61082172D01*
X6999855Y-61082171D01*
X7117834Y-60877828D01*
X7117839Y-60877819D01*
X7208129Y-60659837D01*
X7269200Y-60431914D01*
X7299999Y-60197985D01*
X7300000Y-60197971D01*
X7300000Y-59962028D01*
X7299999Y-59962014D01*
X7269200Y-59728085D01*
X7208129Y-59500162D01*
X7117839Y-59282180D01*
X7117831Y-59282164D01*
X6999861Y-59077836D01*
X6999851Y-59077822D01*
X6967979Y-59036284D01*
X6121752Y-59882510D01*
X6076022Y-59772110D01*
X6004888Y-59665649D01*
X5914351Y-59575112D01*
X5807890Y-59503978D01*
X5697489Y-59458247D01*
X6543715Y-58612020D01*
X6502178Y-58580148D01*
X6502163Y-58580138D01*
X6297835Y-58462168D01*
X6297819Y-58462160D01*
X6079836Y-58371870D01*
X6079838Y-58371870D01*
X5851914Y-58310799D01*
X5617985Y-58280000D01*
X5382014Y-58280000D01*
X5148085Y-58310799D01*
X4920162Y-58371870D01*
X4702180Y-58462160D01*
X4702164Y-58462168D01*
X4497836Y-58580138D01*
X4497823Y-58580147D01*
X4456283Y-58612020D01*
X5302511Y-59458247D01*
X5192110Y-59503978D01*
X5085649Y-59575112D01*
X4995112Y-59665649D01*
X4923978Y-59772110D01*
X4878247Y-59882510D01*
X4032020Y-59036283D01*
X4000147Y-59077823D01*
X4000138Y-59077836D01*
X3882168Y-59282164D01*
X3882160Y-59282180D01*
X3791870Y-59500162D01*
X3730799Y-59728085D01*
X3700000Y-59962014D01*
X500500Y-59962014D01*
X500500Y-53884298D01*
X3799500Y-53884298D01*
X3799500Y-56115701D01*
X3802401Y-56152567D01*
X3802402Y-56152573D01*
X3848254Y-56310393D01*
X3848255Y-56310396D01*
X3931917Y-56451862D01*
X3931923Y-56451870D01*
X4048129Y-56568076D01*
X4048133Y-56568079D01*
X4048135Y-56568081D01*
X4189602Y-56651744D01*
X4231224Y-56663836D01*
X4347426Y-56697597D01*
X4347429Y-56697597D01*
X4347431Y-56697598D01*
X4384306Y-56700500D01*
X4384314Y-56700500D01*
X6615686Y-56700500D01*
X6615694Y-56700500D01*
X6652569Y-56697598D01*
X6652571Y-56697597D01*
X6652573Y-56697597D01*
X6694191Y-56685505D01*
X6810398Y-56651744D01*
X6951865Y-56568081D01*
X7068081Y-56451865D01*
X7151744Y-56310398D01*
X7197598Y-56152569D01*
X7200500Y-56115694D01*
X7200500Y-53884306D01*
X7197598Y-53847431D01*
X7188730Y-53816909D01*
X7151745Y-53689606D01*
X7151744Y-53689603D01*
X7151744Y-53689602D01*
X7068081Y-53548135D01*
X7068079Y-53548133D01*
X7068076Y-53548129D01*
X6951870Y-53431923D01*
X6951862Y-53431917D01*
X6810396Y-53348255D01*
X6810393Y-53348254D01*
X6652573Y-53302402D01*
X6652567Y-53302401D01*
X6615701Y-53299500D01*
X6615694Y-53299500D01*
X4384306Y-53299500D01*
X4384298Y-53299500D01*
X4347432Y-53302401D01*
X4347426Y-53302402D01*
X4189606Y-53348254D01*
X4189603Y-53348255D01*
X4048137Y-53431917D01*
X4048129Y-53431923D01*
X3931923Y-53548129D01*
X3931917Y-53548137D01*
X3848255Y-53689603D01*
X3848254Y-53689606D01*
X3802402Y-53847426D01*
X3802401Y-53847432D01*
X3799500Y-53884298D01*
X500500Y-53884298D01*
X500500Y-37655808D01*
X8372700Y-37655808D01*
X8372700Y-74019091D01*
X8406808Y-74146387D01*
X8439754Y-74203450D01*
X8472700Y-74260514D01*
X8472702Y-74260516D01*
X8819963Y-74607777D01*
X8853448Y-74669100D01*
X8850213Y-74733775D01*
X8829060Y-74798878D01*
X8799500Y-74985513D01*
X8799500Y-75174486D01*
X8829059Y-75361118D01*
X8887454Y-75540836D01*
X8968157Y-75699224D01*
X8973240Y-75709199D01*
X9084310Y-75862073D01*
X9217927Y-75995690D01*
X9370801Y-76106760D01*
X9450347Y-76147290D01*
X9539163Y-76192545D01*
X9539165Y-76192545D01*
X9539168Y-76192547D01*
X9628734Y-76221649D01*
X9660803Y-76232069D01*
X9718478Y-76271507D01*
X9745676Y-76335866D01*
X9733761Y-76404712D01*
X9686516Y-76456188D01*
X9660803Y-76467931D01*
X9539163Y-76507454D01*
X9370800Y-76593240D01*
X9283579Y-76656610D01*
X9217927Y-76704310D01*
X9217925Y-76704312D01*
X9217924Y-76704312D01*
X9084312Y-76837924D01*
X9084312Y-76837925D01*
X9084310Y-76837927D01*
X9036610Y-76903579D01*
X8973240Y-76990800D01*
X8887454Y-77159163D01*
X8829059Y-77338881D01*
X8799500Y-77525513D01*
X8799500Y-77714486D01*
X8829059Y-77901118D01*
X8887454Y-78080836D01*
X8939680Y-78183334D01*
X8973240Y-78249199D01*
X9084310Y-78402073D01*
X9217927Y-78535690D01*
X9370801Y-78646760D01*
X9450347Y-78687290D01*
X9539163Y-78732545D01*
X9539165Y-78732545D01*
X9539168Y-78732547D01*
X9635497Y-78763846D01*
X9718881Y-78790940D01*
X9905514Y-78820500D01*
X9905519Y-78820500D01*
X10094486Y-78820500D01*
X10281118Y-78790940D01*
X10290403Y-78787923D01*
X10460832Y-78732547D01*
X10467342Y-78729230D01*
X16935031Y-78729230D01*
X16938651Y-78731859D01*
X17120968Y-78824755D01*
X17315582Y-78887990D01*
X17517683Y-78920000D01*
X17722317Y-78920000D01*
X17924417Y-78887990D01*
X18119031Y-78824755D01*
X18301346Y-78731860D01*
X18304966Y-78729230D01*
X17620001Y-78044264D01*
X17620000Y-78044264D01*
X16935031Y-78729230D01*
X10467342Y-78729230D01*
X10629199Y-78646760D01*
X10782073Y-78535690D01*
X10915690Y-78402073D01*
X11026760Y-78249199D01*
X11112547Y-78080832D01*
X11170940Y-77901118D01*
X11200500Y-77714486D01*
X11200500Y-77525514D01*
X11200499Y-77525512D01*
X11199259Y-77517682D01*
X16320000Y-77517682D01*
X16320000Y-77722317D01*
X16352009Y-77924417D01*
X16415244Y-78119031D01*
X16508139Y-78301347D01*
X16508146Y-78301359D01*
X16510767Y-78304966D01*
X16510769Y-78304967D01*
X17195736Y-77620000D01*
X17143075Y-77567339D01*
X17220000Y-77567339D01*
X17220000Y-77672661D01*
X17247259Y-77774394D01*
X17299920Y-77865606D01*
X17374394Y-77940080D01*
X17465606Y-77992741D01*
X17567339Y-78020000D01*
X17672661Y-78020000D01*
X17774394Y-77992741D01*
X17865606Y-77940080D01*
X17940080Y-77865606D01*
X17992741Y-77774394D01*
X18020000Y-77672661D01*
X18020000Y-77619999D01*
X18044264Y-77619999D01*
X18044264Y-77620000D01*
X18729230Y-78304966D01*
X18731860Y-78301346D01*
X18824755Y-78119031D01*
X18887990Y-77924417D01*
X18920000Y-77722317D01*
X18920000Y-77517682D01*
X18887990Y-77315582D01*
X18824755Y-77120968D01*
X18731859Y-76938651D01*
X18729230Y-76935031D01*
X18044264Y-77619999D01*
X18020000Y-77619999D01*
X18020000Y-77567339D01*
X17992741Y-77465606D01*
X17940080Y-77374394D01*
X17865606Y-77299920D01*
X17774394Y-77247259D01*
X17672661Y-77220000D01*
X17567339Y-77220000D01*
X17465606Y-77247259D01*
X17374394Y-77299920D01*
X17299920Y-77374394D01*
X17247259Y-77465606D01*
X17220000Y-77567339D01*
X17143075Y-77567339D01*
X16510768Y-76935032D01*
X16510767Y-76935032D01*
X16508136Y-76938655D01*
X16415245Y-77120965D01*
X16352009Y-77315582D01*
X16320000Y-77517682D01*
X11199259Y-77517682D01*
X11170940Y-77338881D01*
X11112545Y-77159163D01*
X11026759Y-76990800D01*
X10915690Y-76837927D01*
X10782073Y-76704310D01*
X10629199Y-76593240D01*
X10460836Y-76507454D01*
X10386472Y-76483291D01*
X10339195Y-76467930D01*
X10281521Y-76428493D01*
X10254323Y-76364134D01*
X10266238Y-76295288D01*
X10313482Y-76243812D01*
X10339194Y-76232069D01*
X10460832Y-76192547D01*
X10467342Y-76189230D01*
X16935031Y-76189230D01*
X16938653Y-76191861D01*
X17032178Y-76239514D01*
X17082974Y-76287488D01*
X17099770Y-76355309D01*
X17077233Y-76421444D01*
X17032180Y-76460483D01*
X16938655Y-76508136D01*
X16935032Y-76510767D01*
X16935032Y-76510768D01*
X17620000Y-77195736D01*
X17620001Y-77195736D01*
X18304967Y-76510769D01*
X18304966Y-76510767D01*
X18301359Y-76508146D01*
X18301347Y-76508139D01*
X18207819Y-76460484D01*
X18157023Y-76412509D01*
X18140228Y-76344688D01*
X18162766Y-76278553D01*
X18207820Y-76239514D01*
X18301344Y-76191862D01*
X18304966Y-76189230D01*
X17620001Y-75504264D01*
X17620000Y-75504264D01*
X16935031Y-76189230D01*
X10467342Y-76189230D01*
X10629199Y-76106760D01*
X10782073Y-75995690D01*
X10915690Y-75862073D01*
X11026760Y-75709199D01*
X11112547Y-75540832D01*
X11170940Y-75361118D01*
X11200500Y-75174486D01*
X11200500Y-74985514D01*
X11200499Y-74985512D01*
X11199259Y-74977682D01*
X16320000Y-74977682D01*
X16320000Y-75182317D01*
X16352009Y-75384417D01*
X16415244Y-75579031D01*
X16508139Y-75761347D01*
X16508146Y-75761359D01*
X16510767Y-75764966D01*
X16510769Y-75764967D01*
X17195736Y-75080000D01*
X17143075Y-75027339D01*
X17220000Y-75027339D01*
X17220000Y-75132661D01*
X17247259Y-75234394D01*
X17299920Y-75325606D01*
X17374394Y-75400080D01*
X17465606Y-75452741D01*
X17567339Y-75480000D01*
X17672661Y-75480000D01*
X17774394Y-75452741D01*
X17865606Y-75400080D01*
X17940080Y-75325606D01*
X17992741Y-75234394D01*
X18020000Y-75132661D01*
X18020000Y-75079999D01*
X18044264Y-75079999D01*
X18044264Y-75080000D01*
X18729230Y-75764966D01*
X18731860Y-75761346D01*
X18824755Y-75579031D01*
X18887990Y-75384417D01*
X18920000Y-75182317D01*
X18920000Y-74977682D01*
X18887990Y-74775582D01*
X18824755Y-74580968D01*
X18731859Y-74398651D01*
X18729230Y-74395031D01*
X18044264Y-75079999D01*
X18020000Y-75079999D01*
X18020000Y-75027339D01*
X17992741Y-74925606D01*
X17940080Y-74834394D01*
X17865606Y-74759920D01*
X17774394Y-74707259D01*
X17672661Y-74680000D01*
X17567339Y-74680000D01*
X17465606Y-74707259D01*
X17374394Y-74759920D01*
X17299920Y-74834394D01*
X17247259Y-74925606D01*
X17220000Y-75027339D01*
X17143075Y-75027339D01*
X16510768Y-74395032D01*
X16510767Y-74395032D01*
X16508136Y-74398655D01*
X16415245Y-74580965D01*
X16352009Y-74775582D01*
X16320000Y-74977682D01*
X11199259Y-74977682D01*
X11170940Y-74798881D01*
X11128771Y-74669100D01*
X11112547Y-74619168D01*
X11112545Y-74619165D01*
X11112545Y-74619163D01*
X11026759Y-74450800D01*
X10915690Y-74297927D01*
X10782073Y-74164310D01*
X10629199Y-74053240D01*
X10562178Y-74019091D01*
X10460836Y-73967454D01*
X10386472Y-73943291D01*
X10339195Y-73927930D01*
X10281521Y-73888493D01*
X10254323Y-73824134D01*
X10266238Y-73755288D01*
X10313482Y-73703812D01*
X10339194Y-73692069D01*
X10460832Y-73652547D01*
X10467342Y-73649230D01*
X16935031Y-73649230D01*
X16938653Y-73651861D01*
X17032178Y-73699514D01*
X17082974Y-73747488D01*
X17099770Y-73815309D01*
X17077233Y-73881444D01*
X17032180Y-73920483D01*
X16938655Y-73968136D01*
X16935032Y-73970767D01*
X16935032Y-73970768D01*
X17620000Y-74655736D01*
X17620001Y-74655736D01*
X18304967Y-73970769D01*
X18304966Y-73970767D01*
X18301359Y-73968146D01*
X18301347Y-73968139D01*
X18207819Y-73920484D01*
X18157023Y-73872509D01*
X18140228Y-73804688D01*
X18162766Y-73738553D01*
X18207820Y-73699514D01*
X18301344Y-73651862D01*
X18304966Y-73649230D01*
X17620001Y-72964264D01*
X17620000Y-72964264D01*
X16935031Y-73649230D01*
X10467342Y-73649230D01*
X10629199Y-73566760D01*
X10782073Y-73455690D01*
X10915690Y-73322073D01*
X11026760Y-73169199D01*
X11112547Y-73000832D01*
X11170940Y-72821118D01*
X11200500Y-72634486D01*
X11200500Y-72445514D01*
X11200499Y-72445512D01*
X11199259Y-72437682D01*
X16320000Y-72437682D01*
X16320000Y-72642317D01*
X16352009Y-72844417D01*
X16415244Y-73039031D01*
X16508139Y-73221347D01*
X16508146Y-73221359D01*
X16510767Y-73224966D01*
X16510769Y-73224967D01*
X17195736Y-72540000D01*
X17143075Y-72487339D01*
X17220000Y-72487339D01*
X17220000Y-72592661D01*
X17247259Y-72694394D01*
X17299920Y-72785606D01*
X17374394Y-72860080D01*
X17465606Y-72912741D01*
X17567339Y-72940000D01*
X17672661Y-72940000D01*
X17774394Y-72912741D01*
X17865606Y-72860080D01*
X17940080Y-72785606D01*
X17992741Y-72694394D01*
X18020000Y-72592661D01*
X18020000Y-72539999D01*
X18044264Y-72539999D01*
X18044264Y-72540000D01*
X18729230Y-73224966D01*
X18731860Y-73221346D01*
X18824755Y-73039031D01*
X18887990Y-72844417D01*
X18920000Y-72642317D01*
X18920000Y-72437682D01*
X18887990Y-72235582D01*
X18824755Y-72040968D01*
X18731859Y-71858651D01*
X18729230Y-71855031D01*
X18044264Y-72539999D01*
X18020000Y-72539999D01*
X18020000Y-72487339D01*
X17992741Y-72385606D01*
X17940080Y-72294394D01*
X17865606Y-72219920D01*
X17774394Y-72167259D01*
X17672661Y-72140000D01*
X17567339Y-72140000D01*
X17465606Y-72167259D01*
X17374394Y-72219920D01*
X17299920Y-72294394D01*
X17247259Y-72385606D01*
X17220000Y-72487339D01*
X17143075Y-72487339D01*
X16510768Y-71855032D01*
X16510767Y-71855032D01*
X16508136Y-71858655D01*
X16415245Y-72040965D01*
X16352009Y-72235582D01*
X16320000Y-72437682D01*
X11199259Y-72437682D01*
X11170940Y-72258881D01*
X11112545Y-72079163D01*
X11026759Y-71910800D01*
X10915690Y-71757927D01*
X10782073Y-71624310D01*
X10629199Y-71513240D01*
X10626298Y-71511762D01*
X10475615Y-71434985D01*
X10424819Y-71387010D01*
X10408024Y-71319189D01*
X10430561Y-71253054D01*
X10485277Y-71209603D01*
X10531910Y-71200500D01*
X10615686Y-71200500D01*
X10615694Y-71200500D01*
X10652569Y-71197598D01*
X10652571Y-71197597D01*
X10652573Y-71197597D01*
X10694191Y-71185505D01*
X10810398Y-71151744D01*
X10882286Y-71109230D01*
X16935031Y-71109230D01*
X16938653Y-71111861D01*
X17032178Y-71159514D01*
X17082974Y-71207488D01*
X17099770Y-71275309D01*
X17077233Y-71341444D01*
X17032180Y-71380483D01*
X16938655Y-71428136D01*
X16935032Y-71430767D01*
X16935032Y-71430768D01*
X17620000Y-72115736D01*
X17620001Y-72115736D01*
X18304967Y-71430769D01*
X18304966Y-71430767D01*
X18301359Y-71428146D01*
X18301347Y-71428139D01*
X18207819Y-71380484D01*
X18157023Y-71332509D01*
X18140228Y-71264688D01*
X18162766Y-71198553D01*
X18207820Y-71159514D01*
X18301344Y-71111862D01*
X18304966Y-71109230D01*
X17620001Y-70424264D01*
X17620000Y-70424264D01*
X16935031Y-71109230D01*
X10882286Y-71109230D01*
X10951865Y-71068081D01*
X11068081Y-70951865D01*
X11151744Y-70810398D01*
X11197598Y-70652569D01*
X11200500Y-70615694D01*
X11200500Y-69897682D01*
X16320000Y-69897682D01*
X16320000Y-70102317D01*
X16352009Y-70304417D01*
X16415244Y-70499031D01*
X16508139Y-70681347D01*
X16508146Y-70681359D01*
X16510767Y-70684966D01*
X16510769Y-70684967D01*
X17195736Y-70000000D01*
X17143075Y-69947339D01*
X17220000Y-69947339D01*
X17220000Y-70052661D01*
X17247259Y-70154394D01*
X17299920Y-70245606D01*
X17374394Y-70320080D01*
X17465606Y-70372741D01*
X17567339Y-70400000D01*
X17672661Y-70400000D01*
X17774394Y-70372741D01*
X17865606Y-70320080D01*
X17940080Y-70245606D01*
X17992741Y-70154394D01*
X18020000Y-70052661D01*
X18020000Y-69999999D01*
X18044264Y-69999999D01*
X18044264Y-70000000D01*
X18729230Y-70684966D01*
X18731860Y-70681346D01*
X18824755Y-70499031D01*
X18887990Y-70304417D01*
X18920000Y-70102317D01*
X18920000Y-69897682D01*
X18887990Y-69695582D01*
X18824755Y-69500968D01*
X18731859Y-69318651D01*
X18729230Y-69315031D01*
X18044264Y-69999999D01*
X18020000Y-69999999D01*
X18020000Y-69947339D01*
X17992741Y-69845606D01*
X17940080Y-69754394D01*
X17865606Y-69679920D01*
X17774394Y-69627259D01*
X17672661Y-69600000D01*
X17567339Y-69600000D01*
X17465606Y-69627259D01*
X17374394Y-69679920D01*
X17299920Y-69754394D01*
X17247259Y-69845606D01*
X17220000Y-69947339D01*
X17143075Y-69947339D01*
X16510768Y-69315032D01*
X16510767Y-69315032D01*
X16508136Y-69318655D01*
X16415245Y-69500965D01*
X16352009Y-69695582D01*
X16320000Y-69897682D01*
X11200500Y-69897682D01*
X11200500Y-69558676D01*
X11220185Y-69491637D01*
X11236819Y-69470995D01*
X11817047Y-68890767D01*
X16935032Y-68890767D01*
X16935032Y-68890768D01*
X17620000Y-69575736D01*
X17620001Y-69575736D01*
X18304967Y-68890769D01*
X18304966Y-68890767D01*
X18301359Y-68888146D01*
X18301347Y-68888139D01*
X18119031Y-68795244D01*
X17924417Y-68732009D01*
X17722317Y-68700000D01*
X17517683Y-68700000D01*
X17315582Y-68732009D01*
X17120965Y-68795245D01*
X16938655Y-68888136D01*
X16935032Y-68890767D01*
X11817047Y-68890767D01*
X11857474Y-68850340D01*
X15257841Y-65449973D01*
X19660100Y-61047714D01*
X19725992Y-60933586D01*
X19760100Y-60806292D01*
X19760100Y-60674507D01*
X19760100Y-25173218D01*
X19779785Y-25106179D01*
X19796423Y-25085533D01*
X19803714Y-25078242D01*
X19880375Y-24963511D01*
X19933180Y-24836028D01*
X19954754Y-24727569D01*
X19960100Y-24700695D01*
X19960100Y-24562704D01*
X19933181Y-24427377D01*
X19933180Y-24427376D01*
X19933180Y-24427372D01*
X19905233Y-24359901D01*
X19880378Y-24299895D01*
X19880371Y-24299882D01*
X19803714Y-24185158D01*
X19803711Y-24185154D01*
X19706145Y-24087588D01*
X19706141Y-24087585D01*
X19591417Y-24010928D01*
X19591404Y-24010921D01*
X19463932Y-23958121D01*
X19463922Y-23958118D01*
X19328595Y-23931200D01*
X19328593Y-23931200D01*
X19190607Y-23931200D01*
X19190605Y-23931200D01*
X19055277Y-23958118D01*
X19055267Y-23958121D01*
X18927795Y-24010921D01*
X18927782Y-24010928D01*
X18813058Y-24087585D01*
X18813054Y-24087588D01*
X18715488Y-24185154D01*
X18715485Y-24185158D01*
X18638828Y-24299882D01*
X18638821Y-24299895D01*
X18586021Y-24427367D01*
X18586018Y-24427377D01*
X18559100Y-24562704D01*
X18559100Y-24562707D01*
X18559100Y-24700693D01*
X18559100Y-24700695D01*
X18559099Y-24700695D01*
X18586018Y-24836022D01*
X18586021Y-24836032D01*
X18638821Y-24963504D01*
X18638828Y-24963517D01*
X18715485Y-25078241D01*
X18722777Y-25085533D01*
X18756265Y-25146855D01*
X18759100Y-25173218D01*
X18759100Y-60481724D01*
X18739415Y-60548763D01*
X18722781Y-60569405D01*
X10529005Y-68763181D01*
X10467682Y-68796666D01*
X10441324Y-68799500D01*
X9497700Y-68799500D01*
X9430661Y-68779815D01*
X9384906Y-68727011D01*
X9373700Y-68675500D01*
X9373700Y-54882650D01*
X14209500Y-54882650D01*
X14209500Y-55117349D01*
X14209501Y-55117365D01*
X14240134Y-55350048D01*
X14240135Y-55350053D01*
X14240136Y-55350059D01*
X14300883Y-55576772D01*
X14300886Y-55576779D01*
X14390700Y-55793610D01*
X14390705Y-55793620D01*
X14508058Y-55996882D01*
X14650940Y-56183090D01*
X14650946Y-56183097D01*
X14816902Y-56349053D01*
X14816909Y-56349059D01*
X15003117Y-56491941D01*
X15177486Y-56592613D01*
X15225702Y-56643180D01*
X15238925Y-56711787D01*
X15212957Y-56776652D01*
X15177486Y-56807387D01*
X15003117Y-56908058D01*
X14816909Y-57050940D01*
X14816902Y-57050946D01*
X14650946Y-57216902D01*
X14650940Y-57216909D01*
X14508058Y-57403117D01*
X14390705Y-57606379D01*
X14390700Y-57606389D01*
X14300886Y-57823220D01*
X14300881Y-57823234D01*
X14240137Y-58049938D01*
X14240134Y-58049951D01*
X14209501Y-58282634D01*
X14209500Y-58282650D01*
X14209500Y-58517349D01*
X14209501Y-58517365D01*
X14240134Y-58750048D01*
X14240135Y-58750053D01*
X14240136Y-58750059D01*
X14300883Y-58976772D01*
X14300886Y-58976779D01*
X14390700Y-59193610D01*
X14390705Y-59193620D01*
X14508058Y-59396882D01*
X14650940Y-59583090D01*
X14650946Y-59583097D01*
X14816902Y-59749053D01*
X14816909Y-59749059D01*
X15003117Y-59891941D01*
X15206379Y-60009294D01*
X15206389Y-60009299D01*
X15265528Y-60033795D01*
X15423228Y-60099117D01*
X15649941Y-60159864D01*
X15882644Y-60190500D01*
X15882651Y-60190500D01*
X16117349Y-60190500D01*
X16117356Y-60190500D01*
X16350059Y-60159864D01*
X16576772Y-60099117D01*
X16793617Y-60009296D01*
X16996883Y-59891941D01*
X17183092Y-59749058D01*
X17349058Y-59583092D01*
X17491941Y-59396883D01*
X17609296Y-59193617D01*
X17699117Y-58976772D01*
X17759864Y-58750059D01*
X17790500Y-58517356D01*
X17790500Y-58282644D01*
X17759864Y-58049941D01*
X17699117Y-57823228D01*
X17644216Y-57690686D01*
X17609299Y-57606389D01*
X17609294Y-57606379D01*
X17491941Y-57403117D01*
X17349059Y-57216909D01*
X17349053Y-57216902D01*
X17183097Y-57050946D01*
X17183090Y-57050940D01*
X16996882Y-56908058D01*
X16822513Y-56807387D01*
X16774298Y-56756821D01*
X16761074Y-56688214D01*
X16787042Y-56623349D01*
X16822513Y-56592613D01*
X16865004Y-56568081D01*
X16996883Y-56491941D01*
X17183092Y-56349058D01*
X17349058Y-56183092D01*
X17491941Y-55996883D01*
X17609296Y-55793617D01*
X17699117Y-55576772D01*
X17759864Y-55350059D01*
X17790500Y-55117356D01*
X17790500Y-54882644D01*
X17759864Y-54649941D01*
X17699117Y-54423228D01*
X17628138Y-54251870D01*
X17609299Y-54206389D01*
X17609294Y-54206379D01*
X17491941Y-54003117D01*
X17349059Y-53816909D01*
X17349053Y-53816902D01*
X17183097Y-53650946D01*
X17183090Y-53650940D01*
X16996882Y-53508058D01*
X16793620Y-53390705D01*
X16793610Y-53390700D01*
X16576779Y-53300886D01*
X16576780Y-53300886D01*
X16576772Y-53300883D01*
X16532091Y-53288911D01*
X16528851Y-53288042D01*
X16350059Y-53240136D01*
X16350053Y-53240135D01*
X16350048Y-53240134D01*
X16117365Y-53209501D01*
X16117362Y-53209500D01*
X16117356Y-53209500D01*
X15882644Y-53209500D01*
X15882638Y-53209500D01*
X15882634Y-53209501D01*
X15649951Y-53240134D01*
X15649944Y-53240135D01*
X15649941Y-53240136D01*
X15574370Y-53260385D01*
X15423234Y-53300881D01*
X15423220Y-53300886D01*
X15206389Y-53390700D01*
X15206379Y-53390705D01*
X15003117Y-53508058D01*
X14816909Y-53650940D01*
X14816902Y-53650946D01*
X14650946Y-53816902D01*
X14650940Y-53816909D01*
X14508058Y-54003117D01*
X14390705Y-54206379D01*
X14390700Y-54206389D01*
X14300886Y-54423220D01*
X14300881Y-54423234D01*
X14240137Y-54649938D01*
X14240134Y-54649951D01*
X14209501Y-54882634D01*
X14209500Y-54882650D01*
X9373700Y-54882650D01*
X9373700Y-37980376D01*
X9393385Y-37913337D01*
X9410019Y-37892695D01*
X10295395Y-37007319D01*
X10356718Y-36973834D01*
X10383076Y-36971000D01*
X10393395Y-36971000D01*
X10484441Y-36952889D01*
X10528728Y-36944080D01*
X10656211Y-36891275D01*
X10770942Y-36814614D01*
X10868514Y-36717042D01*
X10945175Y-36602311D01*
X10997980Y-36474828D01*
X11022810Y-36350000D01*
X11024900Y-36339495D01*
X11024900Y-36201504D01*
X10997981Y-36066177D01*
X10997980Y-36066176D01*
X10997980Y-36066172D01*
X10981699Y-36026865D01*
X10945178Y-35938695D01*
X10945171Y-35938682D01*
X10868514Y-35823958D01*
X10868511Y-35823954D01*
X10770945Y-35726388D01*
X10770941Y-35726385D01*
X10656217Y-35649728D01*
X10656204Y-35649721D01*
X10528732Y-35596921D01*
X10528722Y-35596918D01*
X10393395Y-35570000D01*
X10393393Y-35570000D01*
X10255407Y-35570000D01*
X10255405Y-35570000D01*
X10120077Y-35596918D01*
X10120067Y-35596921D01*
X9992595Y-35649721D01*
X9992582Y-35649728D01*
X9877858Y-35726385D01*
X9877854Y-35726388D01*
X9780288Y-35823954D01*
X9780285Y-35823958D01*
X9703628Y-35938682D01*
X9703621Y-35938695D01*
X9650821Y-36066167D01*
X9650818Y-36066177D01*
X9623900Y-36201504D01*
X9623900Y-36211824D01*
X9604215Y-36278863D01*
X9587581Y-36299505D01*
X8472702Y-37414383D01*
X8472700Y-37414386D01*
X8406808Y-37528512D01*
X8372700Y-37655808D01*
X500500Y-37655808D01*
X500500Y-16962014D01*
X3700000Y-16962014D01*
X3700000Y-17197985D01*
X3730799Y-17431914D01*
X3791870Y-17659837D01*
X3882160Y-17877819D01*
X3882168Y-17877835D01*
X4000138Y-18082163D01*
X4000148Y-18082178D01*
X4032020Y-18123715D01*
X4878247Y-17277488D01*
X4923978Y-17387890D01*
X4995112Y-17494351D01*
X5085649Y-17584888D01*
X5192110Y-17656022D01*
X5302511Y-17701752D01*
X4456284Y-18547979D01*
X4497822Y-18579851D01*
X4497836Y-18579861D01*
X4702164Y-18697831D01*
X4702180Y-18697839D01*
X4920163Y-18788129D01*
X4920161Y-18788129D01*
X5148085Y-18849200D01*
X5382014Y-18879999D01*
X5382029Y-18880000D01*
X5617971Y-18880000D01*
X5617985Y-18879999D01*
X5851914Y-18849200D01*
X6079837Y-18788129D01*
X6297819Y-18697839D01*
X6297828Y-18697834D01*
X6502171Y-18579855D01*
X6502172Y-18579854D01*
X6543714Y-18547978D01*
X5697488Y-17701752D01*
X5807890Y-17656022D01*
X5914351Y-17584888D01*
X6004888Y-17494351D01*
X6076022Y-17387890D01*
X6121752Y-17277488D01*
X6967978Y-18123714D01*
X6999854Y-18082172D01*
X6999855Y-18082171D01*
X7117834Y-17877828D01*
X7117839Y-17877819D01*
X7208129Y-17659837D01*
X7269200Y-17431914D01*
X7299999Y-17197985D01*
X7300000Y-17197971D01*
X7300000Y-16962028D01*
X7299999Y-16962014D01*
X7269200Y-16728085D01*
X7208129Y-16500162D01*
X7117839Y-16282180D01*
X7117831Y-16282164D01*
X6999861Y-16077836D01*
X6999851Y-16077822D01*
X6967979Y-16036284D01*
X6121752Y-16882510D01*
X6076022Y-16772110D01*
X6004888Y-16665649D01*
X5914351Y-16575112D01*
X5807890Y-16503978D01*
X5697489Y-16458247D01*
X6543715Y-15612020D01*
X6502178Y-15580148D01*
X6502163Y-15580138D01*
X6297835Y-15462168D01*
X6297819Y-15462160D01*
X6079836Y-15371870D01*
X6079838Y-15371870D01*
X5851914Y-15310799D01*
X5617985Y-15280000D01*
X5382014Y-15280000D01*
X5148085Y-15310799D01*
X4920162Y-15371870D01*
X4702180Y-15462160D01*
X4702164Y-15462168D01*
X4497836Y-15580138D01*
X4497823Y-15580147D01*
X4456283Y-15612020D01*
X5302511Y-16458247D01*
X5192110Y-16503978D01*
X5085649Y-16575112D01*
X4995112Y-16665649D01*
X4923978Y-16772110D01*
X4878247Y-16882510D01*
X4032020Y-16036283D01*
X4000147Y-16077823D01*
X4000138Y-16077836D01*
X3882168Y-16282164D01*
X3882160Y-16282180D01*
X3791870Y-16500162D01*
X3730799Y-16728085D01*
X3700000Y-16962014D01*
X500500Y-16962014D01*
X500500Y-10884298D01*
X3799500Y-10884298D01*
X3799500Y-13115701D01*
X3802401Y-13152567D01*
X3802402Y-13152573D01*
X3848254Y-13310393D01*
X3848255Y-13310396D01*
X3931917Y-13451862D01*
X3931923Y-13451870D01*
X4048129Y-13568076D01*
X4048133Y-13568079D01*
X4048135Y-13568081D01*
X4189602Y-13651744D01*
X4231224Y-13663836D01*
X4347426Y-13697597D01*
X4347429Y-13697597D01*
X4347431Y-13697598D01*
X4384306Y-13700500D01*
X4384314Y-13700500D01*
X6615686Y-13700500D01*
X6615694Y-13700500D01*
X6652569Y-13697598D01*
X6652571Y-13697597D01*
X6652573Y-13697597D01*
X6694191Y-13685505D01*
X6810398Y-13651744D01*
X6951865Y-13568081D01*
X7068081Y-13451865D01*
X7151744Y-13310398D01*
X7197598Y-13152569D01*
X7200500Y-13115694D01*
X7200500Y-12624500D01*
X7220185Y-12557461D01*
X7272989Y-12511706D01*
X7324500Y-12500500D01*
X8928390Y-12500500D01*
X8928392Y-12500500D01*
X9055686Y-12466392D01*
X9169814Y-12400500D01*
X13802390Y-7767922D01*
X13863711Y-7734439D01*
X13933403Y-7739423D01*
X13989336Y-7781295D01*
X13996801Y-7792484D01*
X14031916Y-7851861D01*
X14031923Y-7851870D01*
X14148129Y-7968076D01*
X14148133Y-7968079D01*
X14148135Y-7968081D01*
X14289602Y-8051744D01*
X14331224Y-8063836D01*
X14447426Y-8097597D01*
X14447429Y-8097597D01*
X14447431Y-8097598D01*
X14484306Y-8100500D01*
X14484314Y-8100500D01*
X15240686Y-8100500D01*
X15240694Y-8100500D01*
X15277569Y-8097598D01*
X15277571Y-8097597D01*
X15277573Y-8097597D01*
X15319191Y-8085505D01*
X15435398Y-8051744D01*
X15576865Y-7968081D01*
X15693081Y-7851865D01*
X15776744Y-7710398D01*
X15822598Y-7552569D01*
X15825500Y-7515694D01*
X15825500Y-4484306D01*
X15825499Y-4484298D01*
X18174500Y-4484298D01*
X18174500Y-7515701D01*
X18177401Y-7552567D01*
X18177402Y-7552573D01*
X18223254Y-7710393D01*
X18223255Y-7710396D01*
X18306917Y-7851862D01*
X18306923Y-7851870D01*
X18423129Y-7968076D01*
X18423133Y-7968079D01*
X18423135Y-7968081D01*
X18564602Y-8051744D01*
X18606224Y-8063836D01*
X18722426Y-8097597D01*
X18722429Y-8097597D01*
X18722431Y-8097598D01*
X18759306Y-8100500D01*
X18759314Y-8100500D01*
X19515686Y-8100500D01*
X19515694Y-8100500D01*
X19552569Y-8097598D01*
X19552571Y-8097597D01*
X19552573Y-8097597D01*
X19594191Y-8085505D01*
X19710398Y-8051744D01*
X19851865Y-7968081D01*
X19968081Y-7851865D01*
X20051744Y-7710398D01*
X20097598Y-7552569D01*
X20100500Y-7515694D01*
X20100500Y-6624500D01*
X20120185Y-6557461D01*
X20172989Y-6511706D01*
X20224500Y-6500500D01*
X21225500Y-6500500D01*
X21292539Y-6520185D01*
X21338294Y-6572989D01*
X21349500Y-6624500D01*
X21349500Y-6715701D01*
X21352401Y-6752567D01*
X21352402Y-6752573D01*
X21398254Y-6910393D01*
X21398255Y-6910396D01*
X21398256Y-6910398D01*
X21435681Y-6973681D01*
X21481917Y-7051862D01*
X21481923Y-7051870D01*
X21598129Y-7168076D01*
X21598133Y-7168079D01*
X21598135Y-7168081D01*
X21739602Y-7251744D01*
X21781224Y-7263836D01*
X21897426Y-7297597D01*
X21897429Y-7297597D01*
X21897431Y-7297598D01*
X21934306Y-7300500D01*
X21934314Y-7300500D01*
X24065686Y-7300500D01*
X24065694Y-7300500D01*
X24102569Y-7297598D01*
X24102571Y-7297597D01*
X24102573Y-7297597D01*
X24144191Y-7285505D01*
X24260398Y-7251744D01*
X24401865Y-7168081D01*
X24518081Y-7051865D01*
X24601744Y-6910398D01*
X24647598Y-6752569D01*
X24650500Y-6715694D01*
X24650500Y-5284306D01*
X24647598Y-5247431D01*
X24601744Y-5089602D01*
X24518081Y-4948135D01*
X24518079Y-4948133D01*
X24518076Y-4948129D01*
X24401870Y-4831923D01*
X24401862Y-4831917D01*
X24260396Y-4748255D01*
X24260393Y-4748254D01*
X24102573Y-4702402D01*
X24102567Y-4702401D01*
X24065701Y-4699500D01*
X24065694Y-4699500D01*
X21934306Y-4699500D01*
X21934298Y-4699500D01*
X21897432Y-4702401D01*
X21897426Y-4702402D01*
X21739606Y-4748254D01*
X21739603Y-4748255D01*
X21598137Y-4831917D01*
X21598129Y-4831923D01*
X21481923Y-4948129D01*
X21481917Y-4948137D01*
X21398255Y-5089603D01*
X21398254Y-5089606D01*
X21352402Y-5247426D01*
X21352401Y-5247432D01*
X21349500Y-5284298D01*
X21349500Y-5375500D01*
X21329815Y-5442539D01*
X21277011Y-5488294D01*
X21225500Y-5499500D01*
X20224500Y-5499500D01*
X20157461Y-5479815D01*
X20111706Y-5427011D01*
X20100500Y-5375500D01*
X20100500Y-4484313D01*
X20100499Y-4484298D01*
X20097598Y-4447432D01*
X20097597Y-4447426D01*
X20051745Y-4289606D01*
X20051744Y-4289603D01*
X20051744Y-4289602D01*
X19968081Y-4148135D01*
X19968079Y-4148133D01*
X19968076Y-4148129D01*
X19851870Y-4031923D01*
X19851862Y-4031917D01*
X19710396Y-3948255D01*
X19710393Y-3948254D01*
X19552573Y-3902402D01*
X19552567Y-3902401D01*
X19515701Y-3899500D01*
X19515694Y-3899500D01*
X18759306Y-3899500D01*
X18759298Y-3899500D01*
X18722432Y-3902401D01*
X18722426Y-3902402D01*
X18564606Y-3948254D01*
X18564603Y-3948255D01*
X18423137Y-4031917D01*
X18423129Y-4031923D01*
X18306923Y-4148129D01*
X18306917Y-4148137D01*
X18223255Y-4289603D01*
X18223254Y-4289606D01*
X18177402Y-4447426D01*
X18177401Y-4447432D01*
X18174500Y-4484298D01*
X15825499Y-4484298D01*
X15822598Y-4447431D01*
X15776744Y-4289602D01*
X15693081Y-4148135D01*
X15693079Y-4148133D01*
X15693076Y-4148129D01*
X15576870Y-4031923D01*
X15576862Y-4031917D01*
X15435396Y-3948255D01*
X15435393Y-3948254D01*
X15277573Y-3902402D01*
X15277567Y-3902401D01*
X15240701Y-3899500D01*
X15240694Y-3899500D01*
X14484306Y-3899500D01*
X14484298Y-3899500D01*
X14447432Y-3902401D01*
X14447426Y-3902402D01*
X14289606Y-3948254D01*
X14289603Y-3948255D01*
X14148137Y-4031917D01*
X14148129Y-4031923D01*
X14031923Y-4148129D01*
X14031917Y-4148137D01*
X13948255Y-4289603D01*
X13948254Y-4289606D01*
X13902402Y-4447426D01*
X13902401Y-4447432D01*
X13899500Y-4484298D01*
X13899500Y-6203824D01*
X13879815Y-6270863D01*
X13863181Y-6291505D01*
X8691505Y-11463181D01*
X8630182Y-11496666D01*
X8603824Y-11499500D01*
X7324500Y-11499500D01*
X7257461Y-11479815D01*
X7211706Y-11427011D01*
X7200500Y-11375500D01*
X7200500Y-10884313D01*
X7200499Y-10884298D01*
X7200475Y-10883996D01*
X7197598Y-10847431D01*
X7188073Y-10814647D01*
X7151745Y-10689606D01*
X7151744Y-10689603D01*
X7151744Y-10689602D01*
X7068081Y-10548135D01*
X7068079Y-10548133D01*
X7068076Y-10548129D01*
X6951870Y-10431923D01*
X6951862Y-10431917D01*
X6863795Y-10379835D01*
X6810398Y-10348256D01*
X6810397Y-10348255D01*
X6810396Y-10348255D01*
X6810393Y-10348254D01*
X6652573Y-10302402D01*
X6652567Y-10302401D01*
X6615701Y-10299500D01*
X6615694Y-10299500D01*
X4384306Y-10299500D01*
X4384298Y-10299500D01*
X4347432Y-10302401D01*
X4347426Y-10302402D01*
X4189606Y-10348254D01*
X4189603Y-10348255D01*
X4048137Y-10431917D01*
X4048129Y-10431923D01*
X3931923Y-10548129D01*
X3931917Y-10548137D01*
X3848255Y-10689603D01*
X3848254Y-10689606D01*
X3802402Y-10847426D01*
X3802401Y-10847432D01*
X3799500Y-10884298D01*
X500500Y-10884298D01*
X500500Y-3378711D01*
X1649500Y-3378711D01*
X1649500Y-3621288D01*
X1681161Y-3861785D01*
X1743947Y-4096104D01*
X1836773Y-4320205D01*
X1836776Y-4320212D01*
X1958064Y-4530289D01*
X1958066Y-4530292D01*
X1958067Y-4530293D01*
X2105733Y-4722736D01*
X2105739Y-4722743D01*
X2277256Y-4894260D01*
X2277263Y-4894266D01*
X2390321Y-4981018D01*
X2469711Y-5041936D01*
X2679788Y-5163224D01*
X2903900Y-5256054D01*
X3138211Y-5318838D01*
X3318586Y-5342584D01*
X3378711Y-5350500D01*
X3378712Y-5350500D01*
X3621289Y-5350500D01*
X3669388Y-5344167D01*
X3861789Y-5318838D01*
X4096100Y-5256054D01*
X4320212Y-5163224D01*
X4530289Y-5041936D01*
X4722738Y-4894265D01*
X4894265Y-4722738D01*
X5041936Y-4530289D01*
X5163224Y-4320212D01*
X5256054Y-4096100D01*
X5318838Y-3861789D01*
X5350500Y-3621288D01*
X5350500Y-3378712D01*
X5350500Y-3378711D01*
X104649500Y-3378711D01*
X104649500Y-3621288D01*
X104681161Y-3861785D01*
X104743947Y-4096104D01*
X104836773Y-4320205D01*
X104836776Y-4320212D01*
X104958064Y-4530289D01*
X104958066Y-4530292D01*
X104958067Y-4530293D01*
X105105733Y-4722736D01*
X105105739Y-4722743D01*
X105277256Y-4894260D01*
X105277263Y-4894266D01*
X105390321Y-4981018D01*
X105469711Y-5041936D01*
X105679788Y-5163224D01*
X105903900Y-5256054D01*
X106138211Y-5318838D01*
X106318586Y-5342584D01*
X106378711Y-5350500D01*
X106378712Y-5350500D01*
X106621289Y-5350500D01*
X106669388Y-5344167D01*
X106861789Y-5318838D01*
X107096100Y-5256054D01*
X107320212Y-5163224D01*
X107530289Y-5041936D01*
X107722738Y-4894265D01*
X107894265Y-4722738D01*
X108041936Y-4530289D01*
X108163224Y-4320212D01*
X108256054Y-4096100D01*
X108318838Y-3861789D01*
X108350500Y-3621288D01*
X108350500Y-3378712D01*
X108318838Y-3138211D01*
X108256054Y-2903900D01*
X108163224Y-2679788D01*
X108041936Y-2469711D01*
X107894265Y-2277262D01*
X107894260Y-2277256D01*
X107722743Y-2105739D01*
X107722736Y-2105733D01*
X107530293Y-1958067D01*
X107530292Y-1958066D01*
X107530289Y-1958064D01*
X107334912Y-1845263D01*
X107320214Y-1836777D01*
X107320205Y-1836773D01*
X107096104Y-1743947D01*
X106861785Y-1681161D01*
X106621289Y-1649500D01*
X106621288Y-1649500D01*
X106378712Y-1649500D01*
X106378711Y-1649500D01*
X106138214Y-1681161D01*
X105903895Y-1743947D01*
X105679794Y-1836773D01*
X105679785Y-1836777D01*
X105469706Y-1958067D01*
X105277263Y-2105733D01*
X105277256Y-2105739D01*
X105105739Y-2277256D01*
X105105733Y-2277263D01*
X104958067Y-2469706D01*
X104836777Y-2679785D01*
X104836773Y-2679794D01*
X104743947Y-2903895D01*
X104681161Y-3138214D01*
X104649500Y-3378711D01*
X5350500Y-3378711D01*
X5318838Y-3138211D01*
X5256054Y-2903900D01*
X5163224Y-2679788D01*
X5041936Y-2469711D01*
X4894265Y-2277262D01*
X4894260Y-2277256D01*
X4722743Y-2105739D01*
X4722736Y-2105733D01*
X4530293Y-1958067D01*
X4530292Y-1958066D01*
X4530289Y-1958064D01*
X4334912Y-1845263D01*
X4320214Y-1836777D01*
X4320205Y-1836773D01*
X4096104Y-1743947D01*
X3861785Y-1681161D01*
X3621289Y-1649500D01*
X3621288Y-1649500D01*
X3378712Y-1649500D01*
X3378711Y-1649500D01*
X3138214Y-1681161D01*
X2903895Y-1743947D01*
X2679794Y-1836773D01*
X2679785Y-1836777D01*
X2469706Y-1958067D01*
X2277263Y-2105733D01*
X2277256Y-2105739D01*
X2105739Y-2277256D01*
X2105733Y-2277263D01*
X1958067Y-2469706D01*
X1836777Y-2679785D01*
X1836773Y-2679794D01*
X1743947Y-2903895D01*
X1681161Y-3138214D01*
X1649500Y-3378711D01*
X500500Y-3378711D01*
X500500Y-3003750D01*
X500726Y-2996263D01*
X518271Y-2706204D01*
X520076Y-2691339D01*
X522194Y-2679785D01*
X571780Y-2409197D01*
X575358Y-2394683D01*
X660700Y-2120806D01*
X665997Y-2106841D01*
X783730Y-1845249D01*
X790675Y-1832016D01*
X939079Y-1586526D01*
X947566Y-1574230D01*
X1124480Y-1348416D01*
X1134395Y-1337225D01*
X1337225Y-1134395D01*
X1348416Y-1124480D01*
X1574230Y-947566D01*
X1586526Y-939079D01*
X1832016Y-790675D01*
X1845249Y-783730D01*
X2106841Y-665997D01*
X2120806Y-660700D01*
X2394683Y-575358D01*
X2409197Y-571780D01*
X2691343Y-520075D01*
X2706200Y-518271D01*
X2996264Y-500726D01*
X3003751Y-500500D01*
X3065892Y-500500D01*
X106934108Y-500500D01*
X106996249Y-500500D01*
X107003736Y-500726D01*
G37*
%TD.AperFunction*%
%TD*%
M02*
