%TF.GenerationSoftware,KiCad,Pcbnew,10.0.4*%
%TF.CreationDate,2026-10-01T21:16:53+02:00*%
%TF.ProjectId,EyeNode,4579654e-6f64-4652-9e6b-696361645f70,rev?*%
%TF.SameCoordinates,Original*%
%TF.FileFunction,Legend,Top*%
%TF.FilePolarity,Positive*%
%FSLAX46Y46*%
G04 Gerber Fmt 4.6, Leading zero omitted, Abs format (unit mm)*
G04 Created by KiCad (PCBNEW 10.0.4) date 2026-10-01 21:16:53*
%MOMM*%
%LPD*%
G01*
G04 APERTURE LIST*
%ADD10C,0.150000*%
%ADD11C,0.300000*%
%ADD12C,0.520000*%
%ADD13C,0.120000*%
G04 APERTURE END LIST*
D10*
X4404761Y-22149847D02*
X3833333Y-22149847D01*
X4119047Y-22149847D02*
X4119047Y-21149847D01*
X4119047Y-21149847D02*
X4023809Y-21292704D01*
X4023809Y-21292704D02*
X3928571Y-21387942D01*
X3928571Y-21387942D02*
X3833333Y-21435561D01*
X4785714Y-21245085D02*
X4833333Y-21197466D01*
X4833333Y-21197466D02*
X4928571Y-21149847D01*
X4928571Y-21149847D02*
X5166666Y-21149847D01*
X5166666Y-21149847D02*
X5261904Y-21197466D01*
X5261904Y-21197466D02*
X5309523Y-21245085D01*
X5309523Y-21245085D02*
X5357142Y-21340323D01*
X5357142Y-21340323D02*
X5357142Y-21435561D01*
X5357142Y-21435561D02*
X5309523Y-21578418D01*
X5309523Y-21578418D02*
X4738095Y-22149847D01*
X4738095Y-22149847D02*
X5357142Y-22149847D01*
X5642857Y-21149847D02*
X5976190Y-22149847D01*
X5976190Y-22149847D02*
X6309523Y-21149847D01*
X7880952Y-22149847D02*
X7404762Y-22149847D01*
X7404762Y-22149847D02*
X7404762Y-21149847D01*
X8404762Y-21149847D02*
X8595238Y-21149847D01*
X8595238Y-21149847D02*
X8690476Y-21197466D01*
X8690476Y-21197466D02*
X8785714Y-21292704D01*
X8785714Y-21292704D02*
X8833333Y-21483180D01*
X8833333Y-21483180D02*
X8833333Y-21816513D01*
X8833333Y-21816513D02*
X8785714Y-22006989D01*
X8785714Y-22006989D02*
X8690476Y-22102228D01*
X8690476Y-22102228D02*
X8595238Y-22149847D01*
X8595238Y-22149847D02*
X8404762Y-22149847D01*
X8404762Y-22149847D02*
X8309524Y-22102228D01*
X8309524Y-22102228D02*
X8214286Y-22006989D01*
X8214286Y-22006989D02*
X8166667Y-21816513D01*
X8166667Y-21816513D02*
X8166667Y-21483180D01*
X8166667Y-21483180D02*
X8214286Y-21292704D01*
X8214286Y-21292704D02*
X8309524Y-21197466D01*
X8309524Y-21197466D02*
X8404762Y-21149847D01*
X9785714Y-21197466D02*
X9690476Y-21149847D01*
X9690476Y-21149847D02*
X9547619Y-21149847D01*
X9547619Y-21149847D02*
X9404762Y-21197466D01*
X9404762Y-21197466D02*
X9309524Y-21292704D01*
X9309524Y-21292704D02*
X9261905Y-21387942D01*
X9261905Y-21387942D02*
X9214286Y-21578418D01*
X9214286Y-21578418D02*
X9214286Y-21721275D01*
X9214286Y-21721275D02*
X9261905Y-21911751D01*
X9261905Y-21911751D02*
X9309524Y-22006989D01*
X9309524Y-22006989D02*
X9404762Y-22102228D01*
X9404762Y-22102228D02*
X9547619Y-22149847D01*
X9547619Y-22149847D02*
X9642857Y-22149847D01*
X9642857Y-22149847D02*
X9785714Y-22102228D01*
X9785714Y-22102228D02*
X9833333Y-22054608D01*
X9833333Y-22054608D02*
X9833333Y-21721275D01*
X9833333Y-21721275D02*
X9642857Y-21721275D01*
X10261905Y-22149847D02*
X10261905Y-21149847D01*
X11309523Y-22054608D02*
X11261904Y-22102228D01*
X11261904Y-22102228D02*
X11119047Y-22149847D01*
X11119047Y-22149847D02*
X11023809Y-22149847D01*
X11023809Y-22149847D02*
X10880952Y-22102228D01*
X10880952Y-22102228D02*
X10785714Y-22006989D01*
X10785714Y-22006989D02*
X10738095Y-21911751D01*
X10738095Y-21911751D02*
X10690476Y-21721275D01*
X10690476Y-21721275D02*
X10690476Y-21578418D01*
X10690476Y-21578418D02*
X10738095Y-21387942D01*
X10738095Y-21387942D02*
X10785714Y-21292704D01*
X10785714Y-21292704D02*
X10880952Y-21197466D01*
X10880952Y-21197466D02*
X11023809Y-21149847D01*
X11023809Y-21149847D02*
X11119047Y-21149847D01*
X11119047Y-21149847D02*
X11261904Y-21197466D01*
X11261904Y-21197466D02*
X11309523Y-21245085D01*
X11690476Y-21864132D02*
X12166666Y-21864132D01*
X11595238Y-22149847D02*
X11928571Y-21149847D01*
X11928571Y-21149847D02*
X12261904Y-22149847D01*
X3666666Y-23759791D02*
X3095238Y-23759791D01*
X3380952Y-23759791D02*
X3380952Y-22759791D01*
X3380952Y-22759791D02*
X3285714Y-22902648D01*
X3285714Y-22902648D02*
X3190476Y-22997886D01*
X3190476Y-22997886D02*
X3095238Y-23045505D01*
X4095238Y-23235981D02*
X4857143Y-23235981D01*
X4857143Y-23521695D02*
X4095238Y-23521695D01*
X5333333Y-23378838D02*
X6095238Y-23378838D01*
X5714285Y-23759791D02*
X5714285Y-22997886D01*
X8047619Y-22855029D02*
X8095238Y-22807410D01*
X8095238Y-22807410D02*
X8190476Y-22759791D01*
X8190476Y-22759791D02*
X8428571Y-22759791D01*
X8428571Y-22759791D02*
X8523809Y-22807410D01*
X8523809Y-22807410D02*
X8571428Y-22855029D01*
X8571428Y-22855029D02*
X8619047Y-22950267D01*
X8619047Y-22950267D02*
X8619047Y-23045505D01*
X8619047Y-23045505D02*
X8571428Y-23188362D01*
X8571428Y-23188362D02*
X8000000Y-23759791D01*
X8000000Y-23759791D02*
X8619047Y-23759791D01*
X9047619Y-23235981D02*
X9809524Y-23235981D01*
X9809524Y-23521695D02*
X9047619Y-23521695D01*
X10809523Y-22807410D02*
X10714285Y-22759791D01*
X10714285Y-22759791D02*
X10571428Y-22759791D01*
X10571428Y-22759791D02*
X10428571Y-22807410D01*
X10428571Y-22807410D02*
X10333333Y-22902648D01*
X10333333Y-22902648D02*
X10285714Y-22997886D01*
X10285714Y-22997886D02*
X10238095Y-23188362D01*
X10238095Y-23188362D02*
X10238095Y-23331219D01*
X10238095Y-23331219D02*
X10285714Y-23521695D01*
X10285714Y-23521695D02*
X10333333Y-23616933D01*
X10333333Y-23616933D02*
X10428571Y-23712172D01*
X10428571Y-23712172D02*
X10571428Y-23759791D01*
X10571428Y-23759791D02*
X10666666Y-23759791D01*
X10666666Y-23759791D02*
X10809523Y-23712172D01*
X10809523Y-23712172D02*
X10857142Y-23664552D01*
X10857142Y-23664552D02*
X10857142Y-23331219D01*
X10857142Y-23331219D02*
X10666666Y-23331219D01*
X11285714Y-23759791D02*
X11285714Y-22759791D01*
X11285714Y-22759791D02*
X11857142Y-23759791D01*
X11857142Y-23759791D02*
X11857142Y-22759791D01*
X12333333Y-23759791D02*
X12333333Y-22759791D01*
X12333333Y-22759791D02*
X12571428Y-22759791D01*
X12571428Y-22759791D02*
X12714285Y-22807410D01*
X12714285Y-22807410D02*
X12809523Y-22902648D01*
X12809523Y-22902648D02*
X12857142Y-22997886D01*
X12857142Y-22997886D02*
X12904761Y-23188362D01*
X12904761Y-23188362D02*
X12904761Y-23331219D01*
X12904761Y-23331219D02*
X12857142Y-23521695D01*
X12857142Y-23521695D02*
X12809523Y-23616933D01*
X12809523Y-23616933D02*
X12714285Y-23712172D01*
X12714285Y-23712172D02*
X12571428Y-23759791D01*
X12571428Y-23759791D02*
X12333333Y-23759791D01*
X3428571Y-65602228D02*
X3571428Y-65649847D01*
X3571428Y-65649847D02*
X3809523Y-65649847D01*
X3809523Y-65649847D02*
X3904761Y-65602228D01*
X3904761Y-65602228D02*
X3952380Y-65554608D01*
X3952380Y-65554608D02*
X3999999Y-65459370D01*
X3999999Y-65459370D02*
X3999999Y-65364132D01*
X3999999Y-65364132D02*
X3952380Y-65268894D01*
X3952380Y-65268894D02*
X3904761Y-65221275D01*
X3904761Y-65221275D02*
X3809523Y-65173656D01*
X3809523Y-65173656D02*
X3619047Y-65126037D01*
X3619047Y-65126037D02*
X3523809Y-65078418D01*
X3523809Y-65078418D02*
X3476190Y-65030799D01*
X3476190Y-65030799D02*
X3428571Y-64935561D01*
X3428571Y-64935561D02*
X3428571Y-64840323D01*
X3428571Y-64840323D02*
X3476190Y-64745085D01*
X3476190Y-64745085D02*
X3523809Y-64697466D01*
X3523809Y-64697466D02*
X3619047Y-64649847D01*
X3619047Y-64649847D02*
X3857142Y-64649847D01*
X3857142Y-64649847D02*
X3999999Y-64697466D01*
X4428571Y-65126037D02*
X4761904Y-65126037D01*
X4904761Y-65649847D02*
X4428571Y-65649847D01*
X4428571Y-65649847D02*
X4428571Y-64649847D01*
X4428571Y-64649847D02*
X4904761Y-64649847D01*
X5904761Y-65649847D02*
X5571428Y-65173656D01*
X5333333Y-65649847D02*
X5333333Y-64649847D01*
X5333333Y-64649847D02*
X5714285Y-64649847D01*
X5714285Y-64649847D02*
X5809523Y-64697466D01*
X5809523Y-64697466D02*
X5857142Y-64745085D01*
X5857142Y-64745085D02*
X5904761Y-64840323D01*
X5904761Y-64840323D02*
X5904761Y-64983180D01*
X5904761Y-64983180D02*
X5857142Y-65078418D01*
X5857142Y-65078418D02*
X5809523Y-65126037D01*
X5809523Y-65126037D02*
X5714285Y-65173656D01*
X5714285Y-65173656D02*
X5333333Y-65173656D01*
X6190476Y-64649847D02*
X6523809Y-65649847D01*
X6523809Y-65649847D02*
X6857142Y-64649847D01*
X7380952Y-64649847D02*
X7571428Y-64649847D01*
X7571428Y-64649847D02*
X7666666Y-64697466D01*
X7666666Y-64697466D02*
X7761904Y-64792704D01*
X7761904Y-64792704D02*
X7809523Y-64983180D01*
X7809523Y-64983180D02*
X7809523Y-65316513D01*
X7809523Y-65316513D02*
X7761904Y-65506989D01*
X7761904Y-65506989D02*
X7666666Y-65602228D01*
X7666666Y-65602228D02*
X7571428Y-65649847D01*
X7571428Y-65649847D02*
X7380952Y-65649847D01*
X7380952Y-65649847D02*
X7285714Y-65602228D01*
X7285714Y-65602228D02*
X7190476Y-65506989D01*
X7190476Y-65506989D02*
X7142857Y-65316513D01*
X7142857Y-65316513D02*
X7142857Y-64983180D01*
X7142857Y-64983180D02*
X7190476Y-64792704D01*
X7190476Y-64792704D02*
X7285714Y-64697466D01*
X7285714Y-64697466D02*
X7380952Y-64649847D01*
X9476190Y-64649847D02*
X9000000Y-64649847D01*
X9000000Y-64649847D02*
X8952381Y-65126037D01*
X8952381Y-65126037D02*
X9000000Y-65078418D01*
X9000000Y-65078418D02*
X9095238Y-65030799D01*
X9095238Y-65030799D02*
X9333333Y-65030799D01*
X9333333Y-65030799D02*
X9428571Y-65078418D01*
X9428571Y-65078418D02*
X9476190Y-65126037D01*
X9476190Y-65126037D02*
X9523809Y-65221275D01*
X9523809Y-65221275D02*
X9523809Y-65459370D01*
X9523809Y-65459370D02*
X9476190Y-65554608D01*
X9476190Y-65554608D02*
X9428571Y-65602228D01*
X9428571Y-65602228D02*
X9333333Y-65649847D01*
X9333333Y-65649847D02*
X9095238Y-65649847D01*
X9095238Y-65649847D02*
X9000000Y-65602228D01*
X9000000Y-65602228D02*
X8952381Y-65554608D01*
X9952381Y-65268894D02*
X10714286Y-65268894D01*
X11619047Y-64649847D02*
X11428571Y-64649847D01*
X11428571Y-64649847D02*
X11333333Y-64697466D01*
X11333333Y-64697466D02*
X11285714Y-64745085D01*
X11285714Y-64745085D02*
X11190476Y-64887942D01*
X11190476Y-64887942D02*
X11142857Y-65078418D01*
X11142857Y-65078418D02*
X11142857Y-65459370D01*
X11142857Y-65459370D02*
X11190476Y-65554608D01*
X11190476Y-65554608D02*
X11238095Y-65602228D01*
X11238095Y-65602228D02*
X11333333Y-65649847D01*
X11333333Y-65649847D02*
X11523809Y-65649847D01*
X11523809Y-65649847D02*
X11619047Y-65602228D01*
X11619047Y-65602228D02*
X11666666Y-65554608D01*
X11666666Y-65554608D02*
X11714285Y-65459370D01*
X11714285Y-65459370D02*
X11714285Y-65221275D01*
X11714285Y-65221275D02*
X11666666Y-65126037D01*
X11666666Y-65126037D02*
X11619047Y-65078418D01*
X11619047Y-65078418D02*
X11523809Y-65030799D01*
X11523809Y-65030799D02*
X11333333Y-65030799D01*
X11333333Y-65030799D02*
X11238095Y-65078418D01*
X11238095Y-65078418D02*
X11190476Y-65126037D01*
X11190476Y-65126037D02*
X11142857Y-65221275D01*
X12000000Y-64649847D02*
X12333333Y-65649847D01*
X12333333Y-65649847D02*
X12666666Y-64649847D01*
X3666666Y-67259791D02*
X3095238Y-67259791D01*
X3380952Y-67259791D02*
X3380952Y-66259791D01*
X3380952Y-66259791D02*
X3285714Y-66402648D01*
X3285714Y-66402648D02*
X3190476Y-66497886D01*
X3190476Y-66497886D02*
X3095238Y-66545505D01*
X4095238Y-66735981D02*
X4857143Y-66735981D01*
X4857143Y-67021695D02*
X4095238Y-67021695D01*
X5333333Y-66878838D02*
X6095238Y-66878838D01*
X5714285Y-67259791D02*
X5714285Y-66497886D01*
X8047619Y-66355029D02*
X8095238Y-66307410D01*
X8095238Y-66307410D02*
X8190476Y-66259791D01*
X8190476Y-66259791D02*
X8428571Y-66259791D01*
X8428571Y-66259791D02*
X8523809Y-66307410D01*
X8523809Y-66307410D02*
X8571428Y-66355029D01*
X8571428Y-66355029D02*
X8619047Y-66450267D01*
X8619047Y-66450267D02*
X8619047Y-66545505D01*
X8619047Y-66545505D02*
X8571428Y-66688362D01*
X8571428Y-66688362D02*
X8000000Y-67259791D01*
X8000000Y-67259791D02*
X8619047Y-67259791D01*
X9047619Y-66735981D02*
X9809524Y-66735981D01*
X9809524Y-67021695D02*
X9047619Y-67021695D01*
X10809523Y-66307410D02*
X10714285Y-66259791D01*
X10714285Y-66259791D02*
X10571428Y-66259791D01*
X10571428Y-66259791D02*
X10428571Y-66307410D01*
X10428571Y-66307410D02*
X10333333Y-66402648D01*
X10333333Y-66402648D02*
X10285714Y-66497886D01*
X10285714Y-66497886D02*
X10238095Y-66688362D01*
X10238095Y-66688362D02*
X10238095Y-66831219D01*
X10238095Y-66831219D02*
X10285714Y-67021695D01*
X10285714Y-67021695D02*
X10333333Y-67116933D01*
X10333333Y-67116933D02*
X10428571Y-67212172D01*
X10428571Y-67212172D02*
X10571428Y-67259791D01*
X10571428Y-67259791D02*
X10666666Y-67259791D01*
X10666666Y-67259791D02*
X10809523Y-67212172D01*
X10809523Y-67212172D02*
X10857142Y-67164552D01*
X10857142Y-67164552D02*
X10857142Y-66831219D01*
X10857142Y-66831219D02*
X10666666Y-66831219D01*
X11285714Y-67259791D02*
X11285714Y-66259791D01*
X11285714Y-66259791D02*
X11857142Y-67259791D01*
X11857142Y-67259791D02*
X11857142Y-66259791D01*
X12333333Y-67259791D02*
X12333333Y-66259791D01*
X12333333Y-66259791D02*
X12571428Y-66259791D01*
X12571428Y-66259791D02*
X12714285Y-66307410D01*
X12714285Y-66307410D02*
X12809523Y-66402648D01*
X12809523Y-66402648D02*
X12857142Y-66497886D01*
X12857142Y-66497886D02*
X12904761Y-66688362D01*
X12904761Y-66688362D02*
X12904761Y-66831219D01*
X12904761Y-66831219D02*
X12857142Y-67021695D01*
X12857142Y-67021695D02*
X12809523Y-67116933D01*
X12809523Y-67116933D02*
X12714285Y-67212172D01*
X12714285Y-67212172D02*
X12571428Y-67259791D01*
X12571428Y-67259791D02*
X12333333Y-67259791D01*
X12261905Y-82669104D02*
X12738095Y-82669104D01*
X12166667Y-82954819D02*
X12500000Y-81954819D01*
X12500000Y-81954819D02*
X12833333Y-82954819D01*
X13166667Y-82954819D02*
X13166667Y-81954819D01*
X13166667Y-81954819D02*
X13404762Y-81954819D01*
X13404762Y-81954819D02*
X13547619Y-82002438D01*
X13547619Y-82002438D02*
X13642857Y-82097676D01*
X13642857Y-82097676D02*
X13690476Y-82192914D01*
X13690476Y-82192914D02*
X13738095Y-82383390D01*
X13738095Y-82383390D02*
X13738095Y-82526247D01*
X13738095Y-82526247D02*
X13690476Y-82716723D01*
X13690476Y-82716723D02*
X13642857Y-82811961D01*
X13642857Y-82811961D02*
X13547619Y-82907200D01*
X13547619Y-82907200D02*
X13404762Y-82954819D01*
X13404762Y-82954819D02*
X13166667Y-82954819D01*
X14166667Y-82954819D02*
X14166667Y-81954819D01*
X14166667Y-81954819D02*
X14404762Y-81954819D01*
X14404762Y-81954819D02*
X14547619Y-82002438D01*
X14547619Y-82002438D02*
X14642857Y-82097676D01*
X14642857Y-82097676D02*
X14690476Y-82192914D01*
X14690476Y-82192914D02*
X14738095Y-82383390D01*
X14738095Y-82383390D02*
X14738095Y-82526247D01*
X14738095Y-82526247D02*
X14690476Y-82716723D01*
X14690476Y-82716723D02*
X14642857Y-82811961D01*
X14642857Y-82811961D02*
X14547619Y-82907200D01*
X14547619Y-82907200D02*
X14404762Y-82954819D01*
X14404762Y-82954819D02*
X14166667Y-82954819D01*
X15738095Y-82954819D02*
X15404762Y-82478628D01*
X15166667Y-82954819D02*
X15166667Y-81954819D01*
X15166667Y-81954819D02*
X15547619Y-81954819D01*
X15547619Y-81954819D02*
X15642857Y-82002438D01*
X15642857Y-82002438D02*
X15690476Y-82050057D01*
X15690476Y-82050057D02*
X15738095Y-82145295D01*
X15738095Y-82145295D02*
X15738095Y-82288152D01*
X15738095Y-82288152D02*
X15690476Y-82383390D01*
X15690476Y-82383390D02*
X15642857Y-82431009D01*
X15642857Y-82431009D02*
X15547619Y-82478628D01*
X15547619Y-82478628D02*
X15166667Y-82478628D01*
X20976190Y-82573866D02*
X21738095Y-82573866D01*
X21357142Y-82954819D02*
X21357142Y-82192914D01*
X22690475Y-81954819D02*
X22214285Y-81954819D01*
X22214285Y-81954819D02*
X22166666Y-82431009D01*
X22166666Y-82431009D02*
X22214285Y-82383390D01*
X22214285Y-82383390D02*
X22309523Y-82335771D01*
X22309523Y-82335771D02*
X22547618Y-82335771D01*
X22547618Y-82335771D02*
X22642856Y-82383390D01*
X22642856Y-82383390D02*
X22690475Y-82431009D01*
X22690475Y-82431009D02*
X22738094Y-82526247D01*
X22738094Y-82526247D02*
X22738094Y-82764342D01*
X22738094Y-82764342D02*
X22690475Y-82859580D01*
X22690475Y-82859580D02*
X22642856Y-82907200D01*
X22642856Y-82907200D02*
X22547618Y-82954819D01*
X22547618Y-82954819D02*
X22309523Y-82954819D01*
X22309523Y-82954819D02*
X22214285Y-82907200D01*
X22214285Y-82907200D02*
X22166666Y-82859580D01*
X23023809Y-81954819D02*
X23357142Y-82954819D01*
X23357142Y-82954819D02*
X23690475Y-81954819D01*
X24738095Y-82907200D02*
X24880952Y-82954819D01*
X24880952Y-82954819D02*
X25119047Y-82954819D01*
X25119047Y-82954819D02*
X25214285Y-82907200D01*
X25214285Y-82907200D02*
X25261904Y-82859580D01*
X25261904Y-82859580D02*
X25309523Y-82764342D01*
X25309523Y-82764342D02*
X25309523Y-82669104D01*
X25309523Y-82669104D02*
X25261904Y-82573866D01*
X25261904Y-82573866D02*
X25214285Y-82526247D01*
X25214285Y-82526247D02*
X25119047Y-82478628D01*
X25119047Y-82478628D02*
X24928571Y-82431009D01*
X24928571Y-82431009D02*
X24833333Y-82383390D01*
X24833333Y-82383390D02*
X24785714Y-82335771D01*
X24785714Y-82335771D02*
X24738095Y-82240533D01*
X24738095Y-82240533D02*
X24738095Y-82145295D01*
X24738095Y-82145295D02*
X24785714Y-82050057D01*
X24785714Y-82050057D02*
X24833333Y-82002438D01*
X24833333Y-82002438D02*
X24928571Y-81954819D01*
X24928571Y-81954819D02*
X25166666Y-81954819D01*
X25166666Y-81954819D02*
X25309523Y-82002438D01*
X25738095Y-82954819D02*
X25738095Y-81954819D01*
X25738095Y-81954819D02*
X25976190Y-81954819D01*
X25976190Y-81954819D02*
X26119047Y-82002438D01*
X26119047Y-82002438D02*
X26214285Y-82097676D01*
X26214285Y-82097676D02*
X26261904Y-82192914D01*
X26261904Y-82192914D02*
X26309523Y-82383390D01*
X26309523Y-82383390D02*
X26309523Y-82526247D01*
X26309523Y-82526247D02*
X26261904Y-82716723D01*
X26261904Y-82716723D02*
X26214285Y-82811961D01*
X26214285Y-82811961D02*
X26119047Y-82907200D01*
X26119047Y-82907200D02*
X25976190Y-82954819D01*
X25976190Y-82954819D02*
X25738095Y-82954819D01*
X26690476Y-82669104D02*
X27166666Y-82669104D01*
X26595238Y-82954819D02*
X26928571Y-81954819D01*
X26928571Y-81954819D02*
X27261904Y-82954819D01*
X28309524Y-82907200D02*
X28452381Y-82954819D01*
X28452381Y-82954819D02*
X28690476Y-82954819D01*
X28690476Y-82954819D02*
X28785714Y-82907200D01*
X28785714Y-82907200D02*
X28833333Y-82859580D01*
X28833333Y-82859580D02*
X28880952Y-82764342D01*
X28880952Y-82764342D02*
X28880952Y-82669104D01*
X28880952Y-82669104D02*
X28833333Y-82573866D01*
X28833333Y-82573866D02*
X28785714Y-82526247D01*
X28785714Y-82526247D02*
X28690476Y-82478628D01*
X28690476Y-82478628D02*
X28500000Y-82431009D01*
X28500000Y-82431009D02*
X28404762Y-82383390D01*
X28404762Y-82383390D02*
X28357143Y-82335771D01*
X28357143Y-82335771D02*
X28309524Y-82240533D01*
X28309524Y-82240533D02*
X28309524Y-82145295D01*
X28309524Y-82145295D02*
X28357143Y-82050057D01*
X28357143Y-82050057D02*
X28404762Y-82002438D01*
X28404762Y-82002438D02*
X28500000Y-81954819D01*
X28500000Y-81954819D02*
X28738095Y-81954819D01*
X28738095Y-81954819D02*
X28880952Y-82002438D01*
X29880952Y-82859580D02*
X29833333Y-82907200D01*
X29833333Y-82907200D02*
X29690476Y-82954819D01*
X29690476Y-82954819D02*
X29595238Y-82954819D01*
X29595238Y-82954819D02*
X29452381Y-82907200D01*
X29452381Y-82907200D02*
X29357143Y-82811961D01*
X29357143Y-82811961D02*
X29309524Y-82716723D01*
X29309524Y-82716723D02*
X29261905Y-82526247D01*
X29261905Y-82526247D02*
X29261905Y-82383390D01*
X29261905Y-82383390D02*
X29309524Y-82192914D01*
X29309524Y-82192914D02*
X29357143Y-82097676D01*
X29357143Y-82097676D02*
X29452381Y-82002438D01*
X29452381Y-82002438D02*
X29595238Y-81954819D01*
X29595238Y-81954819D02*
X29690476Y-81954819D01*
X29690476Y-81954819D02*
X29833333Y-82002438D01*
X29833333Y-82002438D02*
X29880952Y-82050057D01*
X30785714Y-82954819D02*
X30309524Y-82954819D01*
X30309524Y-82954819D02*
X30309524Y-81954819D01*
X31833334Y-82669104D02*
X32309524Y-82669104D01*
X31738096Y-82954819D02*
X32071429Y-81954819D01*
X32071429Y-81954819D02*
X32404762Y-82954819D01*
X33166667Y-81954819D02*
X32976191Y-81954819D01*
X32976191Y-81954819D02*
X32880953Y-82002438D01*
X32880953Y-82002438D02*
X32833334Y-82050057D01*
X32833334Y-82050057D02*
X32738096Y-82192914D01*
X32738096Y-82192914D02*
X32690477Y-82383390D01*
X32690477Y-82383390D02*
X32690477Y-82764342D01*
X32690477Y-82764342D02*
X32738096Y-82859580D01*
X32738096Y-82859580D02*
X32785715Y-82907200D01*
X32785715Y-82907200D02*
X32880953Y-82954819D01*
X32880953Y-82954819D02*
X33071429Y-82954819D01*
X33071429Y-82954819D02*
X33166667Y-82907200D01*
X33166667Y-82907200D02*
X33214286Y-82859580D01*
X33214286Y-82859580D02*
X33261905Y-82764342D01*
X33261905Y-82764342D02*
X33261905Y-82526247D01*
X33261905Y-82526247D02*
X33214286Y-82431009D01*
X33214286Y-82431009D02*
X33166667Y-82383390D01*
X33166667Y-82383390D02*
X33071429Y-82335771D01*
X33071429Y-82335771D02*
X32880953Y-82335771D01*
X32880953Y-82335771D02*
X32785715Y-82383390D01*
X32785715Y-82383390D02*
X32738096Y-82431009D01*
X32738096Y-82431009D02*
X32690477Y-82526247D01*
X34976191Y-82002438D02*
X34880953Y-81954819D01*
X34880953Y-81954819D02*
X34738096Y-81954819D01*
X34738096Y-81954819D02*
X34595239Y-82002438D01*
X34595239Y-82002438D02*
X34500001Y-82097676D01*
X34500001Y-82097676D02*
X34452382Y-82192914D01*
X34452382Y-82192914D02*
X34404763Y-82383390D01*
X34404763Y-82383390D02*
X34404763Y-82526247D01*
X34404763Y-82526247D02*
X34452382Y-82716723D01*
X34452382Y-82716723D02*
X34500001Y-82811961D01*
X34500001Y-82811961D02*
X34595239Y-82907200D01*
X34595239Y-82907200D02*
X34738096Y-82954819D01*
X34738096Y-82954819D02*
X34833334Y-82954819D01*
X34833334Y-82954819D02*
X34976191Y-82907200D01*
X34976191Y-82907200D02*
X35023810Y-82859580D01*
X35023810Y-82859580D02*
X35023810Y-82526247D01*
X35023810Y-82526247D02*
X34833334Y-82526247D01*
X35452382Y-82954819D02*
X35452382Y-81954819D01*
X35452382Y-81954819D02*
X36023810Y-82954819D01*
X36023810Y-82954819D02*
X36023810Y-81954819D01*
X36500001Y-82954819D02*
X36500001Y-81954819D01*
X36500001Y-81954819D02*
X36738096Y-81954819D01*
X36738096Y-81954819D02*
X36880953Y-82002438D01*
X36880953Y-82002438D02*
X36976191Y-82097676D01*
X36976191Y-82097676D02*
X37023810Y-82192914D01*
X37023810Y-82192914D02*
X37071429Y-82383390D01*
X37071429Y-82383390D02*
X37071429Y-82526247D01*
X37071429Y-82526247D02*
X37023810Y-82716723D01*
X37023810Y-82716723D02*
X36976191Y-82811961D01*
X36976191Y-82811961D02*
X36880953Y-82907200D01*
X36880953Y-82907200D02*
X36738096Y-82954819D01*
X36738096Y-82954819D02*
X36500001Y-82954819D01*
X48428570Y-1931009D02*
X48761903Y-1931009D01*
X48904760Y-2454819D02*
X48428570Y-2454819D01*
X48428570Y-2454819D02*
X48428570Y-1454819D01*
X48428570Y-1454819D02*
X48904760Y-1454819D01*
X49238094Y-1788152D02*
X49476189Y-2454819D01*
X49714284Y-1788152D02*
X49476189Y-2454819D01*
X49476189Y-2454819D02*
X49380951Y-2692914D01*
X49380951Y-2692914D02*
X49333332Y-2740533D01*
X49333332Y-2740533D02*
X49238094Y-2788152D01*
X50476189Y-2407200D02*
X50380951Y-2454819D01*
X50380951Y-2454819D02*
X50190475Y-2454819D01*
X50190475Y-2454819D02*
X50095237Y-2407200D01*
X50095237Y-2407200D02*
X50047618Y-2311961D01*
X50047618Y-2311961D02*
X50047618Y-1931009D01*
X50047618Y-1931009D02*
X50095237Y-1835771D01*
X50095237Y-1835771D02*
X50190475Y-1788152D01*
X50190475Y-1788152D02*
X50380951Y-1788152D01*
X50380951Y-1788152D02*
X50476189Y-1835771D01*
X50476189Y-1835771D02*
X50523808Y-1931009D01*
X50523808Y-1931009D02*
X50523808Y-2026247D01*
X50523808Y-2026247D02*
X50047618Y-2121485D01*
X50952380Y-2454819D02*
X50952380Y-1454819D01*
X50952380Y-1454819D02*
X51523808Y-2454819D01*
X51523808Y-2454819D02*
X51523808Y-1454819D01*
X52142856Y-2454819D02*
X52047618Y-2407200D01*
X52047618Y-2407200D02*
X51999999Y-2359580D01*
X51999999Y-2359580D02*
X51952380Y-2264342D01*
X51952380Y-2264342D02*
X51952380Y-1978628D01*
X51952380Y-1978628D02*
X51999999Y-1883390D01*
X51999999Y-1883390D02*
X52047618Y-1835771D01*
X52047618Y-1835771D02*
X52142856Y-1788152D01*
X52142856Y-1788152D02*
X52285713Y-1788152D01*
X52285713Y-1788152D02*
X52380951Y-1835771D01*
X52380951Y-1835771D02*
X52428570Y-1883390D01*
X52428570Y-1883390D02*
X52476189Y-1978628D01*
X52476189Y-1978628D02*
X52476189Y-2264342D01*
X52476189Y-2264342D02*
X52428570Y-2359580D01*
X52428570Y-2359580D02*
X52380951Y-2407200D01*
X52380951Y-2407200D02*
X52285713Y-2454819D01*
X52285713Y-2454819D02*
X52142856Y-2454819D01*
X53333332Y-2454819D02*
X53333332Y-1454819D01*
X53333332Y-2407200D02*
X53238094Y-2454819D01*
X53238094Y-2454819D02*
X53047618Y-2454819D01*
X53047618Y-2454819D02*
X52952380Y-2407200D01*
X52952380Y-2407200D02*
X52904761Y-2359580D01*
X52904761Y-2359580D02*
X52857142Y-2264342D01*
X52857142Y-2264342D02*
X52857142Y-1978628D01*
X52857142Y-1978628D02*
X52904761Y-1883390D01*
X52904761Y-1883390D02*
X52952380Y-1835771D01*
X52952380Y-1835771D02*
X53047618Y-1788152D01*
X53047618Y-1788152D02*
X53238094Y-1788152D01*
X53238094Y-1788152D02*
X53333332Y-1835771D01*
X54190475Y-2407200D02*
X54095237Y-2454819D01*
X54095237Y-2454819D02*
X53904761Y-2454819D01*
X53904761Y-2454819D02*
X53809523Y-2407200D01*
X53809523Y-2407200D02*
X53761904Y-2311961D01*
X53761904Y-2311961D02*
X53761904Y-1931009D01*
X53761904Y-1931009D02*
X53809523Y-1835771D01*
X53809523Y-1835771D02*
X53904761Y-1788152D01*
X53904761Y-1788152D02*
X54095237Y-1788152D01*
X54095237Y-1788152D02*
X54190475Y-1835771D01*
X54190475Y-1835771D02*
X54238094Y-1931009D01*
X54238094Y-1931009D02*
X54238094Y-2026247D01*
X54238094Y-2026247D02*
X53761904Y-2121485D01*
X55333333Y-1788152D02*
X55571428Y-2454819D01*
X55571428Y-2454819D02*
X55809523Y-1788152D01*
X56380952Y-1454819D02*
X56476190Y-1454819D01*
X56476190Y-1454819D02*
X56571428Y-1502438D01*
X56571428Y-1502438D02*
X56619047Y-1550057D01*
X56619047Y-1550057D02*
X56666666Y-1645295D01*
X56666666Y-1645295D02*
X56714285Y-1835771D01*
X56714285Y-1835771D02*
X56714285Y-2073866D01*
X56714285Y-2073866D02*
X56666666Y-2264342D01*
X56666666Y-2264342D02*
X56619047Y-2359580D01*
X56619047Y-2359580D02*
X56571428Y-2407200D01*
X56571428Y-2407200D02*
X56476190Y-2454819D01*
X56476190Y-2454819D02*
X56380952Y-2454819D01*
X56380952Y-2454819D02*
X56285714Y-2407200D01*
X56285714Y-2407200D02*
X56238095Y-2359580D01*
X56238095Y-2359580D02*
X56190476Y-2264342D01*
X56190476Y-2264342D02*
X56142857Y-2073866D01*
X56142857Y-2073866D02*
X56142857Y-1835771D01*
X56142857Y-1835771D02*
X56190476Y-1645295D01*
X56190476Y-1645295D02*
X56238095Y-1550057D01*
X56238095Y-1550057D02*
X56285714Y-1502438D01*
X56285714Y-1502438D02*
X56380952Y-1454819D01*
X57142857Y-2359580D02*
X57190476Y-2407200D01*
X57190476Y-2407200D02*
X57142857Y-2454819D01*
X57142857Y-2454819D02*
X57095238Y-2407200D01*
X57095238Y-2407200D02*
X57142857Y-2359580D01*
X57142857Y-2359580D02*
X57142857Y-2454819D01*
X57571428Y-1550057D02*
X57619047Y-1502438D01*
X57619047Y-1502438D02*
X57714285Y-1454819D01*
X57714285Y-1454819D02*
X57952380Y-1454819D01*
X57952380Y-1454819D02*
X58047618Y-1502438D01*
X58047618Y-1502438D02*
X58095237Y-1550057D01*
X58095237Y-1550057D02*
X58142856Y-1645295D01*
X58142856Y-1645295D02*
X58142856Y-1740533D01*
X58142856Y-1740533D02*
X58095237Y-1883390D01*
X58095237Y-1883390D02*
X57523809Y-2454819D01*
X57523809Y-2454819D02*
X58142856Y-2454819D01*
X59333333Y-2073866D02*
X60095238Y-2073866D01*
X61333333Y-2454819D02*
X61333333Y-1454819D01*
X62238094Y-2454819D02*
X62238094Y-1454819D01*
X62238094Y-2407200D02*
X62142856Y-2454819D01*
X62142856Y-2454819D02*
X61952380Y-2454819D01*
X61952380Y-2454819D02*
X61857142Y-2407200D01*
X61857142Y-2407200D02*
X61809523Y-2359580D01*
X61809523Y-2359580D02*
X61761904Y-2264342D01*
X61761904Y-2264342D02*
X61761904Y-1978628D01*
X61761904Y-1978628D02*
X61809523Y-1883390D01*
X61809523Y-1883390D02*
X61857142Y-1835771D01*
X61857142Y-1835771D02*
X61952380Y-1788152D01*
X61952380Y-1788152D02*
X62142856Y-1788152D01*
X62142856Y-1788152D02*
X62238094Y-1835771D01*
X62714285Y-2454819D02*
X62714285Y-1788152D01*
X62714285Y-1978628D02*
X62761904Y-1883390D01*
X62761904Y-1883390D02*
X62809523Y-1835771D01*
X62809523Y-1835771D02*
X62904761Y-1788152D01*
X62904761Y-1788152D02*
X62999999Y-1788152D01*
X63761904Y-2454819D02*
X63761904Y-1931009D01*
X63761904Y-1931009D02*
X63714285Y-1835771D01*
X63714285Y-1835771D02*
X63619047Y-1788152D01*
X63619047Y-1788152D02*
X63428571Y-1788152D01*
X63428571Y-1788152D02*
X63333333Y-1835771D01*
X63761904Y-2407200D02*
X63666666Y-2454819D01*
X63666666Y-2454819D02*
X63428571Y-2454819D01*
X63428571Y-2454819D02*
X63333333Y-2407200D01*
X63333333Y-2407200D02*
X63285714Y-2311961D01*
X63285714Y-2311961D02*
X63285714Y-2216723D01*
X63285714Y-2216723D02*
X63333333Y-2121485D01*
X63333333Y-2121485D02*
X63428571Y-2073866D01*
X63428571Y-2073866D02*
X63666666Y-2073866D01*
X63666666Y-2073866D02*
X63761904Y-2026247D01*
X65428571Y-2454819D02*
X65428571Y-1454819D01*
X65428571Y-2407200D02*
X65333333Y-2454819D01*
X65333333Y-2454819D02*
X65142857Y-2454819D01*
X65142857Y-2454819D02*
X65047619Y-2407200D01*
X65047619Y-2407200D02*
X65000000Y-2359580D01*
X65000000Y-2359580D02*
X64952381Y-2264342D01*
X64952381Y-2264342D02*
X64952381Y-1978628D01*
X64952381Y-1978628D02*
X65000000Y-1883390D01*
X65000000Y-1883390D02*
X65047619Y-1835771D01*
X65047619Y-1835771D02*
X65142857Y-1788152D01*
X65142857Y-1788152D02*
X65333333Y-1788152D01*
X65333333Y-1788152D02*
X65428571Y-1835771D01*
X65904762Y-2454819D02*
X65904762Y-1788152D01*
X65904762Y-1454819D02*
X65857143Y-1502438D01*
X65857143Y-1502438D02*
X65904762Y-1550057D01*
X65904762Y-1550057D02*
X65952381Y-1502438D01*
X65952381Y-1502438D02*
X65904762Y-1454819D01*
X65904762Y-1454819D02*
X65904762Y-1550057D01*
X67666666Y-1502438D02*
X67571428Y-1454819D01*
X67571428Y-1454819D02*
X67428571Y-1454819D01*
X67428571Y-1454819D02*
X67285714Y-1502438D01*
X67285714Y-1502438D02*
X67190476Y-1597676D01*
X67190476Y-1597676D02*
X67142857Y-1692914D01*
X67142857Y-1692914D02*
X67095238Y-1883390D01*
X67095238Y-1883390D02*
X67095238Y-2026247D01*
X67095238Y-2026247D02*
X67142857Y-2216723D01*
X67142857Y-2216723D02*
X67190476Y-2311961D01*
X67190476Y-2311961D02*
X67285714Y-2407200D01*
X67285714Y-2407200D02*
X67428571Y-2454819D01*
X67428571Y-2454819D02*
X67523809Y-2454819D01*
X67523809Y-2454819D02*
X67666666Y-2407200D01*
X67666666Y-2407200D02*
X67714285Y-2359580D01*
X67714285Y-2359580D02*
X67714285Y-2026247D01*
X67714285Y-2026247D02*
X67523809Y-2026247D01*
X68571428Y-1788152D02*
X68571428Y-2454819D01*
X68142857Y-1788152D02*
X68142857Y-2311961D01*
X68142857Y-2311961D02*
X68190476Y-2407200D01*
X68190476Y-2407200D02*
X68285714Y-2454819D01*
X68285714Y-2454819D02*
X68428571Y-2454819D01*
X68428571Y-2454819D02*
X68523809Y-2407200D01*
X68523809Y-2407200D02*
X68571428Y-2359580D01*
X69428571Y-2407200D02*
X69333333Y-2454819D01*
X69333333Y-2454819D02*
X69142857Y-2454819D01*
X69142857Y-2454819D02*
X69047619Y-2407200D01*
X69047619Y-2407200D02*
X69000000Y-2311961D01*
X69000000Y-2311961D02*
X69000000Y-1931009D01*
X69000000Y-1931009D02*
X69047619Y-1835771D01*
X69047619Y-1835771D02*
X69142857Y-1788152D01*
X69142857Y-1788152D02*
X69333333Y-1788152D01*
X69333333Y-1788152D02*
X69428571Y-1835771D01*
X69428571Y-1835771D02*
X69476190Y-1931009D01*
X69476190Y-1931009D02*
X69476190Y-2026247D01*
X69476190Y-2026247D02*
X69000000Y-2121485D01*
X69904762Y-2454819D02*
X69904762Y-1788152D01*
X69904762Y-1978628D02*
X69952381Y-1883390D01*
X69952381Y-1883390D02*
X70000000Y-1835771D01*
X70000000Y-1835771D02*
X70095238Y-1788152D01*
X70095238Y-1788152D02*
X70190476Y-1788152D01*
X70523810Y-2454819D02*
X70523810Y-1788152D01*
X70523810Y-1978628D02*
X70571429Y-1883390D01*
X70571429Y-1883390D02*
X70619048Y-1835771D01*
X70619048Y-1835771D02*
X70714286Y-1788152D01*
X70714286Y-1788152D02*
X70809524Y-1788152D01*
X71571429Y-2454819D02*
X71571429Y-1931009D01*
X71571429Y-1931009D02*
X71523810Y-1835771D01*
X71523810Y-1835771D02*
X71428572Y-1788152D01*
X71428572Y-1788152D02*
X71238096Y-1788152D01*
X71238096Y-1788152D02*
X71142858Y-1835771D01*
X71571429Y-2407200D02*
X71476191Y-2454819D01*
X71476191Y-2454819D02*
X71238096Y-2454819D01*
X71238096Y-2454819D02*
X71142858Y-2407200D01*
X71142858Y-2407200D02*
X71095239Y-2311961D01*
X71095239Y-2311961D02*
X71095239Y-2216723D01*
X71095239Y-2216723D02*
X71142858Y-2121485D01*
X71142858Y-2121485D02*
X71238096Y-2073866D01*
X71238096Y-2073866D02*
X71476191Y-2073866D01*
X71476191Y-2073866D02*
X71571429Y-2026247D01*
X92809524Y-29454819D02*
X93000000Y-29454819D01*
X93000000Y-29454819D02*
X93095238Y-29502438D01*
X93095238Y-29502438D02*
X93190476Y-29597676D01*
X93190476Y-29597676D02*
X93238095Y-29788152D01*
X93238095Y-29788152D02*
X93238095Y-30121485D01*
X93238095Y-30121485D02*
X93190476Y-30311961D01*
X93190476Y-30311961D02*
X93095238Y-30407200D01*
X93095238Y-30407200D02*
X93000000Y-30454819D01*
X93000000Y-30454819D02*
X92809524Y-30454819D01*
X92809524Y-30454819D02*
X92714286Y-30407200D01*
X92714286Y-30407200D02*
X92619048Y-30311961D01*
X92619048Y-30311961D02*
X92571429Y-30121485D01*
X92571429Y-30121485D02*
X92571429Y-29788152D01*
X92571429Y-29788152D02*
X92619048Y-29597676D01*
X92619048Y-29597676D02*
X92714286Y-29502438D01*
X92714286Y-29502438D02*
X92809524Y-29454819D01*
X94238095Y-30359580D02*
X94190476Y-30407200D01*
X94190476Y-30407200D02*
X94047619Y-30454819D01*
X94047619Y-30454819D02*
X93952381Y-30454819D01*
X93952381Y-30454819D02*
X93809524Y-30407200D01*
X93809524Y-30407200D02*
X93714286Y-30311961D01*
X93714286Y-30311961D02*
X93666667Y-30216723D01*
X93666667Y-30216723D02*
X93619048Y-30026247D01*
X93619048Y-30026247D02*
X93619048Y-29883390D01*
X93619048Y-29883390D02*
X93666667Y-29692914D01*
X93666667Y-29692914D02*
X93714286Y-29597676D01*
X93714286Y-29597676D02*
X93809524Y-29502438D01*
X93809524Y-29502438D02*
X93952381Y-29454819D01*
X93952381Y-29454819D02*
X94047619Y-29454819D01*
X94047619Y-29454819D02*
X94190476Y-29502438D01*
X94190476Y-29502438D02*
X94238095Y-29550057D01*
X95238095Y-30359580D02*
X95190476Y-30407200D01*
X95190476Y-30407200D02*
X95047619Y-30454819D01*
X95047619Y-30454819D02*
X94952381Y-30454819D01*
X94952381Y-30454819D02*
X94809524Y-30407200D01*
X94809524Y-30407200D02*
X94714286Y-30311961D01*
X94714286Y-30311961D02*
X94666667Y-30216723D01*
X94666667Y-30216723D02*
X94619048Y-30026247D01*
X94619048Y-30026247D02*
X94619048Y-29883390D01*
X94619048Y-29883390D02*
X94666667Y-29692914D01*
X94666667Y-29692914D02*
X94714286Y-29597676D01*
X94714286Y-29597676D02*
X94809524Y-29502438D01*
X94809524Y-29502438D02*
X94952381Y-29454819D01*
X94952381Y-29454819D02*
X95047619Y-29454819D01*
X95047619Y-29454819D02*
X95190476Y-29502438D01*
X95190476Y-29502438D02*
X95238095Y-29550057D01*
X95666667Y-30454819D02*
X95666667Y-29454819D01*
X95666667Y-29931009D02*
X96238095Y-29931009D01*
X96238095Y-30454819D02*
X96238095Y-29454819D01*
X96714286Y-30454819D02*
X96714286Y-29454819D01*
X97380952Y-29454819D02*
X97571428Y-29454819D01*
X97571428Y-29454819D02*
X97666666Y-29502438D01*
X97666666Y-29502438D02*
X97761904Y-29597676D01*
X97761904Y-29597676D02*
X97809523Y-29788152D01*
X97809523Y-29788152D02*
X97809523Y-30121485D01*
X97809523Y-30121485D02*
X97761904Y-30311961D01*
X97761904Y-30311961D02*
X97666666Y-30407200D01*
X97666666Y-30407200D02*
X97571428Y-30454819D01*
X97571428Y-30454819D02*
X97380952Y-30454819D01*
X97380952Y-30454819D02*
X97285714Y-30407200D01*
X97285714Y-30407200D02*
X97190476Y-30311961D01*
X97190476Y-30311961D02*
X97142857Y-30121485D01*
X97142857Y-30121485D02*
X97142857Y-29788152D01*
X97142857Y-29788152D02*
X97190476Y-29597676D01*
X97190476Y-29597676D02*
X97285714Y-29502438D01*
X97285714Y-29502438D02*
X97380952Y-29454819D01*
X98952381Y-30169104D02*
X99428571Y-30169104D01*
X98857143Y-30454819D02*
X99190476Y-29454819D01*
X99190476Y-29454819D02*
X99523809Y-30454819D01*
X92738095Y-54454819D02*
X92928571Y-54454819D01*
X92928571Y-54454819D02*
X93023809Y-54502438D01*
X93023809Y-54502438D02*
X93119047Y-54597676D01*
X93119047Y-54597676D02*
X93166666Y-54788152D01*
X93166666Y-54788152D02*
X93166666Y-55121485D01*
X93166666Y-55121485D02*
X93119047Y-55311961D01*
X93119047Y-55311961D02*
X93023809Y-55407200D01*
X93023809Y-55407200D02*
X92928571Y-55454819D01*
X92928571Y-55454819D02*
X92738095Y-55454819D01*
X92738095Y-55454819D02*
X92642857Y-55407200D01*
X92642857Y-55407200D02*
X92547619Y-55311961D01*
X92547619Y-55311961D02*
X92500000Y-55121485D01*
X92500000Y-55121485D02*
X92500000Y-54788152D01*
X92500000Y-54788152D02*
X92547619Y-54597676D01*
X92547619Y-54597676D02*
X92642857Y-54502438D01*
X92642857Y-54502438D02*
X92738095Y-54454819D01*
X94166666Y-55359580D02*
X94119047Y-55407200D01*
X94119047Y-55407200D02*
X93976190Y-55454819D01*
X93976190Y-55454819D02*
X93880952Y-55454819D01*
X93880952Y-55454819D02*
X93738095Y-55407200D01*
X93738095Y-55407200D02*
X93642857Y-55311961D01*
X93642857Y-55311961D02*
X93595238Y-55216723D01*
X93595238Y-55216723D02*
X93547619Y-55026247D01*
X93547619Y-55026247D02*
X93547619Y-54883390D01*
X93547619Y-54883390D02*
X93595238Y-54692914D01*
X93595238Y-54692914D02*
X93642857Y-54597676D01*
X93642857Y-54597676D02*
X93738095Y-54502438D01*
X93738095Y-54502438D02*
X93880952Y-54454819D01*
X93880952Y-54454819D02*
X93976190Y-54454819D01*
X93976190Y-54454819D02*
X94119047Y-54502438D01*
X94119047Y-54502438D02*
X94166666Y-54550057D01*
X95166666Y-55359580D02*
X95119047Y-55407200D01*
X95119047Y-55407200D02*
X94976190Y-55454819D01*
X94976190Y-55454819D02*
X94880952Y-55454819D01*
X94880952Y-55454819D02*
X94738095Y-55407200D01*
X94738095Y-55407200D02*
X94642857Y-55311961D01*
X94642857Y-55311961D02*
X94595238Y-55216723D01*
X94595238Y-55216723D02*
X94547619Y-55026247D01*
X94547619Y-55026247D02*
X94547619Y-54883390D01*
X94547619Y-54883390D02*
X94595238Y-54692914D01*
X94595238Y-54692914D02*
X94642857Y-54597676D01*
X94642857Y-54597676D02*
X94738095Y-54502438D01*
X94738095Y-54502438D02*
X94880952Y-54454819D01*
X94880952Y-54454819D02*
X94976190Y-54454819D01*
X94976190Y-54454819D02*
X95119047Y-54502438D01*
X95119047Y-54502438D02*
X95166666Y-54550057D01*
X95595238Y-55454819D02*
X95595238Y-54454819D01*
X95595238Y-54931009D02*
X96166666Y-54931009D01*
X96166666Y-55454819D02*
X96166666Y-54454819D01*
X96642857Y-55454819D02*
X96642857Y-54454819D01*
X97309523Y-54454819D02*
X97499999Y-54454819D01*
X97499999Y-54454819D02*
X97595237Y-54502438D01*
X97595237Y-54502438D02*
X97690475Y-54597676D01*
X97690475Y-54597676D02*
X97738094Y-54788152D01*
X97738094Y-54788152D02*
X97738094Y-55121485D01*
X97738094Y-55121485D02*
X97690475Y-55311961D01*
X97690475Y-55311961D02*
X97595237Y-55407200D01*
X97595237Y-55407200D02*
X97499999Y-55454819D01*
X97499999Y-55454819D02*
X97309523Y-55454819D01*
X97309523Y-55454819D02*
X97214285Y-55407200D01*
X97214285Y-55407200D02*
X97119047Y-55311961D01*
X97119047Y-55311961D02*
X97071428Y-55121485D01*
X97071428Y-55121485D02*
X97071428Y-54788152D01*
X97071428Y-54788152D02*
X97119047Y-54597676D01*
X97119047Y-54597676D02*
X97214285Y-54502438D01*
X97214285Y-54502438D02*
X97309523Y-54454819D01*
X99261904Y-54931009D02*
X99404761Y-54978628D01*
X99404761Y-54978628D02*
X99452380Y-55026247D01*
X99452380Y-55026247D02*
X99499999Y-55121485D01*
X99499999Y-55121485D02*
X99499999Y-55264342D01*
X99499999Y-55264342D02*
X99452380Y-55359580D01*
X99452380Y-55359580D02*
X99404761Y-55407200D01*
X99404761Y-55407200D02*
X99309523Y-55454819D01*
X99309523Y-55454819D02*
X98928571Y-55454819D01*
X98928571Y-55454819D02*
X98928571Y-54454819D01*
X98928571Y-54454819D02*
X99261904Y-54454819D01*
X99261904Y-54454819D02*
X99357142Y-54502438D01*
X99357142Y-54502438D02*
X99404761Y-54550057D01*
X99404761Y-54550057D02*
X99452380Y-54645295D01*
X99452380Y-54645295D02*
X99452380Y-54740533D01*
X99452380Y-54740533D02*
X99404761Y-54835771D01*
X99404761Y-54835771D02*
X99357142Y-54883390D01*
X99357142Y-54883390D02*
X99261904Y-54931009D01*
X99261904Y-54931009D02*
X98928571Y-54931009D01*
X97142857Y-5907200D02*
X97285714Y-5954819D01*
X97285714Y-5954819D02*
X97523809Y-5954819D01*
X97523809Y-5954819D02*
X97619047Y-5907200D01*
X97619047Y-5907200D02*
X97666666Y-5859580D01*
X97666666Y-5859580D02*
X97714285Y-5764342D01*
X97714285Y-5764342D02*
X97714285Y-5669104D01*
X97714285Y-5669104D02*
X97666666Y-5573866D01*
X97666666Y-5573866D02*
X97619047Y-5526247D01*
X97619047Y-5526247D02*
X97523809Y-5478628D01*
X97523809Y-5478628D02*
X97333333Y-5431009D01*
X97333333Y-5431009D02*
X97238095Y-5383390D01*
X97238095Y-5383390D02*
X97190476Y-5335771D01*
X97190476Y-5335771D02*
X97142857Y-5240533D01*
X97142857Y-5240533D02*
X97142857Y-5145295D01*
X97142857Y-5145295D02*
X97190476Y-5050057D01*
X97190476Y-5050057D02*
X97238095Y-5002438D01*
X97238095Y-5002438D02*
X97333333Y-4954819D01*
X97333333Y-4954819D02*
X97571428Y-4954819D01*
X97571428Y-4954819D02*
X97714285Y-5002438D01*
X98142857Y-5954819D02*
X98142857Y-4954819D01*
X99142856Y-5002438D02*
X99047618Y-4954819D01*
X99047618Y-4954819D02*
X98904761Y-4954819D01*
X98904761Y-4954819D02*
X98761904Y-5002438D01*
X98761904Y-5002438D02*
X98666666Y-5097676D01*
X98666666Y-5097676D02*
X98619047Y-5192914D01*
X98619047Y-5192914D02*
X98571428Y-5383390D01*
X98571428Y-5383390D02*
X98571428Y-5526247D01*
X98571428Y-5526247D02*
X98619047Y-5716723D01*
X98619047Y-5716723D02*
X98666666Y-5811961D01*
X98666666Y-5811961D02*
X98761904Y-5907200D01*
X98761904Y-5907200D02*
X98904761Y-5954819D01*
X98904761Y-5954819D02*
X98999999Y-5954819D01*
X98999999Y-5954819D02*
X99142856Y-5907200D01*
X99142856Y-5907200D02*
X99190475Y-5859580D01*
X99190475Y-5859580D02*
X99190475Y-5526247D01*
X99190475Y-5526247D02*
X98999999Y-5526247D01*
X100238095Y-4954819D02*
X100571428Y-5954819D01*
X100571428Y-5954819D02*
X100904761Y-4954819D01*
X101238095Y-5573866D02*
X102000000Y-5573866D01*
X101619047Y-5954819D02*
X101619047Y-5192914D01*
X103761904Y-5002438D02*
X103666666Y-4954819D01*
X103666666Y-4954819D02*
X103523809Y-4954819D01*
X103523809Y-4954819D02*
X103380952Y-5002438D01*
X103380952Y-5002438D02*
X103285714Y-5097676D01*
X103285714Y-5097676D02*
X103238095Y-5192914D01*
X103238095Y-5192914D02*
X103190476Y-5383390D01*
X103190476Y-5383390D02*
X103190476Y-5526247D01*
X103190476Y-5526247D02*
X103238095Y-5716723D01*
X103238095Y-5716723D02*
X103285714Y-5811961D01*
X103285714Y-5811961D02*
X103380952Y-5907200D01*
X103380952Y-5907200D02*
X103523809Y-5954819D01*
X103523809Y-5954819D02*
X103619047Y-5954819D01*
X103619047Y-5954819D02*
X103761904Y-5907200D01*
X103761904Y-5907200D02*
X103809523Y-5859580D01*
X103809523Y-5859580D02*
X103809523Y-5526247D01*
X103809523Y-5526247D02*
X103619047Y-5526247D01*
X104238095Y-5954819D02*
X104238095Y-4954819D01*
X104238095Y-4954819D02*
X104809523Y-5954819D01*
X104809523Y-5954819D02*
X104809523Y-4954819D01*
X105285714Y-5954819D02*
X105285714Y-4954819D01*
X105285714Y-4954819D02*
X105523809Y-4954819D01*
X105523809Y-4954819D02*
X105666666Y-5002438D01*
X105666666Y-5002438D02*
X105761904Y-5097676D01*
X105761904Y-5097676D02*
X105809523Y-5192914D01*
X105809523Y-5192914D02*
X105857142Y-5383390D01*
X105857142Y-5383390D02*
X105857142Y-5526247D01*
X105857142Y-5526247D02*
X105809523Y-5716723D01*
X105809523Y-5716723D02*
X105761904Y-5811961D01*
X105761904Y-5811961D02*
X105666666Y-5907200D01*
X105666666Y-5907200D02*
X105523809Y-5954819D01*
X105523809Y-5954819D02*
X105285714Y-5954819D01*
D11*
X37892859Y-50206900D02*
X37750001Y-50278328D01*
X37750001Y-50278328D02*
X37464287Y-50278328D01*
X37464287Y-50278328D02*
X37321430Y-50206900D01*
X37321430Y-50206900D02*
X37250001Y-50135471D01*
X37250001Y-50135471D02*
X37178573Y-49992614D01*
X37178573Y-49992614D02*
X37178573Y-49564042D01*
X37178573Y-49564042D02*
X37250001Y-49421185D01*
X37250001Y-49421185D02*
X37321430Y-49349757D01*
X37321430Y-49349757D02*
X37464287Y-49278328D01*
X37464287Y-49278328D02*
X37750001Y-49278328D01*
X37750001Y-49278328D02*
X37892859Y-49349757D01*
X39178573Y-50278328D02*
X39178573Y-49492614D01*
X39178573Y-49492614D02*
X39107144Y-49349757D01*
X39107144Y-49349757D02*
X38964287Y-49278328D01*
X38964287Y-49278328D02*
X38678573Y-49278328D01*
X38678573Y-49278328D02*
X38535715Y-49349757D01*
X39178573Y-50206900D02*
X39035715Y-50278328D01*
X39035715Y-50278328D02*
X38678573Y-50278328D01*
X38678573Y-50278328D02*
X38535715Y-50206900D01*
X38535715Y-50206900D02*
X38464287Y-50064042D01*
X38464287Y-50064042D02*
X38464287Y-49921185D01*
X38464287Y-49921185D02*
X38535715Y-49778328D01*
X38535715Y-49778328D02*
X38678573Y-49706900D01*
X38678573Y-49706900D02*
X39035715Y-49706900D01*
X39035715Y-49706900D02*
X39178573Y-49635471D01*
X39892858Y-50278328D02*
X39892858Y-49278328D01*
X39892858Y-49564042D02*
X39964287Y-49421185D01*
X39964287Y-49421185D02*
X40035716Y-49349757D01*
X40035716Y-49349757D02*
X40178573Y-49278328D01*
X40178573Y-49278328D02*
X40321430Y-49278328D01*
X40821429Y-49278328D02*
X40821429Y-50278328D01*
X40821429Y-49421185D02*
X40892858Y-49349757D01*
X40892858Y-49349757D02*
X41035715Y-49278328D01*
X41035715Y-49278328D02*
X41250001Y-49278328D01*
X41250001Y-49278328D02*
X41392858Y-49349757D01*
X41392858Y-49349757D02*
X41464287Y-49492614D01*
X41464287Y-49492614D02*
X41464287Y-50278328D01*
X42750001Y-50206900D02*
X42607144Y-50278328D01*
X42607144Y-50278328D02*
X42321430Y-50278328D01*
X42321430Y-50278328D02*
X42178572Y-50206900D01*
X42178572Y-50206900D02*
X42107144Y-50064042D01*
X42107144Y-50064042D02*
X42107144Y-49492614D01*
X42107144Y-49492614D02*
X42178572Y-49349757D01*
X42178572Y-49349757D02*
X42321430Y-49278328D01*
X42321430Y-49278328D02*
X42607144Y-49278328D01*
X42607144Y-49278328D02*
X42750001Y-49349757D01*
X42750001Y-49349757D02*
X42821430Y-49492614D01*
X42821430Y-49492614D02*
X42821430Y-49635471D01*
X42821430Y-49635471D02*
X42107144Y-49778328D01*
X43321429Y-49278328D02*
X43678572Y-50278328D01*
X43678572Y-50278328D02*
X44035715Y-49278328D01*
X45250001Y-50278328D02*
X45250001Y-49492614D01*
X45250001Y-49492614D02*
X45178572Y-49349757D01*
X45178572Y-49349757D02*
X45035715Y-49278328D01*
X45035715Y-49278328D02*
X44750001Y-49278328D01*
X44750001Y-49278328D02*
X44607143Y-49349757D01*
X45250001Y-50206900D02*
X45107143Y-50278328D01*
X45107143Y-50278328D02*
X44750001Y-50278328D01*
X44750001Y-50278328D02*
X44607143Y-50206900D01*
X44607143Y-50206900D02*
X44535715Y-50064042D01*
X44535715Y-50064042D02*
X44535715Y-49921185D01*
X44535715Y-49921185D02*
X44607143Y-49778328D01*
X44607143Y-49778328D02*
X44750001Y-49706900D01*
X44750001Y-49706900D02*
X45107143Y-49706900D01*
X45107143Y-49706900D02*
X45250001Y-49635471D01*
X46178572Y-50278328D02*
X46035715Y-50206900D01*
X46035715Y-50206900D02*
X45964286Y-50064042D01*
X45964286Y-50064042D02*
X45964286Y-48778328D01*
X47321429Y-50206900D02*
X47178572Y-50278328D01*
X47178572Y-50278328D02*
X46892858Y-50278328D01*
X46892858Y-50278328D02*
X46750000Y-50206900D01*
X46750000Y-50206900D02*
X46678572Y-50064042D01*
X46678572Y-50064042D02*
X46678572Y-49492614D01*
X46678572Y-49492614D02*
X46750000Y-49349757D01*
X46750000Y-49349757D02*
X46892858Y-49278328D01*
X46892858Y-49278328D02*
X47178572Y-49278328D01*
X47178572Y-49278328D02*
X47321429Y-49349757D01*
X47321429Y-49349757D02*
X47392858Y-49492614D01*
X47392858Y-49492614D02*
X47392858Y-49635471D01*
X47392858Y-49635471D02*
X46678572Y-49778328D01*
X49821429Y-50278328D02*
X49821429Y-48778328D01*
X49821429Y-50206900D02*
X49678571Y-50278328D01*
X49678571Y-50278328D02*
X49392857Y-50278328D01*
X49392857Y-50278328D02*
X49250000Y-50206900D01*
X49250000Y-50206900D02*
X49178571Y-50135471D01*
X49178571Y-50135471D02*
X49107143Y-49992614D01*
X49107143Y-49992614D02*
X49107143Y-49564042D01*
X49107143Y-49564042D02*
X49178571Y-49421185D01*
X49178571Y-49421185D02*
X49250000Y-49349757D01*
X49250000Y-49349757D02*
X49392857Y-49278328D01*
X49392857Y-49278328D02*
X49678571Y-49278328D01*
X49678571Y-49278328D02*
X49821429Y-49349757D01*
X50535714Y-50278328D02*
X50535714Y-49278328D01*
X50535714Y-48778328D02*
X50464286Y-48849757D01*
X50464286Y-48849757D02*
X50535714Y-48921185D01*
X50535714Y-48921185D02*
X50607143Y-48849757D01*
X50607143Y-48849757D02*
X50535714Y-48778328D01*
X50535714Y-48778328D02*
X50535714Y-48921185D01*
X52250000Y-49278328D02*
X52607143Y-50278328D01*
X52607143Y-50278328D02*
X52964286Y-49278328D01*
X53535714Y-50278328D02*
X53535714Y-49278328D01*
X53535714Y-48778328D02*
X53464286Y-48849757D01*
X53464286Y-48849757D02*
X53535714Y-48921185D01*
X53535714Y-48921185D02*
X53607143Y-48849757D01*
X53607143Y-48849757D02*
X53535714Y-48778328D01*
X53535714Y-48778328D02*
X53535714Y-48921185D01*
X54892858Y-50278328D02*
X54892858Y-49492614D01*
X54892858Y-49492614D02*
X54821429Y-49349757D01*
X54821429Y-49349757D02*
X54678572Y-49278328D01*
X54678572Y-49278328D02*
X54392858Y-49278328D01*
X54392858Y-49278328D02*
X54250000Y-49349757D01*
X54892858Y-50206900D02*
X54750000Y-50278328D01*
X54750000Y-50278328D02*
X54392858Y-50278328D01*
X54392858Y-50278328D02*
X54250000Y-50206900D01*
X54250000Y-50206900D02*
X54178572Y-50064042D01*
X54178572Y-50064042D02*
X54178572Y-49921185D01*
X54178572Y-49921185D02*
X54250000Y-49778328D01*
X54250000Y-49778328D02*
X54392858Y-49706900D01*
X54392858Y-49706900D02*
X54750000Y-49706900D01*
X54750000Y-49706900D02*
X54892858Y-49635471D01*
X55607143Y-50278328D02*
X55607143Y-49278328D01*
X55607143Y-49564042D02*
X55678572Y-49421185D01*
X55678572Y-49421185D02*
X55750001Y-49349757D01*
X55750001Y-49349757D02*
X55892858Y-49278328D01*
X55892858Y-49278328D02*
X56035715Y-49278328D01*
X57107143Y-50206900D02*
X56964286Y-50278328D01*
X56964286Y-50278328D02*
X56678572Y-50278328D01*
X56678572Y-50278328D02*
X56535714Y-50206900D01*
X56535714Y-50206900D02*
X56464286Y-50064042D01*
X56464286Y-50064042D02*
X56464286Y-49492614D01*
X56464286Y-49492614D02*
X56535714Y-49349757D01*
X56535714Y-49349757D02*
X56678572Y-49278328D01*
X56678572Y-49278328D02*
X56964286Y-49278328D01*
X56964286Y-49278328D02*
X57107143Y-49349757D01*
X57107143Y-49349757D02*
X57178572Y-49492614D01*
X57178572Y-49492614D02*
X57178572Y-49635471D01*
X57178572Y-49635471D02*
X56464286Y-49778328D01*
X58464286Y-49278328D02*
X58464286Y-50492614D01*
X58464286Y-50492614D02*
X58392857Y-50635471D01*
X58392857Y-50635471D02*
X58321428Y-50706900D01*
X58321428Y-50706900D02*
X58178571Y-50778328D01*
X58178571Y-50778328D02*
X57964286Y-50778328D01*
X57964286Y-50778328D02*
X57821428Y-50706900D01*
X58464286Y-50206900D02*
X58321428Y-50278328D01*
X58321428Y-50278328D02*
X58035714Y-50278328D01*
X58035714Y-50278328D02*
X57892857Y-50206900D01*
X57892857Y-50206900D02*
X57821428Y-50135471D01*
X57821428Y-50135471D02*
X57750000Y-49992614D01*
X57750000Y-49992614D02*
X57750000Y-49564042D01*
X57750000Y-49564042D02*
X57821428Y-49421185D01*
X57821428Y-49421185D02*
X57892857Y-49349757D01*
X57892857Y-49349757D02*
X58035714Y-49278328D01*
X58035714Y-49278328D02*
X58321428Y-49278328D01*
X58321428Y-49278328D02*
X58464286Y-49349757D01*
X59821429Y-49278328D02*
X59821429Y-50492614D01*
X59821429Y-50492614D02*
X59750000Y-50635471D01*
X59750000Y-50635471D02*
X59678571Y-50706900D01*
X59678571Y-50706900D02*
X59535714Y-50778328D01*
X59535714Y-50778328D02*
X59321429Y-50778328D01*
X59321429Y-50778328D02*
X59178571Y-50706900D01*
X59821429Y-50206900D02*
X59678571Y-50278328D01*
X59678571Y-50278328D02*
X59392857Y-50278328D01*
X59392857Y-50278328D02*
X59250000Y-50206900D01*
X59250000Y-50206900D02*
X59178571Y-50135471D01*
X59178571Y-50135471D02*
X59107143Y-49992614D01*
X59107143Y-49992614D02*
X59107143Y-49564042D01*
X59107143Y-49564042D02*
X59178571Y-49421185D01*
X59178571Y-49421185D02*
X59250000Y-49349757D01*
X59250000Y-49349757D02*
X59392857Y-49278328D01*
X59392857Y-49278328D02*
X59678571Y-49278328D01*
X59678571Y-49278328D02*
X59821429Y-49349757D01*
X60535714Y-50278328D02*
X60535714Y-49278328D01*
X60535714Y-48778328D02*
X60464286Y-48849757D01*
X60464286Y-48849757D02*
X60535714Y-48921185D01*
X60535714Y-48921185D02*
X60607143Y-48849757D01*
X60607143Y-48849757D02*
X60535714Y-48778328D01*
X60535714Y-48778328D02*
X60535714Y-48921185D01*
X61464286Y-50278328D02*
X61321429Y-50206900D01*
X61321429Y-50206900D02*
X61250000Y-50135471D01*
X61250000Y-50135471D02*
X61178572Y-49992614D01*
X61178572Y-49992614D02*
X61178572Y-49564042D01*
X61178572Y-49564042D02*
X61250000Y-49421185D01*
X61250000Y-49421185D02*
X61321429Y-49349757D01*
X61321429Y-49349757D02*
X61464286Y-49278328D01*
X61464286Y-49278328D02*
X61678572Y-49278328D01*
X61678572Y-49278328D02*
X61821429Y-49349757D01*
X61821429Y-49349757D02*
X61892858Y-49421185D01*
X61892858Y-49421185D02*
X61964286Y-49564042D01*
X61964286Y-49564042D02*
X61964286Y-49992614D01*
X61964286Y-49992614D02*
X61892858Y-50135471D01*
X61892858Y-50135471D02*
X61821429Y-50206900D01*
X61821429Y-50206900D02*
X61678572Y-50278328D01*
X61678572Y-50278328D02*
X61464286Y-50278328D01*
X63678572Y-48921185D02*
X63750000Y-48849757D01*
X63750000Y-48849757D02*
X63892858Y-48778328D01*
X63892858Y-48778328D02*
X64250000Y-48778328D01*
X64250000Y-48778328D02*
X64392858Y-48849757D01*
X64392858Y-48849757D02*
X64464286Y-48921185D01*
X64464286Y-48921185D02*
X64535715Y-49064042D01*
X64535715Y-49064042D02*
X64535715Y-49206900D01*
X64535715Y-49206900D02*
X64464286Y-49421185D01*
X64464286Y-49421185D02*
X63607143Y-50278328D01*
X63607143Y-50278328D02*
X64535715Y-50278328D01*
X65464286Y-48778328D02*
X65607143Y-48778328D01*
X65607143Y-48778328D02*
X65750000Y-48849757D01*
X65750000Y-48849757D02*
X65821429Y-48921185D01*
X65821429Y-48921185D02*
X65892857Y-49064042D01*
X65892857Y-49064042D02*
X65964286Y-49349757D01*
X65964286Y-49349757D02*
X65964286Y-49706900D01*
X65964286Y-49706900D02*
X65892857Y-49992614D01*
X65892857Y-49992614D02*
X65821429Y-50135471D01*
X65821429Y-50135471D02*
X65750000Y-50206900D01*
X65750000Y-50206900D02*
X65607143Y-50278328D01*
X65607143Y-50278328D02*
X65464286Y-50278328D01*
X65464286Y-50278328D02*
X65321429Y-50206900D01*
X65321429Y-50206900D02*
X65250000Y-50135471D01*
X65250000Y-50135471D02*
X65178571Y-49992614D01*
X65178571Y-49992614D02*
X65107143Y-49706900D01*
X65107143Y-49706900D02*
X65107143Y-49349757D01*
X65107143Y-49349757D02*
X65178571Y-49064042D01*
X65178571Y-49064042D02*
X65250000Y-48921185D01*
X65250000Y-48921185D02*
X65321429Y-48849757D01*
X65321429Y-48849757D02*
X65464286Y-48778328D01*
X66535714Y-48921185D02*
X66607142Y-48849757D01*
X66607142Y-48849757D02*
X66750000Y-48778328D01*
X66750000Y-48778328D02*
X67107142Y-48778328D01*
X67107142Y-48778328D02*
X67250000Y-48849757D01*
X67250000Y-48849757D02*
X67321428Y-48921185D01*
X67321428Y-48921185D02*
X67392857Y-49064042D01*
X67392857Y-49064042D02*
X67392857Y-49206900D01*
X67392857Y-49206900D02*
X67321428Y-49421185D01*
X67321428Y-49421185D02*
X66464285Y-50278328D01*
X66464285Y-50278328D02*
X67392857Y-50278328D01*
X67892856Y-48778328D02*
X68892856Y-48778328D01*
X68892856Y-48778328D02*
X68249999Y-50278328D01*
D12*
X48852381Y-46775769D02*
X47614286Y-46775769D01*
X47614286Y-46775769D02*
X47614286Y-44175769D01*
X49842858Y-44175769D02*
X49595239Y-44671007D01*
X50957143Y-46775769D02*
X50957143Y-44175769D01*
X52195238Y-46775769D02*
X52195238Y-44175769D01*
X52195238Y-44175769D02*
X52814286Y-44175769D01*
X52814286Y-44175769D02*
X53185714Y-44299579D01*
X53185714Y-44299579D02*
X53433333Y-44547198D01*
X53433333Y-44547198D02*
X53557143Y-44794817D01*
X53557143Y-44794817D02*
X53680952Y-45290055D01*
X53680952Y-45290055D02*
X53680952Y-45661483D01*
X53680952Y-45661483D02*
X53557143Y-46156721D01*
X53557143Y-46156721D02*
X53433333Y-46404340D01*
X53433333Y-46404340D02*
X53185714Y-46651960D01*
X53185714Y-46651960D02*
X52814286Y-46775769D01*
X52814286Y-46775769D02*
X52195238Y-46775769D01*
X56280952Y-46775769D02*
X55414286Y-45537674D01*
X54795238Y-46775769D02*
X54795238Y-44175769D01*
X54795238Y-44175769D02*
X55785714Y-44175769D01*
X55785714Y-44175769D02*
X56033333Y-44299579D01*
X56033333Y-44299579D02*
X56157143Y-44423388D01*
X56157143Y-44423388D02*
X56280952Y-44671007D01*
X56280952Y-44671007D02*
X56280952Y-45042436D01*
X56280952Y-45042436D02*
X56157143Y-45290055D01*
X56157143Y-45290055D02*
X56033333Y-45413864D01*
X56033333Y-45413864D02*
X55785714Y-45537674D01*
X55785714Y-45537674D02*
X54795238Y-45537674D01*
X57271429Y-46032912D02*
X58509524Y-46032912D01*
X57023810Y-46775769D02*
X57890476Y-44175769D01*
X57890476Y-44175769D02*
X58757143Y-46775769D01*
D10*
X80357142Y-43624819D02*
X80023809Y-43148628D01*
X79785714Y-43624819D02*
X79785714Y-42624819D01*
X79785714Y-42624819D02*
X80166666Y-42624819D01*
X80166666Y-42624819D02*
X80261904Y-42672438D01*
X80261904Y-42672438D02*
X80309523Y-42720057D01*
X80309523Y-42720057D02*
X80357142Y-42815295D01*
X80357142Y-42815295D02*
X80357142Y-42958152D01*
X80357142Y-42958152D02*
X80309523Y-43053390D01*
X80309523Y-43053390D02*
X80261904Y-43101009D01*
X80261904Y-43101009D02*
X80166666Y-43148628D01*
X80166666Y-43148628D02*
X79785714Y-43148628D01*
X81309523Y-43624819D02*
X80738095Y-43624819D01*
X81023809Y-43624819D02*
X81023809Y-42624819D01*
X81023809Y-42624819D02*
X80928571Y-42767676D01*
X80928571Y-42767676D02*
X80833333Y-42862914D01*
X80833333Y-42862914D02*
X80738095Y-42910533D01*
X81642857Y-42624819D02*
X82261904Y-42624819D01*
X82261904Y-42624819D02*
X81928571Y-43005771D01*
X81928571Y-43005771D02*
X82071428Y-43005771D01*
X82071428Y-43005771D02*
X82166666Y-43053390D01*
X82166666Y-43053390D02*
X82214285Y-43101009D01*
X82214285Y-43101009D02*
X82261904Y-43196247D01*
X82261904Y-43196247D02*
X82261904Y-43434342D01*
X82261904Y-43434342D02*
X82214285Y-43529580D01*
X82214285Y-43529580D02*
X82166666Y-43577200D01*
X82166666Y-43577200D02*
X82071428Y-43624819D01*
X82071428Y-43624819D02*
X81785714Y-43624819D01*
X81785714Y-43624819D02*
X81690476Y-43577200D01*
X81690476Y-43577200D02*
X81642857Y-43529580D01*
X105738095Y195180D02*
X105738095Y1195180D01*
X105738095Y718990D02*
X106309523Y718990D01*
X106309523Y195180D02*
X106309523Y1195180D01*
X106738095Y1099942D02*
X106785714Y1147561D01*
X106785714Y1147561D02*
X106880952Y1195180D01*
X106880952Y1195180D02*
X107119047Y1195180D01*
X107119047Y1195180D02*
X107214285Y1147561D01*
X107214285Y1147561D02*
X107261904Y1099942D01*
X107261904Y1099942D02*
X107309523Y1004704D01*
X107309523Y1004704D02*
X107309523Y909466D01*
X107309523Y909466D02*
X107261904Y766609D01*
X107261904Y766609D02*
X106690476Y195180D01*
X106690476Y195180D02*
X107309523Y195180D01*
X105834819Y-42333333D02*
X106549104Y-42333333D01*
X106549104Y-42333333D02*
X106691961Y-42380952D01*
X106691961Y-42380952D02*
X106787200Y-42476190D01*
X106787200Y-42476190D02*
X106834819Y-42619047D01*
X106834819Y-42619047D02*
X106834819Y-42714285D01*
X105834819Y-41952380D02*
X105834819Y-41285714D01*
X105834819Y-41285714D02*
X106834819Y-41714285D01*
X24261905Y-8954819D02*
X24261905Y-7954819D01*
X24261905Y-7954819D02*
X24500000Y-7954819D01*
X24500000Y-7954819D02*
X24642857Y-8002438D01*
X24642857Y-8002438D02*
X24738095Y-8097676D01*
X24738095Y-8097676D02*
X24785714Y-8192914D01*
X24785714Y-8192914D02*
X24833333Y-8383390D01*
X24833333Y-8383390D02*
X24833333Y-8526247D01*
X24833333Y-8526247D02*
X24785714Y-8716723D01*
X24785714Y-8716723D02*
X24738095Y-8811961D01*
X24738095Y-8811961D02*
X24642857Y-8907200D01*
X24642857Y-8907200D02*
X24500000Y-8954819D01*
X24500000Y-8954819D02*
X24261905Y-8954819D01*
X25785714Y-8954819D02*
X25214286Y-8954819D01*
X25500000Y-8954819D02*
X25500000Y-7954819D01*
X25500000Y-7954819D02*
X25404762Y-8097676D01*
X25404762Y-8097676D02*
X25309524Y-8192914D01*
X25309524Y-8192914D02*
X25214286Y-8240533D01*
X62333333Y-54109580D02*
X62285714Y-54157200D01*
X62285714Y-54157200D02*
X62142857Y-54204819D01*
X62142857Y-54204819D02*
X62047619Y-54204819D01*
X62047619Y-54204819D02*
X61904762Y-54157200D01*
X61904762Y-54157200D02*
X61809524Y-54061961D01*
X61809524Y-54061961D02*
X61761905Y-53966723D01*
X61761905Y-53966723D02*
X61714286Y-53776247D01*
X61714286Y-53776247D02*
X61714286Y-53633390D01*
X61714286Y-53633390D02*
X61761905Y-53442914D01*
X61761905Y-53442914D02*
X61809524Y-53347676D01*
X61809524Y-53347676D02*
X61904762Y-53252438D01*
X61904762Y-53252438D02*
X62047619Y-53204819D01*
X62047619Y-53204819D02*
X62142857Y-53204819D01*
X62142857Y-53204819D02*
X62285714Y-53252438D01*
X62285714Y-53252438D02*
X62333333Y-53300057D01*
X62714286Y-53300057D02*
X62761905Y-53252438D01*
X62761905Y-53252438D02*
X62857143Y-53204819D01*
X62857143Y-53204819D02*
X63095238Y-53204819D01*
X63095238Y-53204819D02*
X63190476Y-53252438D01*
X63190476Y-53252438D02*
X63238095Y-53300057D01*
X63238095Y-53300057D02*
X63285714Y-53395295D01*
X63285714Y-53395295D02*
X63285714Y-53490533D01*
X63285714Y-53490533D02*
X63238095Y-53633390D01*
X63238095Y-53633390D02*
X62666667Y-54204819D01*
X62666667Y-54204819D02*
X63285714Y-54204819D01*
X105834819Y-24333333D02*
X106549104Y-24333333D01*
X106549104Y-24333333D02*
X106691961Y-24380952D01*
X106691961Y-24380952D02*
X106787200Y-24476190D01*
X106787200Y-24476190D02*
X106834819Y-24619047D01*
X106834819Y-24619047D02*
X106834819Y-24714285D01*
X105834819Y-23380952D02*
X105834819Y-23857142D01*
X105834819Y-23857142D02*
X106311009Y-23904761D01*
X106311009Y-23904761D02*
X106263390Y-23857142D01*
X106263390Y-23857142D02*
X106215771Y-23761904D01*
X106215771Y-23761904D02*
X106215771Y-23523809D01*
X106215771Y-23523809D02*
X106263390Y-23428571D01*
X106263390Y-23428571D02*
X106311009Y-23380952D01*
X106311009Y-23380952D02*
X106406247Y-23333333D01*
X106406247Y-23333333D02*
X106644342Y-23333333D01*
X106644342Y-23333333D02*
X106739580Y-23380952D01*
X106739580Y-23380952D02*
X106787200Y-23428571D01*
X106787200Y-23428571D02*
X106834819Y-23523809D01*
X106834819Y-23523809D02*
X106834819Y-23761904D01*
X106834819Y-23761904D02*
X106787200Y-23857142D01*
X106787200Y-23857142D02*
X106739580Y-23904761D01*
X2738095Y195180D02*
X2738095Y1195180D01*
X2738095Y718990D02*
X3309523Y718990D01*
X3309523Y195180D02*
X3309523Y1195180D01*
X4309523Y195180D02*
X3738095Y195180D01*
X4023809Y195180D02*
X4023809Y1195180D01*
X4023809Y1195180D02*
X3928571Y1052323D01*
X3928571Y1052323D02*
X3833333Y957085D01*
X3833333Y957085D02*
X3738095Y909466D01*
X90833333Y-22624819D02*
X90500000Y-22148628D01*
X90261905Y-22624819D02*
X90261905Y-21624819D01*
X90261905Y-21624819D02*
X90642857Y-21624819D01*
X90642857Y-21624819D02*
X90738095Y-21672438D01*
X90738095Y-21672438D02*
X90785714Y-21720057D01*
X90785714Y-21720057D02*
X90833333Y-21815295D01*
X90833333Y-21815295D02*
X90833333Y-21958152D01*
X90833333Y-21958152D02*
X90785714Y-22053390D01*
X90785714Y-22053390D02*
X90738095Y-22101009D01*
X90738095Y-22101009D02*
X90642857Y-22148628D01*
X90642857Y-22148628D02*
X90261905Y-22148628D01*
X91166667Y-21624819D02*
X91785714Y-21624819D01*
X91785714Y-21624819D02*
X91452381Y-22005771D01*
X91452381Y-22005771D02*
X91595238Y-22005771D01*
X91595238Y-22005771D02*
X91690476Y-22053390D01*
X91690476Y-22053390D02*
X91738095Y-22101009D01*
X91738095Y-22101009D02*
X91785714Y-22196247D01*
X91785714Y-22196247D02*
X91785714Y-22434342D01*
X91785714Y-22434342D02*
X91738095Y-22529580D01*
X91738095Y-22529580D02*
X91690476Y-22577200D01*
X91690476Y-22577200D02*
X91595238Y-22624819D01*
X91595238Y-22624819D02*
X91309524Y-22624819D01*
X91309524Y-22624819D02*
X91214286Y-22577200D01*
X91214286Y-22577200D02*
X91166667Y-22529580D01*
X16666666Y-3281009D02*
X16333333Y-3281009D01*
X16333333Y-3804819D02*
X16333333Y-2804819D01*
X16333333Y-2804819D02*
X16809523Y-2804819D01*
X17714285Y-3804819D02*
X17142857Y-3804819D01*
X17428571Y-3804819D02*
X17428571Y-2804819D01*
X17428571Y-2804819D02*
X17333333Y-2947676D01*
X17333333Y-2947676D02*
X17238095Y-3042914D01*
X17238095Y-3042914D02*
X17142857Y-3090533D01*
X21074819Y-86809523D02*
X21789104Y-86809523D01*
X21789104Y-86809523D02*
X21931961Y-86857142D01*
X21931961Y-86857142D02*
X22027200Y-86952380D01*
X22027200Y-86952380D02*
X22074819Y-87095237D01*
X22074819Y-87095237D02*
X22074819Y-87190475D01*
X22074819Y-85809523D02*
X22074819Y-86380951D01*
X22074819Y-86095237D02*
X21074819Y-86095237D01*
X21074819Y-86095237D02*
X21217676Y-86190475D01*
X21217676Y-86190475D02*
X21312914Y-86285713D01*
X21312914Y-86285713D02*
X21360533Y-86380951D01*
X22074819Y-84857142D02*
X22074819Y-85428570D01*
X22074819Y-85142856D02*
X21074819Y-85142856D01*
X21074819Y-85142856D02*
X21217676Y-85238094D01*
X21217676Y-85238094D02*
X21312914Y-85333332D01*
X21312914Y-85333332D02*
X21360533Y-85428570D01*
X81509580Y-61166666D02*
X81557200Y-61214285D01*
X81557200Y-61214285D02*
X81604819Y-61357142D01*
X81604819Y-61357142D02*
X81604819Y-61452380D01*
X81604819Y-61452380D02*
X81557200Y-61595237D01*
X81557200Y-61595237D02*
X81461961Y-61690475D01*
X81461961Y-61690475D02*
X81366723Y-61738094D01*
X81366723Y-61738094D02*
X81176247Y-61785713D01*
X81176247Y-61785713D02*
X81033390Y-61785713D01*
X81033390Y-61785713D02*
X80842914Y-61738094D01*
X80842914Y-61738094D02*
X80747676Y-61690475D01*
X80747676Y-61690475D02*
X80652438Y-61595237D01*
X80652438Y-61595237D02*
X80604819Y-61452380D01*
X80604819Y-61452380D02*
X80604819Y-61357142D01*
X80604819Y-61357142D02*
X80652438Y-61214285D01*
X80652438Y-61214285D02*
X80700057Y-61166666D01*
X80604819Y-60833332D02*
X80604819Y-60214285D01*
X80604819Y-60214285D02*
X80985771Y-60547618D01*
X80985771Y-60547618D02*
X80985771Y-60404761D01*
X80985771Y-60404761D02*
X81033390Y-60309523D01*
X81033390Y-60309523D02*
X81081009Y-60261904D01*
X81081009Y-60261904D02*
X81176247Y-60214285D01*
X81176247Y-60214285D02*
X81414342Y-60214285D01*
X81414342Y-60214285D02*
X81509580Y-60261904D01*
X81509580Y-60261904D02*
X81557200Y-60309523D01*
X81557200Y-60309523D02*
X81604819Y-60404761D01*
X81604819Y-60404761D02*
X81604819Y-60690475D01*
X81604819Y-60690475D02*
X81557200Y-60785713D01*
X81557200Y-60785713D02*
X81509580Y-60833332D01*
X105834819Y-49333333D02*
X106549104Y-49333333D01*
X106549104Y-49333333D02*
X106691961Y-49380952D01*
X106691961Y-49380952D02*
X106787200Y-49476190D01*
X106787200Y-49476190D02*
X106834819Y-49619047D01*
X106834819Y-49619047D02*
X106834819Y-49714285D01*
X106263390Y-48714285D02*
X106215771Y-48809523D01*
X106215771Y-48809523D02*
X106168152Y-48857142D01*
X106168152Y-48857142D02*
X106072914Y-48904761D01*
X106072914Y-48904761D02*
X106025295Y-48904761D01*
X106025295Y-48904761D02*
X105930057Y-48857142D01*
X105930057Y-48857142D02*
X105882438Y-48809523D01*
X105882438Y-48809523D02*
X105834819Y-48714285D01*
X105834819Y-48714285D02*
X105834819Y-48523809D01*
X105834819Y-48523809D02*
X105882438Y-48428571D01*
X105882438Y-48428571D02*
X105930057Y-48380952D01*
X105930057Y-48380952D02*
X106025295Y-48333333D01*
X106025295Y-48333333D02*
X106072914Y-48333333D01*
X106072914Y-48333333D02*
X106168152Y-48380952D01*
X106168152Y-48380952D02*
X106215771Y-48428571D01*
X106215771Y-48428571D02*
X106263390Y-48523809D01*
X106263390Y-48523809D02*
X106263390Y-48714285D01*
X106263390Y-48714285D02*
X106311009Y-48809523D01*
X106311009Y-48809523D02*
X106358628Y-48857142D01*
X106358628Y-48857142D02*
X106453866Y-48904761D01*
X106453866Y-48904761D02*
X106644342Y-48904761D01*
X106644342Y-48904761D02*
X106739580Y-48857142D01*
X106739580Y-48857142D02*
X106787200Y-48809523D01*
X106787200Y-48809523D02*
X106834819Y-48714285D01*
X106834819Y-48714285D02*
X106834819Y-48523809D01*
X106834819Y-48523809D02*
X106787200Y-48428571D01*
X106787200Y-48428571D02*
X106739580Y-48380952D01*
X106739580Y-48380952D02*
X106644342Y-48333333D01*
X106644342Y-48333333D02*
X106453866Y-48333333D01*
X106453866Y-48333333D02*
X106358628Y-48380952D01*
X106358628Y-48380952D02*
X106311009Y-48428571D01*
X106311009Y-48428571D02*
X106263390Y-48523809D01*
X90833333Y-15624819D02*
X90500000Y-15148628D01*
X90261905Y-15624819D02*
X90261905Y-14624819D01*
X90261905Y-14624819D02*
X90642857Y-14624819D01*
X90642857Y-14624819D02*
X90738095Y-14672438D01*
X90738095Y-14672438D02*
X90785714Y-14720057D01*
X90785714Y-14720057D02*
X90833333Y-14815295D01*
X90833333Y-14815295D02*
X90833333Y-14958152D01*
X90833333Y-14958152D02*
X90785714Y-15053390D01*
X90785714Y-15053390D02*
X90738095Y-15101009D01*
X90738095Y-15101009D02*
X90642857Y-15148628D01*
X90642857Y-15148628D02*
X90261905Y-15148628D01*
X91214286Y-14720057D02*
X91261905Y-14672438D01*
X91261905Y-14672438D02*
X91357143Y-14624819D01*
X91357143Y-14624819D02*
X91595238Y-14624819D01*
X91595238Y-14624819D02*
X91690476Y-14672438D01*
X91690476Y-14672438D02*
X91738095Y-14720057D01*
X91738095Y-14720057D02*
X91785714Y-14815295D01*
X91785714Y-14815295D02*
X91785714Y-14910533D01*
X91785714Y-14910533D02*
X91738095Y-15053390D01*
X91738095Y-15053390D02*
X91166667Y-15624819D01*
X91166667Y-15624819D02*
X91785714Y-15624819D01*
X71357142Y-55624819D02*
X71023809Y-55148628D01*
X70785714Y-55624819D02*
X70785714Y-54624819D01*
X70785714Y-54624819D02*
X71166666Y-54624819D01*
X71166666Y-54624819D02*
X71261904Y-54672438D01*
X71261904Y-54672438D02*
X71309523Y-54720057D01*
X71309523Y-54720057D02*
X71357142Y-54815295D01*
X71357142Y-54815295D02*
X71357142Y-54958152D01*
X71357142Y-54958152D02*
X71309523Y-55053390D01*
X71309523Y-55053390D02*
X71261904Y-55101009D01*
X71261904Y-55101009D02*
X71166666Y-55148628D01*
X71166666Y-55148628D02*
X70785714Y-55148628D01*
X72309523Y-55624819D02*
X71738095Y-55624819D01*
X72023809Y-55624819D02*
X72023809Y-54624819D01*
X72023809Y-54624819D02*
X71928571Y-54767676D01*
X71928571Y-54767676D02*
X71833333Y-54862914D01*
X71833333Y-54862914D02*
X71738095Y-54910533D01*
X72928571Y-54624819D02*
X73023809Y-54624819D01*
X73023809Y-54624819D02*
X73119047Y-54672438D01*
X73119047Y-54672438D02*
X73166666Y-54720057D01*
X73166666Y-54720057D02*
X73214285Y-54815295D01*
X73214285Y-54815295D02*
X73261904Y-55005771D01*
X73261904Y-55005771D02*
X73261904Y-55243866D01*
X73261904Y-55243866D02*
X73214285Y-55434342D01*
X73214285Y-55434342D02*
X73166666Y-55529580D01*
X73166666Y-55529580D02*
X73119047Y-55577200D01*
X73119047Y-55577200D02*
X73023809Y-55624819D01*
X73023809Y-55624819D02*
X72928571Y-55624819D01*
X72928571Y-55624819D02*
X72833333Y-55577200D01*
X72833333Y-55577200D02*
X72785714Y-55529580D01*
X72785714Y-55529580D02*
X72738095Y-55434342D01*
X72738095Y-55434342D02*
X72690476Y-55243866D01*
X72690476Y-55243866D02*
X72690476Y-55005771D01*
X72690476Y-55005771D02*
X72738095Y-54815295D01*
X72738095Y-54815295D02*
X72785714Y-54720057D01*
X72785714Y-54720057D02*
X72833333Y-54672438D01*
X72833333Y-54672438D02*
X72928571Y-54624819D01*
X34261905Y-60354819D02*
X34261905Y-59354819D01*
X34261905Y-59354819D02*
X34500000Y-59354819D01*
X34500000Y-59354819D02*
X34642857Y-59402438D01*
X34642857Y-59402438D02*
X34738095Y-59497676D01*
X34738095Y-59497676D02*
X34785714Y-59592914D01*
X34785714Y-59592914D02*
X34833333Y-59783390D01*
X34833333Y-59783390D02*
X34833333Y-59926247D01*
X34833333Y-59926247D02*
X34785714Y-60116723D01*
X34785714Y-60116723D02*
X34738095Y-60211961D01*
X34738095Y-60211961D02*
X34642857Y-60307200D01*
X34642857Y-60307200D02*
X34500000Y-60354819D01*
X34500000Y-60354819D02*
X34261905Y-60354819D01*
X35214286Y-59450057D02*
X35261905Y-59402438D01*
X35261905Y-59402438D02*
X35357143Y-59354819D01*
X35357143Y-59354819D02*
X35595238Y-59354819D01*
X35595238Y-59354819D02*
X35690476Y-59402438D01*
X35690476Y-59402438D02*
X35738095Y-59450057D01*
X35738095Y-59450057D02*
X35785714Y-59545295D01*
X35785714Y-59545295D02*
X35785714Y-59640533D01*
X35785714Y-59640533D02*
X35738095Y-59783390D01*
X35738095Y-59783390D02*
X35166667Y-60354819D01*
X35166667Y-60354819D02*
X35785714Y-60354819D01*
X12476667Y-66987200D02*
X12619524Y-67034819D01*
X12619524Y-67034819D02*
X12857619Y-67034819D01*
X12857619Y-67034819D02*
X12952857Y-66987200D01*
X12952857Y-66987200D02*
X13000476Y-66939580D01*
X13000476Y-66939580D02*
X13048095Y-66844342D01*
X13048095Y-66844342D02*
X13048095Y-66749104D01*
X13048095Y-66749104D02*
X13000476Y-66653866D01*
X13000476Y-66653866D02*
X12952857Y-66606247D01*
X12952857Y-66606247D02*
X12857619Y-66558628D01*
X12857619Y-66558628D02*
X12667143Y-66511009D01*
X12667143Y-66511009D02*
X12571905Y-66463390D01*
X12571905Y-66463390D02*
X12524286Y-66415771D01*
X12524286Y-66415771D02*
X12476667Y-66320533D01*
X12476667Y-66320533D02*
X12476667Y-66225295D01*
X12476667Y-66225295D02*
X12524286Y-66130057D01*
X12524286Y-66130057D02*
X12571905Y-66082438D01*
X12571905Y-66082438D02*
X12667143Y-66034819D01*
X12667143Y-66034819D02*
X12905238Y-66034819D01*
X12905238Y-66034819D02*
X13048095Y-66082438D01*
X13381429Y-66034819D02*
X13619524Y-67034819D01*
X13619524Y-67034819D02*
X13810000Y-66320533D01*
X13810000Y-66320533D02*
X14000476Y-67034819D01*
X14000476Y-67034819D02*
X14238572Y-66034819D01*
X15143333Y-67034819D02*
X14571905Y-67034819D01*
X14857619Y-67034819D02*
X14857619Y-66034819D01*
X14857619Y-66034819D02*
X14762381Y-66177676D01*
X14762381Y-66177676D02*
X14667143Y-66272914D01*
X14667143Y-66272914D02*
X14571905Y-66320533D01*
X20626666Y-52261009D02*
X20293333Y-52261009D01*
X20293333Y-52784819D02*
X20293333Y-51784819D01*
X20293333Y-51784819D02*
X20769523Y-51784819D01*
X21102857Y-51880057D02*
X21150476Y-51832438D01*
X21150476Y-51832438D02*
X21245714Y-51784819D01*
X21245714Y-51784819D02*
X21483809Y-51784819D01*
X21483809Y-51784819D02*
X21579047Y-51832438D01*
X21579047Y-51832438D02*
X21626666Y-51880057D01*
X21626666Y-51880057D02*
X21674285Y-51975295D01*
X21674285Y-51975295D02*
X21674285Y-52070533D01*
X21674285Y-52070533D02*
X21626666Y-52213390D01*
X21626666Y-52213390D02*
X21055238Y-52784819D01*
X21055238Y-52784819D02*
X21674285Y-52784819D01*
X105834819Y-10333333D02*
X106549104Y-10333333D01*
X106549104Y-10333333D02*
X106691961Y-10380952D01*
X106691961Y-10380952D02*
X106787200Y-10476190D01*
X106787200Y-10476190D02*
X106834819Y-10619047D01*
X106834819Y-10619047D02*
X106834819Y-10714285D01*
X105834819Y-9952380D02*
X105834819Y-9333333D01*
X105834819Y-9333333D02*
X106215771Y-9666666D01*
X106215771Y-9666666D02*
X106215771Y-9523809D01*
X106215771Y-9523809D02*
X106263390Y-9428571D01*
X106263390Y-9428571D02*
X106311009Y-9380952D01*
X106311009Y-9380952D02*
X106406247Y-9333333D01*
X106406247Y-9333333D02*
X106644342Y-9333333D01*
X106644342Y-9333333D02*
X106739580Y-9380952D01*
X106739580Y-9380952D02*
X106787200Y-9428571D01*
X106787200Y-9428571D02*
X106834819Y-9523809D01*
X106834819Y-9523809D02*
X106834819Y-9809523D01*
X106834819Y-9809523D02*
X106787200Y-9904761D01*
X106787200Y-9904761D02*
X106739580Y-9952380D01*
X11274819Y-14873333D02*
X11989104Y-14873333D01*
X11989104Y-14873333D02*
X12131961Y-14920952D01*
X12131961Y-14920952D02*
X12227200Y-15016190D01*
X12227200Y-15016190D02*
X12274819Y-15159047D01*
X12274819Y-15159047D02*
X12274819Y-15254285D01*
X12274819Y-13873333D02*
X12274819Y-14444761D01*
X12274819Y-14159047D02*
X11274819Y-14159047D01*
X11274819Y-14159047D02*
X11417676Y-14254285D01*
X11417676Y-14254285D02*
X11512914Y-14349523D01*
X11512914Y-14349523D02*
X11560533Y-14444761D01*
X42833333Y-13509580D02*
X42785714Y-13557200D01*
X42785714Y-13557200D02*
X42642857Y-13604819D01*
X42642857Y-13604819D02*
X42547619Y-13604819D01*
X42547619Y-13604819D02*
X42404762Y-13557200D01*
X42404762Y-13557200D02*
X42309524Y-13461961D01*
X42309524Y-13461961D02*
X42261905Y-13366723D01*
X42261905Y-13366723D02*
X42214286Y-13176247D01*
X42214286Y-13176247D02*
X42214286Y-13033390D01*
X42214286Y-13033390D02*
X42261905Y-12842914D01*
X42261905Y-12842914D02*
X42309524Y-12747676D01*
X42309524Y-12747676D02*
X42404762Y-12652438D01*
X42404762Y-12652438D02*
X42547619Y-12604819D01*
X42547619Y-12604819D02*
X42642857Y-12604819D01*
X42642857Y-12604819D02*
X42785714Y-12652438D01*
X42785714Y-12652438D02*
X42833333Y-12700057D01*
X43738095Y-12604819D02*
X43261905Y-12604819D01*
X43261905Y-12604819D02*
X43214286Y-13081009D01*
X43214286Y-13081009D02*
X43261905Y-13033390D01*
X43261905Y-13033390D02*
X43357143Y-12985771D01*
X43357143Y-12985771D02*
X43595238Y-12985771D01*
X43595238Y-12985771D02*
X43690476Y-13033390D01*
X43690476Y-13033390D02*
X43738095Y-13081009D01*
X43738095Y-13081009D02*
X43785714Y-13176247D01*
X43785714Y-13176247D02*
X43785714Y-13414342D01*
X43785714Y-13414342D02*
X43738095Y-13509580D01*
X43738095Y-13509580D02*
X43690476Y-13557200D01*
X43690476Y-13557200D02*
X43595238Y-13604819D01*
X43595238Y-13604819D02*
X43357143Y-13604819D01*
X43357143Y-13604819D02*
X43261905Y-13557200D01*
X43261905Y-13557200D02*
X43214286Y-13509580D01*
X85261905Y-43254819D02*
X85261905Y-42254819D01*
X85261905Y-42254819D02*
X85500000Y-42254819D01*
X85500000Y-42254819D02*
X85642857Y-42302438D01*
X85642857Y-42302438D02*
X85738095Y-42397676D01*
X85738095Y-42397676D02*
X85785714Y-42492914D01*
X85785714Y-42492914D02*
X85833333Y-42683390D01*
X85833333Y-42683390D02*
X85833333Y-42826247D01*
X85833333Y-42826247D02*
X85785714Y-43016723D01*
X85785714Y-43016723D02*
X85738095Y-43111961D01*
X85738095Y-43111961D02*
X85642857Y-43207200D01*
X85642857Y-43207200D02*
X85500000Y-43254819D01*
X85500000Y-43254819D02*
X85261905Y-43254819D01*
X86690476Y-42588152D02*
X86690476Y-43254819D01*
X86452381Y-42207200D02*
X86214286Y-42921485D01*
X86214286Y-42921485D02*
X86833333Y-42921485D01*
X77624819Y-61642857D02*
X77148628Y-61976190D01*
X77624819Y-62214285D02*
X76624819Y-62214285D01*
X76624819Y-62214285D02*
X76624819Y-61833333D01*
X76624819Y-61833333D02*
X76672438Y-61738095D01*
X76672438Y-61738095D02*
X76720057Y-61690476D01*
X76720057Y-61690476D02*
X76815295Y-61642857D01*
X76815295Y-61642857D02*
X76958152Y-61642857D01*
X76958152Y-61642857D02*
X77053390Y-61690476D01*
X77053390Y-61690476D02*
X77101009Y-61738095D01*
X77101009Y-61738095D02*
X77148628Y-61833333D01*
X77148628Y-61833333D02*
X77148628Y-62214285D01*
X77624819Y-60690476D02*
X77624819Y-61261904D01*
X77624819Y-60976190D02*
X76624819Y-60976190D01*
X76624819Y-60976190D02*
X76767676Y-61071428D01*
X76767676Y-61071428D02*
X76862914Y-61166666D01*
X76862914Y-61166666D02*
X76910533Y-61261904D01*
X76720057Y-60309523D02*
X76672438Y-60261904D01*
X76672438Y-60261904D02*
X76624819Y-60166666D01*
X76624819Y-60166666D02*
X76624819Y-59928571D01*
X76624819Y-59928571D02*
X76672438Y-59833333D01*
X76672438Y-59833333D02*
X76720057Y-59785714D01*
X76720057Y-59785714D02*
X76815295Y-59738095D01*
X76815295Y-59738095D02*
X76910533Y-59738095D01*
X76910533Y-59738095D02*
X77053390Y-59785714D01*
X77053390Y-59785714D02*
X77624819Y-60357142D01*
X77624819Y-60357142D02*
X77624819Y-59738095D01*
X47333333Y-54109580D02*
X47285714Y-54157200D01*
X47285714Y-54157200D02*
X47142857Y-54204819D01*
X47142857Y-54204819D02*
X47047619Y-54204819D01*
X47047619Y-54204819D02*
X46904762Y-54157200D01*
X46904762Y-54157200D02*
X46809524Y-54061961D01*
X46809524Y-54061961D02*
X46761905Y-53966723D01*
X46761905Y-53966723D02*
X46714286Y-53776247D01*
X46714286Y-53776247D02*
X46714286Y-53633390D01*
X46714286Y-53633390D02*
X46761905Y-53442914D01*
X46761905Y-53442914D02*
X46809524Y-53347676D01*
X46809524Y-53347676D02*
X46904762Y-53252438D01*
X46904762Y-53252438D02*
X47047619Y-53204819D01*
X47047619Y-53204819D02*
X47142857Y-53204819D01*
X47142857Y-53204819D02*
X47285714Y-53252438D01*
X47285714Y-53252438D02*
X47333333Y-53300057D01*
X48285714Y-54204819D02*
X47714286Y-54204819D01*
X48000000Y-54204819D02*
X48000000Y-53204819D01*
X48000000Y-53204819D02*
X47904762Y-53347676D01*
X47904762Y-53347676D02*
X47809524Y-53442914D01*
X47809524Y-53442914D02*
X47714286Y-53490533D01*
X77624819Y-55642857D02*
X77148628Y-55976190D01*
X77624819Y-56214285D02*
X76624819Y-56214285D01*
X76624819Y-56214285D02*
X76624819Y-55833333D01*
X76624819Y-55833333D02*
X76672438Y-55738095D01*
X76672438Y-55738095D02*
X76720057Y-55690476D01*
X76720057Y-55690476D02*
X76815295Y-55642857D01*
X76815295Y-55642857D02*
X76958152Y-55642857D01*
X76958152Y-55642857D02*
X77053390Y-55690476D01*
X77053390Y-55690476D02*
X77101009Y-55738095D01*
X77101009Y-55738095D02*
X77148628Y-55833333D01*
X77148628Y-55833333D02*
X77148628Y-56214285D01*
X77624819Y-54690476D02*
X77624819Y-55261904D01*
X77624819Y-54976190D02*
X76624819Y-54976190D01*
X76624819Y-54976190D02*
X76767676Y-55071428D01*
X76767676Y-55071428D02*
X76862914Y-55166666D01*
X76862914Y-55166666D02*
X76910533Y-55261904D01*
X77624819Y-53738095D02*
X77624819Y-54309523D01*
X77624819Y-54023809D02*
X76624819Y-54023809D01*
X76624819Y-54023809D02*
X76767676Y-54119047D01*
X76767676Y-54119047D02*
X76862914Y-54214285D01*
X76862914Y-54214285D02*
X76910533Y-54309523D01*
X90833333Y-33624819D02*
X90500000Y-33148628D01*
X90261905Y-33624819D02*
X90261905Y-32624819D01*
X90261905Y-32624819D02*
X90642857Y-32624819D01*
X90642857Y-32624819D02*
X90738095Y-32672438D01*
X90738095Y-32672438D02*
X90785714Y-32720057D01*
X90785714Y-32720057D02*
X90833333Y-32815295D01*
X90833333Y-32815295D02*
X90833333Y-32958152D01*
X90833333Y-32958152D02*
X90785714Y-33053390D01*
X90785714Y-33053390D02*
X90738095Y-33101009D01*
X90738095Y-33101009D02*
X90642857Y-33148628D01*
X90642857Y-33148628D02*
X90261905Y-33148628D01*
X91690476Y-32958152D02*
X91690476Y-33624819D01*
X91452381Y-32577200D02*
X91214286Y-33291485D01*
X91214286Y-33291485D02*
X91833333Y-33291485D01*
X34778095Y-1394819D02*
X34778095Y-2204342D01*
X34778095Y-2204342D02*
X34825714Y-2299580D01*
X34825714Y-2299580D02*
X34873333Y-2347200D01*
X34873333Y-2347200D02*
X34968571Y-2394819D01*
X34968571Y-2394819D02*
X35159047Y-2394819D01*
X35159047Y-2394819D02*
X35254285Y-2347200D01*
X35254285Y-2347200D02*
X35301904Y-2299580D01*
X35301904Y-2299580D02*
X35349523Y-2204342D01*
X35349523Y-2204342D02*
X35349523Y-1394819D01*
X36349523Y-2394819D02*
X35778095Y-2394819D01*
X36063809Y-2394819D02*
X36063809Y-1394819D01*
X36063809Y-1394819D02*
X35968571Y-1537676D01*
X35968571Y-1537676D02*
X35873333Y-1632914D01*
X35873333Y-1632914D02*
X35778095Y-1680533D01*
X105738095Y-82804819D02*
X105738095Y-81804819D01*
X105738095Y-82281009D02*
X106309523Y-82281009D01*
X106309523Y-82804819D02*
X106309523Y-81804819D01*
X107214285Y-82138152D02*
X107214285Y-82804819D01*
X106976190Y-81757200D02*
X106738095Y-82471485D01*
X106738095Y-82471485D02*
X107357142Y-82471485D01*
X90833333Y-40624819D02*
X90500000Y-40148628D01*
X90261905Y-40624819D02*
X90261905Y-39624819D01*
X90261905Y-39624819D02*
X90642857Y-39624819D01*
X90642857Y-39624819D02*
X90738095Y-39672438D01*
X90738095Y-39672438D02*
X90785714Y-39720057D01*
X90785714Y-39720057D02*
X90833333Y-39815295D01*
X90833333Y-39815295D02*
X90833333Y-39958152D01*
X90833333Y-39958152D02*
X90785714Y-40053390D01*
X90785714Y-40053390D02*
X90738095Y-40101009D01*
X90738095Y-40101009D02*
X90642857Y-40148628D01*
X90642857Y-40148628D02*
X90261905Y-40148628D01*
X91738095Y-39624819D02*
X91261905Y-39624819D01*
X91261905Y-39624819D02*
X91214286Y-40101009D01*
X91214286Y-40101009D02*
X91261905Y-40053390D01*
X91261905Y-40053390D02*
X91357143Y-40005771D01*
X91357143Y-40005771D02*
X91595238Y-40005771D01*
X91595238Y-40005771D02*
X91690476Y-40053390D01*
X91690476Y-40053390D02*
X91738095Y-40101009D01*
X91738095Y-40101009D02*
X91785714Y-40196247D01*
X91785714Y-40196247D02*
X91785714Y-40434342D01*
X91785714Y-40434342D02*
X91738095Y-40529580D01*
X91738095Y-40529580D02*
X91690476Y-40577200D01*
X91690476Y-40577200D02*
X91595238Y-40624819D01*
X91595238Y-40624819D02*
X91357143Y-40624819D01*
X91357143Y-40624819D02*
X91261905Y-40577200D01*
X91261905Y-40577200D02*
X91214286Y-40529580D01*
X71261905Y-63284819D02*
X71261905Y-62284819D01*
X71261905Y-62284819D02*
X71500000Y-62284819D01*
X71500000Y-62284819D02*
X71642857Y-62332438D01*
X71642857Y-62332438D02*
X71738095Y-62427676D01*
X71738095Y-62427676D02*
X71785714Y-62522914D01*
X71785714Y-62522914D02*
X71833333Y-62713390D01*
X71833333Y-62713390D02*
X71833333Y-62856247D01*
X71833333Y-62856247D02*
X71785714Y-63046723D01*
X71785714Y-63046723D02*
X71738095Y-63141961D01*
X71738095Y-63141961D02*
X71642857Y-63237200D01*
X71642857Y-63237200D02*
X71500000Y-63284819D01*
X71500000Y-63284819D02*
X71261905Y-63284819D01*
X72166667Y-62284819D02*
X72785714Y-62284819D01*
X72785714Y-62284819D02*
X72452381Y-62665771D01*
X72452381Y-62665771D02*
X72595238Y-62665771D01*
X72595238Y-62665771D02*
X72690476Y-62713390D01*
X72690476Y-62713390D02*
X72738095Y-62761009D01*
X72738095Y-62761009D02*
X72785714Y-62856247D01*
X72785714Y-62856247D02*
X72785714Y-63094342D01*
X72785714Y-63094342D02*
X72738095Y-63189580D01*
X72738095Y-63189580D02*
X72690476Y-63237200D01*
X72690476Y-63237200D02*
X72595238Y-63284819D01*
X72595238Y-63284819D02*
X72309524Y-63284819D01*
X72309524Y-63284819D02*
X72214286Y-63237200D01*
X72214286Y-63237200D02*
X72166667Y-63189580D01*
X30833333Y-13509580D02*
X30785714Y-13557200D01*
X30785714Y-13557200D02*
X30642857Y-13604819D01*
X30642857Y-13604819D02*
X30547619Y-13604819D01*
X30547619Y-13604819D02*
X30404762Y-13557200D01*
X30404762Y-13557200D02*
X30309524Y-13461961D01*
X30309524Y-13461961D02*
X30261905Y-13366723D01*
X30261905Y-13366723D02*
X30214286Y-13176247D01*
X30214286Y-13176247D02*
X30214286Y-13033390D01*
X30214286Y-13033390D02*
X30261905Y-12842914D01*
X30261905Y-12842914D02*
X30309524Y-12747676D01*
X30309524Y-12747676D02*
X30404762Y-12652438D01*
X30404762Y-12652438D02*
X30547619Y-12604819D01*
X30547619Y-12604819D02*
X30642857Y-12604819D01*
X30642857Y-12604819D02*
X30785714Y-12652438D01*
X30785714Y-12652438D02*
X30833333Y-12700057D01*
X31690476Y-12938152D02*
X31690476Y-13604819D01*
X31452381Y-12557200D02*
X31214286Y-13271485D01*
X31214286Y-13271485D02*
X31833333Y-13271485D01*
X2738095Y-82804819D02*
X2738095Y-81804819D01*
X2738095Y-82281009D02*
X3309523Y-82281009D01*
X3309523Y-82804819D02*
X3309523Y-81804819D01*
X3690476Y-81804819D02*
X4309523Y-81804819D01*
X4309523Y-81804819D02*
X3976190Y-82185771D01*
X3976190Y-82185771D02*
X4119047Y-82185771D01*
X4119047Y-82185771D02*
X4214285Y-82233390D01*
X4214285Y-82233390D02*
X4261904Y-82281009D01*
X4261904Y-82281009D02*
X4309523Y-82376247D01*
X4309523Y-82376247D02*
X4309523Y-82614342D01*
X4309523Y-82614342D02*
X4261904Y-82709580D01*
X4261904Y-82709580D02*
X4214285Y-82757200D01*
X4214285Y-82757200D02*
X4119047Y-82804819D01*
X4119047Y-82804819D02*
X3833333Y-82804819D01*
X3833333Y-82804819D02*
X3738095Y-82757200D01*
X3738095Y-82757200D02*
X3690476Y-82709580D01*
X11274819Y-57873333D02*
X11989104Y-57873333D01*
X11989104Y-57873333D02*
X12131961Y-57920952D01*
X12131961Y-57920952D02*
X12227200Y-58016190D01*
X12227200Y-58016190D02*
X12274819Y-58159047D01*
X12274819Y-58159047D02*
X12274819Y-58254285D01*
X11370057Y-57444761D02*
X11322438Y-57397142D01*
X11322438Y-57397142D02*
X11274819Y-57301904D01*
X11274819Y-57301904D02*
X11274819Y-57063809D01*
X11274819Y-57063809D02*
X11322438Y-56968571D01*
X11322438Y-56968571D02*
X11370057Y-56920952D01*
X11370057Y-56920952D02*
X11465295Y-56873333D01*
X11465295Y-56873333D02*
X11560533Y-56873333D01*
X11560533Y-56873333D02*
X11703390Y-56920952D01*
X11703390Y-56920952D02*
X12274819Y-57492380D01*
X12274819Y-57492380D02*
X12274819Y-56873333D01*
X90833333Y-8624819D02*
X90500000Y-8148628D01*
X90261905Y-8624819D02*
X90261905Y-7624819D01*
X90261905Y-7624819D02*
X90642857Y-7624819D01*
X90642857Y-7624819D02*
X90738095Y-7672438D01*
X90738095Y-7672438D02*
X90785714Y-7720057D01*
X90785714Y-7720057D02*
X90833333Y-7815295D01*
X90833333Y-7815295D02*
X90833333Y-7958152D01*
X90833333Y-7958152D02*
X90785714Y-8053390D01*
X90785714Y-8053390D02*
X90738095Y-8101009D01*
X90738095Y-8101009D02*
X90642857Y-8148628D01*
X90642857Y-8148628D02*
X90261905Y-8148628D01*
X91785714Y-8624819D02*
X91214286Y-8624819D01*
X91500000Y-8624819D02*
X91500000Y-7624819D01*
X91500000Y-7624819D02*
X91404762Y-7767676D01*
X91404762Y-7767676D02*
X91309524Y-7862914D01*
X91309524Y-7862914D02*
X91214286Y-7910533D01*
X90833333Y-47624819D02*
X90500000Y-47148628D01*
X90261905Y-47624819D02*
X90261905Y-46624819D01*
X90261905Y-46624819D02*
X90642857Y-46624819D01*
X90642857Y-46624819D02*
X90738095Y-46672438D01*
X90738095Y-46672438D02*
X90785714Y-46720057D01*
X90785714Y-46720057D02*
X90833333Y-46815295D01*
X90833333Y-46815295D02*
X90833333Y-46958152D01*
X90833333Y-46958152D02*
X90785714Y-47053390D01*
X90785714Y-47053390D02*
X90738095Y-47101009D01*
X90738095Y-47101009D02*
X90642857Y-47148628D01*
X90642857Y-47148628D02*
X90261905Y-47148628D01*
X91690476Y-46624819D02*
X91500000Y-46624819D01*
X91500000Y-46624819D02*
X91404762Y-46672438D01*
X91404762Y-46672438D02*
X91357143Y-46720057D01*
X91357143Y-46720057D02*
X91261905Y-46862914D01*
X91261905Y-46862914D02*
X91214286Y-47053390D01*
X91214286Y-47053390D02*
X91214286Y-47434342D01*
X91214286Y-47434342D02*
X91261905Y-47529580D01*
X91261905Y-47529580D02*
X91309524Y-47577200D01*
X91309524Y-47577200D02*
X91404762Y-47624819D01*
X91404762Y-47624819D02*
X91595238Y-47624819D01*
X91595238Y-47624819D02*
X91690476Y-47577200D01*
X91690476Y-47577200D02*
X91738095Y-47529580D01*
X91738095Y-47529580D02*
X91785714Y-47434342D01*
X91785714Y-47434342D02*
X91785714Y-47196247D01*
X91785714Y-47196247D02*
X91738095Y-47101009D01*
X91738095Y-47101009D02*
X91690476Y-47053390D01*
X91690476Y-47053390D02*
X91595238Y-47005771D01*
X91595238Y-47005771D02*
X91404762Y-47005771D01*
X91404762Y-47005771D02*
X91309524Y-47053390D01*
X91309524Y-47053390D02*
X91261905Y-47101009D01*
X91261905Y-47101009D02*
X91214286Y-47196247D01*
X105834819Y-35333333D02*
X106549104Y-35333333D01*
X106549104Y-35333333D02*
X106691961Y-35380952D01*
X106691961Y-35380952D02*
X106787200Y-35476190D01*
X106787200Y-35476190D02*
X106834819Y-35619047D01*
X106834819Y-35619047D02*
X106834819Y-35714285D01*
X105834819Y-34428571D02*
X105834819Y-34619047D01*
X105834819Y-34619047D02*
X105882438Y-34714285D01*
X105882438Y-34714285D02*
X105930057Y-34761904D01*
X105930057Y-34761904D02*
X106072914Y-34857142D01*
X106072914Y-34857142D02*
X106263390Y-34904761D01*
X106263390Y-34904761D02*
X106644342Y-34904761D01*
X106644342Y-34904761D02*
X106739580Y-34857142D01*
X106739580Y-34857142D02*
X106787200Y-34809523D01*
X106787200Y-34809523D02*
X106834819Y-34714285D01*
X106834819Y-34714285D02*
X106834819Y-34523809D01*
X106834819Y-34523809D02*
X106787200Y-34428571D01*
X106787200Y-34428571D02*
X106739580Y-34380952D01*
X106739580Y-34380952D02*
X106644342Y-34333333D01*
X106644342Y-34333333D02*
X106406247Y-34333333D01*
X106406247Y-34333333D02*
X106311009Y-34380952D01*
X106311009Y-34380952D02*
X106263390Y-34428571D01*
X106263390Y-34428571D02*
X106215771Y-34523809D01*
X106215771Y-34523809D02*
X106215771Y-34714285D01*
X106215771Y-34714285D02*
X106263390Y-34809523D01*
X106263390Y-34809523D02*
X106311009Y-34857142D01*
X106311009Y-34857142D02*
X106406247Y-34904761D01*
X105834819Y-17333333D02*
X106549104Y-17333333D01*
X106549104Y-17333333D02*
X106691961Y-17380952D01*
X106691961Y-17380952D02*
X106787200Y-17476190D01*
X106787200Y-17476190D02*
X106834819Y-17619047D01*
X106834819Y-17619047D02*
X106834819Y-17714285D01*
X106168152Y-16428571D02*
X106834819Y-16428571D01*
X105787200Y-16666666D02*
X106501485Y-16904761D01*
X106501485Y-16904761D02*
X106501485Y-16285714D01*
X30089104Y-33094285D02*
X30089104Y-32618095D01*
X30374819Y-33189523D02*
X29374819Y-32856190D01*
X29374819Y-32856190D02*
X30374819Y-32522857D01*
X30374819Y-31665714D02*
X30374819Y-32237142D01*
X30374819Y-31951428D02*
X29374819Y-31951428D01*
X29374819Y-31951428D02*
X29517676Y-32046666D01*
X29517676Y-32046666D02*
X29612914Y-32141904D01*
X29612914Y-32141904D02*
X29660533Y-32237142D01*
X70014819Y-33641904D02*
X70824342Y-33641904D01*
X70824342Y-33641904D02*
X70919580Y-33594285D01*
X70919580Y-33594285D02*
X70967200Y-33546666D01*
X70967200Y-33546666D02*
X71014819Y-33451428D01*
X71014819Y-33451428D02*
X71014819Y-33260952D01*
X71014819Y-33260952D02*
X70967200Y-33165714D01*
X70967200Y-33165714D02*
X70919580Y-33118095D01*
X70919580Y-33118095D02*
X70824342Y-33070476D01*
X70824342Y-33070476D02*
X70014819Y-33070476D01*
X70967200Y-32641904D02*
X71014819Y-32499047D01*
X71014819Y-32499047D02*
X71014819Y-32260952D01*
X71014819Y-32260952D02*
X70967200Y-32165714D01*
X70967200Y-32165714D02*
X70919580Y-32118095D01*
X70919580Y-32118095D02*
X70824342Y-32070476D01*
X70824342Y-32070476D02*
X70729104Y-32070476D01*
X70729104Y-32070476D02*
X70633866Y-32118095D01*
X70633866Y-32118095D02*
X70586247Y-32165714D01*
X70586247Y-32165714D02*
X70538628Y-32260952D01*
X70538628Y-32260952D02*
X70491009Y-32451428D01*
X70491009Y-32451428D02*
X70443390Y-32546666D01*
X70443390Y-32546666D02*
X70395771Y-32594285D01*
X70395771Y-32594285D02*
X70300533Y-32641904D01*
X70300533Y-32641904D02*
X70205295Y-32641904D01*
X70205295Y-32641904D02*
X70110057Y-32594285D01*
X70110057Y-32594285D02*
X70062438Y-32546666D01*
X70062438Y-32546666D02*
X70014819Y-32451428D01*
X70014819Y-32451428D02*
X70014819Y-32213333D01*
X70014819Y-32213333D02*
X70062438Y-32070476D01*
X70491009Y-31308571D02*
X70538628Y-31165714D01*
X70538628Y-31165714D02*
X70586247Y-31118095D01*
X70586247Y-31118095D02*
X70681485Y-31070476D01*
X70681485Y-31070476D02*
X70824342Y-31070476D01*
X70824342Y-31070476D02*
X70919580Y-31118095D01*
X70919580Y-31118095D02*
X70967200Y-31165714D01*
X70967200Y-31165714D02*
X71014819Y-31260952D01*
X71014819Y-31260952D02*
X71014819Y-31641904D01*
X71014819Y-31641904D02*
X70014819Y-31641904D01*
X70014819Y-31641904D02*
X70014819Y-31308571D01*
X70014819Y-31308571D02*
X70062438Y-31213333D01*
X70062438Y-31213333D02*
X70110057Y-31165714D01*
X70110057Y-31165714D02*
X70205295Y-31118095D01*
X70205295Y-31118095D02*
X70300533Y-31118095D01*
X70300533Y-31118095D02*
X70395771Y-31165714D01*
X70395771Y-31165714D02*
X70443390Y-31213333D01*
X70443390Y-31213333D02*
X70491009Y-31308571D01*
X70491009Y-31308571D02*
X70491009Y-31641904D01*
%TO.C,R13*%
D13*
X80272936Y-44090000D02*
X81727064Y-44090000D01*
X80272936Y-45910000D02*
X81727064Y-45910000D01*
%TO.C,J7*%
X97540000Y-40620000D02*
X97540000Y-43380000D01*
X102730000Y-40620000D02*
X97540000Y-40620000D01*
X102730000Y-40620000D02*
X102730000Y-43380000D01*
X102730000Y-43380000D02*
X97540000Y-43380000D01*
X104000000Y-40620000D02*
X105380000Y-40620000D01*
X105380000Y-40620000D02*
X105380000Y-42000000D01*
%TO.C,D1*%
X28510000Y-4350000D02*
X23000000Y-4350000D01*
X28510000Y-7650000D02*
X23000000Y-7650000D01*
X28510000Y-7650000D02*
X28510000Y-4350000D01*
%TO.C,C2*%
X57020354Y-57125000D02*
X58020354Y-57125000D01*
X57520354Y-56625000D02*
X57520354Y-57625000D01*
X62500000Y-54920000D02*
X62500000Y-65080000D01*
X62540000Y-54920000D02*
X62540000Y-65080000D01*
X62580000Y-54921000D02*
X62580000Y-65079000D01*
X62620000Y-54921000D02*
X62620000Y-65079000D01*
X62660000Y-54923000D02*
X62660000Y-65077000D01*
X62700000Y-54924000D02*
X62700000Y-65076000D01*
X62740000Y-54926000D02*
X62740000Y-65074000D01*
X62780000Y-54928000D02*
X62780000Y-65072000D01*
X62820000Y-54930000D02*
X62820000Y-65070000D01*
X62860000Y-54933000D02*
X62860000Y-65067000D01*
X62900000Y-54936000D02*
X62900000Y-65064000D01*
X62940000Y-54939000D02*
X62940000Y-65061000D01*
X62980000Y-54943000D02*
X62980000Y-65057000D01*
X63020000Y-54946000D02*
X63020000Y-65054000D01*
X63060000Y-54951000D02*
X63060000Y-65049000D01*
X63100000Y-54955000D02*
X63100000Y-65045000D01*
X63140000Y-54960000D02*
X63140000Y-65040000D01*
X63180000Y-54965000D02*
X63180000Y-65035000D01*
X63220000Y-54971000D02*
X63220000Y-65029000D01*
X63260000Y-54977000D02*
X63260000Y-65023000D01*
X63300000Y-54983000D02*
X63300000Y-65017000D01*
X63340000Y-54989000D02*
X63340000Y-65011000D01*
X63380000Y-54996000D02*
X63380000Y-65004000D01*
X63420000Y-55003000D02*
X63420000Y-64997000D01*
X63460000Y-55011000D02*
X63460000Y-64989000D01*
X63500000Y-55019000D02*
X63500000Y-64981000D01*
X63540000Y-55027000D02*
X63540000Y-64973000D01*
X63580000Y-55035000D02*
X63580000Y-64965000D01*
X63620000Y-55044000D02*
X63620000Y-64956000D01*
X63660000Y-55053000D02*
X63660000Y-64947000D01*
X63700000Y-55063000D02*
X63700000Y-64937000D01*
X63740000Y-55072000D02*
X63740000Y-64928000D01*
X63780000Y-55083000D02*
X63780000Y-58760000D01*
X63780000Y-61240000D02*
X63780000Y-64917000D01*
X63820000Y-55093000D02*
X63820000Y-58760000D01*
X63820000Y-61240000D02*
X63820000Y-64907000D01*
X63860000Y-55104000D02*
X63860000Y-58760000D01*
X63860000Y-61240000D02*
X63860000Y-64896000D01*
X63900000Y-55115000D02*
X63900000Y-58760000D01*
X63900000Y-61240000D02*
X63900000Y-64885000D01*
X63940000Y-55127000D02*
X63940000Y-58760000D01*
X63940000Y-61240000D02*
X63940000Y-64873000D01*
X63980000Y-55139000D02*
X63980000Y-58760000D01*
X63980000Y-61240000D02*
X63980000Y-64861000D01*
X64020000Y-55151000D02*
X64020000Y-58760000D01*
X64020000Y-61240000D02*
X64020000Y-64849000D01*
X64060000Y-55163000D02*
X64060000Y-58760000D01*
X64060000Y-61240000D02*
X64060000Y-64837000D01*
X64100000Y-55176000D02*
X64100000Y-58760000D01*
X64100000Y-61240000D02*
X64100000Y-64824000D01*
X64140000Y-55190000D02*
X64140000Y-58760000D01*
X64140000Y-61240000D02*
X64140000Y-64810000D01*
X64180000Y-55203000D02*
X64180000Y-58760000D01*
X64180000Y-61240000D02*
X64180000Y-64797000D01*
X64220000Y-55218000D02*
X64220000Y-58760000D01*
X64220000Y-61240000D02*
X64220000Y-64782000D01*
X64260000Y-55232000D02*
X64260000Y-58760000D01*
X64260000Y-61240000D02*
X64260000Y-64768000D01*
X64300000Y-55247000D02*
X64300000Y-58760000D01*
X64300000Y-61240000D02*
X64300000Y-64753000D01*
X64340000Y-55262000D02*
X64340000Y-58760000D01*
X64340000Y-61240000D02*
X64340000Y-64738000D01*
X64380000Y-55278000D02*
X64380000Y-58760000D01*
X64380000Y-61240000D02*
X64380000Y-64722000D01*
X64420000Y-55294000D02*
X64420000Y-58760000D01*
X64420000Y-61240000D02*
X64420000Y-64706000D01*
X64460000Y-55310000D02*
X64460000Y-58760000D01*
X64460000Y-61240000D02*
X64460000Y-64690000D01*
X64500000Y-55327000D02*
X64500000Y-58760000D01*
X64500000Y-61240000D02*
X64500000Y-64673000D01*
X64540000Y-55344000D02*
X64540000Y-58760000D01*
X64540000Y-61240000D02*
X64540000Y-64656000D01*
X64580000Y-55362000D02*
X64580000Y-58760000D01*
X64580000Y-61240000D02*
X64580000Y-64638000D01*
X64620000Y-55380000D02*
X64620000Y-58760000D01*
X64620000Y-61240000D02*
X64620000Y-64620000D01*
X64660000Y-55398000D02*
X64660000Y-58760000D01*
X64660000Y-61240000D02*
X64660000Y-64602000D01*
X64700000Y-55417000D02*
X64700000Y-58760000D01*
X64700000Y-61240000D02*
X64700000Y-64583000D01*
X64740000Y-55436000D02*
X64740000Y-58760000D01*
X64740000Y-61240000D02*
X64740000Y-64564000D01*
X64780000Y-55456000D02*
X64780000Y-58760000D01*
X64780000Y-61240000D02*
X64780000Y-64544000D01*
X64820000Y-55476000D02*
X64820000Y-58760000D01*
X64820000Y-61240000D02*
X64820000Y-64524000D01*
X64860000Y-55496000D02*
X64860000Y-58760000D01*
X64860000Y-61240000D02*
X64860000Y-64504000D01*
X64900000Y-55517000D02*
X64900000Y-58760000D01*
X64900000Y-61240000D02*
X64900000Y-64483000D01*
X64940000Y-55539000D02*
X64940000Y-58760000D01*
X64940000Y-61240000D02*
X64940000Y-64461000D01*
X64980000Y-55561000D02*
X64980000Y-58760000D01*
X64980000Y-61240000D02*
X64980000Y-64439000D01*
X65020000Y-55583000D02*
X65020000Y-58760000D01*
X65020000Y-61240000D02*
X65020000Y-64417000D01*
X65060000Y-55606000D02*
X65060000Y-58760000D01*
X65060000Y-61240000D02*
X65060000Y-64394000D01*
X65100000Y-55629000D02*
X65100000Y-58760000D01*
X65100000Y-61240000D02*
X65100000Y-64371000D01*
X65140000Y-55653000D02*
X65140000Y-58760000D01*
X65140000Y-61240000D02*
X65140000Y-64347000D01*
X65180000Y-55677000D02*
X65180000Y-58760000D01*
X65180000Y-61240000D02*
X65180000Y-64323000D01*
X65220000Y-55702000D02*
X65220000Y-58760000D01*
X65220000Y-61240000D02*
X65220000Y-64298000D01*
X65260000Y-55728000D02*
X65260000Y-58760000D01*
X65260000Y-61240000D02*
X65260000Y-64272000D01*
X65300000Y-55753000D02*
X65300000Y-58760000D01*
X65300000Y-61240000D02*
X65300000Y-64247000D01*
X65340000Y-55780000D02*
X65340000Y-58760000D01*
X65340000Y-61240000D02*
X65340000Y-64220000D01*
X65380000Y-55807000D02*
X65380000Y-58760000D01*
X65380000Y-61240000D02*
X65380000Y-64193000D01*
X65420000Y-55834000D02*
X65420000Y-58760000D01*
X65420000Y-61240000D02*
X65420000Y-64166000D01*
X65460000Y-55862000D02*
X65460000Y-58760000D01*
X65460000Y-61240000D02*
X65460000Y-64138000D01*
X65500000Y-55891000D02*
X65500000Y-58760000D01*
X65500000Y-61240000D02*
X65500000Y-64109000D01*
X65540000Y-55920000D02*
X65540000Y-58760000D01*
X65540000Y-61240000D02*
X65540000Y-64080000D01*
X65580000Y-55950000D02*
X65580000Y-58760000D01*
X65580000Y-61240000D02*
X65580000Y-64050000D01*
X65620000Y-55980000D02*
X65620000Y-58760000D01*
X65620000Y-61240000D02*
X65620000Y-64020000D01*
X65660000Y-56012000D02*
X65660000Y-58760000D01*
X65660000Y-61240000D02*
X65660000Y-63988000D01*
X65700000Y-56043000D02*
X65700000Y-58760000D01*
X65700000Y-61240000D02*
X65700000Y-63957000D01*
X65740000Y-56076000D02*
X65740000Y-58760000D01*
X65740000Y-61240000D02*
X65740000Y-63924000D01*
X65780000Y-56109000D02*
X65780000Y-58760000D01*
X65780000Y-61240000D02*
X65780000Y-63891000D01*
X65820000Y-56142000D02*
X65820000Y-58760000D01*
X65820000Y-61240000D02*
X65820000Y-63858000D01*
X65860000Y-56177000D02*
X65860000Y-58760000D01*
X65860000Y-61240000D02*
X65860000Y-63823000D01*
X65900000Y-56212000D02*
X65900000Y-58760000D01*
X65900000Y-61240000D02*
X65900000Y-63788000D01*
X65940000Y-56248000D02*
X65940000Y-58760000D01*
X65940000Y-61240000D02*
X65940000Y-63752000D01*
X65980000Y-56284000D02*
X65980000Y-58760000D01*
X65980000Y-61240000D02*
X65980000Y-63716000D01*
X66020000Y-56322000D02*
X66020000Y-58760000D01*
X66020000Y-61240000D02*
X66020000Y-63678000D01*
X66060000Y-56360000D02*
X66060000Y-58760000D01*
X66060000Y-61240000D02*
X66060000Y-63640000D01*
X66100000Y-56399000D02*
X66100000Y-58760000D01*
X66100000Y-61240000D02*
X66100000Y-63601000D01*
X66140000Y-56439000D02*
X66140000Y-58760000D01*
X66140000Y-61240000D02*
X66140000Y-63561000D01*
X66180000Y-56480000D02*
X66180000Y-58760000D01*
X66180000Y-61240000D02*
X66180000Y-63520000D01*
X66220000Y-56522000D02*
X66220000Y-58760000D01*
X66220000Y-61240000D02*
X66220000Y-63478000D01*
X66260000Y-56565000D02*
X66260000Y-63435000D01*
X66300000Y-56609000D02*
X66300000Y-63391000D01*
X66340000Y-56653000D02*
X66340000Y-63347000D01*
X66380000Y-56699000D02*
X66380000Y-63301000D01*
X66420000Y-56746000D02*
X66420000Y-63254000D01*
X66460000Y-56795000D02*
X66460000Y-63205000D01*
X66500000Y-56844000D02*
X66500000Y-63156000D01*
X66540000Y-56895000D02*
X66540000Y-63105000D01*
X66580000Y-56947000D02*
X66580000Y-63053000D01*
X66620000Y-57000000D02*
X66620000Y-63000000D01*
X66660000Y-57055000D02*
X66660000Y-62945000D01*
X66700000Y-57112000D02*
X66700000Y-62888000D01*
X66740000Y-57170000D02*
X66740000Y-62830000D01*
X66780000Y-57230000D02*
X66780000Y-62770000D01*
X66820000Y-57292000D02*
X66820000Y-62708000D01*
X66860000Y-57356000D02*
X66860000Y-62644000D01*
X66900000Y-57422000D02*
X66900000Y-62578000D01*
X66940000Y-57490000D02*
X66940000Y-62510000D01*
X66980000Y-57561000D02*
X66980000Y-62439000D01*
X67020000Y-57635000D02*
X67020000Y-62365000D01*
X67060000Y-57712000D02*
X67060000Y-62288000D01*
X67100000Y-57792000D02*
X67100000Y-62208000D01*
X67140000Y-57876000D02*
X67140000Y-62124000D01*
X67180000Y-57963000D02*
X67180000Y-62037000D01*
X67220000Y-58056000D02*
X67220000Y-61944000D01*
X67260000Y-58154000D02*
X67260000Y-61846000D01*
X67300000Y-58258000D02*
X67300000Y-61742000D01*
X67340000Y-58370000D02*
X67340000Y-61630000D01*
X67380000Y-58491000D02*
X67380000Y-61509000D01*
X67420000Y-58623000D02*
X67420000Y-61377000D01*
X67460000Y-58770000D02*
X67460000Y-61230000D01*
X67500000Y-58938000D02*
X67500000Y-61062000D01*
X67540000Y-59138000D02*
X67540000Y-60862000D01*
X67580000Y-59401000D02*
X67580000Y-60599000D01*
X67620000Y-60000000D02*
G75*
G02*
X57380000Y-60000000I-5120000J0D01*
G01*
X57380000Y-60000000D02*
G75*
G02*
X67620000Y-60000000I5120000J0D01*
G01*
%TO.C,J5*%
X97540000Y-22620000D02*
X97540000Y-25380000D01*
X102730000Y-22620000D02*
X97540000Y-22620000D01*
X102730000Y-22620000D02*
X102730000Y-25380000D01*
X102730000Y-25380000D02*
X97540000Y-25380000D01*
X104000000Y-22620000D02*
X105380000Y-22620000D01*
X105380000Y-22620000D02*
X105380000Y-24000000D01*
%TO.C,R3*%
X90272936Y-23090000D02*
X91727064Y-23090000D01*
X90272936Y-24910000D02*
X91727064Y-24910000D01*
%TO.C,F1*%
X15613748Y-4290000D02*
X18386252Y-4290000D01*
X15613748Y-7710000D02*
X18386252Y-7710000D01*
%TO.C,J11*%
X22620000Y-87380000D02*
X22620000Y-86000000D01*
X24000000Y-87380000D02*
X22620000Y-87380000D01*
X25270000Y-84620000D02*
X35540000Y-84620000D01*
X25270000Y-87380000D02*
X25270000Y-84620000D01*
X25270000Y-87380000D02*
X35540000Y-87380000D01*
X35540000Y-87380000D02*
X35540000Y-84620000D01*
%TO.C,C3*%
X82090000Y-61711252D02*
X82090000Y-60288748D01*
X83910000Y-61711252D02*
X83910000Y-60288748D01*
%TO.C,J8*%
X97540000Y-47620000D02*
X97540000Y-50380000D01*
X102730000Y-47620000D02*
X97540000Y-47620000D01*
X102730000Y-47620000D02*
X102730000Y-50380000D01*
X102730000Y-50380000D02*
X97540000Y-50380000D01*
X104000000Y-47620000D02*
X105380000Y-47620000D01*
X105380000Y-47620000D02*
X105380000Y-49000000D01*
%TO.C,R2*%
X90272936Y-16090000D02*
X91727064Y-16090000D01*
X90272936Y-17910000D02*
X91727064Y-17910000D01*
%TO.C,R10*%
X71272936Y-56090000D02*
X72727064Y-56090000D01*
X71272936Y-57910000D02*
X72727064Y-57910000D01*
%TO.C,D2*%
X30090000Y-60750000D02*
X38600000Y-60750000D01*
X30090000Y-67250000D02*
X30090000Y-60750000D01*
X30090000Y-67250000D02*
X38600000Y-67250000D01*
%TO.C,SW1*%
X8620000Y-67340000D02*
X8620000Y-68723000D01*
X8620000Y-67340000D02*
X10003000Y-67340000D01*
X8860000Y-67580000D02*
X8860000Y-80040000D01*
X8860000Y-67580000D02*
X18760000Y-67580000D01*
X8860000Y-80040000D02*
X18760000Y-80040000D01*
X13133333Y-69365000D02*
X13133333Y-70635000D01*
X13133333Y-71905000D02*
X13133333Y-73175000D01*
X13133333Y-74445000D02*
X13133333Y-75715000D01*
X13133333Y-76985000D02*
X13133333Y-78255000D01*
X18760000Y-67580000D02*
X18760000Y-80040000D01*
X11780000Y-69365000D02*
X13133333Y-69365000D01*
X13133333Y-70635000D01*
X11780000Y-70635000D01*
X11780000Y-69365000D01*
G36*
X11780000Y-69365000D02*
G01*
X13133333Y-69365000D01*
X13133333Y-70635000D01*
X11780000Y-70635000D01*
X11780000Y-69365000D01*
G37*
X11780000Y-69365000D02*
X15840000Y-69365000D01*
X15840000Y-70635000D01*
X11780000Y-70635000D01*
X11780000Y-69365000D01*
X11780000Y-71905000D02*
X13133333Y-71905000D01*
X13133333Y-73175000D01*
X11780000Y-73175000D01*
X11780000Y-71905000D01*
G36*
X11780000Y-71905000D02*
G01*
X13133333Y-71905000D01*
X13133333Y-73175000D01*
X11780000Y-73175000D01*
X11780000Y-71905000D01*
G37*
X11780000Y-71905000D02*
X15840000Y-71905000D01*
X15840000Y-73175000D01*
X11780000Y-73175000D01*
X11780000Y-71905000D01*
X11780000Y-74445000D02*
X13133333Y-74445000D01*
X13133333Y-75715000D01*
X11780000Y-75715000D01*
X11780000Y-74445000D01*
G36*
X11780000Y-74445000D02*
G01*
X13133333Y-74445000D01*
X13133333Y-75715000D01*
X11780000Y-75715000D01*
X11780000Y-74445000D01*
G37*
X11780000Y-74445000D02*
X15840000Y-74445000D01*
X15840000Y-75715000D01*
X11780000Y-75715000D01*
X11780000Y-74445000D01*
X11780000Y-76985000D02*
X13133333Y-76985000D01*
X13133333Y-78255000D01*
X11780000Y-78255000D01*
X11780000Y-76985000D01*
G36*
X11780000Y-76985000D02*
G01*
X13133333Y-76985000D01*
X13133333Y-78255000D01*
X11780000Y-78255000D01*
X11780000Y-76985000D01*
G37*
X11780000Y-76985000D02*
X15840000Y-76985000D01*
X15840000Y-78255000D01*
X11780000Y-78255000D01*
X11780000Y-76985000D01*
%TO.C,F2*%
X12860000Y-53230000D02*
X12860000Y-60170000D01*
X12860000Y-60170000D02*
X29060000Y-60170000D01*
X19360000Y-54700000D02*
X22560000Y-54700000D01*
X20210000Y-56700000D02*
X21710000Y-56700000D01*
X22560000Y-58700000D02*
X19360000Y-58700000D01*
X29060000Y-53230000D02*
X12860000Y-53230000D01*
X29060000Y-60170000D02*
X29060000Y-53230000D01*
%TO.C,J3*%
X97540000Y-8620000D02*
X97540000Y-11380000D01*
X102730000Y-8620000D02*
X97540000Y-8620000D01*
X102730000Y-8620000D02*
X102730000Y-11380000D01*
X102730000Y-11380000D02*
X97540000Y-11380000D01*
X104000000Y-8620000D02*
X105380000Y-8620000D01*
X105380000Y-8620000D02*
X105380000Y-10000000D01*
%TO.C,J1*%
X780000Y-9340000D02*
X10820000Y-9340000D01*
X780000Y-11700000D02*
X780000Y-9340000D01*
X780000Y-19740000D02*
X780000Y-12300000D01*
X1400000Y-9340000D02*
X1400000Y-19740000D01*
X2900000Y-9340000D02*
X2900000Y-19740000D01*
X7800000Y-9340000D02*
X7800000Y-19740000D01*
X10820000Y-9340000D02*
X10820000Y-19740000D01*
X10820000Y-19740000D02*
X780000Y-19740000D01*
X780000Y-12000000D02*
X170000Y-12440000D01*
X170000Y-11560000D01*
X780000Y-12000000D01*
G36*
X780000Y-12000000D02*
G01*
X170000Y-12440000D01*
X170000Y-11560000D01*
X780000Y-12000000D01*
G37*
%TO.C,C5*%
X42288748Y-14090000D02*
X43711252Y-14090000D01*
X42288748Y-15910000D02*
X43711252Y-15910000D01*
%TO.C,D4*%
X84400000Y-46135000D02*
X88285000Y-46135000D01*
X88285000Y-43865000D02*
X84400000Y-43865000D01*
X88285000Y-46135000D02*
X88285000Y-43865000D01*
%TO.C,R12*%
X78090000Y-61727064D02*
X78090000Y-60272936D01*
X79910000Y-61727064D02*
X79910000Y-60272936D01*
%TO.C,C1*%
X42020354Y-57125000D02*
X43020354Y-57125000D01*
X42520354Y-56625000D02*
X42520354Y-57625000D01*
X47500000Y-54920000D02*
X47500000Y-65080000D01*
X47540000Y-54920000D02*
X47540000Y-65080000D01*
X47580000Y-54921000D02*
X47580000Y-65079000D01*
X47620000Y-54921000D02*
X47620000Y-65079000D01*
X47660000Y-54923000D02*
X47660000Y-65077000D01*
X47700000Y-54924000D02*
X47700000Y-65076000D01*
X47740000Y-54926000D02*
X47740000Y-65074000D01*
X47780000Y-54928000D02*
X47780000Y-65072000D01*
X47820000Y-54930000D02*
X47820000Y-65070000D01*
X47860000Y-54933000D02*
X47860000Y-65067000D01*
X47900000Y-54936000D02*
X47900000Y-65064000D01*
X47940000Y-54939000D02*
X47940000Y-65061000D01*
X47980000Y-54943000D02*
X47980000Y-65057000D01*
X48020000Y-54946000D02*
X48020000Y-65054000D01*
X48060000Y-54951000D02*
X48060000Y-65049000D01*
X48100000Y-54955000D02*
X48100000Y-65045000D01*
X48140000Y-54960000D02*
X48140000Y-65040000D01*
X48180000Y-54965000D02*
X48180000Y-65035000D01*
X48220000Y-54971000D02*
X48220000Y-65029000D01*
X48260000Y-54977000D02*
X48260000Y-65023000D01*
X48300000Y-54983000D02*
X48300000Y-65017000D01*
X48340000Y-54989000D02*
X48340000Y-65011000D01*
X48380000Y-54996000D02*
X48380000Y-65004000D01*
X48420000Y-55003000D02*
X48420000Y-64997000D01*
X48460000Y-55011000D02*
X48460000Y-64989000D01*
X48500000Y-55019000D02*
X48500000Y-64981000D01*
X48540000Y-55027000D02*
X48540000Y-64973000D01*
X48580000Y-55035000D02*
X48580000Y-64965000D01*
X48620000Y-55044000D02*
X48620000Y-64956000D01*
X48660000Y-55053000D02*
X48660000Y-64947000D01*
X48700000Y-55063000D02*
X48700000Y-64937000D01*
X48740000Y-55072000D02*
X48740000Y-64928000D01*
X48780000Y-55083000D02*
X48780000Y-58760000D01*
X48780000Y-61240000D02*
X48780000Y-64917000D01*
X48820000Y-55093000D02*
X48820000Y-58760000D01*
X48820000Y-61240000D02*
X48820000Y-64907000D01*
X48860000Y-55104000D02*
X48860000Y-58760000D01*
X48860000Y-61240000D02*
X48860000Y-64896000D01*
X48900000Y-55115000D02*
X48900000Y-58760000D01*
X48900000Y-61240000D02*
X48900000Y-64885000D01*
X48940000Y-55127000D02*
X48940000Y-58760000D01*
X48940000Y-61240000D02*
X48940000Y-64873000D01*
X48980000Y-55139000D02*
X48980000Y-58760000D01*
X48980000Y-61240000D02*
X48980000Y-64861000D01*
X49020000Y-55151000D02*
X49020000Y-58760000D01*
X49020000Y-61240000D02*
X49020000Y-64849000D01*
X49060000Y-55163000D02*
X49060000Y-58760000D01*
X49060000Y-61240000D02*
X49060000Y-64837000D01*
X49100000Y-55176000D02*
X49100000Y-58760000D01*
X49100000Y-61240000D02*
X49100000Y-64824000D01*
X49140000Y-55190000D02*
X49140000Y-58760000D01*
X49140000Y-61240000D02*
X49140000Y-64810000D01*
X49180000Y-55203000D02*
X49180000Y-58760000D01*
X49180000Y-61240000D02*
X49180000Y-64797000D01*
X49220000Y-55218000D02*
X49220000Y-58760000D01*
X49220000Y-61240000D02*
X49220000Y-64782000D01*
X49260000Y-55232000D02*
X49260000Y-58760000D01*
X49260000Y-61240000D02*
X49260000Y-64768000D01*
X49300000Y-55247000D02*
X49300000Y-58760000D01*
X49300000Y-61240000D02*
X49300000Y-64753000D01*
X49340000Y-55262000D02*
X49340000Y-58760000D01*
X49340000Y-61240000D02*
X49340000Y-64738000D01*
X49380000Y-55278000D02*
X49380000Y-58760000D01*
X49380000Y-61240000D02*
X49380000Y-64722000D01*
X49420000Y-55294000D02*
X49420000Y-58760000D01*
X49420000Y-61240000D02*
X49420000Y-64706000D01*
X49460000Y-55310000D02*
X49460000Y-58760000D01*
X49460000Y-61240000D02*
X49460000Y-64690000D01*
X49500000Y-55327000D02*
X49500000Y-58760000D01*
X49500000Y-61240000D02*
X49500000Y-64673000D01*
X49540000Y-55344000D02*
X49540000Y-58760000D01*
X49540000Y-61240000D02*
X49540000Y-64656000D01*
X49580000Y-55362000D02*
X49580000Y-58760000D01*
X49580000Y-61240000D02*
X49580000Y-64638000D01*
X49620000Y-55380000D02*
X49620000Y-58760000D01*
X49620000Y-61240000D02*
X49620000Y-64620000D01*
X49660000Y-55398000D02*
X49660000Y-58760000D01*
X49660000Y-61240000D02*
X49660000Y-64602000D01*
X49700000Y-55417000D02*
X49700000Y-58760000D01*
X49700000Y-61240000D02*
X49700000Y-64583000D01*
X49740000Y-55436000D02*
X49740000Y-58760000D01*
X49740000Y-61240000D02*
X49740000Y-64564000D01*
X49780000Y-55456000D02*
X49780000Y-58760000D01*
X49780000Y-61240000D02*
X49780000Y-64544000D01*
X49820000Y-55476000D02*
X49820000Y-58760000D01*
X49820000Y-61240000D02*
X49820000Y-64524000D01*
X49860000Y-55496000D02*
X49860000Y-58760000D01*
X49860000Y-61240000D02*
X49860000Y-64504000D01*
X49900000Y-55517000D02*
X49900000Y-58760000D01*
X49900000Y-61240000D02*
X49900000Y-64483000D01*
X49940000Y-55539000D02*
X49940000Y-58760000D01*
X49940000Y-61240000D02*
X49940000Y-64461000D01*
X49980000Y-55561000D02*
X49980000Y-58760000D01*
X49980000Y-61240000D02*
X49980000Y-64439000D01*
X50020000Y-55583000D02*
X50020000Y-58760000D01*
X50020000Y-61240000D02*
X50020000Y-64417000D01*
X50060000Y-55606000D02*
X50060000Y-58760000D01*
X50060000Y-61240000D02*
X50060000Y-64394000D01*
X50100000Y-55629000D02*
X50100000Y-58760000D01*
X50100000Y-61240000D02*
X50100000Y-64371000D01*
X50140000Y-55653000D02*
X50140000Y-58760000D01*
X50140000Y-61240000D02*
X50140000Y-64347000D01*
X50180000Y-55677000D02*
X50180000Y-58760000D01*
X50180000Y-61240000D02*
X50180000Y-64323000D01*
X50220000Y-55702000D02*
X50220000Y-58760000D01*
X50220000Y-61240000D02*
X50220000Y-64298000D01*
X50260000Y-55728000D02*
X50260000Y-58760000D01*
X50260000Y-61240000D02*
X50260000Y-64272000D01*
X50300000Y-55753000D02*
X50300000Y-58760000D01*
X50300000Y-61240000D02*
X50300000Y-64247000D01*
X50340000Y-55780000D02*
X50340000Y-58760000D01*
X50340000Y-61240000D02*
X50340000Y-64220000D01*
X50380000Y-55807000D02*
X50380000Y-58760000D01*
X50380000Y-61240000D02*
X50380000Y-64193000D01*
X50420000Y-55834000D02*
X50420000Y-58760000D01*
X50420000Y-61240000D02*
X50420000Y-64166000D01*
X50460000Y-55862000D02*
X50460000Y-58760000D01*
X50460000Y-61240000D02*
X50460000Y-64138000D01*
X50500000Y-55891000D02*
X50500000Y-58760000D01*
X50500000Y-61240000D02*
X50500000Y-64109000D01*
X50540000Y-55920000D02*
X50540000Y-58760000D01*
X50540000Y-61240000D02*
X50540000Y-64080000D01*
X50580000Y-55950000D02*
X50580000Y-58760000D01*
X50580000Y-61240000D02*
X50580000Y-64050000D01*
X50620000Y-55980000D02*
X50620000Y-58760000D01*
X50620000Y-61240000D02*
X50620000Y-64020000D01*
X50660000Y-56012000D02*
X50660000Y-58760000D01*
X50660000Y-61240000D02*
X50660000Y-63988000D01*
X50700000Y-56043000D02*
X50700000Y-58760000D01*
X50700000Y-61240000D02*
X50700000Y-63957000D01*
X50740000Y-56076000D02*
X50740000Y-58760000D01*
X50740000Y-61240000D02*
X50740000Y-63924000D01*
X50780000Y-56109000D02*
X50780000Y-58760000D01*
X50780000Y-61240000D02*
X50780000Y-63891000D01*
X50820000Y-56142000D02*
X50820000Y-58760000D01*
X50820000Y-61240000D02*
X50820000Y-63858000D01*
X50860000Y-56177000D02*
X50860000Y-58760000D01*
X50860000Y-61240000D02*
X50860000Y-63823000D01*
X50900000Y-56212000D02*
X50900000Y-58760000D01*
X50900000Y-61240000D02*
X50900000Y-63788000D01*
X50940000Y-56248000D02*
X50940000Y-58760000D01*
X50940000Y-61240000D02*
X50940000Y-63752000D01*
X50980000Y-56284000D02*
X50980000Y-58760000D01*
X50980000Y-61240000D02*
X50980000Y-63716000D01*
X51020000Y-56322000D02*
X51020000Y-58760000D01*
X51020000Y-61240000D02*
X51020000Y-63678000D01*
X51060000Y-56360000D02*
X51060000Y-58760000D01*
X51060000Y-61240000D02*
X51060000Y-63640000D01*
X51100000Y-56399000D02*
X51100000Y-58760000D01*
X51100000Y-61240000D02*
X51100000Y-63601000D01*
X51140000Y-56439000D02*
X51140000Y-58760000D01*
X51140000Y-61240000D02*
X51140000Y-63561000D01*
X51180000Y-56480000D02*
X51180000Y-58760000D01*
X51180000Y-61240000D02*
X51180000Y-63520000D01*
X51220000Y-56522000D02*
X51220000Y-58760000D01*
X51220000Y-61240000D02*
X51220000Y-63478000D01*
X51260000Y-56565000D02*
X51260000Y-63435000D01*
X51300000Y-56609000D02*
X51300000Y-63391000D01*
X51340000Y-56653000D02*
X51340000Y-63347000D01*
X51380000Y-56699000D02*
X51380000Y-63301000D01*
X51420000Y-56746000D02*
X51420000Y-63254000D01*
X51460000Y-56795000D02*
X51460000Y-63205000D01*
X51500000Y-56844000D02*
X51500000Y-63156000D01*
X51540000Y-56895000D02*
X51540000Y-63105000D01*
X51580000Y-56947000D02*
X51580000Y-63053000D01*
X51620000Y-57000000D02*
X51620000Y-63000000D01*
X51660000Y-57055000D02*
X51660000Y-62945000D01*
X51700000Y-57112000D02*
X51700000Y-62888000D01*
X51740000Y-57170000D02*
X51740000Y-62830000D01*
X51780000Y-57230000D02*
X51780000Y-62770000D01*
X51820000Y-57292000D02*
X51820000Y-62708000D01*
X51860000Y-57356000D02*
X51860000Y-62644000D01*
X51900000Y-57422000D02*
X51900000Y-62578000D01*
X51940000Y-57490000D02*
X51940000Y-62510000D01*
X51980000Y-57561000D02*
X51980000Y-62439000D01*
X52020000Y-57635000D02*
X52020000Y-62365000D01*
X52060000Y-57712000D02*
X52060000Y-62288000D01*
X52100000Y-57792000D02*
X52100000Y-62208000D01*
X52140000Y-57876000D02*
X52140000Y-62124000D01*
X52180000Y-57963000D02*
X52180000Y-62037000D01*
X52220000Y-58056000D02*
X52220000Y-61944000D01*
X52260000Y-58154000D02*
X52260000Y-61846000D01*
X52300000Y-58258000D02*
X52300000Y-61742000D01*
X52340000Y-58370000D02*
X52340000Y-61630000D01*
X52380000Y-58491000D02*
X52380000Y-61509000D01*
X52420000Y-58623000D02*
X52420000Y-61377000D01*
X52460000Y-58770000D02*
X52460000Y-61230000D01*
X52500000Y-58938000D02*
X52500000Y-61062000D01*
X52540000Y-59138000D02*
X52540000Y-60862000D01*
X52580000Y-59401000D02*
X52580000Y-60599000D01*
X52620000Y-60000000D02*
G75*
G02*
X42380000Y-60000000I-5120000J0D01*
G01*
X42380000Y-60000000D02*
G75*
G02*
X52620000Y-60000000I5120000J0D01*
G01*
%TO.C,R11*%
X78090000Y-55727064D02*
X78090000Y-54272936D01*
X79910000Y-55727064D02*
X79910000Y-54272936D01*
%TO.C,R4*%
X90272936Y-34090000D02*
X91727064Y-34090000D01*
X90272936Y-35910000D02*
X91727064Y-35910000D01*
%TO.C,U1*%
X29390000Y-10560000D02*
X29390000Y-11800000D01*
X29390000Y-11800000D02*
X30630000Y-11800000D01*
X29630000Y-2940000D02*
X41350000Y-2940000D01*
X29630000Y-11560000D02*
X29630000Y-2940000D01*
X41350000Y-2940000D02*
X41350000Y-11560000D01*
X41350000Y-11560000D02*
X29630000Y-11560000D01*
%TO.C,R5*%
X90272936Y-41090000D02*
X91727064Y-41090000D01*
X90272936Y-42910000D02*
X91727064Y-42910000D01*
%TO.C,D3*%
X70400000Y-62135000D02*
X74285000Y-62135000D01*
X74285000Y-59865000D02*
X70400000Y-59865000D01*
X74285000Y-62135000D02*
X74285000Y-59865000D01*
%TO.C,C4*%
X30288748Y-14090000D02*
X31711252Y-14090000D01*
X30288748Y-15910000D02*
X31711252Y-15910000D01*
%TO.C,J2*%
X780000Y-52340000D02*
X10820000Y-52340000D01*
X780000Y-54700000D02*
X780000Y-52340000D01*
X780000Y-62740000D02*
X780000Y-55300000D01*
X1400000Y-52340000D02*
X1400000Y-62740000D01*
X2900000Y-52340000D02*
X2900000Y-62740000D01*
X7800000Y-52340000D02*
X7800000Y-62740000D01*
X10820000Y-52340000D02*
X10820000Y-62740000D01*
X10820000Y-62740000D02*
X780000Y-62740000D01*
X780000Y-55000000D02*
X170000Y-55440000D01*
X170000Y-54560000D01*
X780000Y-55000000D01*
G36*
X780000Y-55000000D02*
G01*
X170000Y-55440000D01*
X170000Y-54560000D01*
X780000Y-55000000D01*
G37*
%TO.C,R1*%
X90272936Y-9090000D02*
X91727064Y-9090000D01*
X90272936Y-10910000D02*
X91727064Y-10910000D01*
%TO.C,R6*%
X90272936Y-48090000D02*
X91727064Y-48090000D01*
X90272936Y-49910000D02*
X91727064Y-49910000D01*
%TO.C,J6*%
X97540000Y-33620000D02*
X97540000Y-36380000D01*
X102730000Y-33620000D02*
X97540000Y-33620000D01*
X102730000Y-33620000D02*
X102730000Y-36380000D01*
X102730000Y-36380000D02*
X97540000Y-36380000D01*
X104000000Y-33620000D02*
X105380000Y-33620000D01*
X105380000Y-33620000D02*
X105380000Y-35000000D01*
%TO.C,J4*%
X97540000Y-15620000D02*
X97540000Y-18380000D01*
X102730000Y-15620000D02*
X97540000Y-15620000D01*
X102730000Y-15620000D02*
X102730000Y-18380000D01*
X102730000Y-18380000D02*
X97540000Y-18380000D01*
X104000000Y-15620000D02*
X105380000Y-15620000D01*
X105380000Y-15620000D02*
X105380000Y-17000000D01*
%TO.C,A1*%
X31060000Y-23360000D02*
X31060000Y-41400000D01*
X31060000Y-41400000D02*
X33730000Y-41400000D01*
X33730000Y-26030000D02*
X33730000Y-23360000D01*
X33730000Y-26030000D02*
X71830000Y-26030000D01*
X33730000Y-38730000D02*
X33730000Y-41400000D01*
X36270000Y-38730000D02*
X33730000Y-38730000D01*
X36270000Y-38730000D02*
X36270000Y-41400000D01*
X36270000Y-38730000D02*
X71830000Y-38730000D01*
X36270000Y-41400000D02*
X74500000Y-41400000D01*
X66620000Y-28440000D02*
X77040000Y-28440000D01*
X66620000Y-36320000D02*
X66620000Y-28440000D01*
X71830000Y-26030000D02*
X71830000Y-23360000D01*
X71830000Y-38730000D02*
X71830000Y-41400000D01*
X74500000Y-23360000D02*
X31060000Y-23360000D01*
X74500000Y-23360000D02*
X74500000Y-28440000D01*
X74500000Y-41400000D02*
X74500000Y-36320000D01*
X77040000Y-28440000D02*
X77040000Y-36320000D01*
X77040000Y-36320000D02*
X66620000Y-36320000D01*
%TD*%
M02*
