M48
; DRILL file KiCad 10.0.4 date 2026-10-01T20:15:12
; FORMAT={-:-/ absolute / metric / decimal}
; #@! TF.CreationDate,2026-10-01T20:15:12+02:00
; #@! TF.GenerationSoftware,Kicad,Pcbnew,10.0.4
; #@! TF.FileFunction,Plated,1,2,PTH
FMAT,2
METRIC
; #@! TA.AperFunction,Plated,PTH,ViaDrill
T1C0.300
; #@! TA.AperFunction,Plated,PTH,ComponentDrill
T2C0.800
; #@! TA.AperFunction,Plated,PTH,ComponentDrill
T3C1.000
; #@! TA.AperFunction,Plated,PTH,ComponentDrill
T4C1.300
; #@! TA.AperFunction,Plated,PTH,ComponentDrill
T5C1.780
%
G90
G05
T1
X10.324Y-27.541
X40.624Y-64.112
X44.086Y-28.507
X51.227Y-65.825
X52.022Y-74.097
X58.714Y-64.727
X66.973Y-44.941
X69.463Y-57.182
X70.032Y-76.24
X72.871Y-27.541
X86.855Y-29.816
X87.763Y-30.451
X87.763Y-39.18
X88.639Y-45.0
X89.029Y-25.426
X89.029Y-36.745
T2
X10.0Y-70.0
X10.0Y-72.54
X10.0Y-75.08
X10.0Y-77.62
X17.62Y-70.0
X17.62Y-72.54
X17.62Y-75.08
X17.62Y-77.62
T3
X24.0Y-86.0
X26.54Y-86.0
X29.08Y-86.0
X31.62Y-86.0
X33.0Y-9.5
X34.16Y-86.0
X35.0Y-24.76
X35.0Y-40.0
X35.54Y-9.5
X37.54Y-24.76
X37.54Y-40.0
X38.08Y-9.5
X40.08Y-24.76
X40.08Y-40.0
X42.62Y-24.76
X42.62Y-40.0
X45.0Y-60.0
X45.16Y-24.76
X45.16Y-40.0
X47.7Y-24.76
X47.7Y-40.0
X50.0Y-60.0
X50.24Y-24.76
X50.24Y-40.0
X52.78Y-24.76
X52.78Y-40.0
X55.0Y-71.5
X55.0Y-74.04
X55.32Y-24.76
X55.32Y-40.0
X57.86Y-24.76
X57.86Y-40.0
X60.0Y-60.0
X60.4Y-24.76
X60.4Y-40.0
X62.94Y-24.76
X62.94Y-40.0
X65.0Y-60.0
X65.48Y-24.76
X65.48Y-40.0
X68.02Y-24.76
X68.02Y-40.0
X70.56Y-24.76
X70.56Y-40.0
X98.92Y-10.0
X98.92Y-17.0
X98.92Y-24.0
X98.92Y-35.0
X98.92Y-42.0
X98.92Y-49.0
X101.46Y-10.0
X101.46Y-17.0
X101.46Y-24.0
X101.46Y-35.0
X101.46Y-42.0
X101.46Y-49.0
X104.0Y-10.0
X104.0Y-17.0
X104.0Y-24.0
X104.0Y-35.0
X104.0Y-42.0
X104.0Y-49.0
T4
X5.5Y-12.0
X5.5Y-17.08
X5.5Y-55.0
X5.5Y-60.08
X58.0Y-84.0
X63.08Y-84.0
X68.16Y-84.0
X75.0Y-84.0
X80.08Y-84.0
X85.16Y-84.0
T5
X16.0Y-55.0
X16.0Y-58.4
X25.92Y-55.0
X25.92Y-58.4
M30
