%TF.GenerationSoftware,KiCad,Pcbnew,10.0.4*%
%TF.CreationDate,2026-10-01T20:15:12+02:00*%
%TF.ProjectId,EyeNode,4579654e-6f64-4652-9e6b-696361645f70,rev?*%
%TF.SameCoordinates,Original*%
%TF.FileFunction,Copper,L2,Bot*%
%TF.FilePolarity,Positive*%
%FSLAX46Y46*%
G04 Gerber Fmt 4.6, Leading zero omitted, Abs format (unit mm)*
G04 Created by KiCad (PCBNEW 10.0.4) date 2026-10-01 20:15:12*
%MOMM*%
%LPD*%
G01*
G04 APERTURE LIST*
G04 Aperture macros list*
%AMRoundRect*
0 Rectangle with rounded corners*
0 $1 Rounding radius*
0 $2 $3 $4 $5 $6 $7 $8 $9 X,Y pos of 4 corners*
0 Add a 4 corners polygon primitive as box body*
4,1,4,$2,$3,$4,$5,$6,$7,$8,$9,$2,$3,0*
0 Add four circle primitives for the rounded corners*
1,1,$1+$1,$2,$3*
1,1,$1+$1,$4,$5*
1,1,$1+$1,$6,$7*
1,1,$1+$1,$8,$9*
0 Add four rect primitives between the rounded corners*
20,1,$1+$1,$2,$3,$4,$5,0*
20,1,$1+$1,$4,$5,$6,$7,0*
20,1,$1+$1,$6,$7,$8,$9,0*
20,1,$1+$1,$8,$9,$2,$3,0*%
G04 Aperture macros list end*
%TA.AperFunction,ComponentPad*%
%ADD10R,1.700000X1.700000*%
%TD*%
%TA.AperFunction,ComponentPad*%
%ADD11C,1.700000*%
%TD*%
%TA.AperFunction,ComponentPad*%
%ADD12R,1.500000X2.300000*%
%TD*%
%TA.AperFunction,ComponentPad*%
%ADD13O,1.500000X2.300000*%
%TD*%
%TA.AperFunction,ComponentPad*%
%ADD14RoundRect,0.250000X-1.050000X1.050000X-1.050000X-1.050000X1.050000X-1.050000X1.050000X1.050000X0*%
%TD*%
%TA.AperFunction,ComponentPad*%
%ADD15C,2.600000*%
%TD*%
%TA.AperFunction,ComponentPad*%
%ADD16R,1.600000X1.600000*%
%TD*%
%TA.AperFunction,ComponentPad*%
%ADD17O,1.600000X1.600000*%
%TD*%
%TA.AperFunction,ComponentPad*%
%ADD18RoundRect,0.250000X-0.550000X-0.550000X0.550000X-0.550000X0.550000X0.550000X-0.550000X0.550000X0*%
%TD*%
%TA.AperFunction,ComponentPad*%
%ADD19C,1.600000*%
%TD*%
%TA.AperFunction,ComponentPad*%
%ADD20RoundRect,0.250000X-0.750000X-0.750000X0.750000X-0.750000X0.750000X0.750000X-0.750000X0.750000X0*%
%TD*%
%TA.AperFunction,ComponentPad*%
%ADD21C,2.000000*%
%TD*%
%TA.AperFunction,ComponentPad*%
%ADD22RoundRect,0.250000X-1.050000X-1.050000X1.050000X-1.050000X1.050000X1.050000X-1.050000X1.050000X0*%
%TD*%
%TA.AperFunction,ComponentPad*%
%ADD23C,2.780000*%
%TD*%
%TA.AperFunction,ViaPad*%
%ADD24C,0.600000*%
%TD*%
%TA.AperFunction,Conductor*%
%ADD25C,0.200000*%
%TD*%
%TA.AperFunction,Conductor*%
%ADD26C,2.000000*%
%TD*%
G04 APERTURE END LIST*
D10*
%TO.P,J5,1*%
%TO.N,/GND*%
X104000000Y-24000000D03*
D11*
%TO.P,J5,2*%
%TO.N,/VSERVO*%
X101460000Y-24000000D03*
%TO.P,J5,3*%
%TO.N,/SIG_A_LID*%
X98920000Y-24000000D03*
%TD*%
D12*
%TO.P,U1,1*%
%TO.N,/VLOGIC*%
X33000000Y-9500000D03*
D13*
%TO.P,U1,2*%
%TO.N,/GND*%
X35540000Y-9500000D03*
%TO.P,U1,3*%
%TO.N,/+5V*%
X38080000Y-9500000D03*
%TD*%
D14*
%TO.P,J2,1*%
%TO.N,/VSERVO_IN*%
X5500000Y-55000000D03*
D15*
%TO.P,J2,2*%
%TO.N,/GND*%
X5500000Y-60080000D03*
%TD*%
D10*
%TO.P,J6,1*%
%TO.N,/GND*%
X104000000Y-35000000D03*
D11*
%TO.P,J6,2*%
%TO.N,/VSERVO*%
X101460000Y-35000000D03*
%TO.P,J6,3*%
%TO.N,/SIG_B_LR*%
X98920000Y-35000000D03*
%TD*%
D16*
%TO.P,A1,1*%
%TO.N,unconnected-(A1-D1{slash}TX-Pad1)*%
X35000000Y-40000000D03*
D17*
%TO.P,A1,2*%
%TO.N,unconnected-(A1-D0{slash}RX-Pad2)*%
X37540000Y-40000000D03*
%TO.P,A1,3*%
%TO.N,unconnected-(A1-~{RESET}-Pad3)*%
X40080000Y-40000000D03*
%TO.P,A1,4*%
%TO.N,/GND*%
X42620000Y-40000000D03*
%TO.P,A1,5*%
%TO.N,unconnected-(A1-D2-Pad5)*%
X45160000Y-40000000D03*
%TO.P,A1,6*%
%TO.N,/PWM_A_LR*%
X47700000Y-40000000D03*
%TO.P,A1,7*%
%TO.N,/RS485_DE*%
X50240000Y-40000000D03*
%TO.P,A1,8*%
%TO.N,/PWM_A_UD*%
X52780000Y-40000000D03*
%TO.P,A1,9*%
%TO.N,/PWM_A_LID*%
X55320000Y-40000000D03*
%TO.P,A1,10*%
%TO.N,/RS485_TX*%
X57860000Y-40000000D03*
%TO.P,A1,11*%
%TO.N,/RS485_RX*%
X60400000Y-40000000D03*
%TO.P,A1,12*%
%TO.N,/PWM_B_LR*%
X62940000Y-40000000D03*
%TO.P,A1,13*%
%TO.N,/PWM_B_UD*%
X65480000Y-40000000D03*
%TO.P,A1,14*%
%TO.N,/PWM_B_LID*%
X68020000Y-40000000D03*
%TO.P,A1,15*%
%TO.N,/LED_STAT_D*%
X70560000Y-40000000D03*
%TO.P,A1,16*%
%TO.N,unconnected-(A1-D13-Pad16)*%
X70560000Y-24760000D03*
%TO.P,A1,17*%
%TO.N,unconnected-(A1-3V3-Pad17)*%
X68020000Y-24760000D03*
%TO.P,A1,18*%
%TO.N,unconnected-(A1-AREF-Pad18)*%
X65480000Y-24760000D03*
%TO.P,A1,19*%
%TO.N,/ADDR0*%
X62940000Y-24760000D03*
%TO.P,A1,20*%
%TO.N,/ADDR1*%
X60400000Y-24760000D03*
%TO.P,A1,21*%
%TO.N,/ADDR2*%
X57860000Y-24760000D03*
%TO.P,A1,22*%
%TO.N,/ADDR3*%
X55320000Y-24760000D03*
%TO.P,A1,23*%
%TO.N,/AUX_SDA*%
X52780000Y-24760000D03*
%TO.P,A1,24*%
%TO.N,/AUX_SCL*%
X50240000Y-24760000D03*
%TO.P,A1,25*%
%TO.N,/AUX_A6*%
X47700000Y-24760000D03*
%TO.P,A1,26*%
%TO.N,/VSENSE*%
X45160000Y-24760000D03*
%TO.P,A1,27*%
%TO.N,/+5V*%
X42620000Y-24760000D03*
%TO.P,A1,28*%
%TO.N,unconnected-(A1-~{RESET}-Pad28)*%
X40080000Y-24760000D03*
%TO.P,A1,29*%
%TO.N,/GND*%
X37540000Y-24760000D03*
%TO.P,A1,30*%
%TO.N,unconnected-(A1-VIN-Pad30)*%
X35000000Y-24760000D03*
%TD*%
D10*
%TO.P,J7,1*%
%TO.N,/GND*%
X104000000Y-42000000D03*
D11*
%TO.P,J7,2*%
%TO.N,/VSERVO*%
X101460000Y-42000000D03*
%TO.P,J7,3*%
%TO.N,/SIG_B_UD*%
X98920000Y-42000000D03*
%TD*%
D18*
%TO.P,SW1,1*%
%TO.N,/ADDR0*%
X10000000Y-70000000D03*
D19*
%TO.P,SW1,2*%
%TO.N,/ADDR1*%
X10000000Y-72540000D03*
%TO.P,SW1,3*%
%TO.N,/ADDR2*%
X10000000Y-75080000D03*
%TO.P,SW1,4*%
%TO.N,/ADDR3*%
X10000000Y-77620000D03*
%TO.P,SW1,5*%
%TO.N,/GND*%
X17620000Y-77620000D03*
%TO.P,SW1,6*%
X17620000Y-75080000D03*
%TO.P,SW1,7*%
X17620000Y-72540000D03*
%TO.P,SW1,8*%
X17620000Y-70000000D03*
%TD*%
D20*
%TO.P,C1,1*%
%TO.N,/VSERVO*%
X45000000Y-60000000D03*
D21*
%TO.P,C1,2*%
%TO.N,/GND*%
X50000000Y-60000000D03*
%TD*%
D22*
%TO.P,J10,1*%
%TO.N,/RS485_A*%
X75000000Y-84000000D03*
D15*
%TO.P,J10,2*%
%TO.N,/RS485_B*%
X80080000Y-84000000D03*
%TO.P,J10,3*%
%TO.N,/GND*%
X85160000Y-84000000D03*
%TD*%
D14*
%TO.P,J1,1*%
%TO.N,/VIN_RAW*%
X5500000Y-12000000D03*
D15*
%TO.P,J1,2*%
%TO.N,/GND*%
X5500000Y-17080000D03*
%TD*%
D10*
%TO.P,JP1,1*%
%TO.N,/TERM*%
X55000000Y-71500000D03*
D11*
%TO.P,JP1,2*%
%TO.N,/RS485_B*%
X55000000Y-74040000D03*
%TD*%
D10*
%TO.P,J8,1*%
%TO.N,/GND*%
X104000000Y-49000000D03*
D11*
%TO.P,J8,2*%
%TO.N,/VSERVO*%
X101460000Y-49000000D03*
%TO.P,J8,3*%
%TO.N,/SIG_B_LID*%
X98920000Y-49000000D03*
%TD*%
D10*
%TO.P,J3,1*%
%TO.N,/GND*%
X104000000Y-10000000D03*
D11*
%TO.P,J3,2*%
%TO.N,/VSERVO*%
X101460000Y-10000000D03*
%TO.P,J3,3*%
%TO.N,/SIG_A_LR*%
X98920000Y-10000000D03*
%TD*%
D10*
%TO.P,J4,1*%
%TO.N,/GND*%
X104000000Y-17000000D03*
D11*
%TO.P,J4,2*%
%TO.N,/VSERVO*%
X101460000Y-17000000D03*
%TO.P,J4,3*%
%TO.N,/SIG_A_UD*%
X98920000Y-17000000D03*
%TD*%
D22*
%TO.P,J9,1*%
%TO.N,/RS485_A*%
X58000000Y-84000000D03*
D15*
%TO.P,J9,2*%
%TO.N,/RS485_B*%
X63080000Y-84000000D03*
%TO.P,J9,3*%
%TO.N,/GND*%
X68160000Y-84000000D03*
%TD*%
D20*
%TO.P,C2,1*%
%TO.N,/VSERVO*%
X60000000Y-60000000D03*
D21*
%TO.P,C2,2*%
%TO.N,/GND*%
X65000000Y-60000000D03*
%TD*%
D23*
%TO.P,F2,1*%
%TO.N,/VSERVO_IN*%
X16000000Y-55000000D03*
X16000000Y-58400000D03*
%TO.P,F2,2*%
%TO.N,/VSERVO*%
X25920000Y-55000000D03*
X25920000Y-58400000D03*
%TD*%
D10*
%TO.P,J11,1*%
%TO.N,/+5V*%
X24000000Y-86000000D03*
D11*
%TO.P,J11,2*%
%TO.N,/AUX_SDA*%
X26540000Y-86000000D03*
%TO.P,J11,3*%
%TO.N,/AUX_SCL*%
X29080000Y-86000000D03*
%TO.P,J11,4*%
%TO.N,/AUX_A6*%
X31620000Y-86000000D03*
%TO.P,J11,5*%
%TO.N,/GND*%
X34160000Y-86000000D03*
%TD*%
D24*
%TO.N,/GND*%
X44086400Y-28506700D03*
X40624300Y-64112000D03*
%TO.N,/VSERVO*%
X69463200Y-57182200D03*
%TO.N,/+5V*%
X70031700Y-76239600D03*
%TO.N,/PWM_A_LID*%
X87762800Y-30451100D03*
%TO.N,/RS485_DE*%
X66972700Y-44941000D03*
%TO.N,/VSENSE*%
X72870800Y-27541400D03*
%TO.N,/PWM_A_LR*%
X89029200Y-25426100D03*
%TO.N,/PWM_B_LR*%
X89029200Y-36745500D03*
%TO.N,/PWM_A_UD*%
X86854800Y-29816400D03*
%TO.N,/PWM_B_UD*%
X87762800Y-39180200D03*
%TO.N,/PWM_B_LID*%
X88639000Y-44999600D03*
%TO.N,/ADDR0*%
X58714000Y-64726900D03*
%TO.N,/ADDR1*%
X10324400Y-27541400D03*
%TO.N,/ADDR2*%
X51227400Y-65824600D03*
%TO.N,/ADDR3*%
X52022000Y-74096600D03*
%TD*%
%TO.N,/GND*%
D25*
X37540000Y-24760000D02*
X38641700Y-24760000D01*
X65000000Y-60000000D02*
X63671500Y-61328500D01*
X42250700Y-28506700D02*
X44086400Y-28506700D01*
X27852100Y-17080000D02*
X34488300Y-10443800D01*
X43407800Y-61328500D02*
X40624300Y-64112000D01*
X5500000Y-17080000D02*
X27852100Y-17080000D01*
X38641700Y-24760000D02*
X38641700Y-24897700D01*
X25780000Y-77620000D02*
X34160000Y-86000000D01*
X38641700Y-24897700D02*
X42250700Y-28506700D01*
X34488300Y-10443800D02*
X34488300Y-9500000D01*
X35540000Y-9500000D02*
X34488300Y-9500000D01*
X63671500Y-61328500D02*
X50000000Y-61328500D01*
X50000000Y-61328500D02*
X43407800Y-61328500D01*
X17620000Y-77620000D02*
X25780000Y-77620000D01*
X50000000Y-61328500D02*
X50000000Y-60000000D01*
%TO.N,/VSERVO*%
X46346700Y-58653300D02*
X45000000Y-60000000D01*
X60000000Y-58653300D02*
X61471100Y-57182200D01*
X60000000Y-58653300D02*
X46346700Y-58653300D01*
X25920000Y-58400000D02*
X43400000Y-58400000D01*
X61471100Y-57182200D02*
X69463200Y-57182200D01*
D26*
X101460000Y-10000000D02*
X101460000Y-49000000D01*
D25*
X60000000Y-58653300D02*
X60000000Y-60000000D01*
X43400000Y-58400000D02*
X45000000Y-60000000D01*
X93277800Y-57182200D02*
X101460000Y-49000000D01*
X69463200Y-57182200D02*
X93277800Y-57182200D01*
%TO.N,/+5V*%
X35619300Y-87151700D02*
X26015400Y-87151700D01*
X46531400Y-76239600D02*
X35619300Y-87151700D01*
X70031700Y-76239600D02*
X46531400Y-76239600D01*
X24000000Y-86000000D02*
X25151700Y-86000000D01*
X26015400Y-87151700D02*
X25151700Y-86288000D01*
X25151700Y-86288000D02*
X25151700Y-86000000D01*
%TO.N,/PWM_A_LID*%
X56421700Y-39775900D02*
X65010100Y-31187500D01*
X55320000Y-40000000D02*
X56421700Y-40000000D01*
X87026400Y-31187500D02*
X87762800Y-30451100D01*
X56421700Y-40000000D02*
X56421700Y-39775900D01*
X65010100Y-31187500D02*
X87026400Y-31187500D01*
%TO.N,/VSERVO_IN*%
X5500000Y-55000000D02*
X16000000Y-55000000D01*
%TO.N,/RS485_DE*%
X51341700Y-40228300D02*
X51341700Y-40000000D01*
X56054400Y-44941000D02*
X51341700Y-40228300D01*
X50240000Y-40000000D02*
X51341700Y-40000000D01*
X66972700Y-44941000D02*
X56054400Y-44941000D01*
%TO.N,/RS485_A*%
X75000000Y-84000000D02*
X73390500Y-85609500D01*
X59609500Y-85609500D02*
X58000000Y-84000000D01*
X73390500Y-85609500D02*
X59609500Y-85609500D01*
%TO.N,/RS485_B*%
X78477300Y-82397300D02*
X80080000Y-84000000D01*
X63080000Y-84000000D02*
X64682700Y-82397300D01*
X64682700Y-82397300D02*
X78477300Y-82397300D01*
%TO.N,/VSENSE*%
X48814800Y-27541400D02*
X46261700Y-24988300D01*
X45160000Y-24760000D02*
X46261700Y-24760000D01*
X46261700Y-24988300D02*
X46261700Y-24760000D01*
X72870800Y-27541400D02*
X48814800Y-27541400D01*
%TO.N,/PWM_A_LR*%
X48801700Y-40000000D02*
X48801700Y-39771700D01*
X47700000Y-40000000D02*
X48801700Y-40000000D01*
X84205700Y-30249600D02*
X89029200Y-25426100D01*
X58323800Y-30249600D02*
X84205700Y-30249600D01*
X48801700Y-39771700D02*
X58323800Y-30249600D01*
%TO.N,/PWM_B_LR*%
X62940000Y-40000000D02*
X64041700Y-40000000D01*
X67067900Y-36745500D02*
X64041700Y-39771700D01*
X89029200Y-36745500D02*
X67067900Y-36745500D01*
X64041700Y-39771700D02*
X64041700Y-40000000D01*
%TO.N,/PWM_A_UD*%
X62947300Y-30706100D02*
X53881700Y-39771700D01*
X53881700Y-39771700D02*
X53881700Y-40000000D01*
X85965100Y-30706100D02*
X62947300Y-30706100D01*
X52780000Y-40000000D02*
X53881700Y-40000000D01*
X86854800Y-29816400D02*
X85965100Y-30706100D01*
%TO.N,/PWM_B_UD*%
X87478700Y-38896100D02*
X87762800Y-39180200D01*
X66581700Y-40000000D02*
X66581700Y-39862300D01*
X65480000Y-40000000D02*
X66581700Y-40000000D01*
X66581700Y-39862300D02*
X67547900Y-38896100D01*
X67547900Y-38896100D02*
X87478700Y-38896100D01*
%TO.N,/PWM_B_LID*%
X88639000Y-44999600D02*
X73893000Y-44999600D01*
X68020000Y-40000000D02*
X69121700Y-40000000D01*
X73893000Y-44999600D02*
X69121700Y-40228300D01*
X69121700Y-40228300D02*
X69121700Y-40000000D01*
%TO.N,/ADDR0*%
X58714000Y-64726900D02*
X20459700Y-64726900D01*
X20293400Y-64560600D02*
X20127100Y-64726900D01*
X15273100Y-64726900D02*
X10000000Y-70000000D01*
X20127100Y-64726900D02*
X15273100Y-64726900D01*
X20293400Y-64560600D02*
X20127100Y-64726900D01*
X20459700Y-64726900D02*
X20293400Y-64560600D01*
%TO.N,/ADDR1*%
X10324400Y-27541400D02*
X10324400Y-23610100D01*
X59298300Y-24531700D02*
X59298300Y-24760000D01*
X60400000Y-24760000D02*
X59298300Y-24760000D01*
X10324400Y-27541400D02*
X14255700Y-23610100D01*
X14255700Y-23610100D02*
X58376700Y-23610100D01*
X58376700Y-23610100D02*
X59298300Y-24531700D01*
%TO.N,/ADDR2*%
X45744300Y-71307700D02*
X9669400Y-71307700D01*
X9669400Y-71307700D02*
X8898200Y-72078900D01*
X8898200Y-73978200D02*
X10000000Y-75080000D01*
X8898200Y-72078900D02*
X8898200Y-73978200D01*
X51227400Y-65824600D02*
X45744300Y-71307700D01*
%TO.N,/ADDR3*%
X23795700Y-76208400D02*
X25907500Y-74096600D01*
X10000000Y-77620000D02*
X11411600Y-76208400D01*
X25907500Y-74096600D02*
X52022000Y-74096600D01*
X11411600Y-76208400D02*
X23795700Y-76208400D01*
%TD*%
%TA.AperFunction,Conductor*%
%TO.N,/GND*%
G36*
X20325491Y-65209094D02*
G01*
X20393808Y-65227400D01*
X50551964Y-65227400D01*
X50619003Y-65247085D01*
X50664758Y-65299889D01*
X50674702Y-65369047D01*
X50655066Y-65420291D01*
X50606628Y-65492782D01*
X50606621Y-65492795D01*
X50553821Y-65620267D01*
X50553818Y-65620277D01*
X50526900Y-65755604D01*
X50526900Y-65765924D01*
X50507215Y-65832963D01*
X50490581Y-65853605D01*
X45573305Y-70770881D01*
X45511982Y-70804366D01*
X45485624Y-70807200D01*
X18870085Y-70807200D01*
X18803046Y-70787515D01*
X18757291Y-70734711D01*
X18747347Y-70665553D01*
X18759600Y-70626905D01*
X18824755Y-70499031D01*
X18887990Y-70304417D01*
X18920000Y-70102317D01*
X18920000Y-69897682D01*
X18887990Y-69695582D01*
X18824755Y-69500968D01*
X18731859Y-69318651D01*
X18729230Y-69315031D01*
X18020000Y-70024261D01*
X18020000Y-69947339D01*
X17992741Y-69845606D01*
X17940080Y-69754394D01*
X17865606Y-69679920D01*
X17774394Y-69627259D01*
X17672661Y-69600000D01*
X17567339Y-69600000D01*
X17465606Y-69627259D01*
X17374394Y-69679920D01*
X17299920Y-69754394D01*
X17247259Y-69845606D01*
X17220000Y-69947339D01*
X17220000Y-70024264D01*
X16510768Y-69315032D01*
X16510767Y-69315032D01*
X16508136Y-69318655D01*
X16415245Y-69500965D01*
X16352009Y-69695582D01*
X16320000Y-69897682D01*
X16320000Y-70102317D01*
X16352009Y-70304417D01*
X16415244Y-70499031D01*
X16480400Y-70626905D01*
X16493296Y-70695574D01*
X16467020Y-70760315D01*
X16409913Y-70800572D01*
X16369915Y-70807200D01*
X11317826Y-70807200D01*
X11250787Y-70787515D01*
X11205032Y-70734711D01*
X11195088Y-70665553D01*
X11196544Y-70658814D01*
X11196460Y-70658799D01*
X11197598Y-70652567D01*
X11200500Y-70615694D01*
X11200500Y-69558676D01*
X11220185Y-69491637D01*
X11236819Y-69470995D01*
X11817047Y-68890767D01*
X16935032Y-68890767D01*
X16935032Y-68890768D01*
X17620000Y-69575736D01*
X17620001Y-69575736D01*
X18304967Y-68890769D01*
X18304966Y-68890767D01*
X18301359Y-68888146D01*
X18301347Y-68888139D01*
X18119031Y-68795244D01*
X17924417Y-68732009D01*
X17722317Y-68700000D01*
X17517683Y-68700000D01*
X17315582Y-68732009D01*
X17120965Y-68795245D01*
X16938655Y-68888136D01*
X16935032Y-68890767D01*
X11817047Y-68890767D01*
X15444095Y-65263719D01*
X15505418Y-65230234D01*
X15531776Y-65227400D01*
X20192990Y-65227400D01*
X20192992Y-65227400D01*
X20261308Y-65209095D01*
X20277342Y-65209095D01*
X20290449Y-65204905D01*
X20325491Y-65209094D01*
G37*
%TD.AperFunction*%
%TA.AperFunction,Conductor*%
G36*
X107003736Y-500726D02*
G01*
X107293797Y-518271D01*
X107308660Y-520076D01*
X107590798Y-571780D01*
X107605335Y-575363D01*
X107879172Y-660695D01*
X107893163Y-666000D01*
X108154743Y-783727D01*
X108167989Y-790680D01*
X108413465Y-939075D01*
X108425776Y-947573D01*
X108651573Y-1124473D01*
X108662781Y-1134403D01*
X108865596Y-1337218D01*
X108875525Y-1348425D01*
X108995481Y-1501538D01*
X109052422Y-1574217D01*
X109060926Y-1586537D01*
X109118128Y-1681161D01*
X109209316Y-1832004D01*
X109216275Y-1845263D01*
X109333997Y-2106831D01*
X109339306Y-2120832D01*
X109424635Y-2394663D01*
X109428219Y-2409201D01*
X109479923Y-2691339D01*
X109481728Y-2706204D01*
X109499274Y-2996263D01*
X109499500Y-3003750D01*
X109499500Y-86996249D01*
X109499274Y-87003736D01*
X109481728Y-87293794D01*
X109479923Y-87308659D01*
X109428219Y-87590797D01*
X109424635Y-87605335D01*
X109339304Y-87879174D01*
X109333994Y-87893176D01*
X109216277Y-88154730D01*
X109209319Y-88167987D01*
X109060928Y-88413458D01*
X109052422Y-88425782D01*
X108875525Y-88651573D01*
X108865595Y-88662781D01*
X108662781Y-88865595D01*
X108651573Y-88875525D01*
X108425782Y-89052422D01*
X108413458Y-89060928D01*
X108167987Y-89209319D01*
X108154730Y-89216277D01*
X107893176Y-89333994D01*
X107879174Y-89339304D01*
X107605335Y-89424635D01*
X107590797Y-89428219D01*
X107308659Y-89479923D01*
X107293794Y-89481728D01*
X107003736Y-89499274D01*
X106996249Y-89499500D01*
X3003751Y-89499500D01*
X2996264Y-89499274D01*
X2706204Y-89481728D01*
X2691339Y-89479923D01*
X2409201Y-89428219D01*
X2394663Y-89424635D01*
X2120832Y-89339306D01*
X2106831Y-89333997D01*
X1845263Y-89216275D01*
X1832004Y-89209316D01*
X1586537Y-89060926D01*
X1574217Y-89052422D01*
X1348426Y-88875526D01*
X1337218Y-88865596D01*
X1134403Y-88662781D01*
X1124473Y-88651573D01*
X947573Y-88425776D01*
X939075Y-88413465D01*
X790679Y-88167987D01*
X783727Y-88154743D01*
X666000Y-87893163D01*
X660693Y-87879167D01*
X611949Y-87722743D01*
X575363Y-87605335D01*
X571780Y-87590798D01*
X520076Y-87308660D01*
X518271Y-87293795D01*
X500726Y-87003736D01*
X500500Y-86996249D01*
X500500Y-86378711D01*
X1649500Y-86378711D01*
X1649500Y-86621288D01*
X1681161Y-86861785D01*
X1743947Y-87096104D01*
X1831991Y-87308660D01*
X1836776Y-87320212D01*
X1958064Y-87530289D01*
X1958066Y-87530292D01*
X1958067Y-87530293D01*
X2105733Y-87722736D01*
X2105739Y-87722743D01*
X2277256Y-87894260D01*
X2277262Y-87894265D01*
X2469711Y-88041936D01*
X2679788Y-88163224D01*
X2903900Y-88256054D01*
X3138211Y-88318838D01*
X3318586Y-88342584D01*
X3378711Y-88350500D01*
X3378712Y-88350500D01*
X3621289Y-88350500D01*
X3669388Y-88344167D01*
X3861789Y-88318838D01*
X4096100Y-88256054D01*
X4320212Y-88163224D01*
X4530289Y-88041936D01*
X4722738Y-87894265D01*
X4894265Y-87722738D01*
X5041936Y-87530289D01*
X5163224Y-87320212D01*
X5256054Y-87096100D01*
X5318838Y-86861789D01*
X5350500Y-86621288D01*
X5350500Y-86378712D01*
X5318838Y-86138211D01*
X5256054Y-85903900D01*
X5163224Y-85679788D01*
X5041936Y-85469711D01*
X4978672Y-85387264D01*
X4894266Y-85277263D01*
X4894260Y-85277256D01*
X4735479Y-85118475D01*
X22749500Y-85118475D01*
X22749500Y-86881517D01*
X22757830Y-86934108D01*
X22764354Y-86975304D01*
X22821950Y-87088342D01*
X22821952Y-87088344D01*
X22821954Y-87088347D01*
X22911652Y-87178045D01*
X22911654Y-87178046D01*
X22911658Y-87178050D01*
X23024694Y-87235645D01*
X23024698Y-87235647D01*
X23118475Y-87250499D01*
X23118481Y-87250500D01*
X24881518Y-87250499D01*
X24975304Y-87235646D01*
X25088342Y-87178050D01*
X25123457Y-87142935D01*
X25184779Y-87109449D01*
X25254471Y-87114433D01*
X25298820Y-87142934D01*
X25610559Y-87454672D01*
X25610569Y-87454683D01*
X25614899Y-87459013D01*
X25614900Y-87459014D01*
X25708086Y-87552200D01*
X25822214Y-87618092D01*
X25949507Y-87652200D01*
X25949508Y-87652200D01*
X25949509Y-87652200D01*
X35685190Y-87652200D01*
X35685192Y-87652200D01*
X35812486Y-87618092D01*
X35926614Y-87552200D01*
X37100103Y-86378711D01*
X104649500Y-86378711D01*
X104649500Y-86621288D01*
X104681161Y-86861785D01*
X104743947Y-87096104D01*
X104831991Y-87308660D01*
X104836776Y-87320212D01*
X104958064Y-87530289D01*
X104958066Y-87530292D01*
X104958067Y-87530293D01*
X105105733Y-87722736D01*
X105105739Y-87722743D01*
X105277256Y-87894260D01*
X105277262Y-87894265D01*
X105469711Y-88041936D01*
X105679788Y-88163224D01*
X105903900Y-88256054D01*
X106138211Y-88318838D01*
X106318586Y-88342584D01*
X106378711Y-88350500D01*
X106378712Y-88350500D01*
X106621289Y-88350500D01*
X106669388Y-88344167D01*
X106861789Y-88318838D01*
X107096100Y-88256054D01*
X107320212Y-88163224D01*
X107530289Y-88041936D01*
X107722738Y-87894265D01*
X107894265Y-87722738D01*
X108041936Y-87530289D01*
X108163224Y-87320212D01*
X108256054Y-87096100D01*
X108318838Y-86861789D01*
X108350500Y-86621288D01*
X108350500Y-86378712D01*
X108318838Y-86138211D01*
X108256054Y-85903900D01*
X108163224Y-85679788D01*
X108041936Y-85469711D01*
X107978672Y-85387264D01*
X107894266Y-85277263D01*
X107894260Y-85277256D01*
X107722743Y-85105739D01*
X107722736Y-85105733D01*
X107530293Y-84958067D01*
X107530292Y-84958066D01*
X107530289Y-84958064D01*
X107320212Y-84836776D01*
X107320205Y-84836773D01*
X107096104Y-84743947D01*
X106978944Y-84712554D01*
X106861789Y-84681162D01*
X106861788Y-84681161D01*
X106861785Y-84681161D01*
X106621289Y-84649500D01*
X106621288Y-84649500D01*
X106378712Y-84649500D01*
X106378711Y-84649500D01*
X106138214Y-84681161D01*
X105903895Y-84743947D01*
X105679794Y-84836773D01*
X105679785Y-84836777D01*
X105469706Y-84958067D01*
X105277263Y-85105733D01*
X105277256Y-85105739D01*
X105105739Y-85277256D01*
X105105733Y-85277263D01*
X104958067Y-85469706D01*
X104836777Y-85679785D01*
X104836773Y-85679794D01*
X104743947Y-85903895D01*
X104681161Y-86138214D01*
X104649500Y-86378711D01*
X37100103Y-86378711D01*
X40594516Y-82884298D01*
X56299500Y-82884298D01*
X56299500Y-85115701D01*
X56302401Y-85152567D01*
X56302402Y-85152573D01*
X56348254Y-85310393D01*
X56348255Y-85310396D01*
X56348256Y-85310398D01*
X56364946Y-85338620D01*
X56431917Y-85451862D01*
X56431923Y-85451870D01*
X56548129Y-85568076D01*
X56548133Y-85568079D01*
X56548135Y-85568081D01*
X56689602Y-85651744D01*
X56731224Y-85663836D01*
X56847426Y-85697597D01*
X56847429Y-85697597D01*
X56847431Y-85697598D01*
X56884306Y-85700500D01*
X58941324Y-85700500D01*
X59008363Y-85720185D01*
X59029005Y-85736819D01*
X59209000Y-85916814D01*
X59302186Y-86010000D01*
X59416314Y-86075892D01*
X59543608Y-86110000D01*
X59543610Y-86110000D01*
X73456390Y-86110000D01*
X73456392Y-86110000D01*
X73583686Y-86075892D01*
X73697814Y-86010000D01*
X73970995Y-85736819D01*
X74032318Y-85703334D01*
X74058676Y-85700500D01*
X76115686Y-85700500D01*
X76115694Y-85700500D01*
X76152569Y-85697598D01*
X76152571Y-85697597D01*
X76152573Y-85697597D01*
X76213881Y-85679785D01*
X76310398Y-85651744D01*
X76451865Y-85568081D01*
X76568081Y-85451865D01*
X76651744Y-85310398D01*
X76697598Y-85152569D01*
X76700500Y-85115694D01*
X76700500Y-83021800D01*
X76720185Y-82954761D01*
X76772989Y-82909006D01*
X76824500Y-82897800D01*
X78218624Y-82897800D01*
X78285663Y-82917485D01*
X78306305Y-82934119D01*
X78512592Y-83140406D01*
X78546077Y-83201729D01*
X78541093Y-83271421D01*
X78539472Y-83275539D01*
X78466295Y-83452203D01*
X78466290Y-83452219D01*
X78408597Y-83667534D01*
X78408594Y-83667547D01*
X78379501Y-83888533D01*
X78379500Y-83888549D01*
X78379500Y-84111450D01*
X78379501Y-84111466D01*
X78408594Y-84332452D01*
X78408595Y-84332457D01*
X78408596Y-84332463D01*
X78408597Y-84332465D01*
X78466290Y-84547780D01*
X78466293Y-84547790D01*
X78549845Y-84749501D01*
X78551595Y-84753726D01*
X78663052Y-84946774D01*
X78663057Y-84946780D01*
X78663058Y-84946782D01*
X78798751Y-85123622D01*
X78798757Y-85123629D01*
X78956370Y-85281242D01*
X78956377Y-85281248D01*
X79031146Y-85338620D01*
X79133226Y-85416948D01*
X79326274Y-85528405D01*
X79532219Y-85613710D01*
X79747537Y-85671404D01*
X79968543Y-85700500D01*
X79968550Y-85700500D01*
X80191450Y-85700500D01*
X80191457Y-85700500D01*
X80412463Y-85671404D01*
X80627781Y-85613710D01*
X80833726Y-85528405D01*
X81026774Y-85416948D01*
X81128854Y-85338620D01*
X81150970Y-85321650D01*
X81173385Y-85304449D01*
X81203624Y-85281247D01*
X81361247Y-85123624D01*
X81496948Y-84946774D01*
X81608405Y-84753726D01*
X81693710Y-84547781D01*
X81751404Y-84332463D01*
X81780500Y-84111457D01*
X81780500Y-83888543D01*
X81779642Y-83882028D01*
X81779640Y-83882014D01*
X83360000Y-83882014D01*
X83360000Y-84117985D01*
X83390799Y-84351914D01*
X83451870Y-84579837D01*
X83542160Y-84797819D01*
X83542168Y-84797835D01*
X83660138Y-85002163D01*
X83660148Y-85002178D01*
X83692020Y-85043715D01*
X84538247Y-84197488D01*
X84583978Y-84307890D01*
X84655112Y-84414351D01*
X84745649Y-84504888D01*
X84852110Y-84576022D01*
X84962511Y-84621752D01*
X84116284Y-85467979D01*
X84157822Y-85499851D01*
X84157836Y-85499861D01*
X84362164Y-85617831D01*
X84362180Y-85617839D01*
X84580163Y-85708129D01*
X84580161Y-85708129D01*
X84808085Y-85769200D01*
X85042014Y-85799999D01*
X85042029Y-85800000D01*
X85277971Y-85800000D01*
X85277985Y-85799999D01*
X85511914Y-85769200D01*
X85739837Y-85708129D01*
X85957819Y-85617839D01*
X85957828Y-85617834D01*
X86162171Y-85499855D01*
X86162172Y-85499854D01*
X86203714Y-85467978D01*
X85357488Y-84621752D01*
X85467890Y-84576022D01*
X85574351Y-84504888D01*
X85664888Y-84414351D01*
X85736022Y-84307890D01*
X85781752Y-84197488D01*
X86627978Y-85043714D01*
X86659854Y-85002172D01*
X86659855Y-85002171D01*
X86777834Y-84797828D01*
X86777839Y-84797819D01*
X86868129Y-84579837D01*
X86929200Y-84351914D01*
X86959999Y-84117985D01*
X86960000Y-84117971D01*
X86960000Y-83882028D01*
X86959999Y-83882014D01*
X86929200Y-83648085D01*
X86868129Y-83420162D01*
X86777839Y-83202180D01*
X86777831Y-83202164D01*
X86659861Y-82997836D01*
X86659851Y-82997822D01*
X86627979Y-82956284D01*
X85781752Y-83802510D01*
X85736022Y-83692110D01*
X85664888Y-83585649D01*
X85574351Y-83495112D01*
X85467890Y-83423978D01*
X85357489Y-83378247D01*
X86203715Y-82532020D01*
X86162178Y-82500148D01*
X86162163Y-82500138D01*
X85957835Y-82382168D01*
X85957819Y-82382160D01*
X85739836Y-82291870D01*
X85739838Y-82291870D01*
X85511914Y-82230799D01*
X85277985Y-82200000D01*
X85042014Y-82200000D01*
X84808085Y-82230799D01*
X84580162Y-82291870D01*
X84362180Y-82382160D01*
X84362164Y-82382168D01*
X84157836Y-82500138D01*
X84157823Y-82500147D01*
X84116283Y-82532020D01*
X84962511Y-83378247D01*
X84852110Y-83423978D01*
X84745649Y-83495112D01*
X84655112Y-83585649D01*
X84583978Y-83692110D01*
X84538247Y-83802510D01*
X83692020Y-82956283D01*
X83660147Y-82997823D01*
X83660138Y-82997836D01*
X83542168Y-83202164D01*
X83542160Y-83202180D01*
X83451870Y-83420162D01*
X83390799Y-83648085D01*
X83360000Y-83882014D01*
X81779640Y-83882014D01*
X81751405Y-83667547D01*
X81751404Y-83667537D01*
X81693710Y-83452219D01*
X81693703Y-83452203D01*
X81608406Y-83246277D01*
X81608405Y-83246274D01*
X81496948Y-83053226D01*
X81422562Y-82956284D01*
X81361248Y-82876377D01*
X81361242Y-82876370D01*
X81203629Y-82718757D01*
X81203622Y-82718751D01*
X81150969Y-82678349D01*
X81026783Y-82583058D01*
X81026777Y-82583054D01*
X81026774Y-82583052D01*
X80833726Y-82471595D01*
X80833722Y-82471593D01*
X80627790Y-82386293D01*
X80627783Y-82386291D01*
X80627781Y-82386290D01*
X80412463Y-82328596D01*
X80412457Y-82328595D01*
X80412452Y-82328594D01*
X80191466Y-82299501D01*
X80191463Y-82299500D01*
X80191457Y-82299500D01*
X79968543Y-82299500D01*
X79968537Y-82299500D01*
X79968533Y-82299501D01*
X79747547Y-82328594D01*
X79747540Y-82328595D01*
X79747537Y-82328596D01*
X79674165Y-82348256D01*
X79532219Y-82386290D01*
X79532203Y-82386295D01*
X79355539Y-82459472D01*
X79286070Y-82466941D01*
X79223591Y-82435666D01*
X79220406Y-82432592D01*
X78784616Y-81996802D01*
X78784614Y-81996800D01*
X78727550Y-81963854D01*
X78670487Y-81930908D01*
X78606839Y-81913854D01*
X78543192Y-81896800D01*
X64748592Y-81896800D01*
X64616807Y-81896800D01*
X64489512Y-81930908D01*
X64375386Y-81996800D01*
X64375383Y-81996802D01*
X63939593Y-82432591D01*
X63878270Y-82466076D01*
X63808578Y-82461092D01*
X63804460Y-82459471D01*
X63627796Y-82386295D01*
X63627784Y-82386291D01*
X63627781Y-82386290D01*
X63412463Y-82328596D01*
X63412457Y-82328595D01*
X63412452Y-82328594D01*
X63191466Y-82299501D01*
X63191463Y-82299500D01*
X63191457Y-82299500D01*
X62968543Y-82299500D01*
X62968537Y-82299500D01*
X62968533Y-82299501D01*
X62747547Y-82328594D01*
X62747540Y-82328595D01*
X62747537Y-82328596D01*
X62674165Y-82348256D01*
X62532219Y-82386290D01*
X62532209Y-82386293D01*
X62326277Y-82471593D01*
X62326273Y-82471595D01*
X62133226Y-82583052D01*
X62133217Y-82583058D01*
X61956377Y-82718751D01*
X61956370Y-82718757D01*
X61798757Y-82876370D01*
X61798751Y-82876377D01*
X61663058Y-83053217D01*
X61663052Y-83053226D01*
X61551595Y-83246273D01*
X61551593Y-83246277D01*
X61466293Y-83452209D01*
X61466290Y-83452219D01*
X61408597Y-83667534D01*
X61408594Y-83667547D01*
X61379501Y-83888533D01*
X61379500Y-83888549D01*
X61379500Y-84111450D01*
X61379501Y-84111466D01*
X61408594Y-84332452D01*
X61408595Y-84332457D01*
X61408596Y-84332463D01*
X61408597Y-84332465D01*
X61466290Y-84547780D01*
X61466293Y-84547790D01*
X61549845Y-84749501D01*
X61551595Y-84753726D01*
X61649326Y-84923000D01*
X61665799Y-84990899D01*
X61642947Y-85056927D01*
X61588026Y-85100117D01*
X61541939Y-85109000D01*
X59868176Y-85109000D01*
X59838735Y-85100355D01*
X59808749Y-85093832D01*
X59803733Y-85090077D01*
X59801137Y-85089315D01*
X59780495Y-85072681D01*
X59736819Y-85029005D01*
X59703334Y-84967682D01*
X59700500Y-84941324D01*
X59700500Y-82884313D01*
X59700499Y-82884298D01*
X59697598Y-82847432D01*
X59697597Y-82847426D01*
X59651745Y-82689606D01*
X59651744Y-82689603D01*
X59651744Y-82689602D01*
X59568081Y-82548135D01*
X59568079Y-82548133D01*
X59568076Y-82548129D01*
X59451870Y-82431923D01*
X59451862Y-82431917D01*
X59310396Y-82348255D01*
X59310393Y-82348254D01*
X59152573Y-82302402D01*
X59152567Y-82302401D01*
X59115701Y-82299500D01*
X59115694Y-82299500D01*
X56884306Y-82299500D01*
X56884298Y-82299500D01*
X56847432Y-82302401D01*
X56847426Y-82302402D01*
X56689606Y-82348254D01*
X56689603Y-82348255D01*
X56548137Y-82431917D01*
X56548129Y-82431923D01*
X56431923Y-82548129D01*
X56431917Y-82548137D01*
X56348255Y-82689603D01*
X56348254Y-82689606D01*
X56302402Y-82847426D01*
X56302401Y-82847432D01*
X56299500Y-82884298D01*
X40594516Y-82884298D01*
X46702395Y-76776419D01*
X46763718Y-76742934D01*
X46790076Y-76740100D01*
X69490181Y-76740100D01*
X69557220Y-76759785D01*
X69577862Y-76776419D01*
X69585154Y-76783711D01*
X69585158Y-76783714D01*
X69699882Y-76860371D01*
X69699895Y-76860378D01*
X69809521Y-76905786D01*
X69827372Y-76913180D01*
X69827376Y-76913180D01*
X69827377Y-76913181D01*
X69962704Y-76940100D01*
X69962707Y-76940100D01*
X70100695Y-76940100D01*
X70191741Y-76921989D01*
X70236028Y-76913180D01*
X70363511Y-76860375D01*
X70478242Y-76783714D01*
X70575814Y-76686142D01*
X70652475Y-76571411D01*
X70705280Y-76443928D01*
X70732200Y-76308593D01*
X70732200Y-76170607D01*
X70732200Y-76170604D01*
X70705281Y-76035277D01*
X70705280Y-76035276D01*
X70705280Y-76035272D01*
X70688885Y-75995690D01*
X70652478Y-75907795D01*
X70652471Y-75907782D01*
X70575814Y-75793058D01*
X70575811Y-75793054D01*
X70478245Y-75695488D01*
X70478241Y-75695485D01*
X70363517Y-75618828D01*
X70363504Y-75618821D01*
X70236032Y-75566021D01*
X70236022Y-75566018D01*
X70100695Y-75539100D01*
X70100693Y-75539100D01*
X69962707Y-75539100D01*
X69962705Y-75539100D01*
X69827377Y-75566018D01*
X69827367Y-75566021D01*
X69699895Y-75618821D01*
X69699882Y-75618828D01*
X69585158Y-75695485D01*
X69585154Y-75695488D01*
X69577862Y-75702781D01*
X69516539Y-75736266D01*
X69490181Y-75739100D01*
X46465508Y-75739100D01*
X46338212Y-75773208D01*
X46224086Y-75839100D01*
X46224083Y-75839102D01*
X35695744Y-86367441D01*
X35634421Y-86400926D01*
X35564729Y-86395942D01*
X35508796Y-86354070D01*
X35484379Y-86288606D01*
X35485590Y-86260362D01*
X35510000Y-86106245D01*
X35510000Y-85893753D01*
X35476757Y-85683872D01*
X35476757Y-85683869D01*
X35411095Y-85481782D01*
X35314626Y-85292453D01*
X35314618Y-85292440D01*
X35305025Y-85279237D01*
X35305025Y-85279236D01*
X34657905Y-85926356D01*
X34625925Y-85807007D01*
X34560099Y-85692993D01*
X34467007Y-85599901D01*
X34352993Y-85534075D01*
X34233642Y-85502094D01*
X34880761Y-84854973D01*
X34867550Y-84845375D01*
X34678217Y-84748904D01*
X34476129Y-84683242D01*
X34266246Y-84650000D01*
X34053754Y-84650000D01*
X33843872Y-84683242D01*
X33843869Y-84683242D01*
X33641782Y-84748904D01*
X33452448Y-84845375D01*
X33439237Y-84854972D01*
X33439237Y-84854973D01*
X34086358Y-85502094D01*
X33967007Y-85534075D01*
X33852993Y-85599901D01*
X33759901Y-85692993D01*
X33694075Y-85807007D01*
X33662094Y-85926358D01*
X33014973Y-85279237D01*
X33014972Y-85279237D01*
X33005371Y-85292453D01*
X32944648Y-85411629D01*
X32896674Y-85462425D01*
X32828853Y-85479220D01*
X32762718Y-85456682D01*
X32723679Y-85411628D01*
X32689525Y-85344596D01*
X32643499Y-85281248D01*
X32573828Y-85185354D01*
X32434646Y-85046172D01*
X32275405Y-84930476D01*
X32100029Y-84841117D01*
X31912826Y-84780290D01*
X31718422Y-84749500D01*
X31718417Y-84749500D01*
X31521583Y-84749500D01*
X31521578Y-84749500D01*
X31327173Y-84780290D01*
X31139970Y-84841117D01*
X30964594Y-84930476D01*
X30881430Y-84990899D01*
X30805354Y-85046172D01*
X30805352Y-85046174D01*
X30805351Y-85046174D01*
X30666174Y-85185351D01*
X30666174Y-85185352D01*
X30666172Y-85185354D01*
X30616485Y-85253741D01*
X30550476Y-85344594D01*
X30460485Y-85521213D01*
X30412511Y-85572009D01*
X30344690Y-85588804D01*
X30278555Y-85566267D01*
X30239515Y-85521213D01*
X30183679Y-85411628D01*
X30149524Y-85344595D01*
X30033828Y-85185354D01*
X29894646Y-85046172D01*
X29735405Y-84930476D01*
X29560029Y-84841117D01*
X29372826Y-84780290D01*
X29178422Y-84749500D01*
X29178417Y-84749500D01*
X28981583Y-84749500D01*
X28981578Y-84749500D01*
X28787173Y-84780290D01*
X28599970Y-84841117D01*
X28424594Y-84930476D01*
X28341430Y-84990899D01*
X28265354Y-85046172D01*
X28265352Y-85046174D01*
X28265351Y-85046174D01*
X28126174Y-85185351D01*
X28126174Y-85185352D01*
X28126172Y-85185354D01*
X28076485Y-85253741D01*
X28010476Y-85344594D01*
X27920485Y-85521213D01*
X27872511Y-85572009D01*
X27804690Y-85588804D01*
X27738555Y-85566267D01*
X27699515Y-85521213D01*
X27643679Y-85411628D01*
X27609524Y-85344595D01*
X27493828Y-85185354D01*
X27354646Y-85046172D01*
X27195405Y-84930476D01*
X27020029Y-84841117D01*
X26832826Y-84780290D01*
X26638422Y-84749500D01*
X26638417Y-84749500D01*
X26441583Y-84749500D01*
X26441578Y-84749500D01*
X26247173Y-84780290D01*
X26059970Y-84841117D01*
X25884594Y-84930476D01*
X25801430Y-84990899D01*
X25725354Y-85046172D01*
X25725352Y-85046174D01*
X25725351Y-85046174D01*
X25586173Y-85185352D01*
X25474817Y-85338620D01*
X25419486Y-85381285D01*
X25349873Y-85387264D01*
X25288078Y-85354658D01*
X25253721Y-85293819D01*
X25250499Y-85265734D01*
X25250499Y-85118482D01*
X25248997Y-85109000D01*
X25235646Y-85024696D01*
X25178050Y-84911658D01*
X25178046Y-84911654D01*
X25178045Y-84911652D01*
X25088347Y-84821954D01*
X25088344Y-84821952D01*
X25088342Y-84821950D01*
X25006580Y-84780290D01*
X24975301Y-84764352D01*
X24881524Y-84749500D01*
X23118482Y-84749500D01*
X23037519Y-84762323D01*
X23024696Y-84764354D01*
X22911658Y-84821950D01*
X22911657Y-84821951D01*
X22911652Y-84821954D01*
X22821954Y-84911652D01*
X22821951Y-84911657D01*
X22821950Y-84911658D01*
X22816171Y-84923000D01*
X22764352Y-85024698D01*
X22749500Y-85118475D01*
X4735479Y-85118475D01*
X4722743Y-85105739D01*
X4722736Y-85105733D01*
X4530293Y-84958067D01*
X4530292Y-84958066D01*
X4530289Y-84958064D01*
X4320212Y-84836776D01*
X4320205Y-84836773D01*
X4096104Y-84743947D01*
X3978944Y-84712554D01*
X3861789Y-84681162D01*
X3861788Y-84681161D01*
X3861785Y-84681161D01*
X3621289Y-84649500D01*
X3621288Y-84649500D01*
X3378712Y-84649500D01*
X3378711Y-84649500D01*
X3138214Y-84681161D01*
X2903895Y-84743947D01*
X2679794Y-84836773D01*
X2679785Y-84836777D01*
X2469706Y-84958067D01*
X2277263Y-85105733D01*
X2277256Y-85105739D01*
X2105739Y-85277256D01*
X2105733Y-85277263D01*
X1958067Y-85469706D01*
X1836777Y-85679785D01*
X1836773Y-85679794D01*
X1743947Y-85903895D01*
X1681161Y-86138214D01*
X1649500Y-86378711D01*
X500500Y-86378711D01*
X500500Y-72013008D01*
X8397700Y-72013008D01*
X8397700Y-74044091D01*
X8431808Y-74171387D01*
X8464754Y-74228450D01*
X8497700Y-74285514D01*
X8497702Y-74285516D01*
X8819963Y-74607777D01*
X8853448Y-74669100D01*
X8850213Y-74733775D01*
X8829060Y-74798878D01*
X8799500Y-74985513D01*
X8799500Y-75174486D01*
X8829059Y-75361118D01*
X8887454Y-75540836D01*
X8935643Y-75635411D01*
X8973240Y-75709199D01*
X9084310Y-75862073D01*
X9217927Y-75995690D01*
X9370801Y-76106760D01*
X9450347Y-76147290D01*
X9539163Y-76192545D01*
X9539165Y-76192545D01*
X9539168Y-76192547D01*
X9628734Y-76221649D01*
X9660803Y-76232069D01*
X9718478Y-76271507D01*
X9745676Y-76335866D01*
X9733761Y-76404712D01*
X9686516Y-76456188D01*
X9660803Y-76467931D01*
X9539163Y-76507454D01*
X9370800Y-76593240D01*
X9283579Y-76656610D01*
X9217927Y-76704310D01*
X9217925Y-76704312D01*
X9217924Y-76704312D01*
X9084312Y-76837924D01*
X9084312Y-76837925D01*
X9084310Y-76837927D01*
X9036610Y-76903579D01*
X8973240Y-76990800D01*
X8887454Y-77159163D01*
X8829059Y-77338881D01*
X8799500Y-77525513D01*
X8799500Y-77714486D01*
X8829059Y-77901118D01*
X8887454Y-78080836D01*
X8973240Y-78249199D01*
X9084310Y-78402073D01*
X9217927Y-78535690D01*
X9370801Y-78646760D01*
X9450347Y-78687290D01*
X9539163Y-78732545D01*
X9539165Y-78732545D01*
X9539168Y-78732547D01*
X9635497Y-78763846D01*
X9718881Y-78790940D01*
X9905514Y-78820500D01*
X9905519Y-78820500D01*
X10094486Y-78820500D01*
X10281118Y-78790940D01*
X10460832Y-78732547D01*
X10467342Y-78729230D01*
X16935031Y-78729230D01*
X16938651Y-78731859D01*
X17120968Y-78824755D01*
X17315582Y-78887990D01*
X17517683Y-78920000D01*
X17722317Y-78920000D01*
X17924417Y-78887990D01*
X18119031Y-78824755D01*
X18301346Y-78731860D01*
X18304966Y-78729230D01*
X17620001Y-78044264D01*
X17620000Y-78044264D01*
X16935031Y-78729230D01*
X10467342Y-78729230D01*
X10629199Y-78646760D01*
X10782073Y-78535690D01*
X10915690Y-78402073D01*
X11026760Y-78249199D01*
X11112547Y-78080832D01*
X11170940Y-77901118D01*
X11200500Y-77714486D01*
X11200500Y-77525513D01*
X11176564Y-77374394D01*
X11170940Y-77338882D01*
X11149784Y-77273774D01*
X11147790Y-77203936D01*
X11180033Y-77147779D01*
X11582595Y-76745219D01*
X11643918Y-76711734D01*
X11670276Y-76708900D01*
X16431700Y-76708900D01*
X16498739Y-76728585D01*
X16544494Y-76781389D01*
X16554438Y-76850547D01*
X16532018Y-76905786D01*
X16508140Y-76938650D01*
X16415244Y-77120968D01*
X16352009Y-77315582D01*
X16320000Y-77517682D01*
X16320000Y-77722317D01*
X16352009Y-77924417D01*
X16415244Y-78119031D01*
X16508139Y-78301347D01*
X16508146Y-78301359D01*
X16510767Y-78304966D01*
X16510769Y-78304967D01*
X17220000Y-77595736D01*
X17220000Y-77672661D01*
X17247259Y-77774394D01*
X17299920Y-77865606D01*
X17374394Y-77940080D01*
X17465606Y-77992741D01*
X17567339Y-78020000D01*
X17672661Y-78020000D01*
X17774394Y-77992741D01*
X17865606Y-77940080D01*
X17940080Y-77865606D01*
X17992741Y-77774394D01*
X18020000Y-77672661D01*
X18020000Y-77595736D01*
X18729230Y-78304966D01*
X18731860Y-78301346D01*
X18824755Y-78119031D01*
X18887990Y-77924417D01*
X18920000Y-77722317D01*
X18920000Y-77517682D01*
X18887990Y-77315582D01*
X18824755Y-77120968D01*
X18731859Y-76938650D01*
X18707982Y-76905786D01*
X18684502Y-76839979D01*
X18700327Y-76771925D01*
X18750433Y-76723230D01*
X18808300Y-76708900D01*
X23861590Y-76708900D01*
X23861592Y-76708900D01*
X23988886Y-76674792D01*
X24103014Y-76608900D01*
X26078494Y-74633418D01*
X26139817Y-74599934D01*
X26166175Y-74597100D01*
X51480481Y-74597100D01*
X51547520Y-74616785D01*
X51568162Y-74633419D01*
X51575454Y-74640711D01*
X51575458Y-74640714D01*
X51690182Y-74717371D01*
X51690195Y-74717378D01*
X51792902Y-74759920D01*
X51817672Y-74770180D01*
X51817676Y-74770180D01*
X51817677Y-74770181D01*
X51953004Y-74797100D01*
X51953007Y-74797100D01*
X52090995Y-74797100D01*
X52182041Y-74778989D01*
X52226328Y-74770180D01*
X52353811Y-74717375D01*
X52468542Y-74640714D01*
X52566114Y-74543142D01*
X52642775Y-74428411D01*
X52695580Y-74300928D01*
X52704389Y-74256641D01*
X52722500Y-74165595D01*
X52722500Y-74027604D01*
X52695581Y-73892277D01*
X52695580Y-73892276D01*
X52695580Y-73892272D01*
X52687394Y-73872509D01*
X52642778Y-73764795D01*
X52642771Y-73764782D01*
X52566114Y-73650058D01*
X52566111Y-73650054D01*
X52468545Y-73552488D01*
X52468541Y-73552485D01*
X52353817Y-73475828D01*
X52353804Y-73475821D01*
X52226332Y-73423021D01*
X52226322Y-73423018D01*
X52090995Y-73396100D01*
X52090993Y-73396100D01*
X51953007Y-73396100D01*
X51953005Y-73396100D01*
X51817677Y-73423018D01*
X51817667Y-73423021D01*
X51690195Y-73475821D01*
X51690182Y-73475828D01*
X51575458Y-73552485D01*
X51575454Y-73552488D01*
X51568162Y-73559781D01*
X51506839Y-73593266D01*
X51480481Y-73596100D01*
X25841607Y-73596100D01*
X25776844Y-73613452D01*
X25776845Y-73613453D01*
X25714314Y-73630208D01*
X25714312Y-73630208D01*
X25714312Y-73630209D01*
X25600186Y-73696100D01*
X25600183Y-73696102D01*
X23624705Y-75671581D01*
X23563382Y-75705066D01*
X23537024Y-75707900D01*
X18953555Y-75707900D01*
X18886516Y-75688215D01*
X18840761Y-75635411D01*
X18830817Y-75566253D01*
X18835624Y-75545581D01*
X18887990Y-75384417D01*
X18920000Y-75182317D01*
X18920000Y-74977682D01*
X18887990Y-74775582D01*
X18824755Y-74580968D01*
X18731859Y-74398651D01*
X18729230Y-74395031D01*
X18020000Y-75104261D01*
X18020000Y-75027339D01*
X17992741Y-74925606D01*
X17940080Y-74834394D01*
X17865606Y-74759920D01*
X17774394Y-74707259D01*
X17672661Y-74680000D01*
X17567339Y-74680000D01*
X17465606Y-74707259D01*
X17374394Y-74759920D01*
X17299920Y-74834394D01*
X17247259Y-74925606D01*
X17220000Y-75027339D01*
X17220000Y-75104264D01*
X16510768Y-74395032D01*
X16510767Y-74395032D01*
X16508136Y-74398655D01*
X16415245Y-74580965D01*
X16352009Y-74775582D01*
X16320000Y-74977682D01*
X16320000Y-75182317D01*
X16352009Y-75384417D01*
X16404376Y-75545581D01*
X16406371Y-75615422D01*
X16370291Y-75675255D01*
X16307590Y-75706084D01*
X16286445Y-75707900D01*
X11345708Y-75707900D01*
X11246114Y-75734586D01*
X11176264Y-75732923D01*
X11118402Y-75693760D01*
X11090898Y-75629532D01*
X11102485Y-75560629D01*
X11103538Y-75558513D01*
X11112544Y-75540837D01*
X11112547Y-75540832D01*
X11170940Y-75361118D01*
X11200500Y-75174486D01*
X11200500Y-74985513D01*
X11170940Y-74798881D01*
X11128771Y-74669100D01*
X11112547Y-74619168D01*
X11112545Y-74619165D01*
X11112545Y-74619163D01*
X11026759Y-74450800D01*
X11010497Y-74428417D01*
X10915690Y-74297927D01*
X10782073Y-74164310D01*
X10629199Y-74053240D01*
X10611243Y-74044091D01*
X10460836Y-73967454D01*
X10381194Y-73941577D01*
X10339195Y-73927930D01*
X10281521Y-73888493D01*
X10254323Y-73824134D01*
X10266238Y-73755288D01*
X10313482Y-73703812D01*
X10339194Y-73692069D01*
X10460832Y-73652547D01*
X10467342Y-73649230D01*
X16935031Y-73649230D01*
X16938653Y-73651861D01*
X17032178Y-73699514D01*
X17082974Y-73747488D01*
X17099770Y-73815309D01*
X17077233Y-73881444D01*
X17032180Y-73920483D01*
X16938655Y-73968136D01*
X16935032Y-73970767D01*
X16935032Y-73970768D01*
X17620000Y-74655736D01*
X17620001Y-74655736D01*
X18304967Y-73970769D01*
X18304966Y-73970767D01*
X18301359Y-73968146D01*
X18301347Y-73968139D01*
X18207819Y-73920484D01*
X18157023Y-73872509D01*
X18140228Y-73804688D01*
X18162766Y-73738553D01*
X18207820Y-73699514D01*
X18301344Y-73651862D01*
X18304966Y-73649230D01*
X17620001Y-72964264D01*
X17620000Y-72964264D01*
X16935031Y-73649230D01*
X10467342Y-73649230D01*
X10629199Y-73566760D01*
X10782073Y-73455690D01*
X10915690Y-73322073D01*
X11026760Y-73169199D01*
X11112547Y-73000832D01*
X11170940Y-72821118D01*
X11176173Y-72788078D01*
X11200500Y-72634486D01*
X11200500Y-72445513D01*
X11170940Y-72258881D01*
X11112545Y-72079163D01*
X11066347Y-71988495D01*
X11053451Y-71919826D01*
X11079727Y-71855085D01*
X11136834Y-71814828D01*
X11176832Y-71808200D01*
X16331497Y-71808200D01*
X16398536Y-71827885D01*
X16444291Y-71880689D01*
X16454235Y-71949847D01*
X16441982Y-71988495D01*
X16415244Y-72040968D01*
X16352009Y-72235582D01*
X16320000Y-72437682D01*
X16320000Y-72642317D01*
X16352009Y-72844417D01*
X16415244Y-73039031D01*
X16508139Y-73221347D01*
X16508146Y-73221359D01*
X16510767Y-73224966D01*
X16510769Y-73224967D01*
X17220000Y-72515736D01*
X17220000Y-72592661D01*
X17247259Y-72694394D01*
X17299920Y-72785606D01*
X17374394Y-72860080D01*
X17465606Y-72912741D01*
X17567339Y-72940000D01*
X17672661Y-72940000D01*
X17774394Y-72912741D01*
X17865606Y-72860080D01*
X17940080Y-72785606D01*
X17992741Y-72694394D01*
X18020000Y-72592661D01*
X18020000Y-72515736D01*
X18729230Y-73224966D01*
X18731860Y-73221346D01*
X18824755Y-73039031D01*
X18887990Y-72844417D01*
X18920000Y-72642317D01*
X18920000Y-72437682D01*
X18887990Y-72235582D01*
X18824755Y-72040968D01*
X18798018Y-71988495D01*
X18785122Y-71919826D01*
X18811398Y-71855086D01*
X18868504Y-71814828D01*
X18908503Y-71808200D01*
X45810190Y-71808200D01*
X45810192Y-71808200D01*
X45937486Y-71774092D01*
X46051614Y-71708200D01*
X47141339Y-70618475D01*
X53749500Y-70618475D01*
X53749500Y-72381517D01*
X53758396Y-72437682D01*
X53764354Y-72475304D01*
X53821950Y-72588342D01*
X53821952Y-72588344D01*
X53821954Y-72588347D01*
X53911652Y-72678045D01*
X53911654Y-72678046D01*
X53911658Y-72678050D01*
X54024694Y-72735645D01*
X54024698Y-72735647D01*
X54118475Y-72750499D01*
X54118481Y-72750500D01*
X54265735Y-72750499D01*
X54332772Y-72770183D01*
X54378527Y-72822987D01*
X54388471Y-72892145D01*
X54359446Y-72955701D01*
X54338619Y-72974816D01*
X54185360Y-73086167D01*
X54185351Y-73086174D01*
X54046174Y-73225351D01*
X54046174Y-73225352D01*
X54046172Y-73225354D01*
X53996485Y-73293741D01*
X53930476Y-73384594D01*
X53841117Y-73559970D01*
X53780290Y-73747173D01*
X53749500Y-73941577D01*
X53749500Y-74138422D01*
X53780290Y-74332826D01*
X53841117Y-74520029D01*
X53910264Y-74655736D01*
X53930476Y-74695405D01*
X54046172Y-74854646D01*
X54185354Y-74993828D01*
X54344595Y-75109524D01*
X54427455Y-75151743D01*
X54519970Y-75198882D01*
X54519972Y-75198882D01*
X54519975Y-75198884D01*
X54620317Y-75231487D01*
X54707173Y-75259709D01*
X54901578Y-75290500D01*
X54901583Y-75290500D01*
X55098422Y-75290500D01*
X55292826Y-75259709D01*
X55480025Y-75198884D01*
X55655405Y-75109524D01*
X55814646Y-74993828D01*
X55953828Y-74854646D01*
X56069524Y-74695405D01*
X56158884Y-74520025D01*
X56219709Y-74332826D01*
X56250500Y-74138422D01*
X56250500Y-73941577D01*
X56219709Y-73747173D01*
X56187885Y-73649230D01*
X56158884Y-73559975D01*
X56158882Y-73559972D01*
X56158882Y-73559970D01*
X56069523Y-73384594D01*
X56024100Y-73322075D01*
X55953828Y-73225354D01*
X55814646Y-73086172D01*
X55661377Y-72974815D01*
X55618714Y-72919487D01*
X55612735Y-72849873D01*
X55645341Y-72788078D01*
X55706180Y-72753721D01*
X55734264Y-72750499D01*
X55881518Y-72750499D01*
X55975304Y-72735646D01*
X56088342Y-72678050D01*
X56178050Y-72588342D01*
X56235646Y-72475304D01*
X56235646Y-72475302D01*
X56235647Y-72475301D01*
X56249853Y-72385606D01*
X56250500Y-72381519D01*
X56250499Y-70618482D01*
X56235646Y-70524696D01*
X56178050Y-70411658D01*
X56178046Y-70411654D01*
X56178045Y-70411652D01*
X56088347Y-70321954D01*
X56088344Y-70321952D01*
X56088342Y-70321950D01*
X56011517Y-70282805D01*
X55975301Y-70264352D01*
X55881524Y-70249500D01*
X54118482Y-70249500D01*
X54037519Y-70262323D01*
X54024696Y-70264354D01*
X53911658Y-70321950D01*
X53911657Y-70321951D01*
X53911652Y-70321954D01*
X53821954Y-70411652D01*
X53821951Y-70411657D01*
X53764352Y-70524698D01*
X53749500Y-70618475D01*
X47141339Y-70618475D01*
X51198395Y-66561419D01*
X51259718Y-66527934D01*
X51286076Y-66525100D01*
X51296395Y-66525100D01*
X51387441Y-66506989D01*
X51431728Y-66498180D01*
X51559211Y-66445375D01*
X51673942Y-66368714D01*
X51771514Y-66271142D01*
X51848175Y-66156411D01*
X51900980Y-66028928D01*
X51927900Y-65893593D01*
X51927900Y-65755607D01*
X51927900Y-65755604D01*
X51900981Y-65620277D01*
X51900980Y-65620276D01*
X51900980Y-65620272D01*
X51900978Y-65620267D01*
X51848178Y-65492795D01*
X51848171Y-65492782D01*
X51799734Y-65420291D01*
X51778856Y-65353613D01*
X51797341Y-65286233D01*
X51849319Y-65239543D01*
X51902836Y-65227400D01*
X58172481Y-65227400D01*
X58239520Y-65247085D01*
X58260162Y-65263719D01*
X58267454Y-65271011D01*
X58267458Y-65271014D01*
X58382182Y-65347671D01*
X58382195Y-65347678D01*
X58455540Y-65378058D01*
X58509672Y-65400480D01*
X58509676Y-65400480D01*
X58509677Y-65400481D01*
X58645004Y-65427400D01*
X58645007Y-65427400D01*
X58782995Y-65427400D01*
X58874041Y-65409289D01*
X58918328Y-65400480D01*
X59045811Y-65347675D01*
X59160542Y-65271014D01*
X59258114Y-65173442D01*
X59334775Y-65058711D01*
X59387580Y-64931228D01*
X59414500Y-64795893D01*
X59414500Y-64657907D01*
X59414500Y-64657904D01*
X59387581Y-64522577D01*
X59387580Y-64522576D01*
X59387580Y-64522572D01*
X59387578Y-64522567D01*
X59334778Y-64395095D01*
X59334771Y-64395082D01*
X59258114Y-64280358D01*
X59258111Y-64280354D01*
X59160545Y-64182788D01*
X59160541Y-64182785D01*
X59045817Y-64106128D01*
X59045804Y-64106121D01*
X58918332Y-64053321D01*
X58918322Y-64053318D01*
X58782995Y-64026400D01*
X58782993Y-64026400D01*
X58645007Y-64026400D01*
X58645005Y-64026400D01*
X58509677Y-64053318D01*
X58509667Y-64053321D01*
X58382195Y-64106121D01*
X58382182Y-64106128D01*
X58267458Y-64182785D01*
X58267454Y-64182788D01*
X58260162Y-64190081D01*
X58198839Y-64223566D01*
X58172481Y-64226400D01*
X20718376Y-64226400D01*
X20651337Y-64206715D01*
X20630695Y-64190081D01*
X20600716Y-64160102D01*
X20600714Y-64160100D01*
X20543650Y-64127154D01*
X20486587Y-64094208D01*
X20422939Y-64077154D01*
X20359293Y-64060100D01*
X20227508Y-64060100D01*
X20100212Y-64094208D01*
X19986086Y-64160100D01*
X19986083Y-64160102D01*
X19956105Y-64190081D01*
X19894782Y-64223566D01*
X19868424Y-64226400D01*
X15207208Y-64226400D01*
X15079912Y-64260508D01*
X14965786Y-64326400D01*
X14965783Y-64326402D01*
X10529005Y-68763181D01*
X10467682Y-68796666D01*
X10441324Y-68799500D01*
X9384298Y-68799500D01*
X9347432Y-68802401D01*
X9347426Y-68802402D01*
X9189606Y-68848254D01*
X9189603Y-68848255D01*
X9048137Y-68931917D01*
X9048129Y-68931923D01*
X8931923Y-69048129D01*
X8931917Y-69048137D01*
X8848255Y-69189603D01*
X8848254Y-69189606D01*
X8802402Y-69347426D01*
X8802401Y-69347432D01*
X8799500Y-69384298D01*
X8799500Y-70615701D01*
X8802401Y-70652567D01*
X8802402Y-70652573D01*
X8848254Y-70810393D01*
X8848255Y-70810396D01*
X8931917Y-70951862D01*
X8931923Y-70951870D01*
X9036988Y-71056935D01*
X9070473Y-71118258D01*
X9065489Y-71187950D01*
X9036988Y-71232297D01*
X8590886Y-71678400D01*
X8497702Y-71771583D01*
X8497700Y-71771586D01*
X8431808Y-71885712D01*
X8397700Y-72013008D01*
X500500Y-72013008D01*
X500500Y-59962014D01*
X3700000Y-59962014D01*
X3700000Y-60197985D01*
X3730799Y-60431914D01*
X3791870Y-60659837D01*
X3882160Y-60877819D01*
X3882168Y-60877835D01*
X4000138Y-61082163D01*
X4000148Y-61082178D01*
X4032020Y-61123715D01*
X4878247Y-60277488D01*
X4923978Y-60387890D01*
X4995112Y-60494351D01*
X5085649Y-60584888D01*
X5192110Y-60656022D01*
X5302511Y-60701752D01*
X4456284Y-61547979D01*
X4497822Y-61579851D01*
X4497836Y-61579861D01*
X4702164Y-61697831D01*
X4702180Y-61697839D01*
X4920163Y-61788129D01*
X4920161Y-61788129D01*
X5148085Y-61849200D01*
X5382014Y-61879999D01*
X5382029Y-61880000D01*
X5617971Y-61880000D01*
X5617985Y-61879999D01*
X5851914Y-61849200D01*
X6079837Y-61788129D01*
X6297819Y-61697839D01*
X6297828Y-61697834D01*
X6502171Y-61579855D01*
X6502172Y-61579854D01*
X6543714Y-61547978D01*
X5697488Y-60701752D01*
X5807890Y-60656022D01*
X5914351Y-60584888D01*
X6004888Y-60494351D01*
X6076022Y-60387890D01*
X6121752Y-60277488D01*
X6967978Y-61123714D01*
X6999854Y-61082172D01*
X6999855Y-61082171D01*
X7117834Y-60877828D01*
X7117839Y-60877819D01*
X7208129Y-60659837D01*
X7269200Y-60431914D01*
X7299999Y-60197985D01*
X7300000Y-60197971D01*
X7300000Y-59962028D01*
X7299999Y-59962014D01*
X7269200Y-59728085D01*
X7208129Y-59500162D01*
X7117839Y-59282180D01*
X7117831Y-59282164D01*
X6999861Y-59077836D01*
X6999851Y-59077822D01*
X6967979Y-59036284D01*
X6121752Y-59882510D01*
X6076022Y-59772110D01*
X6004888Y-59665649D01*
X5914351Y-59575112D01*
X5807890Y-59503978D01*
X5697489Y-59458247D01*
X6543715Y-58612020D01*
X6502178Y-58580148D01*
X6502163Y-58580138D01*
X6297835Y-58462168D01*
X6297819Y-58462160D01*
X6079836Y-58371870D01*
X6079838Y-58371870D01*
X5851914Y-58310799D01*
X5617985Y-58280000D01*
X5382014Y-58280000D01*
X5148085Y-58310799D01*
X4920162Y-58371870D01*
X4702180Y-58462160D01*
X4702164Y-58462168D01*
X4497836Y-58580138D01*
X4497823Y-58580147D01*
X4456283Y-58612020D01*
X5302511Y-59458247D01*
X5192110Y-59503978D01*
X5085649Y-59575112D01*
X4995112Y-59665649D01*
X4923978Y-59772110D01*
X4878247Y-59882510D01*
X4032020Y-59036283D01*
X4000147Y-59077823D01*
X4000138Y-59077836D01*
X3882168Y-59282164D01*
X3882160Y-59282180D01*
X3791870Y-59500162D01*
X3730799Y-59728085D01*
X3700000Y-59962014D01*
X500500Y-59962014D01*
X500500Y-53884298D01*
X3799500Y-53884298D01*
X3799500Y-56115701D01*
X3802401Y-56152567D01*
X3802402Y-56152573D01*
X3848254Y-56310393D01*
X3848255Y-56310396D01*
X3931917Y-56451862D01*
X3931923Y-56451870D01*
X4048129Y-56568076D01*
X4048133Y-56568079D01*
X4048135Y-56568081D01*
X4189602Y-56651744D01*
X4224955Y-56662015D01*
X4347426Y-56697597D01*
X4347429Y-56697597D01*
X4347431Y-56697598D01*
X4384306Y-56700500D01*
X4384314Y-56700500D01*
X6615686Y-56700500D01*
X6615694Y-56700500D01*
X6652569Y-56697598D01*
X6652571Y-56697597D01*
X6652573Y-56697597D01*
X6717044Y-56678866D01*
X6810398Y-56651744D01*
X6951865Y-56568081D01*
X7068081Y-56451865D01*
X7151744Y-56310398D01*
X7197598Y-56152569D01*
X7200500Y-56115694D01*
X7200500Y-55624500D01*
X7220185Y-55557461D01*
X7272989Y-55511706D01*
X7324500Y-55500500D01*
X14186436Y-55500500D01*
X14253475Y-55520185D01*
X14299230Y-55572989D01*
X14300997Y-55577047D01*
X14390700Y-55793610D01*
X14390705Y-55793620D01*
X14508058Y-55996882D01*
X14650940Y-56183090D01*
X14650946Y-56183097D01*
X14816902Y-56349053D01*
X14816909Y-56349059D01*
X15003117Y-56491941D01*
X15177486Y-56592613D01*
X15225702Y-56643180D01*
X15238925Y-56711787D01*
X15212957Y-56776652D01*
X15177486Y-56807387D01*
X15003117Y-56908058D01*
X14816909Y-57050940D01*
X14816902Y-57050946D01*
X14650946Y-57216902D01*
X14650940Y-57216909D01*
X14508058Y-57403117D01*
X14390705Y-57606379D01*
X14390700Y-57606389D01*
X14300886Y-57823220D01*
X14300881Y-57823234D01*
X14280446Y-57899500D01*
X14253652Y-57999500D01*
X14240137Y-58049938D01*
X14240134Y-58049951D01*
X14209501Y-58282634D01*
X14209500Y-58282650D01*
X14209500Y-58517349D01*
X14209501Y-58517365D01*
X14240134Y-58750048D01*
X14240135Y-58750053D01*
X14240136Y-58750059D01*
X14300883Y-58976772D01*
X14300886Y-58976779D01*
X14390700Y-59193610D01*
X14390705Y-59193620D01*
X14508058Y-59396882D01*
X14650940Y-59583090D01*
X14650946Y-59583097D01*
X14816902Y-59749053D01*
X14816909Y-59749059D01*
X15003117Y-59891941D01*
X15206379Y-60009294D01*
X15206389Y-60009299D01*
X15299316Y-60047790D01*
X15423228Y-60099117D01*
X15649941Y-60159864D01*
X15882644Y-60190500D01*
X15882651Y-60190500D01*
X16117349Y-60190500D01*
X16117356Y-60190500D01*
X16350059Y-60159864D01*
X16576772Y-60099117D01*
X16793617Y-60009296D01*
X16996883Y-59891941D01*
X17183092Y-59749058D01*
X17349058Y-59583092D01*
X17491941Y-59396883D01*
X17609296Y-59193617D01*
X17699117Y-58976772D01*
X17759864Y-58750059D01*
X17790500Y-58517356D01*
X17790500Y-58282644D01*
X17759864Y-58049941D01*
X17699117Y-57823228D01*
X17640908Y-57682700D01*
X17609299Y-57606389D01*
X17609294Y-57606379D01*
X17491941Y-57403117D01*
X17349059Y-57216909D01*
X17349053Y-57216902D01*
X17183097Y-57050946D01*
X17183090Y-57050940D01*
X16996882Y-56908058D01*
X16822513Y-56807387D01*
X16774298Y-56756821D01*
X16761074Y-56688214D01*
X16787042Y-56623349D01*
X16822513Y-56592613D01*
X16865004Y-56568081D01*
X16996883Y-56491941D01*
X17183092Y-56349058D01*
X17349058Y-56183092D01*
X17491941Y-55996883D01*
X17609296Y-55793617D01*
X17699117Y-55576772D01*
X17759864Y-55350059D01*
X17790500Y-55117356D01*
X17790500Y-54882650D01*
X24129500Y-54882650D01*
X24129500Y-55117349D01*
X24129501Y-55117365D01*
X24160134Y-55350048D01*
X24160135Y-55350053D01*
X24160136Y-55350059D01*
X24220883Y-55576772D01*
X24220886Y-55576779D01*
X24310700Y-55793610D01*
X24310705Y-55793620D01*
X24428058Y-55996882D01*
X24570940Y-56183090D01*
X24570946Y-56183097D01*
X24736902Y-56349053D01*
X24736909Y-56349059D01*
X24923117Y-56491941D01*
X25097486Y-56592613D01*
X25145702Y-56643180D01*
X25158925Y-56711787D01*
X25132957Y-56776652D01*
X25097486Y-56807387D01*
X24923117Y-56908058D01*
X24736909Y-57050940D01*
X24736902Y-57050946D01*
X24570946Y-57216902D01*
X24570940Y-57216909D01*
X24428058Y-57403117D01*
X24310705Y-57606379D01*
X24310700Y-57606389D01*
X24220886Y-57823220D01*
X24220881Y-57823234D01*
X24200446Y-57899500D01*
X24173652Y-57999500D01*
X24160137Y-58049938D01*
X24160134Y-58049951D01*
X24129501Y-58282634D01*
X24129500Y-58282650D01*
X24129500Y-58517349D01*
X24129501Y-58517365D01*
X24160134Y-58750048D01*
X24160135Y-58750053D01*
X24160136Y-58750059D01*
X24220883Y-58976772D01*
X24220886Y-58976779D01*
X24310700Y-59193610D01*
X24310705Y-59193620D01*
X24428058Y-59396882D01*
X24570940Y-59583090D01*
X24570946Y-59583097D01*
X24736902Y-59749053D01*
X24736909Y-59749059D01*
X24923117Y-59891941D01*
X25126379Y-60009294D01*
X25126389Y-60009299D01*
X25219316Y-60047790D01*
X25343228Y-60099117D01*
X25569941Y-60159864D01*
X25802644Y-60190500D01*
X25802651Y-60190500D01*
X26037349Y-60190500D01*
X26037356Y-60190500D01*
X26270059Y-60159864D01*
X26496772Y-60099117D01*
X26713617Y-60009296D01*
X26916883Y-59891941D01*
X27103092Y-59749058D01*
X27269058Y-59583092D01*
X27411941Y-59396883D01*
X27529296Y-59193617D01*
X27543044Y-59160428D01*
X27594466Y-59036284D01*
X27619003Y-58977046D01*
X27662844Y-58922644D01*
X27729138Y-58900579D01*
X27733564Y-58900500D01*
X43141324Y-58900500D01*
X43208363Y-58920185D01*
X43229005Y-58936819D01*
X43563181Y-59270995D01*
X43596666Y-59332318D01*
X43599500Y-59358676D01*
X43599500Y-60815701D01*
X43602401Y-60852567D01*
X43602402Y-60852573D01*
X43648254Y-61010393D01*
X43648255Y-61010396D01*
X43726102Y-61142030D01*
X43731918Y-61151864D01*
X43731923Y-61151870D01*
X43848129Y-61268076D01*
X43848133Y-61268079D01*
X43848135Y-61268081D01*
X43989602Y-61351744D01*
X44031224Y-61363836D01*
X44147426Y-61397597D01*
X44147429Y-61397597D01*
X44147431Y-61397598D01*
X44184306Y-61400500D01*
X44184314Y-61400500D01*
X45815686Y-61400500D01*
X45815694Y-61400500D01*
X45852569Y-61397598D01*
X45852571Y-61397597D01*
X45852573Y-61397597D01*
X45894191Y-61385505D01*
X46010398Y-61351744D01*
X46151865Y-61268081D01*
X46268081Y-61151865D01*
X46351744Y-61010398D01*
X46385505Y-60894191D01*
X46397597Y-60852573D01*
X46397598Y-60852567D01*
X46400500Y-60815694D01*
X46400500Y-59358676D01*
X46409144Y-59329235D01*
X46415668Y-59299249D01*
X46419422Y-59294233D01*
X46420185Y-59291637D01*
X46436819Y-59270995D01*
X46517695Y-59190119D01*
X46579018Y-59156634D01*
X46605376Y-59153800D01*
X48545322Y-59153800D01*
X48612361Y-59173485D01*
X48658116Y-59226289D01*
X48668060Y-59295447D01*
X48655807Y-59334095D01*
X48609897Y-59424197D01*
X48536934Y-59648752D01*
X48500000Y-59881947D01*
X48500000Y-60118052D01*
X48536934Y-60351247D01*
X48609897Y-60575802D01*
X48717081Y-60786163D01*
X48717089Y-60786176D01*
X48747584Y-60828149D01*
X48747585Y-60828150D01*
X49502094Y-60073641D01*
X49534075Y-60192993D01*
X49599901Y-60307007D01*
X49692993Y-60400099D01*
X49807007Y-60465925D01*
X49926358Y-60497905D01*
X49171849Y-61252413D01*
X49213828Y-61282914D01*
X49424197Y-61390102D01*
X49648752Y-61463065D01*
X49648751Y-61463065D01*
X49881948Y-61500000D01*
X50118052Y-61500000D01*
X50351247Y-61463065D01*
X50575802Y-61390102D01*
X50786171Y-61282914D01*
X50828149Y-61252413D01*
X50073641Y-60497905D01*
X50192993Y-60465925D01*
X50307007Y-60400099D01*
X50400099Y-60307007D01*
X50465925Y-60192993D01*
X50497905Y-60073641D01*
X51252413Y-60828149D01*
X51282914Y-60786171D01*
X51390102Y-60575802D01*
X51463065Y-60351247D01*
X51500000Y-60118052D01*
X51500000Y-59881947D01*
X51463065Y-59648752D01*
X51390102Y-59424197D01*
X51344193Y-59334095D01*
X51331297Y-59265426D01*
X51357573Y-59200685D01*
X51414679Y-59160428D01*
X51454678Y-59153800D01*
X58475500Y-59153800D01*
X58542539Y-59173485D01*
X58588294Y-59226289D01*
X58599500Y-59277800D01*
X58599500Y-60815701D01*
X58602401Y-60852567D01*
X58602402Y-60852573D01*
X58648254Y-61010393D01*
X58648255Y-61010396D01*
X58726102Y-61142030D01*
X58731918Y-61151864D01*
X58731923Y-61151870D01*
X58848129Y-61268076D01*
X58848133Y-61268079D01*
X58848135Y-61268081D01*
X58989602Y-61351744D01*
X59031224Y-61363836D01*
X59147426Y-61397597D01*
X59147429Y-61397597D01*
X59147431Y-61397598D01*
X59184306Y-61400500D01*
X59184314Y-61400500D01*
X60815686Y-61400500D01*
X60815694Y-61400500D01*
X60852569Y-61397598D01*
X60852571Y-61397597D01*
X60852573Y-61397597D01*
X60894191Y-61385505D01*
X61010398Y-61351744D01*
X61151865Y-61268081D01*
X61268081Y-61151865D01*
X61351744Y-61010398D01*
X61385505Y-60894191D01*
X61397597Y-60852573D01*
X61397598Y-60852567D01*
X61400500Y-60815694D01*
X61400500Y-59881947D01*
X63500000Y-59881947D01*
X63500000Y-60118052D01*
X63536934Y-60351247D01*
X63609897Y-60575802D01*
X63717081Y-60786163D01*
X63717089Y-60786176D01*
X63747584Y-60828149D01*
X63747586Y-60828150D01*
X64502094Y-60073641D01*
X64534075Y-60192993D01*
X64599901Y-60307007D01*
X64692993Y-60400099D01*
X64807007Y-60465925D01*
X64926358Y-60497905D01*
X64171849Y-61252413D01*
X64213828Y-61282914D01*
X64424197Y-61390102D01*
X64648752Y-61463065D01*
X64648751Y-61463065D01*
X64881948Y-61500000D01*
X65118052Y-61500000D01*
X65351247Y-61463065D01*
X65575802Y-61390102D01*
X65786171Y-61282914D01*
X65828149Y-61252413D01*
X65073641Y-60497905D01*
X65192993Y-60465925D01*
X65307007Y-60400099D01*
X65400099Y-60307007D01*
X65465925Y-60192993D01*
X65497905Y-60073641D01*
X66252413Y-60828149D01*
X66282914Y-60786171D01*
X66390102Y-60575802D01*
X66463065Y-60351247D01*
X66500000Y-60118052D01*
X66500000Y-59881947D01*
X66463065Y-59648752D01*
X66390102Y-59424197D01*
X66282914Y-59213828D01*
X66252413Y-59171849D01*
X65497905Y-59926357D01*
X65465925Y-59807007D01*
X65400099Y-59692993D01*
X65307007Y-59599901D01*
X65192993Y-59534075D01*
X65073642Y-59502094D01*
X65828150Y-58747586D01*
X65828149Y-58747584D01*
X65786176Y-58717089D01*
X65786163Y-58717081D01*
X65575802Y-58609897D01*
X65351247Y-58536934D01*
X65351248Y-58536934D01*
X65118052Y-58500000D01*
X64881948Y-58500000D01*
X64648752Y-58536934D01*
X64424197Y-58609897D01*
X64213824Y-58717087D01*
X64171849Y-58747584D01*
X64171848Y-58747585D01*
X64926358Y-59502094D01*
X64807007Y-59534075D01*
X64692993Y-59599901D01*
X64599901Y-59692993D01*
X64534075Y-59807007D01*
X64502094Y-59926357D01*
X63747585Y-59171848D01*
X63747584Y-59171849D01*
X63717087Y-59213824D01*
X63609897Y-59424197D01*
X63536934Y-59648752D01*
X63500000Y-59881947D01*
X61400500Y-59881947D01*
X61400500Y-59184306D01*
X61397598Y-59147431D01*
X61351744Y-58989602D01*
X61268081Y-58848135D01*
X61268078Y-58848132D01*
X61268076Y-58848129D01*
X61151870Y-58731923D01*
X61151862Y-58731917D01*
X61112772Y-58708799D01*
X61010398Y-58648256D01*
X60981186Y-58639769D01*
X60922302Y-58602164D01*
X60893095Y-58538691D01*
X60902841Y-58469504D01*
X60928098Y-58433015D01*
X61642095Y-57719019D01*
X61703418Y-57685534D01*
X61729776Y-57682700D01*
X68921681Y-57682700D01*
X68988720Y-57702385D01*
X69009362Y-57719019D01*
X69016654Y-57726311D01*
X69016658Y-57726314D01*
X69131382Y-57802971D01*
X69131395Y-57802978D01*
X69258867Y-57855778D01*
X69258872Y-57855780D01*
X69258876Y-57855780D01*
X69258877Y-57855781D01*
X69394204Y-57882700D01*
X69394207Y-57882700D01*
X69532195Y-57882700D01*
X69623241Y-57864589D01*
X69667528Y-57855780D01*
X69795011Y-57802975D01*
X69909742Y-57726314D01*
X69909745Y-57726311D01*
X69917038Y-57719019D01*
X69978361Y-57685534D01*
X70004719Y-57682700D01*
X93343690Y-57682700D01*
X93343692Y-57682700D01*
X93470986Y-57648592D01*
X93585114Y-57582700D01*
X100829056Y-50338755D01*
X100890377Y-50305272D01*
X100955052Y-50308507D01*
X101132046Y-50366014D01*
X101132049Y-50366015D01*
X101349778Y-50400500D01*
X101349779Y-50400500D01*
X101570221Y-50400500D01*
X101570222Y-50400500D01*
X101787951Y-50366015D01*
X101997606Y-50297895D01*
X102194022Y-50197815D01*
X102339546Y-50092086D01*
X102372357Y-50068248D01*
X102372357Y-50068247D01*
X102372365Y-50068242D01*
X102472926Y-49967680D01*
X102534245Y-49934198D01*
X102603937Y-49939182D01*
X102659871Y-49981053D01*
X102676786Y-50012030D01*
X102706646Y-50092087D01*
X102706649Y-50092093D01*
X102792809Y-50207187D01*
X102792812Y-50207190D01*
X102907906Y-50293350D01*
X102907913Y-50293354D01*
X103042620Y-50343596D01*
X103042627Y-50343598D01*
X103102155Y-50349999D01*
X103102172Y-50350000D01*
X103700000Y-50350000D01*
X103700000Y-49404144D01*
X103807007Y-49465925D01*
X103934174Y-49500000D01*
X104065826Y-49500000D01*
X104192993Y-49465925D01*
X104300000Y-49404144D01*
X104300000Y-50350000D01*
X104897828Y-50350000D01*
X104897844Y-50349999D01*
X104957372Y-50343598D01*
X104957379Y-50343596D01*
X105092086Y-50293354D01*
X105092093Y-50293350D01*
X105207187Y-50207190D01*
X105207190Y-50207187D01*
X105293350Y-50092093D01*
X105293354Y-50092086D01*
X105343596Y-49957379D01*
X105343598Y-49957372D01*
X105349999Y-49897844D01*
X105350000Y-49897827D01*
X105350000Y-49300000D01*
X104404144Y-49300000D01*
X104465925Y-49192993D01*
X104500000Y-49065826D01*
X104500000Y-48934174D01*
X104465925Y-48807007D01*
X104404144Y-48700000D01*
X105350000Y-48700000D01*
X105350000Y-48102172D01*
X105349999Y-48102155D01*
X105343598Y-48042627D01*
X105343596Y-48042620D01*
X105293354Y-47907913D01*
X105293350Y-47907906D01*
X105207190Y-47792812D01*
X105207187Y-47792809D01*
X105092093Y-47706649D01*
X105092086Y-47706645D01*
X104957379Y-47656403D01*
X104957372Y-47656401D01*
X104897844Y-47650000D01*
X104300000Y-47650000D01*
X104300000Y-48595855D01*
X104192993Y-48534075D01*
X104065826Y-48500000D01*
X103934174Y-48500000D01*
X103807007Y-48534075D01*
X103700000Y-48595855D01*
X103700000Y-47650000D01*
X103102155Y-47650000D01*
X103042627Y-47656401D01*
X103042620Y-47656403D01*
X103027831Y-47661919D01*
X102958139Y-47666902D01*
X102896817Y-47633415D01*
X102863333Y-47572091D01*
X102860500Y-47545736D01*
X102860500Y-43454263D01*
X102880185Y-43387224D01*
X102932989Y-43341469D01*
X103002147Y-43331525D01*
X103027835Y-43338082D01*
X103042619Y-43343596D01*
X103042627Y-43343598D01*
X103102155Y-43349999D01*
X103102172Y-43350000D01*
X103700000Y-43350000D01*
X103700000Y-42404144D01*
X103807007Y-42465925D01*
X103934174Y-42500000D01*
X104065826Y-42500000D01*
X104192993Y-42465925D01*
X104300000Y-42404144D01*
X104300000Y-43350000D01*
X104897828Y-43350000D01*
X104897844Y-43349999D01*
X104957372Y-43343598D01*
X104957379Y-43343596D01*
X105092086Y-43293354D01*
X105092093Y-43293350D01*
X105207187Y-43207190D01*
X105207190Y-43207187D01*
X105293350Y-43092093D01*
X105293354Y-43092086D01*
X105343596Y-42957379D01*
X105343598Y-42957372D01*
X105349999Y-42897844D01*
X105350000Y-42897827D01*
X105350000Y-42300000D01*
X104404144Y-42300000D01*
X104465925Y-42192993D01*
X104500000Y-42065826D01*
X104500000Y-41934174D01*
X104465925Y-41807007D01*
X104404144Y-41700000D01*
X105350000Y-41700000D01*
X105350000Y-41102172D01*
X105349999Y-41102155D01*
X105343598Y-41042627D01*
X105343596Y-41042620D01*
X105293354Y-40907913D01*
X105293350Y-40907906D01*
X105207190Y-40792812D01*
X105207187Y-40792809D01*
X105092093Y-40706649D01*
X105092086Y-40706645D01*
X104957379Y-40656403D01*
X104957372Y-40656401D01*
X104897844Y-40650000D01*
X104300000Y-40650000D01*
X104300000Y-41595855D01*
X104192993Y-41534075D01*
X104065826Y-41500000D01*
X103934174Y-41500000D01*
X103807007Y-41534075D01*
X103700000Y-41595855D01*
X103700000Y-40650000D01*
X103102155Y-40650000D01*
X103042627Y-40656401D01*
X103042620Y-40656403D01*
X103027831Y-40661919D01*
X102958139Y-40666902D01*
X102896817Y-40633415D01*
X102863333Y-40572091D01*
X102860500Y-40545736D01*
X102860500Y-36454263D01*
X102880185Y-36387224D01*
X102932989Y-36341469D01*
X103002147Y-36331525D01*
X103027835Y-36338082D01*
X103042619Y-36343596D01*
X103042627Y-36343598D01*
X103102155Y-36349999D01*
X103102172Y-36350000D01*
X103700000Y-36350000D01*
X103700000Y-35404144D01*
X103807007Y-35465925D01*
X103934174Y-35500000D01*
X104065826Y-35500000D01*
X104192993Y-35465925D01*
X104300000Y-35404144D01*
X104300000Y-36350000D01*
X104897828Y-36350000D01*
X104897844Y-36349999D01*
X104957372Y-36343598D01*
X104957379Y-36343596D01*
X105092086Y-36293354D01*
X105092093Y-36293350D01*
X105207187Y-36207190D01*
X105207190Y-36207187D01*
X105293350Y-36092093D01*
X105293354Y-36092086D01*
X105343596Y-35957379D01*
X105343598Y-35957372D01*
X105349999Y-35897844D01*
X105350000Y-35897827D01*
X105350000Y-35300000D01*
X104404144Y-35300000D01*
X104465925Y-35192993D01*
X104500000Y-35065826D01*
X104500000Y-34934174D01*
X104465925Y-34807007D01*
X104404144Y-34700000D01*
X105350000Y-34700000D01*
X105350000Y-34102172D01*
X105349999Y-34102155D01*
X105343598Y-34042627D01*
X105343596Y-34042620D01*
X105293354Y-33907913D01*
X105293350Y-33907906D01*
X105207190Y-33792812D01*
X105207187Y-33792809D01*
X105092093Y-33706649D01*
X105092086Y-33706645D01*
X104957379Y-33656403D01*
X104957372Y-33656401D01*
X104897844Y-33650000D01*
X104300000Y-33650000D01*
X104300000Y-34595855D01*
X104192993Y-34534075D01*
X104065826Y-34500000D01*
X103934174Y-34500000D01*
X103807007Y-34534075D01*
X103700000Y-34595855D01*
X103700000Y-33650000D01*
X103102155Y-33650000D01*
X103042627Y-33656401D01*
X103042620Y-33656403D01*
X103027831Y-33661919D01*
X102958139Y-33666902D01*
X102896817Y-33633415D01*
X102863333Y-33572091D01*
X102860500Y-33545736D01*
X102860500Y-25454263D01*
X102880185Y-25387224D01*
X102932989Y-25341469D01*
X103002147Y-25331525D01*
X103027835Y-25338082D01*
X103042619Y-25343596D01*
X103042627Y-25343598D01*
X103102155Y-25349999D01*
X103102172Y-25350000D01*
X103700000Y-25350000D01*
X103700000Y-24404144D01*
X103807007Y-24465925D01*
X103934174Y-24500000D01*
X104065826Y-24500000D01*
X104192993Y-24465925D01*
X104300000Y-24404144D01*
X104300000Y-25350000D01*
X104897828Y-25350000D01*
X104897844Y-25349999D01*
X104957372Y-25343598D01*
X104957379Y-25343596D01*
X105092086Y-25293354D01*
X105092093Y-25293350D01*
X105207187Y-25207190D01*
X105207190Y-25207187D01*
X105293350Y-25092093D01*
X105293354Y-25092086D01*
X105343596Y-24957379D01*
X105343598Y-24957372D01*
X105349999Y-24897844D01*
X105350000Y-24897827D01*
X105350000Y-24300000D01*
X104404144Y-24300000D01*
X104465925Y-24192993D01*
X104500000Y-24065826D01*
X104500000Y-23934174D01*
X104465925Y-23807007D01*
X104404144Y-23700000D01*
X105350000Y-23700000D01*
X105350000Y-23102172D01*
X105349999Y-23102155D01*
X105343598Y-23042627D01*
X105343596Y-23042620D01*
X105293354Y-22907913D01*
X105293350Y-22907906D01*
X105207190Y-22792812D01*
X105207187Y-22792809D01*
X105092093Y-22706649D01*
X105092086Y-22706645D01*
X104957379Y-22656403D01*
X104957372Y-22656401D01*
X104897844Y-22650000D01*
X104300000Y-22650000D01*
X104300000Y-23595855D01*
X104192993Y-23534075D01*
X104065826Y-23500000D01*
X103934174Y-23500000D01*
X103807007Y-23534075D01*
X103700000Y-23595855D01*
X103700000Y-22650000D01*
X103102155Y-22650000D01*
X103042627Y-22656401D01*
X103042620Y-22656403D01*
X103027831Y-22661919D01*
X102958139Y-22666902D01*
X102896817Y-22633415D01*
X102863333Y-22572091D01*
X102860500Y-22545736D01*
X102860500Y-18454263D01*
X102880185Y-18387224D01*
X102932989Y-18341469D01*
X103002147Y-18331525D01*
X103027835Y-18338082D01*
X103042619Y-18343596D01*
X103042627Y-18343598D01*
X103102155Y-18349999D01*
X103102172Y-18350000D01*
X103700000Y-18350000D01*
X103700000Y-17404144D01*
X103807007Y-17465925D01*
X103934174Y-17500000D01*
X104065826Y-17500000D01*
X104192993Y-17465925D01*
X104300000Y-17404144D01*
X104300000Y-18350000D01*
X104897828Y-18350000D01*
X104897844Y-18349999D01*
X104957372Y-18343598D01*
X104957379Y-18343596D01*
X105092086Y-18293354D01*
X105092093Y-18293350D01*
X105207187Y-18207190D01*
X105207190Y-18207187D01*
X105293350Y-18092093D01*
X105293354Y-18092086D01*
X105343596Y-17957379D01*
X105343598Y-17957372D01*
X105349999Y-17897844D01*
X105350000Y-17897827D01*
X105350000Y-17300000D01*
X104404144Y-17300000D01*
X104465925Y-17192993D01*
X104500000Y-17065826D01*
X104500000Y-16934174D01*
X104465925Y-16807007D01*
X104404144Y-16700000D01*
X105350000Y-16700000D01*
X105350000Y-16102172D01*
X105349999Y-16102155D01*
X105343598Y-16042627D01*
X105343596Y-16042620D01*
X105293354Y-15907913D01*
X105293350Y-15907906D01*
X105207190Y-15792812D01*
X105207187Y-15792809D01*
X105092093Y-15706649D01*
X105092086Y-15706645D01*
X104957379Y-15656403D01*
X104957372Y-15656401D01*
X104897844Y-15650000D01*
X104300000Y-15650000D01*
X104300000Y-16595855D01*
X104192993Y-16534075D01*
X104065826Y-16500000D01*
X103934174Y-16500000D01*
X103807007Y-16534075D01*
X103700000Y-16595855D01*
X103700000Y-15650000D01*
X103102155Y-15650000D01*
X103042627Y-15656401D01*
X103042620Y-15656403D01*
X103027831Y-15661919D01*
X102958139Y-15666902D01*
X102896817Y-15633415D01*
X102863333Y-15572091D01*
X102860500Y-15545736D01*
X102860500Y-11454263D01*
X102880185Y-11387224D01*
X102932989Y-11341469D01*
X103002147Y-11331525D01*
X103027835Y-11338082D01*
X103042619Y-11343596D01*
X103042627Y-11343598D01*
X103102155Y-11349999D01*
X103102172Y-11350000D01*
X103700000Y-11350000D01*
X103700000Y-10404144D01*
X103807007Y-10465925D01*
X103934174Y-10500000D01*
X104065826Y-10500000D01*
X104192993Y-10465925D01*
X104300000Y-10404144D01*
X104300000Y-11350000D01*
X104897828Y-11350000D01*
X104897844Y-11349999D01*
X104957372Y-11343598D01*
X104957379Y-11343596D01*
X105092086Y-11293354D01*
X105092093Y-11293350D01*
X105207187Y-11207190D01*
X105207190Y-11207187D01*
X105293350Y-11092093D01*
X105293354Y-11092086D01*
X105343596Y-10957379D01*
X105343598Y-10957372D01*
X105349999Y-10897844D01*
X105350000Y-10897827D01*
X105350000Y-10300000D01*
X104404144Y-10300000D01*
X104465925Y-10192993D01*
X104500000Y-10065826D01*
X104500000Y-9934174D01*
X104465925Y-9807007D01*
X104404144Y-9700000D01*
X105350000Y-9700000D01*
X105350000Y-9102172D01*
X105349999Y-9102155D01*
X105343598Y-9042627D01*
X105343596Y-9042620D01*
X105293354Y-8907913D01*
X105293350Y-8907906D01*
X105207190Y-8792812D01*
X105207187Y-8792809D01*
X105092093Y-8706649D01*
X105092086Y-8706645D01*
X104957379Y-8656403D01*
X104957372Y-8656401D01*
X104897844Y-8650000D01*
X104300000Y-8650000D01*
X104300000Y-9595855D01*
X104192993Y-9534075D01*
X104065826Y-9500000D01*
X103934174Y-9500000D01*
X103807007Y-9534075D01*
X103700000Y-9595855D01*
X103700000Y-8650000D01*
X103102155Y-8650000D01*
X103042627Y-8656401D01*
X103042620Y-8656403D01*
X102907913Y-8706645D01*
X102907906Y-8706649D01*
X102792812Y-8792809D01*
X102792809Y-8792812D01*
X102706649Y-8907906D01*
X102706643Y-8907918D01*
X102676785Y-8987969D01*
X102634914Y-9043903D01*
X102569449Y-9068319D01*
X102501176Y-9053467D01*
X102472923Y-9032316D01*
X102372363Y-8931756D01*
X102372358Y-8931752D01*
X102194025Y-8802187D01*
X102194024Y-8802186D01*
X102194022Y-8802185D01*
X102114394Y-8761612D01*
X101997606Y-8702104D01*
X101997603Y-8702103D01*
X101787952Y-8633985D01*
X101679086Y-8616742D01*
X101570222Y-8599500D01*
X101349778Y-8599500D01*
X101277201Y-8610995D01*
X101132047Y-8633985D01*
X100922396Y-8702103D01*
X100922393Y-8702104D01*
X100725974Y-8802187D01*
X100547641Y-8931752D01*
X100547636Y-8931756D01*
X100391756Y-9087636D01*
X100391752Y-9087641D01*
X100262185Y-9265976D01*
X100216309Y-9356011D01*
X100168334Y-9406807D01*
X100100513Y-9423601D01*
X100034378Y-9401063D01*
X99995340Y-9356009D01*
X99989525Y-9344596D01*
X99972144Y-9320674D01*
X99873828Y-9185354D01*
X99734646Y-9046172D01*
X99575405Y-8930476D01*
X99400029Y-8841117D01*
X99212826Y-8780290D01*
X99018422Y-8749500D01*
X99018417Y-8749500D01*
X98821583Y-8749500D01*
X98821578Y-8749500D01*
X98627173Y-8780290D01*
X98439970Y-8841117D01*
X98264594Y-8930476D01*
X98262830Y-8931758D01*
X98105354Y-9046172D01*
X98105352Y-9046174D01*
X98105351Y-9046174D01*
X97966174Y-9185351D01*
X97966174Y-9185352D01*
X97966172Y-9185354D01*
X97960622Y-9192993D01*
X97850476Y-9344594D01*
X97761117Y-9519970D01*
X97700290Y-9707173D01*
X97669500Y-9901577D01*
X97669500Y-10098422D01*
X97700290Y-10292826D01*
X97761117Y-10480029D01*
X97799390Y-10555143D01*
X97850476Y-10655405D01*
X97966172Y-10814646D01*
X98105354Y-10953828D01*
X98264595Y-11069524D01*
X98347455Y-11111743D01*
X98439970Y-11158882D01*
X98439972Y-11158882D01*
X98439975Y-11158884D01*
X98540317Y-11191487D01*
X98627173Y-11219709D01*
X98821578Y-11250500D01*
X98821583Y-11250500D01*
X99018422Y-11250500D01*
X99212826Y-11219709D01*
X99251355Y-11207190D01*
X99400025Y-11158884D01*
X99575405Y-11069524D01*
X99734646Y-10953828D01*
X99847819Y-10840655D01*
X99909142Y-10807170D01*
X99978834Y-10812154D01*
X100034767Y-10854026D01*
X100059184Y-10919490D01*
X100059500Y-10928336D01*
X100059500Y-16071664D01*
X100039815Y-16138703D01*
X99987011Y-16184458D01*
X99917853Y-16194402D01*
X99854297Y-16165377D01*
X99847819Y-16159345D01*
X99734648Y-16046174D01*
X99734646Y-16046172D01*
X99575405Y-15930476D01*
X99400029Y-15841117D01*
X99212826Y-15780290D01*
X99018422Y-15749500D01*
X99018417Y-15749500D01*
X98821583Y-15749500D01*
X98821578Y-15749500D01*
X98627173Y-15780290D01*
X98439970Y-15841117D01*
X98264594Y-15930476D01*
X98173741Y-15996485D01*
X98105354Y-16046172D01*
X98105352Y-16046174D01*
X98105351Y-16046174D01*
X97966174Y-16185351D01*
X97966174Y-16185352D01*
X97966172Y-16185354D01*
X97916485Y-16253741D01*
X97850476Y-16344594D01*
X97761117Y-16519970D01*
X97700290Y-16707173D01*
X97669500Y-16901577D01*
X97669500Y-17098422D01*
X97700290Y-17292826D01*
X97761117Y-17480029D01*
X97814546Y-17584888D01*
X97850476Y-17655405D01*
X97966172Y-17814646D01*
X98105354Y-17953828D01*
X98264595Y-18069524D01*
X98347455Y-18111743D01*
X98439970Y-18158882D01*
X98439972Y-18158882D01*
X98439975Y-18158884D01*
X98540317Y-18191487D01*
X98627173Y-18219709D01*
X98821578Y-18250500D01*
X98821583Y-18250500D01*
X99018422Y-18250500D01*
X99212826Y-18219709D01*
X99251355Y-18207190D01*
X99400025Y-18158884D01*
X99575405Y-18069524D01*
X99734646Y-17953828D01*
X99847819Y-17840655D01*
X99909142Y-17807170D01*
X99978834Y-17812154D01*
X100034767Y-17854026D01*
X100059184Y-17919490D01*
X100059500Y-17928336D01*
X100059500Y-23071664D01*
X100039815Y-23138703D01*
X99987011Y-23184458D01*
X99917853Y-23194402D01*
X99854297Y-23165377D01*
X99847819Y-23159345D01*
X99734648Y-23046174D01*
X99734646Y-23046172D01*
X99575405Y-22930476D01*
X99400029Y-22841117D01*
X99212826Y-22780290D01*
X99018422Y-22749500D01*
X99018417Y-22749500D01*
X98821583Y-22749500D01*
X98821578Y-22749500D01*
X98627173Y-22780290D01*
X98439970Y-22841117D01*
X98264594Y-22930476D01*
X98173741Y-22996485D01*
X98105354Y-23046172D01*
X98105352Y-23046174D01*
X98105351Y-23046174D01*
X97966174Y-23185351D01*
X97966174Y-23185352D01*
X97966172Y-23185354D01*
X97948555Y-23209602D01*
X97850476Y-23344594D01*
X97761117Y-23519970D01*
X97700290Y-23707173D01*
X97669500Y-23901577D01*
X97669500Y-24098422D01*
X97700290Y-24292826D01*
X97761117Y-24480029D01*
X97805435Y-24567007D01*
X97850476Y-24655405D01*
X97966172Y-24814646D01*
X98105354Y-24953828D01*
X98264595Y-25069524D01*
X98322830Y-25099196D01*
X98439970Y-25158882D01*
X98439972Y-25158882D01*
X98439975Y-25158884D01*
X98519622Y-25184763D01*
X98627173Y-25219709D01*
X98821578Y-25250500D01*
X98821583Y-25250500D01*
X99018422Y-25250500D01*
X99212826Y-25219709D01*
X99251355Y-25207190D01*
X99400025Y-25158884D01*
X99575405Y-25069524D01*
X99734646Y-24953828D01*
X99847819Y-24840655D01*
X99909142Y-24807170D01*
X99978834Y-24812154D01*
X100034767Y-24854026D01*
X100059184Y-24919490D01*
X100059500Y-24928336D01*
X100059500Y-34071664D01*
X100039815Y-34138703D01*
X99987011Y-34184458D01*
X99917853Y-34194402D01*
X99854297Y-34165377D01*
X99847819Y-34159345D01*
X99734648Y-34046174D01*
X99734646Y-34046172D01*
X99575405Y-33930476D01*
X99400029Y-33841117D01*
X99212826Y-33780290D01*
X99018422Y-33749500D01*
X99018417Y-33749500D01*
X98821583Y-33749500D01*
X98821578Y-33749500D01*
X98627173Y-33780290D01*
X98439970Y-33841117D01*
X98264594Y-33930476D01*
X98173741Y-33996485D01*
X98105354Y-34046172D01*
X98105352Y-34046174D01*
X98105351Y-34046174D01*
X97966174Y-34185351D01*
X97966174Y-34185352D01*
X97966172Y-34185354D01*
X97916485Y-34253741D01*
X97850476Y-34344594D01*
X97761117Y-34519970D01*
X97700290Y-34707173D01*
X97669500Y-34901577D01*
X97669500Y-35098422D01*
X97700290Y-35292826D01*
X97761117Y-35480029D01*
X97850476Y-35655405D01*
X97966172Y-35814646D01*
X98105354Y-35953828D01*
X98264595Y-36069524D01*
X98347455Y-36111743D01*
X98439970Y-36158882D01*
X98439972Y-36158882D01*
X98439975Y-36158884D01*
X98540317Y-36191487D01*
X98627173Y-36219709D01*
X98821578Y-36250500D01*
X98821583Y-36250500D01*
X99018422Y-36250500D01*
X99212826Y-36219709D01*
X99251355Y-36207190D01*
X99400025Y-36158884D01*
X99575405Y-36069524D01*
X99734646Y-35953828D01*
X99847819Y-35840655D01*
X99909142Y-35807170D01*
X99978834Y-35812154D01*
X100034767Y-35854026D01*
X100059184Y-35919490D01*
X100059500Y-35928336D01*
X100059500Y-41071664D01*
X100039815Y-41138703D01*
X99987011Y-41184458D01*
X99917853Y-41194402D01*
X99854297Y-41165377D01*
X99847819Y-41159345D01*
X99734648Y-41046174D01*
X99734646Y-41046172D01*
X99575405Y-40930476D01*
X99565254Y-40925304D01*
X99400029Y-40841117D01*
X99212826Y-40780290D01*
X99018422Y-40749500D01*
X99018417Y-40749500D01*
X98821583Y-40749500D01*
X98821578Y-40749500D01*
X98627173Y-40780290D01*
X98439970Y-40841117D01*
X98264594Y-40930476D01*
X98180490Y-40991582D01*
X98105354Y-41046172D01*
X98105352Y-41046174D01*
X98105351Y-41046174D01*
X97966174Y-41185351D01*
X97966174Y-41185352D01*
X97966172Y-41185354D01*
X97955168Y-41200500D01*
X97850476Y-41344594D01*
X97761117Y-41519970D01*
X97700290Y-41707173D01*
X97669500Y-41901577D01*
X97669500Y-42098422D01*
X97700290Y-42292826D01*
X97761117Y-42480029D01*
X97850476Y-42655405D01*
X97966172Y-42814646D01*
X98105354Y-42953828D01*
X98264595Y-43069524D01*
X98347455Y-43111743D01*
X98439970Y-43158882D01*
X98439972Y-43158882D01*
X98439975Y-43158884D01*
X98540317Y-43191487D01*
X98627173Y-43219709D01*
X98821578Y-43250500D01*
X98821583Y-43250500D01*
X99018422Y-43250500D01*
X99212826Y-43219709D01*
X99251355Y-43207190D01*
X99400025Y-43158884D01*
X99575405Y-43069524D01*
X99734646Y-42953828D01*
X99847819Y-42840655D01*
X99909142Y-42807170D01*
X99978834Y-42812154D01*
X100034767Y-42854026D01*
X100059184Y-42919490D01*
X100059500Y-42928336D01*
X100059500Y-48071664D01*
X100039815Y-48138703D01*
X99987011Y-48184458D01*
X99917853Y-48194402D01*
X99854297Y-48165377D01*
X99847819Y-48159345D01*
X99734648Y-48046174D01*
X99734646Y-48046172D01*
X99575405Y-47930476D01*
X99400029Y-47841117D01*
X99212826Y-47780290D01*
X99018422Y-47749500D01*
X99018417Y-47749500D01*
X98821583Y-47749500D01*
X98821578Y-47749500D01*
X98627173Y-47780290D01*
X98439970Y-47841117D01*
X98264594Y-47930476D01*
X98173741Y-47996485D01*
X98105354Y-48046172D01*
X98105352Y-48046174D01*
X98105351Y-48046174D01*
X97966174Y-48185351D01*
X97966174Y-48185352D01*
X97966172Y-48185354D01*
X97916485Y-48253741D01*
X97850476Y-48344594D01*
X97761117Y-48519970D01*
X97700290Y-48707173D01*
X97669500Y-48901577D01*
X97669500Y-49098422D01*
X97700290Y-49292826D01*
X97761117Y-49480029D01*
X97808167Y-49572369D01*
X97850476Y-49655405D01*
X97966172Y-49814646D01*
X98105354Y-49953828D01*
X98264595Y-50069524D01*
X98347455Y-50111743D01*
X98439970Y-50158882D01*
X98439972Y-50158882D01*
X98439975Y-50158884D01*
X98540317Y-50191487D01*
X98627173Y-50219709D01*
X98821578Y-50250500D01*
X98821583Y-50250500D01*
X99018422Y-50250500D01*
X99188763Y-50223520D01*
X99212826Y-50219709D01*
X99212826Y-50219708D01*
X99215698Y-50219254D01*
X99284991Y-50228208D01*
X99338443Y-50273204D01*
X99359083Y-50339956D01*
X99340358Y-50407270D01*
X99322777Y-50429408D01*
X93106805Y-56645381D01*
X93045482Y-56678866D01*
X93019124Y-56681700D01*
X70004719Y-56681700D01*
X69937680Y-56662015D01*
X69917038Y-56645381D01*
X69909745Y-56638088D01*
X69909741Y-56638085D01*
X69795017Y-56561428D01*
X69795004Y-56561421D01*
X69667532Y-56508621D01*
X69667522Y-56508618D01*
X69532195Y-56481700D01*
X69532193Y-56481700D01*
X69394207Y-56481700D01*
X69394205Y-56481700D01*
X69258877Y-56508618D01*
X69258867Y-56508621D01*
X69131395Y-56561421D01*
X69131382Y-56561428D01*
X69016658Y-56638085D01*
X69016654Y-56638088D01*
X69009362Y-56645381D01*
X68948039Y-56678866D01*
X68921681Y-56681700D01*
X61405208Y-56681700D01*
X61277912Y-56715808D01*
X61163786Y-56781700D01*
X61163783Y-56781702D01*
X59829005Y-58116481D01*
X59767682Y-58149966D01*
X59741324Y-58152800D01*
X46280807Y-58152800D01*
X46153512Y-58186908D01*
X46039386Y-58252800D01*
X46039383Y-58252802D01*
X45729005Y-58563181D01*
X45667682Y-58596666D01*
X45641324Y-58599500D01*
X44358676Y-58599500D01*
X44291637Y-58579815D01*
X44270995Y-58563181D01*
X43707316Y-57999502D01*
X43707314Y-57999500D01*
X43650250Y-57966554D01*
X43593187Y-57933608D01*
X43529539Y-57916554D01*
X43465892Y-57899500D01*
X43465891Y-57899500D01*
X27733564Y-57899500D01*
X27666525Y-57879815D01*
X27620770Y-57827011D01*
X27619003Y-57822953D01*
X27529299Y-57606389D01*
X27529294Y-57606379D01*
X27411941Y-57403117D01*
X27269059Y-57216909D01*
X27269053Y-57216902D01*
X27103097Y-57050946D01*
X27103090Y-57050940D01*
X26916882Y-56908058D01*
X26742513Y-56807387D01*
X26694298Y-56756821D01*
X26681074Y-56688214D01*
X26707042Y-56623349D01*
X26742513Y-56592613D01*
X26785004Y-56568081D01*
X26916883Y-56491941D01*
X27103092Y-56349058D01*
X27269058Y-56183092D01*
X27411941Y-55996883D01*
X27529296Y-55793617D01*
X27619117Y-55576772D01*
X27679864Y-55350059D01*
X27710500Y-55117356D01*
X27710500Y-54882644D01*
X27679864Y-54649941D01*
X27619117Y-54423228D01*
X27567790Y-54299316D01*
X27529299Y-54206389D01*
X27529294Y-54206379D01*
X27411941Y-54003117D01*
X27269059Y-53816909D01*
X27269053Y-53816902D01*
X27103097Y-53650946D01*
X27103090Y-53650940D01*
X26916882Y-53508058D01*
X26713620Y-53390705D01*
X26713610Y-53390700D01*
X26496779Y-53300886D01*
X26496780Y-53300886D01*
X26496772Y-53300883D01*
X26270059Y-53240136D01*
X26270053Y-53240135D01*
X26270048Y-53240134D01*
X26037365Y-53209501D01*
X26037362Y-53209500D01*
X26037356Y-53209500D01*
X25802644Y-53209500D01*
X25802638Y-53209500D01*
X25802634Y-53209501D01*
X25569951Y-53240134D01*
X25569944Y-53240135D01*
X25569941Y-53240136D01*
X25494370Y-53260385D01*
X25343234Y-53300881D01*
X25343220Y-53300886D01*
X25126389Y-53390700D01*
X25126379Y-53390705D01*
X24923117Y-53508058D01*
X24736909Y-53650940D01*
X24736902Y-53650946D01*
X24570946Y-53816902D01*
X24570940Y-53816909D01*
X24428058Y-54003117D01*
X24310705Y-54206379D01*
X24310700Y-54206389D01*
X24220886Y-54423220D01*
X24220881Y-54423234D01*
X24160137Y-54649938D01*
X24160134Y-54649951D01*
X24129501Y-54882634D01*
X24129500Y-54882650D01*
X17790500Y-54882650D01*
X17790500Y-54882644D01*
X17759864Y-54649941D01*
X17699117Y-54423228D01*
X17647790Y-54299316D01*
X17609299Y-54206389D01*
X17609294Y-54206379D01*
X17491941Y-54003117D01*
X17349059Y-53816909D01*
X17349053Y-53816902D01*
X17183097Y-53650946D01*
X17183090Y-53650940D01*
X16996882Y-53508058D01*
X16793620Y-53390705D01*
X16793610Y-53390700D01*
X16576779Y-53300886D01*
X16576780Y-53300886D01*
X16576772Y-53300883D01*
X16350059Y-53240136D01*
X16350053Y-53240135D01*
X16350048Y-53240134D01*
X16117365Y-53209501D01*
X16117362Y-53209500D01*
X16117356Y-53209500D01*
X15882644Y-53209500D01*
X15882638Y-53209500D01*
X15882634Y-53209501D01*
X15649951Y-53240134D01*
X15649944Y-53240135D01*
X15649941Y-53240136D01*
X15574370Y-53260385D01*
X15423234Y-53300881D01*
X15423220Y-53300886D01*
X15206389Y-53390700D01*
X15206379Y-53390705D01*
X15003117Y-53508058D01*
X14816909Y-53650940D01*
X14816902Y-53650946D01*
X14650946Y-53816902D01*
X14650940Y-53816909D01*
X14508058Y-54003117D01*
X14390705Y-54206379D01*
X14390700Y-54206389D01*
X14300997Y-54422953D01*
X14257156Y-54477356D01*
X14190862Y-54499421D01*
X14186436Y-54499500D01*
X7324500Y-54499500D01*
X7257461Y-54479815D01*
X7211706Y-54427011D01*
X7200500Y-54375500D01*
X7200500Y-53884313D01*
X7200499Y-53884298D01*
X7197598Y-53847432D01*
X7197597Y-53847426D01*
X7151745Y-53689606D01*
X7151744Y-53689603D01*
X7151744Y-53689602D01*
X7068081Y-53548135D01*
X7068079Y-53548133D01*
X7068076Y-53548129D01*
X6951870Y-53431923D01*
X6951862Y-53431917D01*
X6810396Y-53348255D01*
X6810393Y-53348254D01*
X6652573Y-53302402D01*
X6652567Y-53302401D01*
X6615701Y-53299500D01*
X6615694Y-53299500D01*
X4384306Y-53299500D01*
X4384298Y-53299500D01*
X4347432Y-53302401D01*
X4347426Y-53302402D01*
X4189606Y-53348254D01*
X4189603Y-53348255D01*
X4048137Y-53431917D01*
X4048129Y-53431923D01*
X3931923Y-53548129D01*
X3931917Y-53548137D01*
X3848255Y-53689603D01*
X3848254Y-53689606D01*
X3802402Y-53847426D01*
X3802401Y-53847432D01*
X3799500Y-53884298D01*
X500500Y-53884298D01*
X500500Y-39168475D01*
X33799500Y-39168475D01*
X33799500Y-40831517D01*
X33810292Y-40899657D01*
X33814354Y-40925304D01*
X33871950Y-41038342D01*
X33871952Y-41038344D01*
X33871954Y-41038347D01*
X33961652Y-41128045D01*
X33961654Y-41128046D01*
X33961658Y-41128050D01*
X34074117Y-41185351D01*
X34074698Y-41185647D01*
X34168475Y-41200499D01*
X34168481Y-41200500D01*
X35831518Y-41200499D01*
X35925304Y-41185646D01*
X36038342Y-41128050D01*
X36128050Y-41038342D01*
X36185646Y-40925304D01*
X36185646Y-40925302D01*
X36185647Y-40925301D01*
X36200499Y-40831524D01*
X36200500Y-40831519D01*
X36200499Y-40531906D01*
X36220183Y-40464870D01*
X36272987Y-40419115D01*
X36342146Y-40409171D01*
X36405701Y-40438196D01*
X36434984Y-40475614D01*
X36482162Y-40568205D01*
X36513240Y-40629199D01*
X36624310Y-40782073D01*
X36757927Y-40915690D01*
X36910801Y-41026760D01*
X36990347Y-41067290D01*
X37079163Y-41112545D01*
X37079165Y-41112545D01*
X37079168Y-41112547D01*
X37175497Y-41143846D01*
X37258881Y-41170940D01*
X37445514Y-41200500D01*
X37445519Y-41200500D01*
X37634486Y-41200500D01*
X37821118Y-41170940D01*
X37838239Y-41165377D01*
X38000832Y-41112547D01*
X38169199Y-41026760D01*
X38322073Y-40915690D01*
X38455690Y-40782073D01*
X38566760Y-40629199D01*
X38652547Y-40460832D01*
X38692069Y-40339195D01*
X38731507Y-40281521D01*
X38795866Y-40254323D01*
X38864712Y-40266238D01*
X38916188Y-40313482D01*
X38927931Y-40339196D01*
X38967454Y-40460836D01*
X39022162Y-40568205D01*
X39053240Y-40629199D01*
X39164310Y-40782073D01*
X39297927Y-40915690D01*
X39450801Y-41026760D01*
X39530347Y-41067290D01*
X39619163Y-41112545D01*
X39619165Y-41112545D01*
X39619168Y-41112547D01*
X39715497Y-41143846D01*
X39798881Y-41170940D01*
X39985514Y-41200500D01*
X39985519Y-41200500D01*
X40174486Y-41200500D01*
X40361118Y-41170940D01*
X40378239Y-41165377D01*
X40540832Y-41112547D01*
X40709199Y-41026760D01*
X40862073Y-40915690D01*
X40995690Y-40782073D01*
X41106760Y-40629199D01*
X41185043Y-40475558D01*
X41233017Y-40424763D01*
X41300838Y-40407968D01*
X41366973Y-40430505D01*
X41410425Y-40485220D01*
X41413458Y-40493534D01*
X41415242Y-40499027D01*
X41508140Y-40681349D01*
X41628417Y-40846894D01*
X41628417Y-40846895D01*
X41773104Y-40991582D01*
X41938650Y-41111859D01*
X42120968Y-41204754D01*
X42315584Y-41267990D01*
X42320000Y-41268689D01*
X42320000Y-40404144D01*
X42427007Y-40465925D01*
X42554174Y-40500000D01*
X42685826Y-40500000D01*
X42812993Y-40465925D01*
X42920000Y-40404144D01*
X42920000Y-41268689D01*
X42924415Y-41267990D01*
X43119031Y-41204754D01*
X43301349Y-41111859D01*
X43466894Y-40991582D01*
X43466895Y-40991582D01*
X43611582Y-40846895D01*
X43611582Y-40846894D01*
X43731859Y-40681349D01*
X43824753Y-40499033D01*
X43826537Y-40493544D01*
X43865970Y-40435866D01*
X43930327Y-40408663D01*
X43999174Y-40420573D01*
X44050654Y-40467813D01*
X44054956Y-40475559D01*
X44102162Y-40568205D01*
X44133240Y-40629199D01*
X44244310Y-40782073D01*
X44377927Y-40915690D01*
X44530801Y-41026760D01*
X44610347Y-41067290D01*
X44699163Y-41112545D01*
X44699165Y-41112545D01*
X44699168Y-41112547D01*
X44795497Y-41143846D01*
X44878881Y-41170940D01*
X45065514Y-41200500D01*
X45065519Y-41200500D01*
X45254486Y-41200500D01*
X45441118Y-41170940D01*
X45458239Y-41165377D01*
X45620832Y-41112547D01*
X45789199Y-41026760D01*
X45942073Y-40915690D01*
X46075690Y-40782073D01*
X46186760Y-40629199D01*
X46272547Y-40460832D01*
X46312069Y-40339195D01*
X46351507Y-40281521D01*
X46415866Y-40254323D01*
X46484712Y-40266238D01*
X46536188Y-40313482D01*
X46547931Y-40339196D01*
X46587454Y-40460836D01*
X46642162Y-40568205D01*
X46673240Y-40629199D01*
X46784310Y-40782073D01*
X46917927Y-40915690D01*
X47070801Y-41026760D01*
X47150347Y-41067290D01*
X47239163Y-41112545D01*
X47239165Y-41112545D01*
X47239168Y-41112547D01*
X47335497Y-41143846D01*
X47418881Y-41170940D01*
X47605514Y-41200500D01*
X47605519Y-41200500D01*
X47794486Y-41200500D01*
X47981118Y-41170940D01*
X47998239Y-41165377D01*
X48160832Y-41112547D01*
X48329199Y-41026760D01*
X48482073Y-40915690D01*
X48615690Y-40782073D01*
X48726760Y-40629199D01*
X48757838Y-40568205D01*
X48805813Y-40517409D01*
X48837612Y-40504363D01*
X48852724Y-40500500D01*
X48867592Y-40500500D01*
X48994886Y-40466392D01*
X49001827Y-40462384D01*
X49017531Y-40458370D01*
X49043960Y-40459304D01*
X49070254Y-40456476D01*
X49078331Y-40460518D01*
X49087357Y-40460838D01*
X49109084Y-40475911D01*
X49132735Y-40487749D01*
X49139964Y-40497334D01*
X49144765Y-40500665D01*
X49147559Y-40507405D01*
X49158727Y-40522212D01*
X49182162Y-40568205D01*
X49213240Y-40629199D01*
X49324310Y-40782073D01*
X49457927Y-40915690D01*
X49610801Y-41026760D01*
X49690347Y-41067290D01*
X49779163Y-41112545D01*
X49779165Y-41112545D01*
X49779168Y-41112547D01*
X49875497Y-41143846D01*
X49958881Y-41170940D01*
X50145514Y-41200500D01*
X50145519Y-41200500D01*
X50334486Y-41200500D01*
X50521118Y-41170940D01*
X50538239Y-41165377D01*
X50700832Y-41112547D01*
X50869199Y-41026760D01*
X51022073Y-40915690D01*
X51083996Y-40853766D01*
X51145315Y-40820284D01*
X51215007Y-40825268D01*
X51259355Y-40853769D01*
X55649559Y-45243972D01*
X55649569Y-45243983D01*
X55653899Y-45248313D01*
X55653900Y-45248314D01*
X55747086Y-45341500D01*
X55826831Y-45387541D01*
X55826833Y-45387542D01*
X55826834Y-45387543D01*
X55861208Y-45407389D01*
X55861209Y-45407389D01*
X55861214Y-45407392D01*
X55988507Y-45441500D01*
X55988508Y-45441500D01*
X66431181Y-45441500D01*
X66498220Y-45461185D01*
X66518862Y-45477819D01*
X66526154Y-45485111D01*
X66526158Y-45485114D01*
X66640882Y-45561771D01*
X66640895Y-45561778D01*
X66768367Y-45614578D01*
X66768372Y-45614580D01*
X66768376Y-45614580D01*
X66768377Y-45614581D01*
X66903704Y-45641500D01*
X66903707Y-45641500D01*
X67041695Y-45641500D01*
X67132741Y-45623389D01*
X67177028Y-45614580D01*
X67304511Y-45561775D01*
X67419242Y-45485114D01*
X67516814Y-45387542D01*
X67593475Y-45272811D01*
X67646280Y-45145328D01*
X67673200Y-45009993D01*
X67673200Y-44872007D01*
X67673200Y-44872004D01*
X67646281Y-44736677D01*
X67646280Y-44736676D01*
X67646280Y-44736672D01*
X67646278Y-44736667D01*
X67593478Y-44609195D01*
X67593471Y-44609182D01*
X67516814Y-44494458D01*
X67516811Y-44494454D01*
X67419245Y-44396888D01*
X67419241Y-44396885D01*
X67304517Y-44320228D01*
X67304504Y-44320221D01*
X67177032Y-44267421D01*
X67177022Y-44267418D01*
X67041695Y-44240500D01*
X67041693Y-44240500D01*
X66903707Y-44240500D01*
X66903705Y-44240500D01*
X66768377Y-44267418D01*
X66768367Y-44267421D01*
X66640895Y-44320221D01*
X66640882Y-44320228D01*
X66526158Y-44396885D01*
X66526154Y-44396888D01*
X66518862Y-44404181D01*
X66457539Y-44437666D01*
X66431181Y-44440500D01*
X56313075Y-44440500D01*
X56246036Y-44420815D01*
X56225394Y-44404181D01*
X53152148Y-41330934D01*
X53118663Y-41269611D01*
X53123647Y-41199919D01*
X53165519Y-41143986D01*
X53201504Y-41125325D01*
X53240832Y-41112547D01*
X53409199Y-41026760D01*
X53562073Y-40915690D01*
X53695690Y-40782073D01*
X53806760Y-40629199D01*
X53837838Y-40568205D01*
X53885813Y-40517409D01*
X53917612Y-40504363D01*
X53932724Y-40500500D01*
X53947592Y-40500500D01*
X54074886Y-40466392D01*
X54081827Y-40462384D01*
X54097531Y-40458370D01*
X54123960Y-40459304D01*
X54150254Y-40456476D01*
X54158331Y-40460518D01*
X54167357Y-40460838D01*
X54189084Y-40475911D01*
X54212735Y-40487749D01*
X54219964Y-40497334D01*
X54224765Y-40500665D01*
X54227559Y-40507405D01*
X54238727Y-40522212D01*
X54262162Y-40568205D01*
X54293240Y-40629199D01*
X54404310Y-40782073D01*
X54537927Y-40915690D01*
X54690801Y-41026760D01*
X54770347Y-41067290D01*
X54859163Y-41112545D01*
X54859165Y-41112545D01*
X54859168Y-41112547D01*
X54955497Y-41143846D01*
X55038881Y-41170940D01*
X55225514Y-41200500D01*
X55225519Y-41200500D01*
X55414486Y-41200500D01*
X55601118Y-41170940D01*
X55618239Y-41165377D01*
X55780832Y-41112547D01*
X55949199Y-41026760D01*
X56102073Y-40915690D01*
X56235690Y-40782073D01*
X56346760Y-40629199D01*
X56377838Y-40568205D01*
X56425813Y-40517409D01*
X56457612Y-40504363D01*
X56472724Y-40500500D01*
X56487592Y-40500500D01*
X56614886Y-40466392D01*
X56621827Y-40462384D01*
X56637531Y-40458370D01*
X56663960Y-40459304D01*
X56690254Y-40456476D01*
X56698331Y-40460518D01*
X56707357Y-40460838D01*
X56729084Y-40475911D01*
X56752735Y-40487749D01*
X56759964Y-40497334D01*
X56764765Y-40500665D01*
X56767559Y-40507405D01*
X56778727Y-40522212D01*
X56802162Y-40568205D01*
X56833240Y-40629199D01*
X56944310Y-40782073D01*
X57077927Y-40915690D01*
X57230801Y-41026760D01*
X57310347Y-41067290D01*
X57399163Y-41112545D01*
X57399165Y-41112545D01*
X57399168Y-41112547D01*
X57495497Y-41143846D01*
X57578881Y-41170940D01*
X57765514Y-41200500D01*
X57765519Y-41200500D01*
X57954486Y-41200500D01*
X58141118Y-41170940D01*
X58158239Y-41165377D01*
X58320832Y-41112547D01*
X58489199Y-41026760D01*
X58642073Y-40915690D01*
X58775690Y-40782073D01*
X58886760Y-40629199D01*
X58972547Y-40460832D01*
X59012069Y-40339195D01*
X59051507Y-40281521D01*
X59115866Y-40254323D01*
X59184712Y-40266238D01*
X59236188Y-40313482D01*
X59247931Y-40339196D01*
X59287454Y-40460836D01*
X59342162Y-40568205D01*
X59373240Y-40629199D01*
X59484310Y-40782073D01*
X59617927Y-40915690D01*
X59770801Y-41026760D01*
X59850347Y-41067290D01*
X59939163Y-41112545D01*
X59939165Y-41112545D01*
X59939168Y-41112547D01*
X60035497Y-41143846D01*
X60118881Y-41170940D01*
X60305514Y-41200500D01*
X60305519Y-41200500D01*
X60494486Y-41200500D01*
X60681118Y-41170940D01*
X60698239Y-41165377D01*
X60860832Y-41112547D01*
X61029199Y-41026760D01*
X61182073Y-40915690D01*
X61315690Y-40782073D01*
X61426760Y-40629199D01*
X61512547Y-40460832D01*
X61552069Y-40339195D01*
X61591507Y-40281521D01*
X61655866Y-40254323D01*
X61724712Y-40266238D01*
X61776188Y-40313482D01*
X61787931Y-40339196D01*
X61827454Y-40460836D01*
X61882162Y-40568205D01*
X61913240Y-40629199D01*
X62024310Y-40782073D01*
X62157927Y-40915690D01*
X62310801Y-41026760D01*
X62390347Y-41067290D01*
X62479163Y-41112545D01*
X62479165Y-41112545D01*
X62479168Y-41112547D01*
X62575497Y-41143846D01*
X62658881Y-41170940D01*
X62845514Y-41200500D01*
X62845519Y-41200500D01*
X63034486Y-41200500D01*
X63221118Y-41170940D01*
X63238239Y-41165377D01*
X63400832Y-41112547D01*
X63569199Y-41026760D01*
X63722073Y-40915690D01*
X63855690Y-40782073D01*
X63966760Y-40629199D01*
X63997838Y-40568205D01*
X64045813Y-40517409D01*
X64077612Y-40504363D01*
X64092724Y-40500500D01*
X64107592Y-40500500D01*
X64234886Y-40466392D01*
X64241827Y-40462384D01*
X64257531Y-40458370D01*
X64283960Y-40459304D01*
X64310254Y-40456476D01*
X64318331Y-40460518D01*
X64327357Y-40460838D01*
X64349084Y-40475911D01*
X64372735Y-40487749D01*
X64379964Y-40497334D01*
X64384765Y-40500665D01*
X64387559Y-40507405D01*
X64398727Y-40522212D01*
X64422162Y-40568205D01*
X64453240Y-40629199D01*
X64564310Y-40782073D01*
X64697927Y-40915690D01*
X64850801Y-41026760D01*
X64930347Y-41067290D01*
X65019163Y-41112545D01*
X65019165Y-41112545D01*
X65019168Y-41112547D01*
X65115497Y-41143846D01*
X65198881Y-41170940D01*
X65385514Y-41200500D01*
X65385519Y-41200500D01*
X65574486Y-41200500D01*
X65761118Y-41170940D01*
X65778239Y-41165377D01*
X65940832Y-41112547D01*
X66109199Y-41026760D01*
X66262073Y-40915690D01*
X66395690Y-40782073D01*
X66506760Y-40629199D01*
X66537838Y-40568205D01*
X66585813Y-40517409D01*
X66617612Y-40504363D01*
X66632724Y-40500500D01*
X66647592Y-40500500D01*
X66774886Y-40466392D01*
X66781827Y-40462384D01*
X66797531Y-40458370D01*
X66823960Y-40459304D01*
X66850254Y-40456476D01*
X66858331Y-40460518D01*
X66867357Y-40460838D01*
X66889084Y-40475911D01*
X66912735Y-40487749D01*
X66919964Y-40497334D01*
X66924765Y-40500665D01*
X66927559Y-40507405D01*
X66938727Y-40522212D01*
X66962162Y-40568205D01*
X66993240Y-40629199D01*
X67104310Y-40782073D01*
X67237927Y-40915690D01*
X67390801Y-41026760D01*
X67470347Y-41067290D01*
X67559163Y-41112545D01*
X67559165Y-41112545D01*
X67559168Y-41112547D01*
X67655497Y-41143846D01*
X67738881Y-41170940D01*
X67925514Y-41200500D01*
X67925519Y-41200500D01*
X68114486Y-41200500D01*
X68301118Y-41170940D01*
X68318239Y-41165377D01*
X68480832Y-41112547D01*
X68649199Y-41026760D01*
X68802073Y-40915690D01*
X68863996Y-40853766D01*
X68925315Y-40820284D01*
X68995007Y-40825268D01*
X69039355Y-40853769D01*
X73585686Y-45400100D01*
X73699814Y-45465992D01*
X73827107Y-45500100D01*
X73827108Y-45500100D01*
X88097481Y-45500100D01*
X88164520Y-45519785D01*
X88185162Y-45536419D01*
X88192454Y-45543711D01*
X88192458Y-45543714D01*
X88307182Y-45620371D01*
X88307195Y-45620378D01*
X88358189Y-45641500D01*
X88434672Y-45673180D01*
X88434676Y-45673180D01*
X88434677Y-45673181D01*
X88570004Y-45700100D01*
X88570007Y-45700100D01*
X88707995Y-45700100D01*
X88799041Y-45681989D01*
X88843328Y-45673180D01*
X88970811Y-45620375D01*
X89085542Y-45543714D01*
X89183114Y-45446142D01*
X89259775Y-45331411D01*
X89312580Y-45203928D01*
X89339500Y-45068593D01*
X89339500Y-44930607D01*
X89339500Y-44930604D01*
X89312581Y-44795277D01*
X89312580Y-44795276D01*
X89312580Y-44795272D01*
X89312578Y-44795267D01*
X89259778Y-44667795D01*
X89259771Y-44667782D01*
X89183114Y-44553058D01*
X89183111Y-44553054D01*
X89085545Y-44455488D01*
X89085541Y-44455485D01*
X88970817Y-44378828D01*
X88970804Y-44378821D01*
X88843332Y-44326021D01*
X88843322Y-44326018D01*
X88707995Y-44299100D01*
X88707993Y-44299100D01*
X88570007Y-44299100D01*
X88570005Y-44299100D01*
X88434677Y-44326018D01*
X88434667Y-44326021D01*
X88307195Y-44378821D01*
X88307182Y-44378828D01*
X88192458Y-44455485D01*
X88192454Y-44455488D01*
X88185162Y-44462781D01*
X88123839Y-44496266D01*
X88097481Y-44499100D01*
X74151676Y-44499100D01*
X74084637Y-44479415D01*
X74063995Y-44462781D01*
X70932148Y-41330934D01*
X70898663Y-41269611D01*
X70903647Y-41199919D01*
X70945519Y-41143986D01*
X70981504Y-41125325D01*
X71020832Y-41112547D01*
X71189199Y-41026760D01*
X71342073Y-40915690D01*
X71475690Y-40782073D01*
X71586760Y-40629199D01*
X71672547Y-40460832D01*
X71730940Y-40281118D01*
X71735184Y-40254323D01*
X71760500Y-40094486D01*
X71760500Y-39905513D01*
X71730940Y-39718881D01*
X71689723Y-39592031D01*
X71678963Y-39558917D01*
X71676969Y-39489078D01*
X71713049Y-39429245D01*
X71775749Y-39398416D01*
X71796895Y-39396600D01*
X87011366Y-39396600D01*
X87078405Y-39416285D01*
X87124160Y-39469089D01*
X87125927Y-39473148D01*
X87142021Y-39512004D01*
X87142028Y-39512017D01*
X87218685Y-39626741D01*
X87218688Y-39626745D01*
X87316254Y-39724311D01*
X87316258Y-39724314D01*
X87430982Y-39800971D01*
X87430995Y-39800978D01*
X87558467Y-39853778D01*
X87558472Y-39853780D01*
X87558476Y-39853780D01*
X87558477Y-39853781D01*
X87693804Y-39880700D01*
X87693807Y-39880700D01*
X87831795Y-39880700D01*
X87922841Y-39862589D01*
X87967128Y-39853780D01*
X88065724Y-39812940D01*
X88094604Y-39800978D01*
X88094604Y-39800977D01*
X88094611Y-39800975D01*
X88209342Y-39724314D01*
X88306914Y-39626742D01*
X88383575Y-39512011D01*
X88436380Y-39384528D01*
X88449484Y-39318650D01*
X88463300Y-39249195D01*
X88463300Y-39111204D01*
X88436381Y-38975877D01*
X88436380Y-38975876D01*
X88436380Y-38975872D01*
X88435290Y-38973240D01*
X88383578Y-38848395D01*
X88383571Y-38848382D01*
X88306914Y-38733658D01*
X88306911Y-38733654D01*
X88209345Y-38636088D01*
X88209341Y-38636085D01*
X88094617Y-38559428D01*
X88094604Y-38559421D01*
X87967132Y-38506621D01*
X87967122Y-38506618D01*
X87831795Y-38479700D01*
X87831793Y-38479700D01*
X87791700Y-38479700D01*
X87729700Y-38463087D01*
X87706562Y-38449728D01*
X87671887Y-38429708D01*
X87608239Y-38412654D01*
X87544592Y-38395600D01*
X67613792Y-38395600D01*
X67482007Y-38395600D01*
X67354712Y-38429708D01*
X67240586Y-38495600D01*
X67240583Y-38495602D01*
X66544655Y-39191530D01*
X66483332Y-39225015D01*
X66413640Y-39220031D01*
X66369293Y-39191530D01*
X66262075Y-39084312D01*
X66262073Y-39084310D01*
X66109199Y-38973240D01*
X65940832Y-38887453D01*
X65901510Y-38874676D01*
X65843835Y-38835239D01*
X65816637Y-38770881D01*
X65828552Y-38702034D01*
X65852148Y-38669065D01*
X67238895Y-37282319D01*
X67300218Y-37248834D01*
X67326576Y-37246000D01*
X88487681Y-37246000D01*
X88554720Y-37265685D01*
X88575362Y-37282319D01*
X88582654Y-37289611D01*
X88582658Y-37289614D01*
X88697382Y-37366271D01*
X88697395Y-37366278D01*
X88824867Y-37419078D01*
X88824872Y-37419080D01*
X88824876Y-37419080D01*
X88824877Y-37419081D01*
X88960204Y-37446000D01*
X88960207Y-37446000D01*
X89098195Y-37446000D01*
X89189241Y-37427889D01*
X89233528Y-37419080D01*
X89361011Y-37366275D01*
X89475742Y-37289614D01*
X89573314Y-37192042D01*
X89649975Y-37077311D01*
X89702780Y-36949828D01*
X89729700Y-36814493D01*
X89729700Y-36676507D01*
X89729700Y-36676504D01*
X89702781Y-36541177D01*
X89702780Y-36541176D01*
X89702780Y-36541172D01*
X89702778Y-36541167D01*
X89649978Y-36413695D01*
X89649971Y-36413682D01*
X89573314Y-36298958D01*
X89573311Y-36298954D01*
X89475745Y-36201388D01*
X89475741Y-36201385D01*
X89361017Y-36124728D01*
X89361004Y-36124721D01*
X89233532Y-36071921D01*
X89233522Y-36071918D01*
X89098195Y-36045000D01*
X89098193Y-36045000D01*
X88960207Y-36045000D01*
X88960205Y-36045000D01*
X88824877Y-36071918D01*
X88824867Y-36071921D01*
X88697395Y-36124721D01*
X88697382Y-36124728D01*
X88582658Y-36201385D01*
X88582654Y-36201388D01*
X88575362Y-36208681D01*
X88514039Y-36242166D01*
X88487681Y-36245000D01*
X67002007Y-36245000D01*
X66874712Y-36279108D01*
X66760586Y-36345000D01*
X66760583Y-36345002D01*
X63959355Y-39146229D01*
X63898032Y-39179714D01*
X63828340Y-39174730D01*
X63783993Y-39146230D01*
X63783992Y-39146229D01*
X63722073Y-39084310D01*
X63569199Y-38973240D01*
X63546456Y-38961652D01*
X63400836Y-38887454D01*
X63221118Y-38829059D01*
X63034486Y-38799500D01*
X63034481Y-38799500D01*
X62845519Y-38799500D01*
X62845514Y-38799500D01*
X62658881Y-38829059D01*
X62479163Y-38887454D01*
X62310800Y-38973240D01*
X62307171Y-38975877D01*
X62157927Y-39084310D01*
X62157925Y-39084312D01*
X62157924Y-39084312D01*
X62024312Y-39217924D01*
X62024312Y-39217925D01*
X62024310Y-39217927D01*
X61976610Y-39283579D01*
X61913240Y-39370800D01*
X61827454Y-39539163D01*
X61787931Y-39660803D01*
X61748493Y-39718478D01*
X61684134Y-39745676D01*
X61615288Y-39733761D01*
X61563812Y-39686516D01*
X61552069Y-39660803D01*
X61522400Y-39569493D01*
X61512547Y-39539168D01*
X61512545Y-39539165D01*
X61512545Y-39539163D01*
X61457838Y-39431795D01*
X61426760Y-39370801D01*
X61315690Y-39217927D01*
X61182073Y-39084310D01*
X61029199Y-38973240D01*
X61006456Y-38961652D01*
X60860836Y-38887454D01*
X60681118Y-38829059D01*
X60494486Y-38799500D01*
X60494481Y-38799500D01*
X60305519Y-38799500D01*
X60305514Y-38799500D01*
X60118881Y-38829059D01*
X59939163Y-38887454D01*
X59770800Y-38973240D01*
X59767171Y-38975877D01*
X59617927Y-39084310D01*
X59617925Y-39084312D01*
X59617924Y-39084312D01*
X59484312Y-39217924D01*
X59484312Y-39217925D01*
X59484310Y-39217927D01*
X59436610Y-39283579D01*
X59373240Y-39370800D01*
X59287454Y-39539163D01*
X59247931Y-39660803D01*
X59208493Y-39718478D01*
X59144134Y-39745676D01*
X59075288Y-39733761D01*
X59023812Y-39686516D01*
X59012069Y-39660803D01*
X58982400Y-39569493D01*
X58972547Y-39539168D01*
X58972545Y-39539165D01*
X58972545Y-39539163D01*
X58917838Y-39431795D01*
X58886760Y-39370801D01*
X58775690Y-39217927D01*
X58642073Y-39084310D01*
X58489199Y-38973240D01*
X58466456Y-38961652D01*
X58320833Y-38887453D01*
X58284678Y-38875705D01*
X58227003Y-38836266D01*
X58199807Y-38771907D01*
X58211723Y-38703061D01*
X58235315Y-38670097D01*
X65181095Y-31724319D01*
X65242418Y-31690834D01*
X65268776Y-31688000D01*
X87092290Y-31688000D01*
X87092292Y-31688000D01*
X87219586Y-31653892D01*
X87333714Y-31588000D01*
X87733795Y-31187919D01*
X87795118Y-31154434D01*
X87821476Y-31151600D01*
X87831795Y-31151600D01*
X87922841Y-31133489D01*
X87967128Y-31124680D01*
X88094611Y-31071875D01*
X88209342Y-30995214D01*
X88306914Y-30897642D01*
X88383575Y-30782911D01*
X88436380Y-30655428D01*
X88463300Y-30520093D01*
X88463300Y-30382107D01*
X88463300Y-30382104D01*
X88436381Y-30246777D01*
X88436380Y-30246776D01*
X88436380Y-30246772D01*
X88418152Y-30202766D01*
X88383578Y-30119295D01*
X88383571Y-30119282D01*
X88306914Y-30004558D01*
X88306911Y-30004554D01*
X88209345Y-29906988D01*
X88209341Y-29906985D01*
X88094617Y-29830328D01*
X88094604Y-29830321D01*
X87967132Y-29777521D01*
X87967122Y-29777518D01*
X87831795Y-29750600D01*
X87831793Y-29750600D01*
X87693807Y-29750600D01*
X87693806Y-29750600D01*
X87682793Y-29752790D01*
X87613202Y-29746558D01*
X87558027Y-29703692D01*
X87536991Y-29655364D01*
X87528380Y-29612072D01*
X87528378Y-29612067D01*
X87475578Y-29484595D01*
X87475571Y-29484582D01*
X87398914Y-29369858D01*
X87398911Y-29369854D01*
X87301345Y-29272288D01*
X87301341Y-29272285D01*
X87186617Y-29195628D01*
X87186604Y-29195621D01*
X87059132Y-29142821D01*
X87059122Y-29142818D01*
X86923795Y-29115900D01*
X86923793Y-29115900D01*
X86785807Y-29115900D01*
X86785805Y-29115900D01*
X86650477Y-29142818D01*
X86650467Y-29142821D01*
X86522995Y-29195621D01*
X86522982Y-29195628D01*
X86408258Y-29272285D01*
X86408254Y-29272288D01*
X86310688Y-29369854D01*
X86310685Y-29369858D01*
X86234028Y-29484582D01*
X86234021Y-29484595D01*
X86181221Y-29612067D01*
X86181218Y-29612077D01*
X86154300Y-29747404D01*
X86154300Y-29757724D01*
X86134615Y-29824763D01*
X86117981Y-29845405D01*
X85794105Y-30169281D01*
X85732782Y-30202766D01*
X85706424Y-30205600D01*
X85256876Y-30205600D01*
X85189837Y-30185915D01*
X85144082Y-30133111D01*
X85134138Y-30063953D01*
X85163163Y-30000397D01*
X85169195Y-29993919D01*
X89000195Y-26162919D01*
X89061518Y-26129434D01*
X89087876Y-26126600D01*
X89098195Y-26126600D01*
X89191530Y-26108034D01*
X89233528Y-26099680D01*
X89361011Y-26046875D01*
X89475742Y-25970214D01*
X89573314Y-25872642D01*
X89649975Y-25757911D01*
X89702780Y-25630428D01*
X89720355Y-25542073D01*
X89729700Y-25495095D01*
X89729700Y-25357104D01*
X89702781Y-25221777D01*
X89702780Y-25221776D01*
X89702780Y-25221772D01*
X89702391Y-25220832D01*
X89649978Y-25094295D01*
X89649971Y-25094282D01*
X89573314Y-24979558D01*
X89573311Y-24979554D01*
X89475745Y-24881988D01*
X89475741Y-24881985D01*
X89361017Y-24805328D01*
X89361004Y-24805321D01*
X89233532Y-24752521D01*
X89233522Y-24752518D01*
X89098195Y-24725600D01*
X89098193Y-24725600D01*
X88960207Y-24725600D01*
X88960205Y-24725600D01*
X88824877Y-24752518D01*
X88824867Y-24752521D01*
X88697395Y-24805321D01*
X88697382Y-24805328D01*
X88582658Y-24881985D01*
X88582654Y-24881988D01*
X88485088Y-24979554D01*
X88485085Y-24979558D01*
X88408428Y-25094282D01*
X88408421Y-25094295D01*
X88355621Y-25221767D01*
X88355618Y-25221777D01*
X88328700Y-25357104D01*
X88328700Y-25367424D01*
X88309015Y-25434463D01*
X88292381Y-25455105D01*
X84034705Y-29712781D01*
X83973382Y-29746266D01*
X83947024Y-29749100D01*
X58257908Y-29749100D01*
X58130612Y-29783208D01*
X58016486Y-29849100D01*
X58016483Y-29849102D01*
X48719355Y-39146229D01*
X48658032Y-39179714D01*
X48588340Y-39174730D01*
X48543993Y-39146230D01*
X48543992Y-39146229D01*
X48482073Y-39084310D01*
X48329199Y-38973240D01*
X48306456Y-38961652D01*
X48160836Y-38887454D01*
X47981118Y-38829059D01*
X47794486Y-38799500D01*
X47794481Y-38799500D01*
X47605519Y-38799500D01*
X47605514Y-38799500D01*
X47418881Y-38829059D01*
X47239163Y-38887454D01*
X47070800Y-38973240D01*
X47067171Y-38975877D01*
X46917927Y-39084310D01*
X46917925Y-39084312D01*
X46917924Y-39084312D01*
X46784312Y-39217924D01*
X46784312Y-39217925D01*
X46784310Y-39217927D01*
X46736610Y-39283579D01*
X46673240Y-39370800D01*
X46587454Y-39539163D01*
X46547931Y-39660803D01*
X46508493Y-39718478D01*
X46444134Y-39745676D01*
X46375288Y-39733761D01*
X46323812Y-39686516D01*
X46312069Y-39660803D01*
X46282400Y-39569493D01*
X46272547Y-39539168D01*
X46272545Y-39539165D01*
X46272545Y-39539163D01*
X46217838Y-39431795D01*
X46186760Y-39370801D01*
X46075690Y-39217927D01*
X45942073Y-39084310D01*
X45789199Y-38973240D01*
X45766456Y-38961652D01*
X45620836Y-38887454D01*
X45441118Y-38829059D01*
X45254486Y-38799500D01*
X45254481Y-38799500D01*
X45065519Y-38799500D01*
X45065514Y-38799500D01*
X44878881Y-38829059D01*
X44699163Y-38887454D01*
X44530800Y-38973240D01*
X44527171Y-38975877D01*
X44377927Y-39084310D01*
X44377925Y-39084312D01*
X44377924Y-39084312D01*
X44244312Y-39217924D01*
X44244312Y-39217925D01*
X44244310Y-39217927D01*
X44207286Y-39268885D01*
X44133236Y-39370805D01*
X44054955Y-39524440D01*
X44006981Y-39575236D01*
X43939160Y-39592031D01*
X43873025Y-39569493D01*
X43829574Y-39514778D01*
X43826538Y-39506458D01*
X43824754Y-39500967D01*
X43731859Y-39318650D01*
X43611582Y-39153105D01*
X43611582Y-39153104D01*
X43466895Y-39008417D01*
X43301349Y-38888140D01*
X43119031Y-38795245D01*
X42924421Y-38732011D01*
X42924411Y-38732009D01*
X42920000Y-38731309D01*
X42920000Y-39595855D01*
X42812993Y-39534075D01*
X42685826Y-39500000D01*
X42554174Y-39500000D01*
X42427007Y-39534075D01*
X42320000Y-39595855D01*
X42320000Y-38731310D01*
X42319999Y-38731309D01*
X42315588Y-38732009D01*
X42315578Y-38732011D01*
X42120968Y-38795245D01*
X41938650Y-38888140D01*
X41773105Y-39008417D01*
X41773104Y-39008417D01*
X41628417Y-39153104D01*
X41628417Y-39153105D01*
X41508140Y-39318650D01*
X41415243Y-39500971D01*
X41413457Y-39506469D01*
X41374017Y-39564142D01*
X41309657Y-39591337D01*
X41240811Y-39579420D01*
X41189338Y-39532173D01*
X41185043Y-39524440D01*
X41137838Y-39431795D01*
X41106760Y-39370801D01*
X40995690Y-39217927D01*
X40862073Y-39084310D01*
X40709199Y-38973240D01*
X40686456Y-38961652D01*
X40540836Y-38887454D01*
X40361118Y-38829059D01*
X40174486Y-38799500D01*
X40174481Y-38799500D01*
X39985519Y-38799500D01*
X39985514Y-38799500D01*
X39798881Y-38829059D01*
X39619163Y-38887454D01*
X39450800Y-38973240D01*
X39447171Y-38975877D01*
X39297927Y-39084310D01*
X39297925Y-39084312D01*
X39297924Y-39084312D01*
X39164312Y-39217924D01*
X39164312Y-39217925D01*
X39164310Y-39217927D01*
X39116610Y-39283579D01*
X39053240Y-39370800D01*
X38967454Y-39539163D01*
X38927931Y-39660803D01*
X38888493Y-39718478D01*
X38824134Y-39745676D01*
X38755288Y-39733761D01*
X38703812Y-39686516D01*
X38692069Y-39660803D01*
X38662400Y-39569493D01*
X38652547Y-39539168D01*
X38652545Y-39539165D01*
X38652545Y-39539163D01*
X38597838Y-39431795D01*
X38566760Y-39370801D01*
X38455690Y-39217927D01*
X38322073Y-39084310D01*
X38169199Y-38973240D01*
X38146456Y-38961652D01*
X38000836Y-38887454D01*
X37821118Y-38829059D01*
X37634486Y-38799500D01*
X37634481Y-38799500D01*
X37445519Y-38799500D01*
X37445514Y-38799500D01*
X37258881Y-38829059D01*
X37079163Y-38887454D01*
X36910800Y-38973240D01*
X36907171Y-38975877D01*
X36757927Y-39084310D01*
X36757925Y-39084312D01*
X36757924Y-39084312D01*
X36624312Y-39217924D01*
X36624312Y-39217925D01*
X36624310Y-39217927D01*
X36576610Y-39283579D01*
X36513240Y-39370800D01*
X36434984Y-39524386D01*
X36387009Y-39575182D01*
X36319188Y-39591977D01*
X36253053Y-39569439D01*
X36209602Y-39514724D01*
X36200499Y-39468091D01*
X36200499Y-39168482D01*
X36198064Y-39153105D01*
X36185646Y-39074696D01*
X36128050Y-38961658D01*
X36128046Y-38961654D01*
X36128045Y-38961652D01*
X36038347Y-38871954D01*
X36038344Y-38871952D01*
X36038342Y-38871950D01*
X35954164Y-38829059D01*
X35925301Y-38814352D01*
X35831524Y-38799500D01*
X34168482Y-38799500D01*
X34087519Y-38812323D01*
X34074696Y-38814354D01*
X33961658Y-38871950D01*
X33961657Y-38871951D01*
X33961652Y-38871954D01*
X33871954Y-38961652D01*
X33871951Y-38961657D01*
X33814352Y-39074698D01*
X33799500Y-39168475D01*
X500500Y-39168475D01*
X500500Y-27610395D01*
X9623899Y-27610395D01*
X9650818Y-27745722D01*
X9650821Y-27745732D01*
X9703621Y-27873204D01*
X9703628Y-27873217D01*
X9780285Y-27987941D01*
X9780288Y-27987945D01*
X9877854Y-28085511D01*
X9877858Y-28085514D01*
X9992582Y-28162171D01*
X9992595Y-28162178D01*
X10120067Y-28214978D01*
X10120072Y-28214980D01*
X10120076Y-28214980D01*
X10120077Y-28214981D01*
X10255404Y-28241900D01*
X10255407Y-28241900D01*
X10393395Y-28241900D01*
X10484441Y-28223789D01*
X10528728Y-28214980D01*
X10656211Y-28162175D01*
X10770942Y-28085514D01*
X10868514Y-27987942D01*
X10945175Y-27873211D01*
X10997980Y-27745728D01*
X11024900Y-27610393D01*
X11024900Y-27600076D01*
X11044585Y-27533037D01*
X11061219Y-27512395D01*
X14426695Y-24146919D01*
X14488018Y-24113434D01*
X14514376Y-24110600D01*
X33781183Y-24110600D01*
X33848222Y-24130285D01*
X33893977Y-24183089D01*
X33903921Y-24252247D01*
X33891668Y-24290894D01*
X33887455Y-24299160D01*
X33829059Y-24478881D01*
X33799500Y-24665513D01*
X33799500Y-24854486D01*
X33829059Y-25041118D01*
X33887454Y-25220836D01*
X33953267Y-25350000D01*
X33973240Y-25389199D01*
X34084310Y-25542073D01*
X34217927Y-25675690D01*
X34370801Y-25786760D01*
X34450347Y-25827290D01*
X34539163Y-25872545D01*
X34539165Y-25872545D01*
X34539168Y-25872547D01*
X34635497Y-25903846D01*
X34718881Y-25930940D01*
X34905514Y-25960500D01*
X34905519Y-25960500D01*
X35094486Y-25960500D01*
X35281118Y-25930940D01*
X35460832Y-25872547D01*
X35629199Y-25786760D01*
X35782073Y-25675690D01*
X35915690Y-25542073D01*
X36026760Y-25389199D01*
X36105043Y-25235558D01*
X36153017Y-25184763D01*
X36220838Y-25167968D01*
X36286973Y-25190505D01*
X36330425Y-25245220D01*
X36333458Y-25253534D01*
X36335242Y-25259027D01*
X36428140Y-25441349D01*
X36548417Y-25606894D01*
X36548417Y-25606895D01*
X36693104Y-25751582D01*
X36858650Y-25871859D01*
X37040968Y-25964754D01*
X37235584Y-26027990D01*
X37240000Y-26028689D01*
X37240000Y-25164144D01*
X37347007Y-25225925D01*
X37474174Y-25260000D01*
X37605826Y-25260000D01*
X37732993Y-25225925D01*
X37840000Y-25164144D01*
X37840000Y-26028689D01*
X37844415Y-26027990D01*
X38039031Y-25964754D01*
X38221349Y-25871859D01*
X38386894Y-25751582D01*
X38386895Y-25751582D01*
X38531582Y-25606895D01*
X38531582Y-25606894D01*
X38651859Y-25441349D01*
X38744753Y-25259033D01*
X38746537Y-25253544D01*
X38785970Y-25195866D01*
X38850327Y-25168663D01*
X38919174Y-25180573D01*
X38970654Y-25227813D01*
X38974956Y-25235559D01*
X39033267Y-25350000D01*
X39053240Y-25389199D01*
X39164310Y-25542073D01*
X39297927Y-25675690D01*
X39450801Y-25786760D01*
X39530347Y-25827290D01*
X39619163Y-25872545D01*
X39619165Y-25872545D01*
X39619168Y-25872547D01*
X39715497Y-25903846D01*
X39798881Y-25930940D01*
X39985514Y-25960500D01*
X39985519Y-25960500D01*
X40174486Y-25960500D01*
X40361118Y-25930940D01*
X40540832Y-25872547D01*
X40709199Y-25786760D01*
X40862073Y-25675690D01*
X40995690Y-25542073D01*
X41106760Y-25389199D01*
X41189952Y-25225925D01*
X41192545Y-25220836D01*
X41192545Y-25220835D01*
X41192547Y-25220832D01*
X41232069Y-25099195D01*
X41271507Y-25041521D01*
X41335866Y-25014323D01*
X41404712Y-25026238D01*
X41456188Y-25073482D01*
X41467931Y-25099196D01*
X41507454Y-25220836D01*
X41573267Y-25350000D01*
X41593240Y-25389199D01*
X41704310Y-25542073D01*
X41837927Y-25675690D01*
X41990801Y-25786760D01*
X42070347Y-25827290D01*
X42159163Y-25872545D01*
X42159165Y-25872545D01*
X42159168Y-25872547D01*
X42255497Y-25903846D01*
X42338881Y-25930940D01*
X42525514Y-25960500D01*
X42525519Y-25960500D01*
X42714486Y-25960500D01*
X42901118Y-25930940D01*
X43080832Y-25872547D01*
X43249199Y-25786760D01*
X43402073Y-25675690D01*
X43535690Y-25542073D01*
X43646760Y-25389199D01*
X43729952Y-25225925D01*
X43732545Y-25220836D01*
X43732545Y-25220835D01*
X43732547Y-25220832D01*
X43772069Y-25099195D01*
X43811507Y-25041521D01*
X43875866Y-25014323D01*
X43944712Y-25026238D01*
X43996188Y-25073482D01*
X44007931Y-25099196D01*
X44047454Y-25220836D01*
X44113267Y-25350000D01*
X44133240Y-25389199D01*
X44244310Y-25542073D01*
X44377927Y-25675690D01*
X44530801Y-25786760D01*
X44610347Y-25827290D01*
X44699163Y-25872545D01*
X44699165Y-25872545D01*
X44699168Y-25872547D01*
X44795497Y-25903846D01*
X44878881Y-25930940D01*
X45065514Y-25960500D01*
X45065519Y-25960500D01*
X45254486Y-25960500D01*
X45441118Y-25930940D01*
X45620832Y-25872547D01*
X45789199Y-25786760D01*
X45942073Y-25675690D01*
X46003996Y-25613766D01*
X46065315Y-25580284D01*
X46135007Y-25585268D01*
X46179355Y-25613769D01*
X48414300Y-27848714D01*
X48507486Y-27941900D01*
X48621614Y-28007792D01*
X48748908Y-28041900D01*
X72329281Y-28041900D01*
X72396320Y-28061585D01*
X72416962Y-28078219D01*
X72424254Y-28085511D01*
X72424258Y-28085514D01*
X72538982Y-28162171D01*
X72538995Y-28162178D01*
X72666467Y-28214978D01*
X72666472Y-28214980D01*
X72666476Y-28214980D01*
X72666477Y-28214981D01*
X72801804Y-28241900D01*
X72801807Y-28241900D01*
X72939795Y-28241900D01*
X73030841Y-28223789D01*
X73075128Y-28214980D01*
X73202611Y-28162175D01*
X73317342Y-28085514D01*
X73414914Y-27987942D01*
X73491575Y-27873211D01*
X73544380Y-27745728D01*
X73571300Y-27610393D01*
X73571300Y-27472407D01*
X73571300Y-27472404D01*
X73544381Y-27337077D01*
X73544380Y-27337076D01*
X73544380Y-27337072D01*
X73544378Y-27337067D01*
X73491578Y-27209595D01*
X73491571Y-27209582D01*
X73414914Y-27094858D01*
X73414911Y-27094854D01*
X73317345Y-26997288D01*
X73317341Y-26997285D01*
X73202617Y-26920628D01*
X73202604Y-26920621D01*
X73075132Y-26867821D01*
X73075122Y-26867818D01*
X72939795Y-26840900D01*
X72939793Y-26840900D01*
X72801807Y-26840900D01*
X72801805Y-26840900D01*
X72666477Y-26867818D01*
X72666467Y-26867821D01*
X72538995Y-26920621D01*
X72538982Y-26920628D01*
X72424258Y-26997285D01*
X72424254Y-26997288D01*
X72416962Y-27004581D01*
X72355639Y-27038066D01*
X72329281Y-27040900D01*
X49073476Y-27040900D01*
X49006437Y-27021215D01*
X48985795Y-27004581D01*
X48072148Y-26090934D01*
X48038663Y-26029611D01*
X48043647Y-25959919D01*
X48085519Y-25903986D01*
X48121504Y-25885325D01*
X48160832Y-25872547D01*
X48329199Y-25786760D01*
X48482073Y-25675690D01*
X48615690Y-25542073D01*
X48726760Y-25389199D01*
X48809952Y-25225925D01*
X48812545Y-25220836D01*
X48812545Y-25220835D01*
X48812547Y-25220832D01*
X48852069Y-25099195D01*
X48891507Y-25041521D01*
X48955866Y-25014323D01*
X49024712Y-25026238D01*
X49076188Y-25073482D01*
X49087931Y-25099196D01*
X49127454Y-25220836D01*
X49193267Y-25350000D01*
X49213240Y-25389199D01*
X49324310Y-25542073D01*
X49457927Y-25675690D01*
X49610801Y-25786760D01*
X49690347Y-25827290D01*
X49779163Y-25872545D01*
X49779165Y-25872545D01*
X49779168Y-25872547D01*
X49875497Y-25903846D01*
X49958881Y-25930940D01*
X50145514Y-25960500D01*
X50145519Y-25960500D01*
X50334486Y-25960500D01*
X50521118Y-25930940D01*
X50700832Y-25872547D01*
X50869199Y-25786760D01*
X51022073Y-25675690D01*
X51155690Y-25542073D01*
X51266760Y-25389199D01*
X51349952Y-25225925D01*
X51352545Y-25220836D01*
X51352545Y-25220835D01*
X51352547Y-25220832D01*
X51392069Y-25099195D01*
X51431507Y-25041521D01*
X51495866Y-25014323D01*
X51564712Y-25026238D01*
X51616188Y-25073482D01*
X51627931Y-25099196D01*
X51667454Y-25220836D01*
X51733267Y-25350000D01*
X51753240Y-25389199D01*
X51864310Y-25542073D01*
X51997927Y-25675690D01*
X52150801Y-25786760D01*
X52230347Y-25827290D01*
X52319163Y-25872545D01*
X52319165Y-25872545D01*
X52319168Y-25872547D01*
X52415497Y-25903846D01*
X52498881Y-25930940D01*
X52685514Y-25960500D01*
X52685519Y-25960500D01*
X52874486Y-25960500D01*
X53061118Y-25930940D01*
X53240832Y-25872547D01*
X53409199Y-25786760D01*
X53562073Y-25675690D01*
X53695690Y-25542073D01*
X53806760Y-25389199D01*
X53889952Y-25225925D01*
X53892545Y-25220836D01*
X53892545Y-25220835D01*
X53892547Y-25220832D01*
X53932069Y-25099195D01*
X53971507Y-25041521D01*
X54035866Y-25014323D01*
X54104712Y-25026238D01*
X54156188Y-25073482D01*
X54167931Y-25099196D01*
X54207454Y-25220836D01*
X54273267Y-25350000D01*
X54293240Y-25389199D01*
X54404310Y-25542073D01*
X54537927Y-25675690D01*
X54690801Y-25786760D01*
X54770347Y-25827290D01*
X54859163Y-25872545D01*
X54859165Y-25872545D01*
X54859168Y-25872547D01*
X54955497Y-25903846D01*
X55038881Y-25930940D01*
X55225514Y-25960500D01*
X55225519Y-25960500D01*
X55414486Y-25960500D01*
X55601118Y-25930940D01*
X55780832Y-25872547D01*
X55949199Y-25786760D01*
X56102073Y-25675690D01*
X56235690Y-25542073D01*
X56346760Y-25389199D01*
X56429952Y-25225925D01*
X56432545Y-25220836D01*
X56432545Y-25220835D01*
X56432547Y-25220832D01*
X56472069Y-25099195D01*
X56511507Y-25041521D01*
X56575866Y-25014323D01*
X56644712Y-25026238D01*
X56696188Y-25073482D01*
X56707931Y-25099196D01*
X56747454Y-25220836D01*
X56813267Y-25350000D01*
X56833240Y-25389199D01*
X56944310Y-25542073D01*
X57077927Y-25675690D01*
X57230801Y-25786760D01*
X57310347Y-25827290D01*
X57399163Y-25872545D01*
X57399165Y-25872545D01*
X57399168Y-25872547D01*
X57495497Y-25903846D01*
X57578881Y-25930940D01*
X57765514Y-25960500D01*
X57765519Y-25960500D01*
X57954486Y-25960500D01*
X58141118Y-25930940D01*
X58320832Y-25872547D01*
X58489199Y-25786760D01*
X58642073Y-25675690D01*
X58775690Y-25542073D01*
X58886760Y-25389199D01*
X58941272Y-25282213D01*
X58989246Y-25231416D01*
X59057067Y-25214621D01*
X59082468Y-25218370D01*
X59098173Y-25222384D01*
X59105114Y-25226392D01*
X59232408Y-25260500D01*
X59247276Y-25260500D01*
X59262388Y-25264363D01*
X59279558Y-25274559D01*
X59298716Y-25280185D01*
X59309960Y-25292613D01*
X59322463Y-25300038D01*
X59329612Y-25314334D01*
X59342162Y-25328205D01*
X59350004Y-25343596D01*
X59373240Y-25389199D01*
X59484310Y-25542073D01*
X59617927Y-25675690D01*
X59770801Y-25786760D01*
X59850347Y-25827290D01*
X59939163Y-25872545D01*
X59939165Y-25872545D01*
X59939168Y-25872547D01*
X60035497Y-25903846D01*
X60118881Y-25930940D01*
X60305514Y-25960500D01*
X60305519Y-25960500D01*
X60494486Y-25960500D01*
X60681118Y-25930940D01*
X60860832Y-25872547D01*
X61029199Y-25786760D01*
X61182073Y-25675690D01*
X61315690Y-25542073D01*
X61426760Y-25389199D01*
X61509952Y-25225925D01*
X61512545Y-25220836D01*
X61512545Y-25220835D01*
X61512547Y-25220832D01*
X61552069Y-25099195D01*
X61591507Y-25041521D01*
X61655866Y-25014323D01*
X61724712Y-25026238D01*
X61776188Y-25073482D01*
X61787931Y-25099196D01*
X61827454Y-25220836D01*
X61893267Y-25350000D01*
X61913240Y-25389199D01*
X62024310Y-25542073D01*
X62157927Y-25675690D01*
X62310801Y-25786760D01*
X62390347Y-25827290D01*
X62479163Y-25872545D01*
X62479165Y-25872545D01*
X62479168Y-25872547D01*
X62575497Y-25903846D01*
X62658881Y-25930940D01*
X62845514Y-25960500D01*
X62845519Y-25960500D01*
X63034486Y-25960500D01*
X63221118Y-25930940D01*
X63400832Y-25872547D01*
X63569199Y-25786760D01*
X63722073Y-25675690D01*
X63855690Y-25542073D01*
X63966760Y-25389199D01*
X64049952Y-25225925D01*
X64052545Y-25220836D01*
X64052545Y-25220835D01*
X64052547Y-25220832D01*
X64092069Y-25099195D01*
X64131507Y-25041521D01*
X64195866Y-25014323D01*
X64264712Y-25026238D01*
X64316188Y-25073482D01*
X64327931Y-25099196D01*
X64367454Y-25220836D01*
X64433267Y-25350000D01*
X64453240Y-25389199D01*
X64564310Y-25542073D01*
X64697927Y-25675690D01*
X64850801Y-25786760D01*
X64930347Y-25827290D01*
X65019163Y-25872545D01*
X65019165Y-25872545D01*
X65019168Y-25872547D01*
X65115497Y-25903846D01*
X65198881Y-25930940D01*
X65385514Y-25960500D01*
X65385519Y-25960500D01*
X65574486Y-25960500D01*
X65761118Y-25930940D01*
X65940832Y-25872547D01*
X66109199Y-25786760D01*
X66262073Y-25675690D01*
X66395690Y-25542073D01*
X66506760Y-25389199D01*
X66589952Y-25225925D01*
X66592545Y-25220836D01*
X66592545Y-25220835D01*
X66592547Y-25220832D01*
X66632069Y-25099195D01*
X66671507Y-25041521D01*
X66735866Y-25014323D01*
X66804712Y-25026238D01*
X66856188Y-25073482D01*
X66867931Y-25099196D01*
X66907454Y-25220836D01*
X66973267Y-25350000D01*
X66993240Y-25389199D01*
X67104310Y-25542073D01*
X67237927Y-25675690D01*
X67390801Y-25786760D01*
X67470347Y-25827290D01*
X67559163Y-25872545D01*
X67559165Y-25872545D01*
X67559168Y-25872547D01*
X67655497Y-25903846D01*
X67738881Y-25930940D01*
X67925514Y-25960500D01*
X67925519Y-25960500D01*
X68114486Y-25960500D01*
X68301118Y-25930940D01*
X68480832Y-25872547D01*
X68649199Y-25786760D01*
X68802073Y-25675690D01*
X68935690Y-25542073D01*
X69046760Y-25389199D01*
X69129952Y-25225925D01*
X69132545Y-25220836D01*
X69132545Y-25220835D01*
X69132547Y-25220832D01*
X69172069Y-25099195D01*
X69211507Y-25041521D01*
X69275866Y-25014323D01*
X69344712Y-25026238D01*
X69396188Y-25073482D01*
X69407931Y-25099196D01*
X69447454Y-25220836D01*
X69513267Y-25350000D01*
X69533240Y-25389199D01*
X69644310Y-25542073D01*
X69777927Y-25675690D01*
X69930801Y-25786760D01*
X70010347Y-25827290D01*
X70099163Y-25872545D01*
X70099165Y-25872545D01*
X70099168Y-25872547D01*
X70195497Y-25903846D01*
X70278881Y-25930940D01*
X70465514Y-25960500D01*
X70465519Y-25960500D01*
X70654486Y-25960500D01*
X70841118Y-25930940D01*
X71020832Y-25872547D01*
X71189199Y-25786760D01*
X71342073Y-25675690D01*
X71475690Y-25542073D01*
X71586760Y-25389199D01*
X71669952Y-25225925D01*
X71672545Y-25220836D01*
X71672545Y-25220835D01*
X71672547Y-25220832D01*
X71730940Y-25041118D01*
X71744204Y-24957372D01*
X71760500Y-24854486D01*
X71760500Y-24665513D01*
X71730940Y-24478881D01*
X71672545Y-24299163D01*
X71613402Y-24183089D01*
X71586760Y-24130801D01*
X71475690Y-23977927D01*
X71342073Y-23844310D01*
X71189199Y-23733240D01*
X71020836Y-23647454D01*
X70841118Y-23589059D01*
X70654486Y-23559500D01*
X70654481Y-23559500D01*
X70465519Y-23559500D01*
X70465514Y-23559500D01*
X70278881Y-23589059D01*
X70099163Y-23647454D01*
X69930800Y-23733240D01*
X69843579Y-23796610D01*
X69777927Y-23844310D01*
X69777925Y-23844312D01*
X69777924Y-23844312D01*
X69644312Y-23977924D01*
X69644312Y-23977925D01*
X69644310Y-23977927D01*
X69596610Y-24043579D01*
X69533240Y-24130800D01*
X69447454Y-24299163D01*
X69407931Y-24420803D01*
X69368493Y-24478478D01*
X69304134Y-24505676D01*
X69235288Y-24493761D01*
X69183812Y-24446516D01*
X69172069Y-24420803D01*
X69132545Y-24299163D01*
X69073402Y-24183089D01*
X69046760Y-24130801D01*
X68935690Y-23977927D01*
X68802073Y-23844310D01*
X68649199Y-23733240D01*
X68480836Y-23647454D01*
X68301118Y-23589059D01*
X68114486Y-23559500D01*
X68114481Y-23559500D01*
X67925519Y-23559500D01*
X67925514Y-23559500D01*
X67738881Y-23589059D01*
X67559163Y-23647454D01*
X67390800Y-23733240D01*
X67303579Y-23796610D01*
X67237927Y-23844310D01*
X67237925Y-23844312D01*
X67237924Y-23844312D01*
X67104312Y-23977924D01*
X67104312Y-23977925D01*
X67104310Y-23977927D01*
X67056610Y-24043579D01*
X66993240Y-24130800D01*
X66907454Y-24299163D01*
X66867931Y-24420803D01*
X66828493Y-24478478D01*
X66764134Y-24505676D01*
X66695288Y-24493761D01*
X66643812Y-24446516D01*
X66632069Y-24420803D01*
X66592545Y-24299163D01*
X66533402Y-24183089D01*
X66506760Y-24130801D01*
X66395690Y-23977927D01*
X66262073Y-23844310D01*
X66109199Y-23733240D01*
X65940836Y-23647454D01*
X65761118Y-23589059D01*
X65574486Y-23559500D01*
X65574481Y-23559500D01*
X65385519Y-23559500D01*
X65385514Y-23559500D01*
X65198881Y-23589059D01*
X65019163Y-23647454D01*
X64850800Y-23733240D01*
X64763579Y-23796610D01*
X64697927Y-23844310D01*
X64697925Y-23844312D01*
X64697924Y-23844312D01*
X64564312Y-23977924D01*
X64564312Y-23977925D01*
X64564310Y-23977927D01*
X64516610Y-24043579D01*
X64453240Y-24130800D01*
X64367454Y-24299163D01*
X64327931Y-24420803D01*
X64288493Y-24478478D01*
X64224134Y-24505676D01*
X64155288Y-24493761D01*
X64103812Y-24446516D01*
X64092069Y-24420803D01*
X64052545Y-24299163D01*
X63993402Y-24183089D01*
X63966760Y-24130801D01*
X63855690Y-23977927D01*
X63722073Y-23844310D01*
X63569199Y-23733240D01*
X63400836Y-23647454D01*
X63221118Y-23589059D01*
X63034486Y-23559500D01*
X63034481Y-23559500D01*
X62845519Y-23559500D01*
X62845514Y-23559500D01*
X62658881Y-23589059D01*
X62479163Y-23647454D01*
X62310800Y-23733240D01*
X62223579Y-23796610D01*
X62157927Y-23844310D01*
X62157925Y-23844312D01*
X62157924Y-23844312D01*
X62024312Y-23977924D01*
X62024312Y-23977925D01*
X62024310Y-23977927D01*
X61976610Y-24043579D01*
X61913240Y-24130800D01*
X61827454Y-24299163D01*
X61787931Y-24420803D01*
X61748493Y-24478478D01*
X61684134Y-24505676D01*
X61615288Y-24493761D01*
X61563812Y-24446516D01*
X61552069Y-24420803D01*
X61512545Y-24299163D01*
X61453402Y-24183089D01*
X61426760Y-24130801D01*
X61315690Y-23977927D01*
X61182073Y-23844310D01*
X61029199Y-23733240D01*
X60860836Y-23647454D01*
X60681118Y-23589059D01*
X60494486Y-23559500D01*
X60494481Y-23559500D01*
X60305519Y-23559500D01*
X60305514Y-23559500D01*
X60118881Y-23589059D01*
X59939163Y-23647454D01*
X59770800Y-23733240D01*
X59617928Y-23844309D01*
X59556006Y-23906231D01*
X59494682Y-23939715D01*
X59424991Y-23934730D01*
X59380644Y-23906230D01*
X58684016Y-23209602D01*
X58684015Y-23209601D01*
X58684014Y-23209600D01*
X58607418Y-23165377D01*
X58569887Y-23143708D01*
X58506239Y-23126654D01*
X58442592Y-23109600D01*
X14321593Y-23109600D01*
X14189808Y-23109600D01*
X14062512Y-23143708D01*
X13948386Y-23209600D01*
X13948383Y-23209602D01*
X11036581Y-26121405D01*
X10975258Y-26154890D01*
X10905566Y-26149906D01*
X10849633Y-26108034D01*
X10825216Y-26042570D01*
X10824900Y-26033724D01*
X10824900Y-23544210D01*
X10824900Y-23544208D01*
X10790792Y-23416914D01*
X10724900Y-23302786D01*
X10631714Y-23209600D01*
X10555118Y-23165377D01*
X10517587Y-23143708D01*
X10453939Y-23126654D01*
X10390292Y-23109600D01*
X10258508Y-23109600D01*
X10131212Y-23143708D01*
X10017086Y-23209600D01*
X10017083Y-23209602D01*
X9923902Y-23302783D01*
X9923900Y-23302786D01*
X9858008Y-23416912D01*
X9823900Y-23544208D01*
X9823900Y-26999881D01*
X9804215Y-27066920D01*
X9787581Y-27087562D01*
X9780288Y-27094854D01*
X9780285Y-27094858D01*
X9703628Y-27209582D01*
X9703621Y-27209595D01*
X9650821Y-27337067D01*
X9650818Y-27337077D01*
X9623900Y-27472404D01*
X9623900Y-27472407D01*
X9623900Y-27610393D01*
X9623900Y-27610395D01*
X9623899Y-27610395D01*
X500500Y-27610395D01*
X500500Y-16962014D01*
X3700000Y-16962014D01*
X3700000Y-17197985D01*
X3730799Y-17431914D01*
X3791870Y-17659837D01*
X3882160Y-17877819D01*
X3882168Y-17877835D01*
X4000138Y-18082163D01*
X4000148Y-18082178D01*
X4032020Y-18123715D01*
X4878247Y-17277488D01*
X4923978Y-17387890D01*
X4995112Y-17494351D01*
X5085649Y-17584888D01*
X5192110Y-17656022D01*
X5302511Y-17701752D01*
X4456284Y-18547979D01*
X4497822Y-18579851D01*
X4497836Y-18579861D01*
X4702164Y-18697831D01*
X4702180Y-18697839D01*
X4920163Y-18788129D01*
X4920161Y-18788129D01*
X5148085Y-18849200D01*
X5382014Y-18879999D01*
X5382029Y-18880000D01*
X5617971Y-18880000D01*
X5617985Y-18879999D01*
X5851914Y-18849200D01*
X6079837Y-18788129D01*
X6297819Y-18697839D01*
X6297828Y-18697834D01*
X6502171Y-18579855D01*
X6502172Y-18579854D01*
X6543714Y-18547978D01*
X5697488Y-17701752D01*
X5807890Y-17656022D01*
X5914351Y-17584888D01*
X6004888Y-17494351D01*
X6076022Y-17387890D01*
X6121752Y-17277488D01*
X6967978Y-18123714D01*
X6999854Y-18082172D01*
X6999855Y-18082171D01*
X7117834Y-17877828D01*
X7117839Y-17877819D01*
X7208129Y-17659837D01*
X7269200Y-17431914D01*
X7299999Y-17197985D01*
X7300000Y-17197971D01*
X7300000Y-16962028D01*
X7299999Y-16962014D01*
X7269200Y-16728085D01*
X7208129Y-16500162D01*
X7117839Y-16282180D01*
X7117831Y-16282164D01*
X6999861Y-16077836D01*
X6999851Y-16077822D01*
X6967979Y-16036284D01*
X6121752Y-16882510D01*
X6076022Y-16772110D01*
X6004888Y-16665649D01*
X5914351Y-16575112D01*
X5807890Y-16503978D01*
X5697489Y-16458247D01*
X6543715Y-15612020D01*
X6502178Y-15580148D01*
X6502163Y-15580138D01*
X6297835Y-15462168D01*
X6297819Y-15462160D01*
X6079836Y-15371870D01*
X6079838Y-15371870D01*
X5851914Y-15310799D01*
X5617985Y-15280000D01*
X5382014Y-15280000D01*
X5148085Y-15310799D01*
X4920162Y-15371870D01*
X4702180Y-15462160D01*
X4702164Y-15462168D01*
X4497836Y-15580138D01*
X4497823Y-15580147D01*
X4456283Y-15612020D01*
X5302511Y-16458247D01*
X5192110Y-16503978D01*
X5085649Y-16575112D01*
X4995112Y-16665649D01*
X4923978Y-16772110D01*
X4878247Y-16882510D01*
X4032020Y-16036283D01*
X4000147Y-16077823D01*
X4000138Y-16077836D01*
X3882168Y-16282164D01*
X3882160Y-16282180D01*
X3791870Y-16500162D01*
X3730799Y-16728085D01*
X3700000Y-16962014D01*
X500500Y-16962014D01*
X500500Y-10884298D01*
X3799500Y-10884298D01*
X3799500Y-13115701D01*
X3802401Y-13152567D01*
X3802402Y-13152573D01*
X3848254Y-13310393D01*
X3848255Y-13310396D01*
X3931917Y-13451862D01*
X3931923Y-13451870D01*
X4048129Y-13568076D01*
X4048133Y-13568079D01*
X4048135Y-13568081D01*
X4189602Y-13651744D01*
X4231224Y-13663836D01*
X4347426Y-13697597D01*
X4347429Y-13697597D01*
X4347431Y-13697598D01*
X4384306Y-13700500D01*
X4384314Y-13700500D01*
X6615686Y-13700500D01*
X6615694Y-13700500D01*
X6652569Y-13697598D01*
X6652571Y-13697597D01*
X6652573Y-13697597D01*
X6694191Y-13685505D01*
X6810398Y-13651744D01*
X6951865Y-13568081D01*
X7068081Y-13451865D01*
X7151744Y-13310398D01*
X7197598Y-13152569D01*
X7200500Y-13115694D01*
X7200500Y-10884306D01*
X7197598Y-10847431D01*
X7195629Y-10840655D01*
X7151745Y-10689606D01*
X7151744Y-10689603D01*
X7151744Y-10689602D01*
X7068081Y-10548135D01*
X7068079Y-10548133D01*
X7068076Y-10548129D01*
X6951870Y-10431923D01*
X6951862Y-10431917D01*
X6863795Y-10379835D01*
X6810398Y-10348256D01*
X6810397Y-10348255D01*
X6810396Y-10348255D01*
X6810393Y-10348254D01*
X6652573Y-10302402D01*
X6652567Y-10302401D01*
X6615701Y-10299500D01*
X6615694Y-10299500D01*
X4384306Y-10299500D01*
X4384298Y-10299500D01*
X4347432Y-10302401D01*
X4347426Y-10302402D01*
X4189606Y-10348254D01*
X4189603Y-10348255D01*
X4048137Y-10431917D01*
X4048129Y-10431923D01*
X3931923Y-10548129D01*
X3931917Y-10548137D01*
X3848255Y-10689603D01*
X3848254Y-10689606D01*
X3802402Y-10847426D01*
X3802401Y-10847432D01*
X3799500Y-10884298D01*
X500500Y-10884298D01*
X500500Y-8318475D01*
X31849500Y-8318475D01*
X31849500Y-10681517D01*
X31854696Y-10714321D01*
X31864354Y-10775304D01*
X31921950Y-10888342D01*
X31921952Y-10888344D01*
X31921954Y-10888347D01*
X32011652Y-10978045D01*
X32011654Y-10978046D01*
X32011658Y-10978050D01*
X32124694Y-11035645D01*
X32124698Y-11035647D01*
X32218475Y-11050499D01*
X32218481Y-11050500D01*
X33781518Y-11050499D01*
X33875304Y-11035646D01*
X33988342Y-10978050D01*
X34078050Y-10888342D01*
X34135646Y-10775304D01*
X34135646Y-10775302D01*
X34135647Y-10775301D01*
X34149219Y-10689606D01*
X34150500Y-10681519D01*
X34150499Y-10442807D01*
X34170183Y-10375771D01*
X34222987Y-10330016D01*
X34292146Y-10320072D01*
X34355701Y-10349097D01*
X34384984Y-10386515D01*
X34470904Y-10555143D01*
X34586555Y-10714321D01*
X34725678Y-10853444D01*
X34884858Y-10969097D01*
X35060167Y-11058420D01*
X35239999Y-11116850D01*
X35240000Y-11116850D01*
X35240000Y-9904144D01*
X35347007Y-9965925D01*
X35474174Y-10000000D01*
X35605826Y-10000000D01*
X35732993Y-9965925D01*
X35840000Y-9904144D01*
X35840000Y-11116850D01*
X36019832Y-11058420D01*
X36195141Y-10969097D01*
X36354321Y-10853444D01*
X36493444Y-10714321D01*
X36609095Y-10555143D01*
X36698418Y-10379835D01*
X36744378Y-10238387D01*
X36783815Y-10180712D01*
X36848174Y-10153513D01*
X36917020Y-10165428D01*
X36968496Y-10212672D01*
X36980240Y-10238387D01*
X37013787Y-10341636D01*
X37013788Y-10341639D01*
X37043576Y-10400099D01*
X37094478Y-10500000D01*
X37096006Y-10502997D01*
X37202441Y-10649494D01*
X37202445Y-10649499D01*
X37330502Y-10777556D01*
X37461963Y-10873067D01*
X37477006Y-10883996D01*
X37564028Y-10928336D01*
X37638360Y-10966211D01*
X37638363Y-10966212D01*
X37674792Y-10978048D01*
X37810591Y-11022171D01*
X37893429Y-11035291D01*
X37989449Y-11050500D01*
X37989454Y-11050500D01*
X38170551Y-11050500D01*
X38257259Y-11036765D01*
X38349409Y-11022171D01*
X38521639Y-10966211D01*
X38682994Y-10883996D01*
X38778444Y-10814648D01*
X38829498Y-10777556D01*
X38829498Y-10777554D01*
X38829501Y-10777553D01*
X38957553Y-10649501D01*
X39063996Y-10502994D01*
X39146211Y-10341639D01*
X39202171Y-10169409D01*
X39229003Y-10000000D01*
X39230500Y-9990551D01*
X39230500Y-9009448D01*
X39214019Y-8905397D01*
X39202171Y-8830591D01*
X39174191Y-8744476D01*
X39146212Y-8658363D01*
X39146211Y-8658360D01*
X39094661Y-8557190D01*
X39063996Y-8497006D01*
X39026107Y-8444856D01*
X38957558Y-8350505D01*
X38957554Y-8350500D01*
X38829499Y-8222445D01*
X38829494Y-8222441D01*
X38682997Y-8116006D01*
X38682996Y-8116005D01*
X38682994Y-8116004D01*
X38631300Y-8089664D01*
X38521639Y-8033788D01*
X38521636Y-8033787D01*
X38349410Y-7977829D01*
X38170551Y-7949500D01*
X38170546Y-7949500D01*
X37989454Y-7949500D01*
X37989449Y-7949500D01*
X37810589Y-7977829D01*
X37638363Y-8033787D01*
X37638360Y-8033788D01*
X37477002Y-8116006D01*
X37330505Y-8222441D01*
X37330500Y-8222445D01*
X37202445Y-8350500D01*
X37202441Y-8350505D01*
X37096006Y-8497002D01*
X37013788Y-8658360D01*
X37013787Y-8658363D01*
X36980240Y-8761612D01*
X36940802Y-8819288D01*
X36876444Y-8846486D01*
X36807597Y-8834571D01*
X36756122Y-8787327D01*
X36744378Y-8761612D01*
X36698418Y-8620164D01*
X36609095Y-8444856D01*
X36493444Y-8285678D01*
X36354321Y-8146555D01*
X36195143Y-8030904D01*
X36019837Y-7941582D01*
X35840000Y-7883148D01*
X35840000Y-9095855D01*
X35732993Y-9034075D01*
X35605826Y-9000000D01*
X35474174Y-9000000D01*
X35347007Y-9034075D01*
X35240000Y-9095855D01*
X35240000Y-7883148D01*
X35060162Y-7941582D01*
X34884856Y-8030904D01*
X34725678Y-8146555D01*
X34586555Y-8285678D01*
X34470904Y-8444856D01*
X34384984Y-8613485D01*
X34337010Y-8664281D01*
X34269189Y-8681076D01*
X34203054Y-8658539D01*
X34159602Y-8603824D01*
X34150499Y-8557190D01*
X34150499Y-8318482D01*
X34150498Y-8318475D01*
X34135646Y-8224696D01*
X34078050Y-8111658D01*
X34078046Y-8111654D01*
X34078045Y-8111652D01*
X33988347Y-8021954D01*
X33988344Y-8021952D01*
X33988342Y-8021950D01*
X33901750Y-7977829D01*
X33875301Y-7964352D01*
X33781524Y-7949500D01*
X32218482Y-7949500D01*
X32137519Y-7962323D01*
X32124696Y-7964354D01*
X32011658Y-8021950D01*
X32011657Y-8021951D01*
X32011652Y-8021954D01*
X31921954Y-8111652D01*
X31921951Y-8111657D01*
X31864352Y-8224698D01*
X31849500Y-8318475D01*
X500500Y-8318475D01*
X500500Y-3378711D01*
X1649500Y-3378711D01*
X1649500Y-3621288D01*
X1681161Y-3861785D01*
X1743947Y-4096104D01*
X1836773Y-4320205D01*
X1836776Y-4320212D01*
X1958064Y-4530289D01*
X1958066Y-4530292D01*
X1958067Y-4530293D01*
X2105733Y-4722736D01*
X2105739Y-4722743D01*
X2277256Y-4894260D01*
X2277262Y-4894265D01*
X2469711Y-5041936D01*
X2679788Y-5163224D01*
X2903900Y-5256054D01*
X3138211Y-5318838D01*
X3318586Y-5342584D01*
X3378711Y-5350500D01*
X3378712Y-5350500D01*
X3621289Y-5350500D01*
X3669388Y-5344167D01*
X3861789Y-5318838D01*
X4096100Y-5256054D01*
X4320212Y-5163224D01*
X4530289Y-5041936D01*
X4722738Y-4894265D01*
X4894265Y-4722738D01*
X5041936Y-4530289D01*
X5163224Y-4320212D01*
X5256054Y-4096100D01*
X5318838Y-3861789D01*
X5350500Y-3621288D01*
X5350500Y-3378712D01*
X5350500Y-3378711D01*
X104649500Y-3378711D01*
X104649500Y-3621288D01*
X104681161Y-3861785D01*
X104743947Y-4096104D01*
X104836773Y-4320205D01*
X104836776Y-4320212D01*
X104958064Y-4530289D01*
X104958066Y-4530292D01*
X104958067Y-4530293D01*
X105105733Y-4722736D01*
X105105739Y-4722743D01*
X105277256Y-4894260D01*
X105277262Y-4894265D01*
X105469711Y-5041936D01*
X105679788Y-5163224D01*
X105903900Y-5256054D01*
X106138211Y-5318838D01*
X106318586Y-5342584D01*
X106378711Y-5350500D01*
X106378712Y-5350500D01*
X106621289Y-5350500D01*
X106669388Y-5344167D01*
X106861789Y-5318838D01*
X107096100Y-5256054D01*
X107320212Y-5163224D01*
X107530289Y-5041936D01*
X107722738Y-4894265D01*
X107894265Y-4722738D01*
X108041936Y-4530289D01*
X108163224Y-4320212D01*
X108256054Y-4096100D01*
X108318838Y-3861789D01*
X108350500Y-3621288D01*
X108350500Y-3378712D01*
X108318838Y-3138211D01*
X108256054Y-2903900D01*
X108163224Y-2679788D01*
X108041936Y-2469711D01*
X107894265Y-2277262D01*
X107894260Y-2277256D01*
X107722743Y-2105739D01*
X107722736Y-2105733D01*
X107530293Y-1958067D01*
X107530292Y-1958066D01*
X107530289Y-1958064D01*
X107334912Y-1845263D01*
X107320214Y-1836777D01*
X107320205Y-1836773D01*
X107096104Y-1743947D01*
X106861785Y-1681161D01*
X106621289Y-1649500D01*
X106621288Y-1649500D01*
X106378712Y-1649500D01*
X106378711Y-1649500D01*
X106138214Y-1681161D01*
X105903895Y-1743947D01*
X105679794Y-1836773D01*
X105679785Y-1836777D01*
X105469706Y-1958067D01*
X105277263Y-2105733D01*
X105277256Y-2105739D01*
X105105739Y-2277256D01*
X105105733Y-2277263D01*
X104958067Y-2469706D01*
X104836777Y-2679785D01*
X104836773Y-2679794D01*
X104743947Y-2903895D01*
X104681161Y-3138214D01*
X104649500Y-3378711D01*
X5350500Y-3378711D01*
X5318838Y-3138211D01*
X5256054Y-2903900D01*
X5163224Y-2679788D01*
X5041936Y-2469711D01*
X4894265Y-2277262D01*
X4894260Y-2277256D01*
X4722743Y-2105739D01*
X4722736Y-2105733D01*
X4530293Y-1958067D01*
X4530292Y-1958066D01*
X4530289Y-1958064D01*
X4334912Y-1845263D01*
X4320214Y-1836777D01*
X4320205Y-1836773D01*
X4096104Y-1743947D01*
X3861785Y-1681161D01*
X3621289Y-1649500D01*
X3621288Y-1649500D01*
X3378712Y-1649500D01*
X3378711Y-1649500D01*
X3138214Y-1681161D01*
X2903895Y-1743947D01*
X2679794Y-1836773D01*
X2679785Y-1836777D01*
X2469706Y-1958067D01*
X2277263Y-2105733D01*
X2277256Y-2105739D01*
X2105739Y-2277256D01*
X2105733Y-2277263D01*
X1958067Y-2469706D01*
X1836777Y-2679785D01*
X1836773Y-2679794D01*
X1743947Y-2903895D01*
X1681161Y-3138214D01*
X1649500Y-3378711D01*
X500500Y-3378711D01*
X500500Y-3003750D01*
X500726Y-2996263D01*
X518271Y-2706204D01*
X520076Y-2691339D01*
X522194Y-2679785D01*
X571780Y-2409197D01*
X575358Y-2394683D01*
X660700Y-2120806D01*
X665997Y-2106841D01*
X783730Y-1845249D01*
X790675Y-1832016D01*
X939079Y-1586526D01*
X947566Y-1574230D01*
X1124480Y-1348416D01*
X1134395Y-1337225D01*
X1337225Y-1134395D01*
X1348416Y-1124480D01*
X1574230Y-947566D01*
X1586526Y-939079D01*
X1832016Y-790675D01*
X1845249Y-783730D01*
X2106841Y-665997D01*
X2120806Y-660700D01*
X2394683Y-575358D01*
X2409197Y-571780D01*
X2691343Y-520075D01*
X2706200Y-518271D01*
X2996264Y-500726D01*
X3003751Y-500500D01*
X3065892Y-500500D01*
X106934108Y-500500D01*
X106996249Y-500500D01*
X107003736Y-500726D01*
G37*
%TD.AperFunction*%
%TD*%
M02*
